<svg xmlns="http://www.w3.org/2000/svg" xmlns:xlink="http://www.w3.org/1999/xlink" version="1.1" width="256" height="256" viewBox="0 0 256 256"  xml:space="preserve">

<defs>
</defs>
<g style="stroke: black; stroke-width: 5; stroke-dasharray: none; stroke-linecap: butt; stroke-linejoin: miter; stroke-miterlimit: 10; fill: none; fill-rule: nonzero; opacity: 1;" transform="translate(1.4065934065934016 1.4065934065934016) scale(2.81 2.81)" >
	<path d="M 26.396 71.566 c -0.12 0 -0.241 -0.021 -0.358 -0.066 c -0.387 -0.147 -0.642 -0.52 -0.642 -0.934 V 56.329 H 5.474 C 2.456 56.329 0 53.874 0 50.855 V 14.869 c 0 -3.018 2.456 -5.474 5.474 -5.474 h 55.523 c 3.019 0 5.474 2.456 5.474 5.474 v 35.986 c 0 3.019 -2.455 5.474 -5.474 5.474 H 40.521 L 27.14 71.234 C 26.947 71.45 26.674 71.566 26.396 71.566 z M 5.474 11.396 C 3.558 11.396 2 12.954 2 14.869 v 35.986 c 0 1.915 1.558 3.474 3.474 3.474 h 20.922 c 0.552 0 1 0.447 1 1 v 12.626 L 39.33 54.661 c 0.189 -0.211 0.46 -0.332 0.744 -0.332 h 20.923 c 1.915 0 3.474 -1.559 3.474 -3.474 V 14.869 c 0 -1.916 -1.559 -3.474 -3.474 -3.474 H 5.474 z" style="stroke: black; stroke-width: 5; stroke-dasharray: none; stroke-linecap: butt; stroke-linejoin: miter; stroke-miterlimit: 10; fill: rgb(0,0,0); fill-rule: nonzero; opacity: 1;" transform=" matrix(1 0 0 1 0 0) " stroke-linecap="round" />
	<path d="M 68.572 80.604 c -0.278 0 -0.551 -0.116 -0.744 -0.332 L 57.123 68.349 H 37.141 c -0.552 0 -1 -0.447 -1 -1 s 0.448 -1 1 -1 h 20.428 c 0.284 0 0.555 0.121 0.744 0.332 l 9.259 10.313 v -9.646 c 0 -0.553 0.447 -1 1 -1 h 15.954 c 1.915 0 3.474 -1.559 3.474 -3.474 V 35.677 c 0 -1.915 -1.559 -3.473 -3.474 -3.473 H 73.061 c -0.553 0 -1 -0.448 -1 -1 s 0.447 -1 1 -1 h 11.466 c 3.019 0 5.474 2.455 5.474 5.473 v 27.198 c 0 3.019 -2.455 5.474 -5.474 5.474 H 69.572 v 11.256 c 0 0.414 -0.256 0.786 -0.643 0.934 C 68.813 80.583 68.692 80.604 68.572 80.604 z" style="stroke: black; stroke-width: 5; stroke-dasharray: none; stroke-linecap: butt; stroke-linejoin: miter; stroke-miterlimit: 10; fill: rgb(0,0,0); fill-rule: nonzero; opacity: 1;" transform=" matrix(1 0 0 1 0 0) " stroke-linecap="round" />
	<path d="M 42.316 45.274 H 24.154 c -2.639 0 -4.786 -2.147 -4.786 -4.786 V 27.427 c 0 -2.639 2.147 -4.786 4.786 -4.786 h 18.163 c 2.639 0 4.786 2.147 4.786 4.786 v 13.062 C 47.103 43.127 44.956 45.274 42.316 45.274 z M 24.154 24.641 c -1.536 0 -2.786 1.25 -2.786 2.786 v 13.062 c 0 1.536 1.25 2.786 2.786 2.786 h 18.163 c 1.536 0 2.786 -1.25 2.786 -2.786 V 27.427 c 0 -1.536 -1.25 -2.786 -2.786 -2.786 H 24.154 z" style="stroke: black; stroke-width: 5; stroke-dasharray: none; stroke-linecap: butt; stroke-linejoin: miter; stroke-miterlimit: 10; fill: rgb(0,0,0); fill-rule: nonzero; opacity: 1;" transform=" matrix(1 0 0 1 0 0) " stroke-linecap="round" />
	<path d="M 16.453 38.117 c -0.552 0 -1 -0.448 -1 -1 v -7.187 c 0 -0.552 0.448 -1 1 -1 s 1 0.448 1 1 v 7.187 C 17.453 37.669 17.005 38.117 16.453 38.117 z" style="stroke: black; stroke-width: 5; stroke-dasharray: none; stroke-linecap: butt; stroke-linejoin: miter; stroke-miterlimit: 10; fill: rgb(0,0,0); fill-rule: nonzero; opacity: 1;" transform=" matrix(1 0 0 1 0 0) " stroke-linecap="round" />
	<path d="M 50.018 38.117 c -0.553 0 -1 -0.448 -1 -1 v -7.187 c 0 -0.552 0.447 -1 1 -1 s 1 0.448 1 1 v 7.187 C 51.018 37.669 50.57 38.117 50.018 38.117 z" style="stroke: black; stroke-width: 5; stroke-dasharray: none; stroke-linecap: butt; stroke-linejoin: miter; stroke-miterlimit: 10; fill: rgb(0,0,0); fill-rule: nonzero; opacity: 1;" transform=" matrix(1 0 0 1 0 0) " stroke-linecap="round" />
	<path d="M 28.854 33.285 c -0.552 0 -1 -0.448 -1 -1 v -2.63 c 0 -0.552 0.448 -1 1 -1 s 1 0.448 1 1 v 2.63 C 29.854 32.837 29.407 33.285 28.854 33.285 z" style="stroke: black; stroke-width: 5; stroke-dasharray: none; stroke-linecap: butt; stroke-linejoin: miter; stroke-miterlimit: 10; fill: rgb(0,0,0); fill-rule: nonzero; opacity: 1;" transform=" matrix(1 0 0 1 0 0) " stroke-linecap="round" />
	<path d="M 37.616 33.285 c -0.552 0 -1 -0.448 -1 -1 v -2.63 c 0 -0.552 0.448 -1 1 -1 s 1 0.448 1 1 v 2.63 C 38.616 32.837 38.168 33.285 37.616 33.285 z" style="stroke: black; stroke-width: 5; stroke-dasharray: none; stroke-linecap: butt; stroke-linejoin: miter; stroke-miterlimit: 10; fill: rgb(0,0,0); fill-rule: nonzero; opacity: 1;" transform=" matrix(1 0 0 1 0 0) " stroke-linecap="round" />
	<path d="M 33.235 39.754 c -1.676 0 -3.352 -0.612 -4.981 -1.837 c -0.441 -0.332 -0.53 -0.958 -0.198 -1.4 c 0.331 -0.441 0.959 -0.53 1.4 -0.198 c 2.579 1.939 4.982 1.938 7.559 0 c 0.442 -0.332 1.07 -0.243 1.4 0.198 c 0.332 0.442 0.243 1.068 -0.198 1.4 C 36.587 39.142 34.911 39.754 33.235 39.754 z" style="stroke: black; stroke-width: 5; stroke-dasharray: none; stroke-linecap: butt; stroke-linejoin: miter; stroke-miterlimit: 10; fill: rgb(0,0,0); fill-rule: nonzero; opacity: 1;" transform=" matrix(1 0 0 1 0 0) " stroke-linecap="round" />
	<path d="M 33.235 24.641 c -0.552 0 -1 -0.448 -1 -1 v -5.185 c 0 -0.552 0.448 -1 1 -1 s 1 0.448 1 1 v 5.185 C 34.235 24.193 33.788 24.641 33.235 24.641 z" style="stroke: black; stroke-width: 5; stroke-dasharray: none; stroke-linecap: butt; stroke-linejoin: miter; stroke-miterlimit: 10; fill: rgb(0,0,0); fill-rule: nonzero; opacity: 1;" transform=" matrix(1 0 0 1 0 0) " stroke-linecap="round" />
</g>
</svg>