<?xml version="1.0" encoding="utf-8"?>
<!-- Svg Vector Icons : http://www.onlinewebfonts.com/icon -->
<!DOCTYPE svg PUBLIC "-//W3C//DTD SVG 1.1//EN" "http://www.w3.org/Graphics/SVG/1.1/DTD/svg11.dtd">
<svg version="1.1" xmlns="http://www.w3.org/2000/svg" xmlns:xlink="http://www.w3.org/1999/xlink" x="0px" y="0px" stroke="black" fill="none" viewBox="0 0 1000 1000" enable-background="new 0 0 1000 1000" xml:space="preserve">
<metadata> Svg Vector Icons : http://www.onlinewebfonts.com/icon </metadata>
<g style="stroke=black; stroke-width: 70;fill: none; fill-rule: nonzero;"><path d="M965.5,919.1H533.2c-13.5,0-24.5-11-24.5-24.5V693.4c32.3,11.1,107.4,35.3,179.8,45.8v24.5c0,4.5,3.7,8.2,8.2,8.2H803c4.5,0,8.2-3.7,8.2-8.2V739c68.8-10.5,141.6-34.4,178.9-47.5v203C990,908.1,979,919.1,965.5,919.1z M811.1,698.3c0-4.5-3.7-8.2-8.2-8.2H696.7c-4.5,0-8.2,3.7-8.2,8.2v24.4c-73.1-10.9-147.7-36.2-179.8-48V574.6c0-13.5,11-24.5,24.5-24.5h120.2c-3.6-7.5-5.7-14.7-5.7-23.5v-8.2c0-31.6,25.6-54.3,57.2-54.3h89.9c31.6,0,57.2,22.7,57.2,54.3v8.2c0,8.8-2.2,16.1-5.7,23.5h119.2c13.5,0,24.5,11,24.5,24.5v99.8c-37.9,13.1-111.5,37.1-178.9,47.9V698.3z M819.3,508.2c0-9-7.3-16.3-16.3-16.3H696.7c-9,0-16.3,7.3-16.3,16.3v41.9h139V508.2z M587.3,382.4c-7.8,8-14.3,37.9-24,45.5c-9.7,7.5-20.8,14.3-22,25.1c-3.3,30.3-19,53.4-33.2,68.5c-14.6,15.5-59.6,54.2-99.2,54.2c-24,0-60.1-7.3-91.8-34.7c-34.7-30.1-53.4-72.2-54.3-84.9c-1.4-21.1-27-33.2-39.4-55.2c-13.9-24.7-9.1-68.8-9.1-78.7c0-9.8,16.3-24.5,16.3-24.5v-90c0,0,14.9-42.5,49-81.8c52-59.8,185.6-57.1,237.1-8.2c25.5,24.2,16.1,34.6,24.5,49.1c6.3,10.8,25,20.1,30.6,38.8c7.2,23.9-3.9,86.1,5.1,95.1c9.1,9,14.3,13,13.3,13.3S592.6,377,587.3,382.4z M394.2,600.1c36.8,2.1,84-24.5,84-24.5V870H279.8c0,0-127.8-12.1-179.8-24.5C47.8,833,10,812.7,10,812.7s5.3-87.2,32.7-147.2C84,575.1,271.6,518.3,271.6,518.3S319.7,595.9,394.2,600.1z"/></g>
</svg>