<svg xmlns="http://www.w3.org/2000/svg" viewBox="0 0 24 24" fill="#25D366" width="24px" height="24px">
  <path d="M12 0a12 12 0 1 0 12 12A12 12 0 0 0 12 0zm4.75 16.907c-.177.354-.814.71-1.205.826-.388.118-2.298.64-2.67.73-.373.089-.787.089-1.177-.06-.389-.15-2.715-1.21-3.348-1.5-.633-.29-1.146-.22-1.486.06-.34.28-1.035.825-1.426 1.146-.39.322-.663.548-.993.548-.33 0-.6-.27-.958-.63-.36-.36-1.117-1.056-1.526-1.416C2.21 15.056 2 14.4 2 13.71c0-.69.26-1.38.7-1.91 1.498-2.417 4.125-4.416 7.31-4.416 1.07 0 2.146.22 3.118.657.986.438 1.8 1.206 2.358 2.187.147.296.326.67.463.973.07.18.107.294.137.36.03.07.052.097.08.11.03.015.07.022.112-.013.04-.033 1.016-.424 1.983-1.292.21-.177.63-.537.727-.6.097-.06.213-.074.317-.032.086.033.214.167.28.38.06.198.052.385-.12.66zm0 0"/>
</svg>
