<svg xmlns="http://www.w3.org/2000/svg" xmlns:xlink="http://www.w3.org/1999/xlink" version="1.1" width="256" height="256" viewBox="0 0 256 256" xml:space="preserve">
<desc>Created with Fabric.js 1.7.22</desc>
<defs>
</defs>
<g transform="translate(128 128) scale(0.72 0.72)" style="">
	<g style="stroke: none; stroke-width: 0; stroke-dasharray: none; stroke-linecap: butt; stroke-linejoin: miter; stroke-miterlimit: 10; fill: none; fill-rule: nonzero; opacity: 1;" transform="translate(-175.05 -175.05000000000004) scale(3.89 3.89)" >
	<path d="M 29.325 34.893 h -0.011 c -5.584 0 -10.102 4.529 -10.102 10.102 c 0 5.584 4.518 10.112 10.102 10.112 s 10.112 -4.518 10.112 -10.102 S 34.909 34.893 29.325 34.893 z M 33.598 49.289 c -2.376 2.366 -6.212 2.355 -8.578 -0.011 c -2.355 -2.366 -2.355 -6.202 0 -8.567 c 2.366 -2.376 6.202 -2.376 8.578 -0.011 l 0.011 0.011 C 35.985 43.077 35.974 46.923 33.598 49.289 z" style="stroke: none; stroke-width: 1; stroke-dasharray: none; stroke-linecap: butt; stroke-linejoin: miter; stroke-miterlimit: 10; fill: rgb(74,140,255); fill-rule: nonzero; opacity: 1;" transform=" matrix(1 0 0 1 0 0) " stroke-linecap="round" />
	<path d="M 17.188 51.122 l -1.012 -0.053 h -9.1 l 12.137 -12.137 l -0.053 -1.012 c -0.043 -1.63 -1.353 -2.941 -2.984 -2.984 l -1.012 -0.053 H 0 l 0.053 1.012 c 0.075 1.609 1.364 2.909 2.984 2.984 l 1.012 0.053 h 9.1 L 1.012 51.069 l 0.053 1.012 c 0.053 1.62 1.364 2.93 2.984 2.984 l 1.012 0.053 h 15.163 l -0.053 -1.012 C 20.033 52.433 18.85 51.218 17.188 51.122 z" style="stroke: none; stroke-width: 1; stroke-dasharray: none; stroke-linecap: butt; stroke-linejoin: miter; stroke-miterlimit: 10; fill: rgb(74,140,255); fill-rule: nonzero; opacity: 1;" transform=" matrix(1 0 0 1 0 0) " stroke-linecap="round" />
	<path d="M 81.901 34.893 c -2.323 0 -4.529 1.002 -6.063 2.739 c -2.685 -3.048 -7.225 -3.634 -10.592 -1.353 c -0.778 -0.884 -2.547 -1.385 -3.559 -1.385 v 20.225 l 1.012 -0.053 c 1.684 -0.107 2.92 -1.3 2.984 -2.984 l 0.053 -1.012 v -7.076 l 0.053 -1.012 c 0 -0.703 0.181 -1.396 0.501 -2.025 c 1.108 -1.929 3.58 -2.589 5.52 -1.471 c 0.607 0.352 1.119 0.863 1.471 1.471 H 73.27 c 0.33 0.629 0.501 1.321 0.501 2.025 l 0.053 1.012 v 7.076 l 0.053 1.012 c 0.064 1.62 1.353 2.92 2.973 2.984 l 1.012 0.053 V 43.993 l 0.053 -1.012 c 0 -0.714 0.17 -1.407 0.501 -2.035 c 1.119 -1.929 3.602 -2.589 5.53 -1.46 c 0.607 0.352 1.119 0.863 1.471 1.471 c 0.32 0.629 0.49 1.321 0.49 2.025 l 0.053 1.012 v 7.076 l 0.053 1.012 c 0.053 1.62 1.353 2.92 2.973 2.984 L 90 55.118 V 42.981 C 89.989 38.516 86.366 34.893 81.901 34.893 z" style="stroke: none; stroke-width: 1; stroke-dasharray: none; stroke-linecap: butt; stroke-linejoin: miter; stroke-miterlimit: 10; fill: rgb(74,140,255); fill-rule: nonzero; opacity: 1;" transform=" matrix(1 0 0 1 0 0) " stroke-linecap="round" />
	<path d="M 57.702 37.855 c -1.897 -1.897 -4.465 -2.962 -7.15 -2.962 s -5.253 1.066 -7.15 2.962 c -3.943 3.953 -3.943 10.358 0.011 14.3 s 10.358 3.943 14.3 -0.011 C 61.666 48.202 61.655 41.798 57.702 37.855 L 57.702 37.855 z M 54.835 49.289 c -2.376 2.366 -6.212 2.355 -8.578 -0.011 c -2.355 -2.366 -2.355 -6.202 0 -8.567 c 2.366 -2.376 6.202 -2.376 8.578 -0.011 l 0.011 0.011 C 57.222 43.077 57.212 46.923 54.835 49.289 z" style="stroke: none; stroke-width: 1; stroke-dasharray: none; stroke-linecap: butt; stroke-linejoin: miter; stroke-miterlimit: 10; fill: rgb(74,140,255); fill-rule: nonzero; opacity: 1;" transform=" matrix(1 0 0 1 0 0) " stroke-linecap="round" />
</g>
</g>
</svg>