<svg width="225" height="155" viewBox="0 0 225 155" fill="none" xmlns="http://www.w3.org/2000/svg">
<g clip-path="url(#clip0_3840_65505)">
<path d="M109.967 142.74H20.3733C19.6714 142.738 18.9987 142.459 18.5029 141.962C18.007 141.465 17.7285 140.792 17.7285 140.09V14.1467C17.7346 13.4489 18.0158 12.7816 18.511 12.2899C19.0062 11.7982 19.6754 11.5217 20.3733 11.5205H109.967C110.67 11.5205 111.344 11.7996 111.841 12.2965C112.337 12.7934 112.617 13.4673 112.617 14.1699V140.09C112.617 140.793 112.337 141.467 111.841 141.964C111.344 142.461 110.67 142.74 109.967 142.74ZM20.3733 11.6133C19.7022 11.6145 19.059 11.882 18.5849 12.357C18.1108 12.832 17.8445 13.4756 17.8445 14.1467V140.09C17.8445 140.761 18.1108 141.405 18.5849 141.88C19.059 142.355 19.7022 142.622 20.3733 142.624H109.967C110.639 142.622 111.282 142.355 111.757 141.88C112.232 141.405 112.499 140.762 112.501 140.09V14.1467C112.499 13.4752 112.232 12.8315 111.757 12.3567C111.282 11.8818 110.639 11.6145 109.967 11.6133H20.3733Z" fill="#EBEBEB"/>
<path d="M210.338 142.74H120.739C120.037 142.738 119.364 142.459 118.867 141.962C118.371 141.466 118.091 140.793 118.09 140.09V14.1467C118.097 13.4485 118.379 12.7812 118.875 12.2896C119.371 11.798 120.041 11.5217 120.739 11.5205H210.338C211.035 11.5229 211.703 11.8 212.197 12.2915C212.691 12.7831 212.972 13.4497 212.978 14.1467V140.09C212.978 140.791 212.7 141.464 212.205 141.96C211.71 142.457 211.039 142.737 210.338 142.74ZM120.739 11.6133C120.068 11.6145 119.424 11.8818 118.949 12.3567C118.474 12.8315 118.207 13.4752 118.206 14.1467V140.09C118.207 140.762 118.474 141.405 118.949 141.88C119.424 142.355 120.068 142.622 120.739 142.624H210.338C211.009 142.622 211.653 142.355 212.128 141.88C212.603 141.405 212.87 140.762 212.871 140.09V14.1467C212.87 13.4752 212.603 12.8315 212.128 12.3567C211.653 11.8818 211.009 11.6145 210.338 11.6133H120.739Z" fill="#EBEBEB"/>
<path d="M197.506 22.9775H162.094V156.136H197.506V22.9775Z" fill="#E6E6E6"/>
<path d="M199.668 22.9775H164.256V156.136H199.668V22.9775Z" fill="#F5F5F5"/>
<path d="M195.783 152.596V26.5176H168.138V152.596H195.783Z" fill="white"/>
<path d="M195.783 152.596V26.5176H194.15V152.596H195.783Z" fill="#E6E6E6"/>
<path d="M198.065 131.349H165.863V136.1H198.065V131.349Z" fill="#F5F5F5"/>
<path d="M198.065 32.7578H165.863V37.5092H198.065V32.7578Z" fill="#F5F5F5"/>
<path d="M64.9594 22.9775H29.5469V156.136H64.9594V22.9775Z" fill="#E6E6E6"/>
<path d="M67.1234 22.9775H31.7109V156.136H67.1234V22.9775Z" fill="#F5F5F5"/>
<path d="M63.2383 152.596L63.2383 26.5176H35.5932L35.5932 152.596H63.2383Z" fill="white"/>
<path d="M63.2383 152.596L63.2383 26.5176H61.605L61.605 152.596H63.2383Z" fill="#E6E6E6"/>
<path d="M65.518 131.349H33.3164V136.1H65.518V131.349Z" fill="#F5F5F5"/>
<path d="M65.518 32.7578H33.3164V37.5092H65.518V32.7578Z" fill="#F5F5F5"/>
<path d="M81.489 100.479L152.193 100.479V33.1985L81.489 33.1985L81.489 100.479Z" fill="#F5F5F5"/>
<path d="M81.4863 33.2041H79.8066V100.484H81.4863V33.2041Z" fill="#F0F0F0"/>
<path d="M149.412 97.6993V35.9873L84.2758 35.9873V97.6993H149.412Z" fill="#FAFAFA"/>
<path d="M84.2715 66.611C105.75 64.1333 127.233 69.0841 148.712 66.611V65.3721C127.233 67.8453 105.75 62.899 84.2715 65.3721V66.611Z" fill="#F0F0F0"/>
<path d="M149.408 97.6993V35.9873H148.712V97.6993H149.408Z" fill="#F0F0F0"/>
<path d="M63.9142 149.714C63.6884 149.709 63.4685 149.641 63.2791 149.518C63.0897 149.395 62.9383 149.222 62.8419 149.018C62.7456 148.813 62.708 148.586 62.7335 148.362C62.759 148.137 62.8465 147.925 62.9862 147.747C63.673 146.879 62.0026 144.87 60.2347 142.74C56.467 138.212 50.7738 131.363 58.5504 123.508C63.4549 118.552 63.3482 116.501 63.0744 115.847C62.5872 114.687 60.2904 114.427 59.548 114.455C59.2392 114.436 58.9492 114.3 58.7373 114.074C58.5254 113.849 58.4074 113.551 58.4074 113.242C58.4074 112.932 58.5254 112.634 58.7373 112.409C58.9492 112.184 59.2392 112.047 59.548 112.028C60.012 112.028 64.123 112.061 65.3294 114.91C66.3734 117.374 64.7262 120.752 60.295 125.224C54.0682 131.512 58.3509 136.657 62.1232 141.2C64.5406 144.109 66.8235 146.852 64.9072 149.264C64.7886 149.412 64.637 149.53 64.4645 149.608C64.2919 149.686 64.1035 149.723 63.9142 149.714Z" fill="#E0E0E0"/>
<path d="M46.3594 138.777H72.2459L66.5155 163.434H52.0944L46.3594 138.777Z" fill="#F5F5F5"/>
<path d="M46.0889 139.882H72.5369C72.8294 139.881 73.1096 139.764 73.3165 139.557C73.5233 139.35 73.64 139.07 73.6413 138.777C73.64 138.485 73.5231 138.206 73.3162 138C73.1092 137.793 72.829 137.678 72.5369 137.678H46.0889C45.8009 137.684 45.5266 137.802 45.3246 138.008C45.1227 138.213 45.009 138.489 45.0078 138.777C45.0077 139.066 45.1209 139.344 45.323 139.55C45.5251 139.757 45.8001 139.876 46.0889 139.882Z" fill="#EBEBEB"/>
<path d="M68.3972 112.812L43.9398 120.891C43.9398 120.891 35.0774 114.905 41.513 112.214C38.4553 106.994 38.0655 96.8091 47.9162 93.858C57.7669 90.907 57.071 105.291 57.071 105.291C57.071 105.291 69.2185 92.4429 68.671 107.704C70.991 107.068 80.7953 109.393 68.3972 112.812Z" fill="#E0E0E0"/>
<path d="M47.9867 123.869H77.6455C77.6455 123.869 85.4686 118.348 77.2743 118.626C78.903 111.582 74.3187 103.866 63.9668 103.569C53.615 103.272 57.2574 114.756 57.2574 114.756C57.2574 114.756 39.8713 110.613 45.1331 119.169C36.5166 119.591 40.971 121.8 47.9867 123.869Z" fill="#E6E6E6"/>
<path d="M71.6695 125.465L48.3675 126.305C47.7593 126.312 47.1593 126.165 46.6236 125.877C46.088 125.589 45.6343 125.169 45.3051 124.658C44.4235 123.41 44.1915 121.874 47.9174 121.41C46.7249 117.726 49.3604 111.308 58.9931 110.812C68.6257 110.316 63.7955 119.22 63.7955 119.22C63.7955 119.22 78.3697 112.858 73.3956 122.319C75.6321 122.226 83.7011 125.034 71.6695 125.465Z" fill="#E0E0E0"/>
<path d="M73.7318 50.5971C69.9595 50.0681 66.7115 60.2993 69.9595 62.7725C73.2075 65.2456 80.4644 66.5773 86.9465 63.7005C91.6654 61.6171 90.807 56.8611 87.5265 51.5622C84.8817 47.3073 79.0771 42.8019 73.7318 50.5971Z" fill="#263238"/>
<path d="M90.061 73.0684C90.2744 75.6343 90.4322 78.2095 90.5714 80.78C90.7106 83.3506 90.8266 85.9304 90.9287 88.5056L90.8544 88.1066C90.8231 87.994 90.7677 87.8895 90.692 87.8004C90.6642 87.7725 90.692 87.8004 90.692 87.8004C90.7884 87.8953 90.8924 87.9822 91.0029 88.0602C91.3292 88.2896 91.6702 88.4973 92.0237 88.682C92.78 89.081 93.6106 89.4708 94.4551 89.828C95.2996 90.1853 96.1626 90.5472 97.0303 90.8999L99.6426 91.9439L99.1368 93.9484C98.1624 93.8277 97.2205 93.6514 96.2647 93.4844C95.3088 93.3173 94.3669 93.0714 93.4204 92.8162C92.45 92.5587 91.4943 92.2489 90.5575 91.8882C90.0432 91.6874 89.5439 91.4502 89.0634 91.1783C88.7651 91.0147 88.4838 90.822 88.2236 90.6029C88.0544 90.4533 87.8991 90.2886 87.7596 90.1111C87.5304 89.8389 87.3584 89.5232 87.2538 89.1831L87.2074 89.0346L87.1796 88.784C86.9244 86.2181 86.6692 83.6476 86.4696 81.077C86.2701 78.5064 86.052 75.9312 85.9082 73.356L90.061 73.0684Z" fill="#FBC1AF"/>
<path d="M89.7683 69.6162C90.6684 71.5789 91.1603 76.8268 91.2763 84.3389C89.6164 84.7252 88.0691 85.4925 86.7569 86.58L84.7246 74.7805L85.8521 72.8178C86.1524 71.9787 86.6756 71.2373 87.3656 70.6732C88.0556 70.1091 88.8862 69.7437 89.7683 69.6162Z" fill="#FF725E"/>
<path opacity="0.1" d="M89.7683 69.6162C90.6684 71.5789 91.1603 76.8268 91.2763 84.3389C89.6164 84.7252 88.0691 85.4925 86.7569 86.58L84.7246 74.7805L85.8521 72.8178C86.1524 71.9787 86.6756 71.2373 87.3656 70.6732C88.0556 70.1091 88.8862 69.7437 89.7683 69.6162Z" fill="white"/>
<path d="M98.8764 91.6797L102.742 91.4756L100.389 94.5844C100.389 94.5844 97.953 94.2317 97.4102 92.7284L98.8764 91.6797Z" fill="#FBC1AF"/>
<path d="M104.518 94.3477L103.855 95.1319C103.686 95.3327 103.458 95.4737 103.203 95.5339C102.948 95.5941 102.68 95.5703 102.44 95.466L100.389 94.5844L102.741 91.4756L104.286 92.5613C104.426 92.6582 104.543 92.7831 104.631 92.9281C104.719 93.073 104.776 93.2349 104.798 93.4031C104.82 93.5714 104.806 93.7424 104.758 93.9051C104.71 94.0677 104.628 94.2185 104.518 94.3477Z" fill="#FBC1AF"/>
<path d="M89.5893 70.8547C89.6543 73.6387 89.2645 79.4155 87.3064 91.4331H71.7346C71.9944 85.0949 72.3053 81.123 69.2754 68.1125C71.3562 67.6887 73.4653 67.4188 75.5858 67.3051C77.9399 67.1379 80.303 67.1379 82.6571 67.3051C84.1837 67.4443 85.8077 67.6902 87.0512 67.9037C87.7512 68.0242 88.3873 68.3847 88.8505 68.9232C89.3136 69.4617 89.5748 70.1446 89.5893 70.8547Z" fill="#263238"/>
<path d="M77.8313 75.2441C77.8166 75.2451 77.8018 75.2426 77.7881 75.237C77.7745 75.2314 77.7623 75.2227 77.7524 75.2117C76.5507 73.8521 74.3931 70.2886 74.3652 68.015C74.3652 67.9867 74.3765 67.9596 74.3965 67.9396C74.4165 67.9195 74.4436 67.9083 74.472 67.9083C74.4864 67.9077 74.5007 67.91 74.5142 67.9151C74.5277 67.9201 74.54 67.9279 74.5504 67.9379C74.5608 67.9478 74.5691 67.9598 74.5748 67.9731C74.5804 67.9863 74.5833 68.0006 74.5833 68.015C74.5833 70.0009 76.4811 73.3881 77.8313 74.975C78.5617 73.9639 79.4687 73.0931 80.5086 72.4045C80.5204 72.3967 80.5337 72.3915 80.5476 72.3889C80.5615 72.3864 80.5758 72.3866 80.5896 72.3896C80.6034 72.3927 80.6165 72.3984 80.6281 72.4065C80.6397 72.4146 80.6495 72.425 80.6571 72.4369C80.6719 72.4607 80.6773 72.4891 80.6722 72.5166C80.667 72.5441 80.6517 72.5687 80.6292 72.5854C79.5766 73.2858 78.6639 74.1765 77.938 75.2117C77.9303 75.2271 77.9183 75.2401 77.9035 75.2491C77.8888 75.2581 77.8718 75.2628 77.8545 75.2627L77.8313 75.2441Z" fill="white"/>
<path d="M84.2512 75.2446C84.234 75.2443 84.2172 75.2393 84.2026 75.2304C84.1879 75.2214 84.1759 75.2087 84.1677 75.1936C83.4444 74.1577 82.5331 73.2669 81.4811 72.5674C81.4571 72.552 81.4402 72.5277 81.4341 72.4998C81.428 72.472 81.4332 72.4429 81.4486 72.4189C81.464 72.3949 81.4883 72.378 81.5161 72.3719C81.544 72.3658 81.5731 72.371 81.5971 72.3864C82.6371 73.075 83.544 73.9459 84.2744 74.957C85.4762 73.4072 85.1282 69.853 84.3254 67.9506C84.3193 67.9375 84.3159 67.9234 84.3154 67.909C84.3149 67.8945 84.3173 67.8802 84.3225 67.8667C84.3277 67.8533 84.3356 67.8411 84.3457 67.8307C84.3558 67.8204 84.3678 67.8123 84.3811 67.8067C84.4082 67.7959 84.4385 67.7962 84.4654 67.8075C84.4923 67.8188 84.5137 67.8402 84.525 67.867C85.3694 69.8901 85.7128 73.6624 84.344 75.2122C84.332 75.2243 84.3175 75.2336 84.3014 75.2392C84.2853 75.2448 84.2681 75.2467 84.2512 75.2446Z" fill="white"/>
<path d="M76.2846 59.3438C76.7486 61.6174 77.1755 65.7887 75.584 67.306C76.8751 69.394 78.7954 71.0186 81.0685 71.946C84.1123 70.0389 82.6553 67.306 82.6553 67.306C80.1173 66.6981 80.1869 64.8189 80.6277 63.0511L76.2846 59.3438Z" fill="#FBC1AF"/>
<path opacity="0.2" d="M78.0584 60.8564L80.6243 63.0465C80.5183 63.4592 80.4454 63.8797 80.4062 64.304C79.4411 64.1648 78.1094 63.0976 78.0027 62.0814C77.9459 61.6731 77.9648 61.2579 78.0584 60.8564Z" fill="black"/>
<path d="M73.8857 55.1678C74.7765 58.8798 75.0781 60.4528 77.3053 62.0397C80.6601 64.4246 85.0077 62.5037 85.2397 58.6246C85.4485 55.1214 83.9545 49.6601 80.029 48.8203C79.1644 48.631 78.2658 48.6659 77.4185 48.9217C76.5712 49.1774 75.8033 49.6455 75.1878 50.2814C74.5723 50.9174 74.1295 51.7002 73.9016 52.5554C73.6737 53.4106 73.6682 54.3099 73.8857 55.1678Z" fill="#FBC1AF"/>
<path d="M73.9883 51.1542C76.3083 52.4488 84.1731 51.9848 83.0038 49.623C81.8345 47.2612 76.8465 47.8459 73.9883 51.1542Z" fill="#263238"/>
<path d="M75.7278 51.038C77.7555 53.9195 77.1755 57.8913 72.6515 57.9052C68.1275 57.9191 71.3013 50.0311 75.7278 51.038Z" fill="#263238"/>
<path d="M79.0801 57.9189L83.2561 58.4804C83.2561 58.4804 82.7225 59.6821 80.769 59.4084C79.1543 59.1346 79.0801 57.9189 79.0801 57.9189Z" fill="white"/>
<path d="M87.3055 91.4336C87.3055 91.4336 85.9924 120.308 85.7418 132.001C85.4773 144.167 85.3613 172.573 85.3613 172.573H82.2943C82.2943 172.573 77.3944 148.965 78.8468 132.001C76.652 118.977 75.1719 91.4336 75.1719 91.4336H87.3055Z" fill="#FBC1AF"/>
<path d="M83.2358 91.4336C83.2358 91.4336 76.7398 121.505 73.631 132.776C71.311 141.235 55.1453 165.293 55.0293 166.184L52.584 164.838C52.584 164.838 62.031 138.52 66.2395 131.045C66.2395 117.835 71.7333 91.4522 71.7333 91.4522L83.2358 91.4336Z" fill="#FBC1AF"/>
<path d="M80.2936 55.1358C80.3492 55.4421 80.5534 55.6601 80.7576 55.5998C80.9617 55.5395 81.0731 55.2889 81.022 54.9873C80.971 54.6857 80.7622 54.463 80.558 54.5001C80.3539 54.5373 80.2425 54.8296 80.2936 55.1358Z" fill="#263238"/>
<path d="M83.7389 54.5225C83.7946 54.8241 83.9987 55.0468 84.2029 54.9865C84.407 54.9262 84.5184 54.6756 84.4674 54.3694C84.4163 54.0631 84.2075 53.8497 84.0034 53.8822C83.7992 53.9146 83.6878 54.207 83.7389 54.5225Z" fill="#263238"/>
<path d="M83.918 53.9374L84.6093 53.5986C84.6093 53.5986 84.3356 54.2343 83.918 53.9374Z" fill="#263238"/>
<path d="M82.623 55.0703C83.0194 55.7157 83.5018 56.3042 84.0568 56.8196C83.9203 56.9577 83.7554 57.0645 83.5735 57.1326C83.3917 57.2007 83.1972 57.2284 83.0035 57.214L82.623 55.0703Z" fill="#FFB1A6"/>
<path d="M73.3672 57.2789C73.6518 57.9583 74.194 58.4972 74.8752 58.7777C75.78 59.1396 76.3414 58.3554 76.179 57.446C76.0305 56.6293 75.3856 55.4508 74.4344 55.474C74.2265 55.4834 74.0242 55.5444 73.8458 55.6516C73.6675 55.7588 73.5186 55.9087 73.4127 56.0879C73.3068 56.267 73.2471 56.4697 73.2392 56.6776C73.2312 56.8856 73.2752 57.0922 73.3672 57.2789Z" fill="#FBC1AF"/>
<path d="M78.7064 53.6729C78.7537 53.6596 78.7947 53.63 78.8224 53.5894C78.9367 53.3913 79.0964 53.2232 79.2884 53.099C79.4804 52.9748 79.6992 52.8979 79.9267 52.8749C79.9743 52.8725 80.0191 52.8519 80.052 52.8173C80.0848 52.7828 80.1031 52.7369 80.103 52.6893C80.1024 52.6651 80.097 52.6413 80.0871 52.6192C80.0771 52.5972 80.0628 52.5774 80.0451 52.5609C80.0274 52.5445 80.0065 52.5318 79.9838 52.5235C79.9611 52.5153 79.9369 52.5117 79.9128 52.5129C79.6265 52.5375 79.3504 52.6309 79.108 52.7852C78.8656 52.9395 78.6641 53.1502 78.5208 53.3992C78.5079 53.4193 78.4991 53.4417 78.495 53.4652C78.4908 53.4887 78.4913 53.5127 78.4965 53.536C78.5017 53.5593 78.5114 53.5814 78.5251 53.6009C78.5388 53.6204 78.5563 53.637 78.5765 53.6497C78.6159 53.672 78.6617 53.6802 78.7064 53.6729Z" fill="#263238"/>
<path d="M84.4463 52.7037C84.4691 52.7016 84.4913 52.6948 84.5113 52.6836C84.5312 52.6724 84.5486 52.6571 84.5623 52.6387C84.5773 52.6202 84.5885 52.5988 84.5952 52.5759C84.6019 52.553 84.6041 52.529 84.6015 52.5053C84.5989 52.4816 84.5916 52.4586 84.5801 52.4377C84.5686 52.4168 84.5531 52.3984 84.5345 52.3835C84.3128 52.1987 84.0502 52.0695 83.7686 52.0066C83.4869 51.9436 83.1943 51.9488 82.9151 52.0216C82.8757 52.0419 82.8449 52.0756 82.8282 52.1166C82.8115 52.1576 82.81 52.2033 82.824 52.2453C82.838 52.2873 82.8666 52.323 82.9046 52.3458C82.9425 52.3685 82.9874 52.377 83.0311 52.3696C83.2521 52.3145 83.483 52.3127 83.7049 52.3644C83.9267 52.416 84.1331 52.5196 84.3071 52.6665C84.3471 52.6962 84.3969 52.7095 84.4463 52.7037Z" fill="#263238"/>
<path d="M80.4746 54.5494L81.166 54.2061C81.166 54.2061 80.8922 54.8464 80.4746 54.5494Z" fill="#263238"/>
<path d="M87.5288 93.5078L86.8328 132.02C86.8328 132.02 81.9933 132.887 76.2907 129.941C72.9066 128.18 69.0886 127.427 65.2893 127.77C64.0411 104.44 68.1197 97.1038 71.247 93.5264L87.5288 93.5078Z" fill="#263238"/>
<path opacity="0.2" d="M84.5648 117.644L75.9298 111.255L73.1133 106.054L84.5648 117.644Z" fill="black"/>
<path d="M88.1907 89.0576L87.6153 94.4586C83.4857 94.9551 77.4816 94.7741 71.1016 94.4586L71.6073 89.0576C77.6115 89.2618 83.3233 89.336 88.1907 89.0576Z" fill="white"/>
<path d="M75.1653 67.0088C75.1653 67.0088 75.286 97.1688 73.8476 104.463C71.4719 102.231 68.1914 97.0389 68.1914 97.0389C68.1914 97.0389 70.0474 91.1507 70.5624 89.7448C70.2748 87.6243 67.8991 70.0294 68.2424 68.1966C70.632 67.3661 75.1653 67.0088 75.1653 67.0088Z" fill="#FF725E"/>
<path opacity="0.2" d="M75.1653 67.0088C75.1653 67.0088 75.286 97.1688 73.8476 104.463C71.4719 102.231 68.1914 97.0389 68.1914 97.0389C68.1914 97.0389 70.0474 91.1507 70.5624 89.7448C70.2748 87.6243 67.8991 70.0294 68.2424 68.1966C70.632 67.3661 75.1653 67.0088 75.1653 67.0088Z" fill="white"/>
<path d="M70.0206 72.7949C68.8328 74.405 67.6356 76.094 66.4942 77.769C65.3528 79.444 64.2392 81.1469 63.2462 82.873C63.0003 83.3045 62.7822 83.736 62.5456 84.1676C62.4249 84.381 62.3182 84.5991 62.2208 84.8125L61.9377 85.4018C61.9377 85.3322 61.9377 85.244 61.9377 85.244C61.9377 85.244 61.9377 85.3136 61.9377 85.4204C62.0807 85.737 62.2716 86.0296 62.5038 86.288C63.1215 86.9874 63.8017 87.6288 64.5361 88.2044C65.2971 88.8215 66.1277 89.4386 66.9257 90.0047L66.0302 91.8607C64.9887 91.5106 63.9744 91.0841 62.9957 90.5847C61.9631 90.0652 60.9959 89.4251 60.1142 88.6776C59.5823 88.2255 59.1278 87.6894 58.7686 87.0908C58.5304 86.6946 58.3639 86.2595 58.2768 85.8055C58.1706 85.2403 58.2106 84.6573 58.3928 84.1119L58.4299 84.0098V83.9541L58.4716 83.852L58.5505 83.6572L58.7083 83.2674C58.8104 82.9983 58.9171 82.7431 59.0331 82.4925C59.2605 81.9868 59.4971 81.4856 59.743 81.0077C60.7217 79.093 61.8061 77.2341 62.991 75.4397C63.5664 74.5488 64.1649 73.6719 64.7774 72.8088C65.3899 71.9458 66.007 71.0967 66.6798 70.2383L70.0206 72.7949Z" fill="#FBC1AF"/>
<path d="M66.4564 89.8099L70.5906 89.499L68.3077 92.6589C68.3077 92.6589 65.8625 92.3573 65.2871 90.8725L66.4564 89.8099Z" fill="#FBC1AF"/>
<path d="M72.384 92.3805L71.7808 93.1229C71.6134 93.3308 71.3849 93.4808 71.1276 93.5515C70.8702 93.6223 70.5972 93.6103 70.347 93.5173L68.3008 92.6589L70.5837 89.499L72.1009 90.5152C72.2481 90.6142 72.3731 90.7427 72.468 90.8925C72.5629 91.0424 72.6257 91.2103 72.6523 91.3856C72.6789 91.561 72.6688 91.74 72.6226 91.9112C72.5764 92.0825 72.4952 92.2423 72.384 92.3805Z" fill="#FBC1AF"/>
<path d="M83.9004 67.0088C83.9004 67.0088 85.645 78.9986 85.9605 88.5941C86.1508 94.3523 85.1021 101.679 85.2228 104.463C86.745 102.943 87.9223 101.114 88.6749 99.099C88.6749 99.099 89.3802 96.5841 88.5079 89.7448C88.7445 88.0187 89.7885 76.1681 89.9927 70.8368C90.0204 70.1345 89.8046 69.4442 89.3819 68.8828C88.9591 68.3214 88.3553 67.9232 87.6727 67.7558C85.7332 67.2965 83.9004 67.0088 83.9004 67.0088Z" fill="#FF725E"/>
<g opacity="0.2">
<path d="M83.9004 67.0088C83.9004 67.0088 85.645 78.9986 85.9605 88.5941C86.1508 94.3523 85.1021 101.679 85.2228 104.463C86.745 102.943 87.9223 101.114 88.6749 99.099C88.6749 99.099 89.3802 96.5841 88.5079 89.7448C88.7445 88.0187 89.7885 76.1681 89.9927 70.8368C90.0204 70.1345 89.8046 69.4442 89.3819 68.8828C88.9591 68.3214 88.3553 67.9232 87.6727 67.7558C85.7332 67.2965 83.9004 67.0088 83.9004 67.0088Z" fill="white"/>
</g>
<path d="M81.3105 74.7027C81.1435 74.7027 80.9672 74.4799 80.8976 74.1551C80.8234 73.8118 80.8976 73.5195 81.0832 73.4823C81.2688 73.4452 81.4729 73.6819 81.5472 74.0252C81.6021 74.2172 81.5822 74.4228 81.4915 74.6006C81.4582 74.6515 81.4068 74.688 81.3477 74.7027H81.3105ZM81.0043 74.1319C81.0693 74.4289 81.2317 74.5959 81.3291 74.5959C81.3446 74.5923 81.3593 74.5854 81.372 74.5759C81.3848 74.5663 81.3955 74.5542 81.4033 74.5403C81.4729 74.3857 81.4861 74.2117 81.4405 74.0484C81.3801 73.7561 81.2131 73.5844 81.1064 73.5844C80.9997 73.5844 80.9393 73.835 81.0043 74.1273V74.1319Z" fill="white"/>
<path d="M81.8031 77.9598C81.6221 77.9598 81.4644 77.7139 81.4273 77.3798C81.3901 77.0457 81.4968 76.7581 81.6824 76.7349C81.7137 76.7328 81.745 76.7371 81.7745 76.7475C81.804 76.7579 81.8311 76.7741 81.8541 76.7952C81.9916 76.9347 82.074 77.1193 82.0861 77.3149C82.1185 77.5084 82.0771 77.7071 81.9701 77.8717C81.9518 77.8958 81.9288 77.9161 81.9025 77.9312C81.8762 77.9464 81.8471 77.9561 81.817 77.9598H81.8031ZM81.7056 76.8416C81.5989 76.8416 81.5108 77.0643 81.5433 77.3613C81.5757 77.6582 81.7057 77.8253 81.8124 77.8253C81.8281 77.8236 81.8432 77.8185 81.8568 77.8105C81.8704 77.8025 81.8821 77.7917 81.8913 77.7789C81.9766 77.6402 82.0095 77.4757 81.9841 77.3149C81.9797 77.1412 81.9101 76.9756 81.7892 76.8509C81.763 76.8389 81.7338 76.8357 81.7056 76.8416Z" fill="white"/>
<path d="M81.9505 81.1981C81.7649 81.1981 81.6257 80.929 81.6211 80.5903C81.6211 80.2469 81.7557 79.9871 81.9413 79.9824C81.972 79.9826 82.0024 79.9894 82.0304 80.0022C82.0584 80.0149 82.0834 80.0335 82.1037 80.0567C82.2288 80.2055 82.2934 80.396 82.2846 80.5903C82.2958 80.7796 82.24 80.9669 82.1269 81.1192C82.1043 81.1436 82.0771 81.1631 82.0468 81.1767C82.0165 81.1903 81.9837 81.1975 81.9505 81.1981ZM81.7232 80.5903C81.7232 80.8826 81.8438 81.0867 81.9505 81.0914C81.9833 81.0871 82.0131 81.0705 82.0341 81.045C82.1365 80.9131 82.1846 80.7471 82.1686 80.581C82.181 80.4137 82.1296 80.2479 82.0248 80.117C82.0143 80.1048 82.0016 80.0949 81.9872 80.0877C81.9729 80.0805 81.9573 80.0763 81.9413 80.0752C81.8392 80.0752 81.7278 80.2794 81.7278 80.5717L81.7232 80.5903Z" fill="white"/>
<path d="M81.7743 84.3907H81.7465C81.5655 84.3675 81.4495 84.0984 81.482 83.7643C81.5145 83.4256 81.6815 83.1797 81.8625 83.1983C81.9242 83.207 81.9805 83.2384 82.0202 83.2864C82.1239 83.4472 82.1666 83.6397 82.1409 83.8293C82.1318 84.0196 82.0524 84.1998 81.9182 84.335C81.8778 84.3692 81.8271 84.3888 81.7743 84.3907ZM81.5887 83.7736C81.5609 84.0613 81.6583 84.2701 81.7604 84.284C81.7773 84.2851 81.7942 84.2828 81.8101 84.2773C81.8261 84.2717 81.8407 84.2629 81.8532 84.2515C81.9629 84.1338 82.027 83.9808 82.0342 83.82C82.0554 83.6588 82.0211 83.4951 81.9367 83.356C81.916 83.3295 81.8863 83.3113 81.8532 83.305C81.7511 83.305 81.6258 83.4906 81.598 83.769L81.5887 83.7736Z" fill="white"/>
<path d="M81.4927 87.5267C81.3071 87.5035 81.1958 87.2344 81.2283 86.9003C81.2561 86.5755 81.4139 86.3389 81.5902 86.3389C81.621 86.3423 81.6509 86.3518 81.678 86.367C81.7051 86.3821 81.7289 86.4025 81.7479 86.427C81.8529 86.5855 81.8943 86.7777 81.8639 86.9653C81.8586 87.1542 81.7804 87.3337 81.6459 87.4664C81.6037 87.5042 81.5494 87.5256 81.4927 87.5267ZM81.567 86.4502C81.4649 86.4502 81.3396 86.6312 81.3118 86.9142C81.2839 87.2019 81.3767 87.4107 81.4835 87.4246C81.518 87.4246 81.5512 87.4113 81.5763 87.3875C81.685 87.2714 81.7477 87.1196 81.7526 86.9606C81.7797 86.7998 81.7467 86.6346 81.6598 86.4966C81.6502 86.4828 81.6378 86.471 81.6234 86.4623C81.609 86.4535 81.593 86.4478 81.5763 86.4456L81.567 86.4502Z" fill="white"/>
<path opacity="0.2" d="M69.9601 74.8506C69.794 75.9645 69.4965 77.0547 69.0738 78.0986C68.981 77.3051 68.8882 76.5117 68.8047 75.7507L69.9601 74.8506Z" fill="black"/>
<path d="M68.2061 68.1973C66.4801 69.4918 63.014 74.8278 59.3438 81.3795C60.5438 82.3724 61.6885 83.4304 62.7727 84.5486L70.1967 75.1387L70.141 72.8744C70.2758 71.9925 70.1668 71.0905 69.8257 70.2661C69.4847 69.4416 68.9246 68.7262 68.2061 68.1973Z" fill="#FF725E"/>
<path opacity="0.2" d="M68.2061 68.1973C66.4801 69.4918 63.014 74.8278 59.3438 81.3795C60.5438 82.3724 61.6885 83.4304 62.7727 84.5486L70.1967 75.1387L70.141 72.8744C70.2758 71.9925 70.1668 71.0905 69.8257 70.2661C69.4847 69.4416 68.9246 68.7262 68.2061 68.1973Z" fill="white"/>
<path d="M103.472 94.4056H175.48C177.486 94.4364 179.409 95.2143 180.872 96.5872C182.335 97.9602 183.233 99.8295 183.391 101.83L186.222 146.067C186.293 147.021 186.165 147.979 185.846 148.881C185.527 149.783 185.025 150.609 184.371 151.307C183.717 152.004 182.925 152.559 182.046 152.935C181.166 153.311 180.218 153.5 179.262 153.491H107.231C105.229 153.454 103.312 152.673 101.855 151.301C100.397 149.929 99.5012 148.063 99.3425 146.067L96.5121 101.839C96.4394 100.884 96.566 99.9248 96.8837 99.0215C97.2014 98.1183 97.7034 97.291 98.3579 96.5921C99.0123 95.8931 99.8049 95.3378 100.685 94.9615C101.566 94.5851 102.515 94.3958 103.472 94.4056Z" fill="#FF725E"/>
<path opacity="0.3" d="M103.472 94.4056H175.48C177.486 94.4364 179.409 95.2143 180.872 96.5872C182.335 97.9602 183.233 99.8295 183.391 101.83L186.222 146.067C186.293 147.021 186.165 147.979 185.846 148.881C185.527 149.783 185.025 150.609 184.371 151.307C183.717 152.004 182.925 152.559 182.046 152.935C181.166 153.311 180.218 153.5 179.262 153.491H107.231C105.229 153.454 103.312 152.673 101.855 151.301C100.397 149.929 99.5012 148.063 99.3425 146.067L96.5121 101.839C96.4394 100.884 96.566 99.9248 96.8837 99.0215C97.2014 98.1183 97.7034 97.291 98.3579 96.5921C99.0123 95.8931 99.8049 95.3378 100.685 94.9615C101.566 94.5851 102.515 94.3958 103.472 94.4056Z" fill="white"/>
<path d="M107.235 153.505H179.257C181.024 153.521 182.731 152.857 184.022 151.649L140.953 117.685L102.219 151.649C103.619 152.841 105.396 153.498 107.235 153.505Z" fill="#FF725E"/>
<path opacity="0.5" d="M107.235 153.505H179.257C181.024 153.521 182.731 152.857 184.022 151.649L140.953 117.685L102.219 151.649C103.619 152.841 105.396 153.498 107.235 153.505Z" fill="white"/>
<path d="M141.64 128.45L179.303 95.4267C178.141 94.7557 176.822 94.4005 175.48 94.3967H103.472C102.163 94.3877 100.877 94.7444 99.7598 95.4267L141.64 128.45Z" fill="#FF725E"/>
<path d="M167.55 94.5771L165.04 55.2763C164.961 54.1997 164.481 53.192 163.695 52.4522C162.909 51.7125 161.874 51.2946 160.794 51.2812H104.65C105.73 51.2956 106.765 51.7137 107.552 52.4531C108.338 53.1925 108.82 54.1997 108.901 55.2763L111.392 94.2523" fill="white"/>
<path d="M167.551 95.1477C167.402 95.148 167.259 95.0916 167.15 94.9898C167.041 94.8881 166.976 94.7488 166.966 94.6002L164.456 55.2994C164.389 54.3711 163.975 53.5019 163.297 52.8642C162.619 52.2265 161.726 51.8669 160.795 51.8565H107.769C108.265 52.2754 108.672 52.7892 108.966 53.3677C109.26 53.9463 109.435 54.5778 109.481 55.2252L111.973 94.2012C111.983 94.281 111.977 94.3621 111.954 94.4394C111.932 94.5167 111.894 94.5885 111.842 94.6506C111.791 94.7126 111.728 94.7634 111.656 94.8C111.584 94.8365 111.506 94.858 111.426 94.8631C111.345 94.8682 111.265 94.8567 111.189 94.8295C111.113 94.8023 111.044 94.7598 110.985 94.7048C110.926 94.6497 110.88 94.5832 110.848 94.5094C110.816 94.4355 110.799 94.3559 110.799 94.2754L108.312 55.2994C108.245 54.3703 107.83 53.5005 107.151 52.8627C106.472 52.2249 105.578 51.8657 104.646 51.8565C104.5 51.8435 104.363 51.776 104.264 51.6674C104.164 51.5587 104.109 51.4168 104.109 51.2696C104.109 51.1223 104.164 50.9804 104.264 50.8718C104.363 50.7632 104.5 50.6957 104.646 50.6826H160.79C162.022 50.6931 163.205 51.1657 164.105 52.0071C165.005 52.8484 165.555 53.9969 165.648 55.2252L168.163 94.526C168.172 94.6816 168.119 94.8343 168.016 94.9509C167.912 95.0674 167.767 95.1382 167.611 95.1477H167.551Z" fill="#FF725E"/>
<path d="M104.647 51.2678C104.133 51.2624 103.623 51.3641 103.149 51.5664C102.676 51.7687 102.25 52.0671 101.899 52.4428C101.547 52.8184 101.277 53.2631 101.107 53.7486C100.936 54.2341 100.868 54.7497 100.907 55.2628H108.897C108.816 54.1862 108.335 53.179 107.548 52.4396C106.762 51.7002 105.727 51.2821 104.647 51.2678Z" fill="#FF725E"/>
<path d="M108.896 55.8519H100.906C100.756 55.8521 100.612 55.795 100.504 55.6923C100.395 55.5896 100.33 55.4491 100.321 55.2997C100.276 54.7065 100.354 54.1102 100.551 53.5488C100.748 52.9875 101.06 52.4733 101.467 52.039C101.874 51.6048 102.366 51.2599 102.914 51.0265C103.461 50.793 104.051 50.676 104.646 50.6829C105.877 50.6944 107.06 51.1675 107.959 52.0086C108.859 52.8496 109.41 53.9976 109.504 55.2255C109.509 55.3058 109.497 55.3862 109.47 55.4619C109.443 55.5377 109.401 55.6072 109.346 55.6663C109.288 55.7268 109.218 55.7745 109.141 55.8065C109.063 55.8385 108.98 55.8539 108.896 55.8519ZM101.5 54.6733H108.214C108.016 53.8739 107.559 53.1629 106.913 52.6522C106.267 52.1415 105.469 51.86 104.646 51.8522C103.862 51.8373 103.101 52.1201 102.518 52.6436C101.934 53.1671 101.57 53.8924 101.5 54.6733Z" fill="#FF725E"/>
<path d="M160.794 51.2676H104.65C105.73 51.2819 106.765 51.7 107.552 52.4394C108.338 53.1788 108.82 54.186 108.901 55.2626L112.088 105.147L141.64 128.449L168.246 105.453L165.04 55.2533C164.959 54.1784 164.478 53.1729 163.692 52.4351C162.906 51.6973 161.872 51.2808 160.794 51.2676Z" fill="white"/>
<path opacity="0.3" d="M112.084 105.146L141.636 128.458L168.247 105.462L139.53 124.426L112.084 105.146Z" fill="#FF725E"/>
<path opacity="0.3" d="M162.16 82.8382H115.301L115.064 79.1865H161.928L162.16 82.8382Z" fill="#FF725E"/>
<path opacity="0.3" d="M152.508 94.1546H116.019L115.787 90.5029H152.276L152.508 94.1546Z" fill="#FF725E"/>
<path opacity="0.3" d="M163.607 105.472H136.064L135.832 101.815H163.375L163.607 105.472Z" fill="#FF725E"/>
<path opacity="0.3" d="M116.742 105.472H131.488L131.251 101.815H116.51L116.742 105.472Z" fill="#FF725E"/>
<g opacity="0.5">
<path d="M114.629 65.8752L114.43 62.7757H116.03C116.261 62.768 116.49 62.7946 116.713 62.8546C116.871 62.9036 117.011 63.0009 117.112 63.133C117.217 63.2811 117.277 63.457 117.283 63.6387C117.302 63.7849 117.277 63.9333 117.213 64.066C117.149 64.1986 117.048 64.3097 116.921 64.3858C116.819 64.4456 116.708 64.4879 116.592 64.5111C116.682 64.5358 116.768 64.5733 116.847 64.6224C116.97 64.7237 117.075 64.8444 117.158 64.9797L117.682 65.8752H116.597L116.026 64.9472C115.977 64.8578 115.912 64.7777 115.836 64.7106C115.765 64.6613 115.681 64.6353 115.594 64.6363H115.534L115.618 65.8938L114.629 65.8752ZM115.474 64.0192H115.877C115.962 64.0133 116.046 63.9993 116.128 63.9775C116.19 63.9657 116.244 63.9308 116.281 63.88C116.316 63.8264 116.332 63.7628 116.327 63.6991C116.327 63.6546 116.317 63.6107 116.298 63.5706C116.279 63.5305 116.251 63.4951 116.216 63.4671C116.106 63.404 115.98 63.3765 115.854 63.3882H115.432L115.474 64.0192Z" fill="#FF725E"/>
<path d="M117.785 62.7754H120.356L120.397 63.4389H118.783L118.811 63.9307H120.305L120.342 64.5618H118.852L118.889 65.1743H120.546L120.592 65.8749H117.975L117.785 62.7754Z" fill="#FF725E"/>
<path d="M123.098 64.6078L123.957 64.863C123.923 65.074 123.844 65.2751 123.725 65.4523C123.619 65.6093 123.471 65.7332 123.298 65.8096C123.083 65.8968 122.852 65.9379 122.62 65.9302C122.335 65.9394 122.05 65.8888 121.785 65.7818C121.545 65.6683 121.341 65.4899 121.196 65.2667C121.02 64.988 120.919 64.6682 120.904 64.3387C120.874 64.1291 120.888 63.9156 120.946 63.7119C121.003 63.5081 121.103 63.3187 121.238 63.1555C121.386 63.0099 121.564 62.8977 121.759 62.8265C121.954 62.7553 122.163 62.7266 122.37 62.7426C122.696 62.7281 123.019 62.8104 123.298 62.9792C123.549 63.1611 123.738 63.4152 123.841 63.7077L123.01 63.8933C122.984 63.8209 122.948 63.7522 122.904 63.6891C122.846 63.6183 122.775 63.5598 122.695 63.5174C122.612 63.478 122.522 63.4574 122.43 63.4571C122.336 63.4556 122.244 63.4793 122.162 63.5258C122.08 63.5724 122.013 63.64 121.966 63.7216C121.876 63.9107 121.844 64.1221 121.873 64.3294C121.866 64.5815 121.938 64.8296 122.078 65.0394C122.135 65.1043 122.207 65.1552 122.288 65.1882C122.368 65.2211 122.455 65.2353 122.542 65.2296C122.617 65.2358 122.692 65.2253 122.763 65.1988C122.834 65.1724 122.897 65.1306 122.95 65.0765C123.041 64.9365 123.092 64.7746 123.098 64.6078Z" fill="#FF725E"/>
<path d="M124.265 64.3289C124.237 64.1183 124.253 63.9041 124.313 63.7003C124.373 63.4964 124.476 63.3074 124.613 63.1457C124.765 62.998 124.945 62.884 125.144 62.8112C125.342 62.7384 125.553 62.7085 125.764 62.7235C126.209 62.6995 126.646 62.8473 126.985 63.1364C127.294 63.4458 127.47 63.8636 127.476 64.3011C127.508 64.6038 127.465 64.9098 127.351 65.192C127.247 65.4206 127.073 65.6105 126.855 65.7348C126.594 65.874 126.301 65.9412 126.005 65.9297C125.704 65.939 125.405 65.8819 125.129 65.7627C124.885 65.6457 124.679 65.4624 124.535 65.2337C124.368 64.9604 124.276 64.6487 124.265 64.3289ZM125.221 64.3289C125.219 64.571 125.295 64.8073 125.439 65.0017C125.498 65.0664 125.57 65.1181 125.65 65.1532C125.73 65.1884 125.816 65.2064 125.903 65.2059C125.991 65.2116 126.079 65.1964 126.159 65.1618C126.24 65.1271 126.311 65.0738 126.367 65.0064C126.487 64.787 126.53 64.5336 126.488 64.2872C126.493 64.0548 126.415 63.8282 126.27 63.6468C126.207 63.5795 126.131 63.5264 126.046 63.4912C125.961 63.456 125.87 63.4394 125.778 63.4427C125.69 63.4368 125.602 63.4523 125.521 63.4878C125.44 63.5234 125.369 63.5779 125.314 63.6468C125.205 63.8582 125.172 64.1008 125.221 64.3336V64.3289Z" fill="#FF725E"/>
<path d="M127.885 62.7754H129.142L129.75 64.6639L130.112 62.7754H131.374L131.569 65.8749H130.785L130.636 63.5131L130.172 65.8749H129.453L128.697 63.5131L128.85 65.8749H128.066L127.885 62.7754Z" fill="#FF725E"/>
<path d="M131.975 62.7754H133.237L133.84 64.6639L134.202 62.7754H135.487L135.687 65.8749H134.898L134.749 63.5131L134.285 65.8749H133.575L132.819 63.5131L132.972 65.8749H132.188L131.975 62.7754Z" fill="#FF725E"/>
<path d="M136.07 62.7754H138.641L138.683 63.4389H137.073L137.105 63.9307H138.594L138.636 64.5618H137.147L137.184 65.1743H138.84L138.882 65.8749H136.27L136.07 62.7754Z" fill="#FF725E"/>
<path d="M139.199 62.7754H140.127L141.403 64.4922L141.296 62.7754H142.197L142.396 65.8749H141.491L140.225 64.1767L140.331 65.8749H139.431L139.199 62.7754Z" fill="#FF725E"/>
<path d="M142.82 62.7758H144.245C144.479 62.7664 144.713 62.8059 144.932 62.8918C145.11 62.9609 145.269 63.0723 145.396 63.2166C145.519 63.3648 145.613 63.5348 145.674 63.7177C145.737 63.9116 145.776 64.1127 145.79 64.3162C145.815 64.5748 145.793 64.8357 145.725 65.0865C145.669 65.2627 145.57 65.4222 145.437 65.5505C145.324 65.6673 145.181 65.7521 145.024 65.7964C144.84 65.8488 144.65 65.8768 144.458 65.8799H143.034L142.82 62.7758ZM143.836 63.4903L143.943 65.1839H144.175C144.321 65.1947 144.467 65.1708 144.602 65.1143C144.689 65.0618 144.753 64.9792 144.783 64.8823C144.831 64.7072 144.844 64.5242 144.82 64.3441C144.83 64.1032 144.758 63.866 144.616 63.6713C144.543 63.6051 144.457 63.5548 144.364 63.5237C144.27 63.4925 144.171 63.4812 144.073 63.4903H143.836Z" fill="#FF725E"/>
<path d="M148.064 65.346H146.979L146.858 65.8564H145.879L146.849 62.7568H147.893L149.257 65.8564H148.255L148.064 65.346ZM147.823 64.6778L147.41 63.5596L147.141 64.6778H147.823Z" fill="#FF725E"/>
<path d="M148.848 62.7754H151.757L151.808 63.541H150.829L150.982 65.861H150.022L149.873 63.541H148.894L148.848 62.7754Z" fill="#FF725E"/>
<path d="M152.232 62.7754H153.193L153.392 65.8749H152.432L152.232 62.7754Z" fill="#FF725E"/>
<path d="M153.861 64.3292C153.833 64.1186 153.849 63.9044 153.909 63.7005C153.969 63.4967 154.071 63.3077 154.209 63.146C154.36 62.9978 154.54 62.8834 154.739 62.8106C154.937 62.7378 155.149 62.7082 155.36 62.7238C155.803 62.6995 156.239 62.8475 156.576 63.1367C156.887 63.4453 157.065 63.8633 157.072 64.3014C157.104 64.6041 157.061 64.9101 156.947 65.1922C156.842 65.4208 156.669 65.6108 156.45 65.7351C156.19 65.8743 155.897 65.9415 155.601 65.93C155.3 65.9399 155.001 65.8828 154.724 65.763C154.48 65.646 154.275 65.4626 154.13 65.234C153.964 64.9606 153.871 64.649 153.861 64.3292ZM154.817 64.3292C154.814 64.5713 154.891 64.8076 155.035 65.002C155.096 65.0697 155.172 65.1231 155.256 65.1584C155.34 65.1937 155.431 65.21 155.522 65.2062C155.61 65.2118 155.698 65.1967 155.778 65.162C155.859 65.1274 155.93 65.0741 155.986 65.0066C156.106 64.7873 156.149 64.5339 156.107 64.2874C156.11 64.0554 156.033 63.8294 155.889 63.6471C155.826 63.5798 155.75 63.5267 155.665 63.4915C155.58 63.4563 155.489 63.4397 155.397 63.443C155.309 63.4371 155.221 63.4526 155.14 63.4881C155.059 63.5237 154.988 63.5782 154.933 63.6471C154.814 63.8548 154.772 64.0984 154.817 64.3338V64.3292Z" fill="#FF725E"/>
<path d="M157.494 62.7754H158.39L159.666 64.4922L159.559 62.7754H160.459L160.659 65.8749H159.758L158.487 64.1767L158.594 65.8749H157.694L157.494 62.7754Z" fill="#FF725E"/>
<path d="M128.67 67.4756H129.63L129.779 69.7956H131.273L131.324 70.5612H128.869L128.67 67.4756Z" fill="#FF725E"/>
<path d="M131.561 67.4756H134.126L134.168 68.1345H132.563L132.595 68.6263H134.094L134.136 69.262H132.642L132.683 69.8745H134.335L134.382 70.5751H131.774L131.561 67.4756Z" fill="#FF725E"/>
<path d="M134.469 67.4756H137.383L137.434 68.2412H136.455L136.603 70.5612H135.647L135.499 68.2412H134.52L134.469 67.4756Z" fill="#FF725E"/>
<path d="M137.602 67.4756H140.511L140.562 68.2412H139.583L139.736 70.5612H138.775L138.627 68.2412H137.648L137.602 67.4756Z" fill="#FF725E"/>
<path d="M140.943 67.4756H143.514L143.556 68.1345H141.95L141.978 68.6263H143.472L143.509 69.262H142.02L142.057 69.8745H143.713L143.76 70.5751H141.143L140.943 67.4756Z" fill="#FF725E"/>
<path d="M144.301 70.5749L144.102 67.4753H145.693C145.923 67.4666 146.153 67.4916 146.375 67.5496C146.535 67.599 146.675 67.6981 146.774 67.8326C146.882 67.978 146.944 68.1527 146.951 68.3338C146.967 68.4932 146.938 68.654 146.867 68.7978C146.803 68.9232 146.705 69.0279 146.584 69.0993C146.482 69.16 146.371 69.2024 146.255 69.2246C146.347 69.2487 146.435 69.2879 146.514 69.3406C146.574 69.3885 146.629 69.443 146.677 69.503C146.732 69.562 146.781 69.6257 146.825 69.6933L147.345 70.5934H146.264L145.688 69.6654C145.643 69.5734 145.58 69.4913 145.503 69.4241C145.43 69.3792 145.347 69.3551 145.262 69.3545H145.178L145.257 70.612L144.301 70.5749ZM145.146 68.7189H145.549C145.634 68.7122 145.718 68.6982 145.8 68.6771C145.86 68.6638 145.912 68.6292 145.948 68.5797C145.985 68.527 146.002 68.4627 145.995 68.3987C145.995 68.3553 145.985 68.3125 145.967 68.2732C145.948 68.2339 145.921 68.1991 145.888 68.1713C145.779 68.1055 145.653 68.0763 145.526 68.0878H145.104L145.146 68.7189Z" fill="#FF725E"/>
</g>
<path d="M149.226 26.2904H148.762L148.553 23.2744H149.017L149.226 26.2904Z" fill="#FF725E"/>
<path d="M148.858 20.9541H148.394L147.93 14.5602C147.811 12.8952 147.2 11.3029 146.176 9.98518L146.538 9.7207C147.62 11.1154 148.266 12.7992 148.394 14.5602L148.858 20.9541Z" fill="#FF725E"/>
<path d="M92.7012 7.70664H139.458C141.312 7.738 143.089 8.45633 144.443 9.72247C145.797 10.9886 146.634 12.7124 146.79 14.5599L148.437 38.3492C148.511 39.228 148.4 40.1126 148.112 40.9461C147.824 41.7796 147.365 42.5438 146.764 43.1895C146.163 43.8352 145.434 44.3482 144.624 44.6957C143.813 45.0431 142.939 45.2173 142.057 45.2071H138.6L139.203 53.8793L129.919 45.2071H95.2996C93.4454 45.1746 91.6692 44.4553 90.3148 43.1884C88.9605 41.9215 88.1244 40.1972 87.9684 38.3492L86.3027 14.5599C86.2301 13.68 86.3424 12.7947 86.6321 11.9608C86.9219 11.1268 87.3829 10.3627 87.9854 9.71734C88.5879 9.07202 89.3186 8.55979 90.1308 8.21353C90.9429 7.86726 91.8184 7.6946 92.7012 7.70664Z" fill="#FF725E"/>
<path d="M105.02 25.2137H105.108C104.648 25.2071 104.204 25.0434 103.849 24.7497C103.495 24.456 103.251 24.05 103.159 23.599C103.137 23.3316 103.17 23.0625 103.258 22.8088C103.345 22.5551 103.484 22.3225 103.667 22.126C103.85 21.9294 104.071 21.7731 104.318 21.6672C104.564 21.5613 104.83 21.5081 105.099 21.511H105.79L113.33 20.8011C113.026 19.5011 112.8 18.184 112.653 16.8571C112.435 14.6716 113.692 11.9758 115.775 12.9409C116.615 13.3307 116.314 16.0451 116.782 17.1169C117.251 18.1887 121.213 21.3579 122.42 23.6129C122.743 23.7416 123.024 23.9586 123.23 24.2392C123.436 24.5198 123.559 24.8527 123.584 25.1998L124.081 32.3593C124.119 32.8643 124.054 33.3718 123.889 33.8506C123.723 34.3294 123.462 34.7693 123.12 35.1433C122.771 35.5112 122.35 35.8035 121.883 36.0022C121.416 36.2009 120.913 36.3018 120.406 36.2987H107.989C107.557 36.3005 107.136 36.1673 106.783 35.9177C106.43 35.6682 106.164 35.3147 106.022 34.9067C105.93 34.6463 105.903 34.3676 105.942 34.0942C105.98 33.8208 106.085 33.5609 106.245 33.3364C106.406 33.1119 106.619 32.9294 106.865 32.8046C107.111 32.6797 107.384 32.6161 107.66 32.6191H106.073C105.637 32.6126 105.219 32.4443 104.9 32.1467C104.581 31.8492 104.384 31.4437 104.347 31.0091C104.29 30.757 104.291 30.4954 104.35 30.2438C104.409 29.9922 104.524 29.7572 104.686 29.5563C104.849 29.3555 105.055 29.194 105.288 29.084C105.522 28.974 105.778 28.9183 106.036 28.9211H105.192C104.703 28.9132 104.234 28.7282 103.871 28.4006C103.508 28.0729 103.277 27.6247 103.22 27.1393C103.195 26.891 103.224 26.6403 103.304 26.404C103.384 26.1677 103.513 25.9512 103.684 25.7689C103.854 25.5867 104.061 25.4429 104.292 25.3471C104.522 25.2514 104.77 25.2059 105.02 25.2137Z" fill="white"/>
<path d="M127.297 36.3122H129.617C129.796 36.3142 129.973 36.2788 130.137 36.2081C130.301 36.1374 130.448 36.0331 130.569 35.9019C130.69 35.7707 130.782 35.6155 130.84 35.4464C130.897 35.2773 130.919 35.098 130.902 34.9202L130.183 24.5405C130.154 24.1658 129.986 23.8153 129.713 23.5578C129.439 23.3003 129.079 23.1543 128.703 23.1485H126.406C126.227 23.1465 126.05 23.182 125.886 23.2526C125.722 23.3233 125.574 23.4275 125.453 23.5586C125.331 23.6897 125.238 23.8449 125.18 24.014C125.123 24.1831 125.101 24.3624 125.116 24.5405L125.835 34.9202C125.865 35.2915 126.03 35.6388 126.3 35.8956C126.57 36.1525 126.925 36.3008 127.297 36.3122Z" fill="white"/>
</g>
<defs>
<clipPath id="clip0_3840_65505">
<rect width="232" height="232" fill="white" transform="translate(0 -14)"/>
</clipPath>
</defs>
</svg>
