<svg width="206" height="155" viewBox="0 0 206 155" fill="none" xmlns="http://www.w3.org/2000/svg">
<path d="M146.207 147.244C145.549 146.681 144.079 144.892 145.214 142.81C145.628 142.048 146.509 141.671 147.304 141.336C148.126 141.059 148.901 140.658 149.602 140.148C150.844 139.088 151.192 137.328 152.016 135.917C152.968 134.294 154.736 133.077 156.607 133.164C158.751 133.259 160.536 135.01 161.347 137.005C162.159 139.001 162.175 141.216 162.204 143.369C162.204 144.561 162.159 145.906 161.285 146.71C160.478 147.451 159.265 147.459 158.172 147.426L146.464 147.066" fill="#F5F5F5"/>
<path d="M168.602 115.046H137.809L143.356 148.12C143.471 148.809 143.779 149.452 144.244 149.973C144.71 150.494 145.313 150.872 145.985 151.064L146.093 151.093C146.184 151.118 146.275 151.147 146.366 151.163C146.573 151.205 146.784 151.23 146.995 151.238V151.267H147.144H160.868C161.122 151.266 161.374 151.239 161.622 151.188C162.422 151.062 163.159 150.678 163.721 150.096C164.284 149.513 164.641 148.763 164.739 147.959L167.418 125.147L167.538 124.241L168.581 115.211L168.602 115.046ZM162.806 136.16H159.643L159.966 126.559H163.626L162.806 136.16ZM163.932 126.559H166.958L165.832 136.16H163.116L163.932 126.559ZM154.903 146.8L154.712 138.462H159.266L158.976 146.783L154.903 146.8ZM149.984 138.462H154.406L154.596 146.8H150.634L149.984 138.462ZM150.328 146.8H146.602C146.25 144.548 145.774 141.625 145.294 138.462H149.661L150.328 146.8ZM149.806 136.16L149.04 126.543H154.112L154.331 136.143L149.806 136.16ZM154.658 136.16L154.422 126.543H159.643L159.324 136.143L154.658 136.16ZM154.385 124.257L154.178 115.369H160.028L159.734 124.257H154.385ZM154.079 124.257H148.867L148.179 115.369H153.864L154.079 124.257ZM148.573 124.257H143.062L142.516 120.825C141.94 117.228 141.725 115.878 141.605 115.369H147.873L148.573 124.257ZM148.755 126.559L149.5 136.16H144.946C144.793 135.187 144.64 134.202 144.482 133.216C144.126 130.948 143.77 128.683 143.435 126.559H148.755ZM144.64 136.16H141.671L140.061 126.559H143.128C143.584 129.511 144.106 132.811 144.627 136.143L144.64 136.16ZM145.004 138.462C145.455 141.36 145.902 144.191 146.308 146.8H143.456L142.056 138.462H145.004ZM159.291 146.8L159.568 138.462H162.607L161.874 146.783L159.291 146.8ZM160.04 124.257L160.334 115.369H164.582L163.82 124.257H160.04ZM141.328 115.369C141.452 116.011 142.011 119.509 142.764 124.257H139.676L138.181 115.369H141.328ZM164.582 146.8H162.201L162.914 138.462H165.559L164.582 146.8ZM167.227 124.257H164.127L164.888 115.369H168.271L167.227 124.257Z" fill="#E0E0E0"/>
<path d="M47.296 44.9811C47.296 44.9811 47.2257 44.8528 47.1056 44.6127L46.5715 43.5445L44.5595 39.4791C42.829 35.9725 40.3574 30.9548 37.3559 24.8649L37.476 24.9063L9.90356 38.4151L9.95324 38.2702L19.8023 58.4278L19.6698 58.3823L39.5749 48.6988L45.2509 45.9499L46.7827 45.2461L47.1718 45.0639L47.3126 45.0018L47.1884 45.0681L46.7827 45.2461L45.2964 45.9871L39.666 48.7692L19.7568 58.5603L19.6698 58.6059L19.6243 58.5148L9.75866 38.3695L9.70898 38.2702L9.80834 38.2246L37.3973 24.7531L37.476 24.7158L37.5132 24.7945L44.6589 39.4956L46.6212 43.5611L47.1304 44.6251L47.296 44.9811Z" fill="#E0E0E0"/>
<path d="M37.4335 24.8281C37.4307 24.8651 37.4224 24.9014 37.4087 24.9358C37.3838 25.0186 37.3507 25.1221 37.3093 25.2463C37.2141 25.5361 37.0816 25.9335 36.8953 26.4344C36.5351 27.4819 36.0218 28.964 35.3883 30.7897L30.3624 45.1348L30.2216 45.2011H30.1968H30.1637L30.0974 45.1804L29.9649 45.1348L29.7 45.0479L29.1783 44.874L28.1516 44.5097L26.1272 43.8349L22.2977 42.5556L15.8186 40.378L11.455 38.8917L10.2751 38.4777L9.96873 38.3659C9.93201 38.3564 9.89705 38.3411 9.86523 38.3204C9.90217 38.3232 9.93847 38.3315 9.97287 38.3452L10.2875 38.4363L11.484 38.8131L15.8682 40.2331L22.3556 42.3486L26.1893 43.6154L28.2179 44.2903L29.2529 44.6339L29.7786 44.8078L30.0395 44.8947L30.1719 44.9361L30.2382 44.9609H30.2713H30.2961C30.2382 44.9899 30.4369 44.8988 30.1678 45.0313C32.1591 39.4423 33.96 34.3874 35.2683 30.7069L36.8456 26.4055C37.0278 25.9087 37.1768 25.5154 37.2596 25.2338L37.3797 24.9275L37.4335 24.8281Z" fill="#E0E0E0"/>
<path d="M23.4443 42.837C23.5023 42.837 22.7157 46.385 21.6848 50.732C20.6539 55.079 19.768 58.598 19.71 58.5773C19.6521 58.5566 20.4428 55.0293 21.4737 50.6823C22.5045 46.3353 23.3863 42.8204 23.4443 42.837Z" fill="#E0E0E0"/>
<path d="M47.5861 45.1296C47.5613 45.1793 44.2493 43.5564 40.1879 41.503C36.1266 39.4495 32.856 37.7397 32.885 37.6859C32.9139 37.6321 36.2259 39.2549 40.2873 41.3125C44.3486 43.3701 47.6109 45.0758 47.5861 45.1296Z" fill="#E0E0E0"/>
<path d="M183.705 47.3479C183.705 47.3479 183.767 47.2486 183.892 47.0706L184.446 46.2881L186.558 43.3322L194.204 32.6841V32.8083L172.925 17.4365L173.078 17.4116L162.5 32.0175L162.479 31.8809L177.764 43.0009L182.128 46.1887L183.291 47.0416L183.589 47.2652C183.656 47.319 183.693 47.3438 183.693 47.3479L183.593 47.2817L183.295 47.0747L182.136 46.2467L177.76 43.1127L162.376 32.0382L162.289 31.9968L162.347 31.914L172.908 17.2998L172.974 17.2129L173.061 17.275L194.32 32.6799L194.391 32.7296L194.337 32.8L186.595 43.4232C185.672 44.6652 184.939 45.663 184.455 46.3419C184.215 46.669 184.041 46.9215 183.896 47.0954C183.751 47.2693 183.705 47.3479 183.705 47.3479Z" fill="#E0E0E0"/>
<path d="M194.274 32.7397C194.156 32.7678 194.035 32.7886 193.914 32.8018L192.883 32.9467L189.087 33.4311L176.555 34.9587C176.319 34.7849 176.489 34.9049 176.435 34.8635V34.8221V34.7642L176.414 34.6524L176.369 34.4247L176.278 33.9776C176.216 33.6795 176.158 33.3814 176.096 33.0875C175.98 32.4996 175.86 31.92 175.748 31.3487C175.52 30.2102 175.297 29.1089 175.09 28.0615C174.676 25.9915 174.299 24.0871 173.984 22.4974C173.67 20.9076 173.434 19.6449 173.26 18.7382L173.073 17.7156C173.049 17.5967 173.031 17.4764 173.02 17.3555C173.062 17.4697 173.094 17.5875 173.115 17.7074C173.169 17.9558 173.247 18.2953 173.342 18.7217L174.133 22.4477C174.46 24.0374 174.849 25.917 175.284 28.0077C175.495 29.0551 175.723 30.1522 175.955 31.2907C176.071 31.862 176.187 32.4416 176.307 33.0295C176.369 33.3235 176.427 33.6174 176.489 33.9155L176.58 34.3667L176.625 34.5903L176.646 34.7062V34.76V34.8097C176.596 34.7724 176.766 34.9008 176.53 34.7311L189.07 33.2696L192.875 32.8556L193.91 32.7521C194.031 32.7378 194.153 32.7336 194.274 32.7397Z" fill="#E0E0E0"/>
<path d="M175.361 29.0057C175.361 29.0637 172.463 29.7799 168.886 30.6079C165.309 31.4359 162.374 32.0569 162.357 31.9989C162.341 31.941 165.255 31.2247 168.837 30.3967C172.418 29.5687 175.349 28.9477 175.361 29.0057Z" fill="#E0E0E0"/>
<path d="M183.719 47.6181C183.661 47.6181 183.454 44.5918 183.263 40.8534C183.073 37.1149 182.965 34.0803 183.027 34.0762C183.089 34.072 183.288 37.1025 183.479 40.8409C183.669 44.5794 183.777 47.614 183.719 47.6181Z" fill="#E0E0E0"/>
<path d="M141.969 123.176L142.292 123.301L143.211 123.681L146.701 125.139L159.253 130.417L159.141 130.463L169.781 105.345L169.839 105.49L152.596 98.1542L152.724 98.1004L144.999 116.163C144.051 118.37 143.302 120.121 142.78 121.326C142.524 121.918 142.325 122.377 142.184 122.696L142.031 123.052L141.969 123.176C141.969 123.176 141.969 123.135 142.014 123.056C142.06 122.978 142.097 122.858 142.155 122.709L142.722 121.347L144.9 116.184C146.775 111.742 149.429 105.449 152.559 98.0217L152.596 97.9307L152.687 97.9721L169.926 105.275L170.026 105.316L169.98 105.416C165.968 114.851 162.259 123.561 159.299 130.521L159.266 130.599L159.187 130.566L146.618 125.184L143.165 123.694L142.271 123.305L141.969 123.176Z" fill="#E0E0E0"/>
<path d="M159.224 130.502C159.206 130.475 159.192 130.445 159.182 130.415C159.153 130.344 159.12 130.258 159.075 130.154C158.983 129.906 158.855 129.566 158.694 129.14C158.362 128.241 157.895 126.97 157.323 125.414L152.877 113.068C152.993 112.799 152.914 112.994 152.939 112.932H152.968L153.022 112.907L153.129 112.857L153.349 112.758L153.784 112.563L154.641 112.174L156.321 111.416L159.497 109.988L164.879 107.579L168.514 105.972L169.507 105.558L169.768 105.455C169.83 105.43 169.859 105.422 169.859 105.426L169.776 105.476L169.528 105.6L168.551 106.063L164.941 107.719L159.559 110.17L156.388 111.611L154.732 112.369L153.871 112.758L153.457 112.956L153.241 113.052L153.129 113.101L153.076 113.126H153.051C153.072 113.068 152.989 113.263 153.101 112.998C154.81 117.817 156.359 122.18 157.485 125.36C158.031 126.933 158.478 128.212 158.793 129.115C158.938 129.55 159.054 129.889 159.137 130.142C159.17 130.249 159.199 130.336 159.224 130.411C159.228 130.441 159.228 130.472 159.224 130.502Z" fill="#E0E0E0"/>
<path d="M158.624 110.475C158.57 110.5 157.171 107.726 155.503 104.265C153.834 100.804 152.526 98.0058 152.58 97.9768C152.634 97.9478 154.029 100.726 155.697 104.187C157.366 107.648 158.674 110.451 158.624 110.475Z" fill="#E0E0E0"/>
<path d="M141.701 123.251C141.701 123.193 144.707 122.287 148.449 121.227C152.192 120.167 155.251 119.351 155.251 119.413C155.251 119.476 152.246 120.378 148.503 121.438C144.761 122.498 141.718 123.309 141.701 123.251Z" fill="#E0E0E0"/>
<path d="M168.725 -10.7803H44.9434V93.2786H168.725V-10.7803Z" fill="#EBEBEB"/>
<path d="M190.708 151.471C190.708 151.533 150.305 151.579 100.481 151.579C50.6556 151.579 10.2285 151.533 10.2285 151.471C10.2285 151.409 50.6225 151.363 100.481 151.363C150.339 151.363 190.708 151.413 190.708 151.471Z" fill="#263238"/>
<path d="M163.944 104.328C163.944 103.57 163.906 61.8807 163.853 -2.44248L163.944 -2.36382H36.9451L37.0527 -2.47146C37.0527 36.221 37.0527 72.7151 37.0527 104.299L36.9533 104.204L163.964 104.299L36.9533 104.394H36.8457V104.299C36.8457 72.7151 36.8457 36.221 36.8457 -2.47146V-2.5791H36.9658H163.964H164.055V-2.48802C163.998 61.8807 163.944 103.57 163.944 104.328Z" fill="#FAFAFA"/>
<path d="M163.96 -2.44238H36.9492V104.328H163.96V-2.44238Z" fill="#FAFAFA"/>
<path d="M82.8035 4.93066H37.1973V15.3842H82.8035V4.93066Z" fill="#EBEBEB"/>
<path d="M48.6996 13.3682C48.6996 13.3682 48.6996 13.2316 48.6996 12.9832C48.6996 12.7348 48.6996 12.3663 48.6996 11.9316C48.6996 11.0043 48.6747 9.72087 48.654 8.17251L48.741 8.25946H41.1772L41.2848 8.15182V10.847C41.2848 11.7164 41.2848 12.5485 41.2848 13.331L41.1855 13.2316L46.613 13.2813L48.1779 13.3103H48.5919H48.7451C48.5678 13.33 48.3894 13.3383 48.2111 13.3351L46.6668 13.3599L41.1772 13.4096H41.082V13.3682C41.082 12.5775 41.082 11.7453 41.082 10.8842V9.55114C41.082 9.32758 41.082 9.09988 41.082 8.87218V8.16424C40.9868 8.25946 41.2145 8.03175 41.1938 8.05659H48.7575H48.8445V8.14353C48.8445 9.71673 48.8114 11.0167 48.7989 11.9565C48.7989 12.3705 48.7989 12.7265 48.7989 12.9915C48.778 13.12 48.7447 13.2461 48.6996 13.3682Z" fill="#263238"/>
<path d="M48.6988 8.15551C48.6988 8.15551 48.6118 8.27557 48.4297 8.46187C48.2475 8.64817 47.9784 8.90899 47.6431 9.23191C46.9724 9.87775 46.0326 10.7596 44.9893 11.7159C44.6954 11.7159 44.9065 11.7159 44.8403 11.7159H44.8155L44.7658 11.6704L44.6706 11.5793L44.476 11.4013L44.1034 11.0535L43.3954 10.3952L42.1907 9.22777C41.8554 8.90485 41.5863 8.64403 41.4 8.45773C41.297 8.36806 41.2065 8.26502 41.1309 8.15137C41.1309 8.15137 41.2592 8.22589 41.4579 8.39563C41.6566 8.56537 41.9423 8.80963 42.2859 9.11599L43.5031 10.2089L44.2152 10.8589L44.5919 11.2025L44.7865 11.3806L44.8817 11.4716L44.9314 11.513L44.9562 11.5379H44.8237C45.867 10.5774 46.8192 9.71215 47.5189 9.09529C47.8666 8.78893 48.1523 8.54053 48.3469 8.37493C48.453 8.28525 48.5715 8.21135 48.6988 8.15551Z" fill="#263238"/>
<path d="M43.6506 10.4697C43.314 11.0188 42.9168 11.5285 42.4666 11.9891C42.0716 12.498 41.6202 12.9605 41.1211 13.3677C41.4585 12.8204 41.8556 12.3122 42.3051 11.8525C42.7008 11.3429 43.1521 10.8791 43.6506 10.4697Z" fill="#263238"/>
<path d="M48.7478 13.4123C48.2595 12.9775 47.8208 12.4902 47.4395 11.9591C47.0018 11.471 46.6186 10.9365 46.2969 10.3652C46.7858 10.8009 47.2245 11.2896 47.6051 11.8225C48.0433 12.3088 48.4265 12.842 48.7478 13.4123Z" fill="#263238"/>
<path d="M77.5669 9.97385C77.5669 10.036 72.2263 10.0815 65.6437 10.0815C59.0611 10.0815 53.7246 10.036 53.7246 9.97385C53.7246 9.91175 59.0611 9.86621 65.6437 9.86621C72.2263 9.86621 77.5669 9.91589 77.5669 9.97385Z" fill="#263238"/>
<path d="M163.963 51.3652H82.2266V69.2749H163.963V51.3652Z" fill="#FFC235"/>
<g opacity="0.8">
<path d="M163.961 51.3652H82.2246V69.2749H163.961V51.3652Z" fill="white"/>
</g>
<path d="M93.2638 56.9629H88.4159C87.9014 56.9629 87.4844 57.3799 87.4844 57.8944V62.7423C87.4844 63.2568 87.9014 63.6738 88.4159 63.6738H93.2638C93.7783 63.6738 94.1953 63.2568 94.1953 62.7423V57.8944C94.1953 57.3799 93.7783 56.9629 93.2638 56.9629Z" fill="#FFC235"/>
<path d="M90.3305 61.8069C90.2409 61.8069 90.1538 61.7779 90.0821 61.7241L88.7283 60.7057C88.6795 60.6753 88.6376 60.6351 88.6052 60.5876C88.5728 60.5401 88.5507 60.4864 88.5402 60.4299C88.5297 60.3734 88.5311 60.3153 88.5442 60.2593C88.5574 60.2034 88.5821 60.1508 88.6168 60.1049C88.6514 60.059 88.6952 60.0209 88.7454 59.9928C88.7956 59.9648 88.851 59.9475 88.9083 59.9421C88.9655 59.9367 89.0232 59.9433 89.0778 59.9614C89.1323 59.9796 89.1825 60.0089 89.2251 60.0474L90.2808 60.8382L92.4005 58.5363C92.4752 58.4556 92.5788 58.4079 92.6887 58.4036C92.7985 58.3994 92.9056 58.4389 92.9863 58.5136C93.067 58.5882 93.1147 58.6919 93.119 58.8018C93.1233 58.9116 93.0837 59.0187 93.0091 59.0994L90.6369 61.6745C90.5978 61.7166 90.5504 61.7501 90.4976 61.7729C90.4449 61.7958 90.388 61.8073 90.3305 61.8069Z" fill="white"/>
<path d="M163.963 33.3643H82.2266V51.2739H163.963V33.3643Z" fill="#FFC235"/>
<path d="M163.468 51.3401C163.468 51.4022 145.41 51.4477 123.137 51.4477C100.863 51.4477 82.8047 51.4022 82.8047 51.3401C82.8047 51.278 100.859 51.2324 123.137 51.2324C145.414 51.2324 163.468 51.2821 163.468 51.3401Z" fill="#263238"/>
<path d="M164.006 87.168H82.2695V104.328H164.006V87.168Z" fill="#FFC235"/>
<g opacity="0.8">
<path d="M164.008 87.1689H82.2715V104.329H164.008V87.1689Z" fill="white"/>
</g>
<path d="M93.3029 92.7695H88.4549C87.9405 92.7695 87.5234 93.1866 87.5234 93.701V98.549C87.5234 99.0634 87.9405 99.4805 88.4549 99.4805H93.3029C93.8173 99.4805 94.2344 99.0634 94.2344 98.549V93.701C94.2344 93.1866 93.8173 92.7695 93.3029 92.7695Z" fill="#FFC235"/>
<path d="M90.3713 97.6182C90.2817 97.6182 90.1946 97.5891 90.1229 97.5353L88.7691 96.5169C88.6813 96.451 88.6232 96.353 88.6077 96.2443C88.5921 96.1356 88.6204 96.0252 88.6863 95.9373C88.7522 95.8495 88.8503 95.7914 88.959 95.7759C89.0677 95.7603 89.1781 95.7886 89.2659 95.8545L90.3216 96.6494L92.4413 94.3476C92.4768 94.3035 92.521 94.2672 92.5711 94.2408C92.6213 94.2145 92.6763 94.1987 92.7327 94.1945C92.7892 94.1903 92.8459 94.1977 92.8994 94.2162C92.9529 94.2348 93.002 94.2641 93.0437 94.3024C93.0854 94.3407 93.1188 94.3872 93.1418 94.4389C93.1648 94.4906 93.177 94.5465 93.1776 94.6031C93.1782 94.6597 93.1672 94.7158 93.1452 94.768C93.1232 94.8202 93.0908 94.8673 93.0499 94.9065L90.6652 97.4857C90.6276 97.5263 90.5822 97.5589 90.5317 97.5817C90.4812 97.6045 90.4267 97.6169 90.3713 97.6182Z" fill="white"/>
<g opacity="0.8">
<path d="M163.961 33.3643H82.2246V51.2739H163.961V33.3643Z" fill="white"/>
</g>
<path d="M93.2638 38.9629H88.4159C87.9014 38.9629 87.4844 39.3799 87.4844 39.8944V44.7423C87.4844 45.2568 87.9014 45.6738 88.4159 45.6738H93.2638C93.7783 45.6738 94.1953 45.2568 94.1953 44.7423V39.8944C94.1953 39.3799 93.7783 38.9629 93.2638 38.9629Z" fill="#FFC235"/>
<path d="M90.3305 43.8082C90.2409 43.8082 90.1538 43.7792 90.0821 43.7254L88.7283 42.707C88.6795 42.6766 88.6376 42.6364 88.6052 42.5889C88.5728 42.5414 88.5507 42.4877 88.5402 42.4312C88.5297 42.3747 88.5311 42.3166 88.5442 42.2606C88.5574 42.2047 88.5821 42.1521 88.6168 42.1062C88.6514 42.0603 88.6952 42.0221 88.7454 41.9941C88.7956 41.9661 88.851 41.9488 88.9083 41.9434C88.9655 41.938 89.0232 41.9446 89.0778 41.9627C89.1323 41.9809 89.1825 42.0101 89.2251 42.0487L90.2808 42.8395L92.4005 40.5376C92.4747 40.4571 92.5778 40.4093 92.6872 40.4047C92.7966 40.4 92.9034 40.4389 92.9842 40.5128C93.0247 40.5496 93.0575 40.5941 93.0807 40.6437C93.1038 40.6932 93.117 40.7469 93.1193 40.8016C93.1216 40.8562 93.113 40.9108 93.0941 40.9621C93.0752 41.0135 93.0463 41.0606 93.0091 41.1007L90.6369 43.6758C90.5978 43.7179 90.5504 43.7514 90.4976 43.7742C90.4449 43.797 90.388 43.8086 90.3305 43.8082Z" fill="white"/>
<path d="M163.944 104.328C163.944 103.57 163.906 61.8807 163.853 -2.44248L163.944 -2.36382H36.9451L37.0527 -2.47146C37.0527 36.221 37.0527 72.7151 37.0527 104.299L36.9533 104.204L163.964 104.299L36.9533 104.394H36.8457V104.299C36.8457 72.7151 36.8457 36.221 36.8457 -2.47146V-2.5791H36.9658H163.964H164.055V-2.48802C163.998 61.8807 163.944 103.57 163.944 104.328Z" fill="#FFC235"/>
<path d="M37.1973 4.93088C37.1973 4.86878 65.519 4.82324 100.452 4.82324C135.386 4.82324 163.716 4.86878 163.716 4.93088C163.716 4.99298 135.398 5.03852 100.452 5.03852C65.5066 5.03852 37.1973 4.98884 37.1973 4.93088Z" fill="#FFC235"/>
<path d="M41.065 2.46291C41.8149 2.46291 42.4229 1.85495 42.4229 1.10499C42.4229 0.355031 41.8149 -0.25293 41.065 -0.25293C40.315 -0.25293 39.707 0.355031 39.707 1.10499C39.707 1.85495 40.315 2.46291 41.065 2.46291Z" fill="#FFC235"/>
<path d="M44.8403 2.46291C45.5903 2.46291 46.1983 1.85495 46.1983 1.10499C46.1983 0.355031 45.5903 -0.25293 44.8403 -0.25293C44.0904 -0.25293 43.4824 0.355031 43.4824 1.10499C43.4824 1.85495 44.0904 2.46291 44.8403 2.46291Z" fill="#FFC235"/>
<path d="M49.9883 0.145082C50.1781 0.335022 50.3074 0.576982 50.3597 0.840371C50.4121 1.10376 50.3851 1.37675 50.2823 1.62483C50.1795 1.87291 50.0055 2.08494 49.7822 2.23412C49.5589 2.38329 49.2964 2.46291 49.0278 2.46291C48.7593 2.46291 48.4968 2.38329 48.2735 2.23412C48.0502 2.08494 47.8762 1.87291 47.7734 1.62483C47.6706 1.37675 47.6436 1.10376 47.696 0.840371C47.7483 0.576982 47.8775 0.335022 48.0674 0.145082C48.1935 0.0189015 48.3432 -0.0811942 48.508 -0.149487C48.6728 -0.217779 48.8494 -0.25293 49.0278 -0.25293C49.2062 -0.25293 49.3829 -0.217779 49.5477 -0.149487C49.7125 -0.0811942 49.8622 0.0189015 49.9883 0.145082Z" fill="#FFC235"/>
<path d="M53.8189 19.578C53.9165 19.5659 54.0152 19.5659 54.1128 19.578L54.9739 19.5531L58.1286 19.5117H58.17L58.1948 19.5448L59.5859 21.3747L59.6066 21.4037V21.4368C59.6066 22.2648 59.6066 23.1839 59.6066 24.1361V24.2437H58.2321H52.552H52.4609V24.132C52.4609 23.1963 52.4609 22.3642 52.4858 21.648L53.4545 20.1286C53.5631 19.9368 53.6848 19.7528 53.8189 19.578C53.8009 19.6334 53.7759 19.6863 53.7443 19.7353L53.5084 20.1493L52.6141 21.6769V21.6397C52.6141 22.3435 52.6141 23.1756 52.6348 24.1237L52.5437 24.0326H58.2238H59.4948L59.3872 24.1402C59.3872 23.188 59.3872 22.2772 59.3872 21.441L59.4079 21.4989L58.0417 19.6566L58.112 19.6897L54.9905 19.6483H54.1211C54.0184 19.634 53.9173 19.6104 53.8189 19.578Z" fill="#263238"/>
<path d="M59.5126 21.5578C59.3168 21.6105 59.1151 21.6383 58.9123 21.6406C58.5314 21.6737 57.985 21.711 57.335 21.7524L57.4219 21.6613C57.4062 22.0073 57.2928 22.3417 57.0949 22.6259C56.9868 22.782 56.8454 22.9121 56.6809 23.0068C56.4989 23.091 56.3017 23.1375 56.1013 23.1434C55.8878 23.1523 55.6751 23.1138 55.4783 23.0308C55.2814 22.9477 55.1054 22.8222 54.9628 22.6632C54.7254 22.3789 54.5656 22.0381 54.4991 21.6737L54.5902 21.7483C53.9857 21.7483 53.4806 21.7276 53.1287 21.711C52.9433 21.7146 52.7581 21.6937 52.5781 21.6489C52.7589 21.6098 52.9439 21.5931 53.1287 21.5992C53.4806 21.5992 53.9857 21.5702 54.5902 21.5578H54.6481V21.6365C54.7185 21.9604 54.8678 22.2619 55.0828 22.5142C55.205 22.651 55.356 22.7592 55.5249 22.8307C55.6938 22.9023 55.8765 22.9356 56.0599 22.9282C56.229 22.9275 56.3958 22.8893 56.5484 22.8164C56.692 22.7421 56.8166 22.6359 56.9127 22.5059C57.0884 22.2552 57.1942 21.9623 57.2191 21.6572V21.5702H57.2977C57.9518 21.5495 58.4983 21.5371 58.8833 21.533C59.0933 21.5145 59.3048 21.5229 59.5126 21.5578Z" fill="#263238"/>
<path d="M75.0738 19.8059C75.1892 19.7798 75.3075 19.7687 75.4257 19.7728V19.839C74.5977 19.8804 72.0351 19.9135 69.0295 19.9135C67.1665 19.9135 65.4773 19.9135 64.256 19.8804L62.8112 19.8473C62.6335 19.8532 62.4558 19.8394 62.2812 19.8059C62.4558 19.7724 62.6335 19.7585 62.8112 19.7645L64.256 19.7314C65.4773 19.7107 67.154 19.6982 69.0295 19.6982C72.0351 19.6982 74.5812 19.7314 75.4257 19.7728V19.839C75.3075 19.8458 75.1888 19.8347 75.0738 19.8059Z" fill="#263238"/>
<path d="M75.0738 22.5178C75.1888 22.489 75.3075 22.4779 75.4257 22.4847V22.5509C74.5977 22.5923 72.0351 22.6254 69.0295 22.6254C67.1665 22.6254 65.4773 22.6254 64.256 22.5923L62.8112 22.5592C62.6336 22.5625 62.4561 22.5486 62.2812 22.5178C62.4558 22.4839 62.6334 22.4687 62.8112 22.4723L64.256 22.4391C65.4773 22.4391 67.154 22.4102 69.0295 22.4102C72.0351 22.4102 74.5812 22.4391 75.4257 22.4847V22.5509C75.3076 22.5522 75.1897 22.5411 75.0738 22.5178Z" fill="#263238"/>
<path d="M75.0738 25.2258C75.1892 25.1998 75.3075 25.1886 75.4257 25.1927V25.2589C74.5977 25.3045 72.0351 25.3334 69.0295 25.3334C67.1665 25.3334 65.4773 25.3334 64.256 25.3045L62.8112 25.2672C62.6335 25.2732 62.4558 25.2593 62.2812 25.2258C62.4561 25.195 62.6336 25.1811 62.8112 25.1844L64.256 25.1513C65.4773 25.1306 67.154 25.1182 69.0295 25.1182C72.0351 25.1182 74.5812 25.1513 75.4257 25.1927V25.2589C75.3075 25.2657 75.1888 25.2546 75.0738 25.2258Z" fill="#263238"/>
<path d="M53.8189 38.9824C53.9156 38.963 54.0142 38.9547 54.1128 38.9576L54.9739 38.9369L58.1286 38.8955H58.17L58.1948 38.9286L59.5859 40.7585L59.6066 40.7875V40.8206C59.6066 41.6486 59.6066 42.5677 59.6066 43.5199V43.6275H58.2321H52.552H52.4609V43.5364C52.4609 42.6008 52.4609 41.7687 52.4858 41.0524V41.0317L53.4545 39.5124C53.5605 39.3337 53.678 39.1622 53.8064 38.999C53.7885 39.0544 53.7634 39.1073 53.7319 39.1563L53.4959 39.5703L52.6183 41.1063V41.069C52.6183 41.7728 52.6183 42.6049 52.639 43.553L52.5479 43.4619H58.228H59.4989L59.3913 43.5696C59.3913 42.6174 59.3913 41.7066 59.3913 40.8703L59.412 40.9282L58.0458 39.0859L58.1162 39.1191L54.9946 39.0777H54.1252C54.0204 39.0555 53.9178 39.0236 53.8189 38.9824Z" fill="#263238"/>
<path d="M59.5126 40.9491C59.3168 41.0018 59.1151 41.0296 58.9123 41.0319C58.5314 41.065 57.985 41.1023 57.335 41.1437L57.4219 41.0526C57.4062 41.3985 57.2928 41.733 57.0949 42.0172C56.9868 42.1733 56.8454 42.3034 56.6809 42.3981C56.4989 42.4822 56.3017 42.5287 56.1013 42.5347C55.8878 42.5435 55.6751 42.505 55.4783 42.422C55.2814 42.339 55.1054 42.2135 54.9628 42.0545C54.7254 41.7702 54.5656 41.4293 54.4991 41.065L54.5902 41.1395C53.9857 41.1395 53.4806 41.1188 53.1287 41.1023C52.9436 41.1086 52.7585 41.0905 52.5781 41.0484C52.7589 41.009 52.9437 40.9909 53.1287 40.9946L54.5902 40.9574H54.6481V41.036C54.7185 41.3599 54.8678 41.6614 55.0828 41.9137C55.205 42.0506 55.356 42.1587 55.5249 42.2303C55.6938 42.3019 55.8765 42.3351 56.0599 42.3277C56.229 42.327 56.3958 42.2889 56.5484 42.2159C56.692 42.1417 56.8166 42.0354 56.9127 41.9054C57.0884 41.6548 57.1942 41.3618 57.2191 41.0567V40.9698H57.2977C57.9518 40.9698 58.4983 40.9367 58.8833 40.9325C59.093 40.9113 59.3044 40.9169 59.5126 40.9491Z" fill="#263238"/>
<path d="M75.0738 39.1975C75.1892 39.1714 75.3075 39.1603 75.4257 39.1644V39.2306C74.5977 39.272 72.0351 39.3051 69.0295 39.3051C67.1665 39.3051 65.4773 39.3051 64.256 39.272L62.8112 39.2389C62.6335 39.2448 62.4558 39.231 62.2812 39.1975C62.4558 39.164 62.6335 39.1501 62.8112 39.1561L64.256 39.123C65.4773 39.1023 67.154 39.0898 69.0295 39.0898C72.0351 39.0898 74.5812 39.123 75.4257 39.1644V39.2306C75.3075 39.2347 75.1892 39.2235 75.0738 39.1975Z" fill="#263238"/>
<path d="M75.0738 41.9089C75.1888 41.8801 75.3075 41.8689 75.4257 41.8758V41.9337C74.5977 41.9751 72.0351 42.0082 69.0295 42.0082C67.1665 42.0082 65.4773 42.0082 64.256 41.9751L62.8112 41.942C62.6336 41.9453 62.4561 41.9314 62.2812 41.9006C62.4558 41.8667 62.6334 41.8515 62.8112 41.8551L64.256 41.8219C65.4773 41.8012 67.154 41.793 69.0295 41.793C72.0351 41.793 74.5812 41.8219 75.4257 41.8675V41.9337C75.3079 41.9378 75.19 41.9295 75.0738 41.9089Z" fill="#263238"/>
<path d="M75.0738 44.6164C75.1892 44.5904 75.3075 44.5792 75.4257 44.5833V44.6495C74.5977 44.6951 72.0351 44.7241 69.0295 44.7241C67.1665 44.7241 65.4773 44.7241 64.256 44.6951L62.8112 44.6578C62.6335 44.6638 62.4558 44.6499 62.2812 44.6164C62.4561 44.5856 62.6336 44.5717 62.8112 44.575L64.256 44.5419C65.4773 44.5212 67.154 44.5088 69.0295 44.5088C72.0351 44.5088 74.5812 44.5419 75.4257 44.5833V44.6495C75.3075 44.6564 75.1888 44.6452 75.0738 44.6164Z" fill="#263238"/>
<path d="M53.8189 58.3741C53.9156 58.3546 54.0142 58.3463 54.1128 58.3492L54.9739 58.3285L58.1286 58.2871H58.17L58.1948 58.3202L59.5859 60.1501L59.6066 60.1791V60.2122C59.6066 61.0402 59.6066 61.9593 59.6066 62.9115V63.0191H58.2321H52.552H52.4609V62.9281C52.4609 61.9924 52.4609 61.1603 52.4858 60.4441L53.4545 58.9247C53.5605 58.746 53.678 58.5746 53.8064 58.4113C53.7885 58.4667 53.7634 58.5196 53.7319 58.5686L53.4959 58.9826L52.6017 60.5103V60.473C52.6017 61.1768 52.6017 62.009 52.6224 62.957L52.5313 62.8659H58.2114H59.4824L59.3747 62.9736C59.3747 62.0214 59.3747 61.1106 59.3747 60.2743L59.3954 60.3323L58.0292 58.49L58.0996 58.5231L54.9781 58.4817H54.1087C54.009 58.4545 53.9121 58.4185 53.8189 58.3741Z" fill="#263238"/>
<path d="M59.5126 60.3417C59.3168 60.3944 59.1151 60.4222 58.9123 60.4245C58.5314 60.4576 57.985 60.4948 57.335 60.5362L57.4219 60.4452C57.4062 60.7911 57.2928 61.1256 57.0949 61.4098C56.9868 61.5659 56.8454 61.696 56.6809 61.7907C56.4993 61.8755 56.3017 61.9206 56.1013 61.9231C55.888 61.9336 55.6751 61.8963 55.4781 61.814C55.2811 61.7316 55.1051 61.6062 54.9628 61.447C54.7254 61.1628 54.5656 60.8219 54.4991 60.4576L54.5902 60.5321C53.9857 60.5321 53.4806 60.5321 53.1287 60.4948C52.9436 60.5012 52.7585 60.4831 52.5781 60.441C52.7589 60.4015 52.9437 60.3835 53.1287 60.3872L54.5902 60.3499H54.6481V60.4286C54.7185 60.7525 54.8678 61.054 55.0828 61.3063C55.205 61.4432 55.356 61.5513 55.5249 61.6229C55.6938 61.6945 55.8765 61.7277 56.0599 61.7203C56.229 61.7196 56.3958 61.6814 56.5484 61.6085C56.692 61.5343 56.8166 61.428 56.9127 61.298C57.0884 61.0473 57.1942 60.7544 57.2191 60.4493V60.3624H57.2977C57.9518 60.3375 58.4983 60.3292 58.8833 60.3251C59.093 60.3039 59.3044 60.3095 59.5126 60.3417Z" fill="#263238"/>
<path d="M75.0738 58.5901C75.1892 58.564 75.3075 58.5529 75.4257 58.5569V58.6232C74.5977 58.6646 72.0351 58.6977 69.0295 58.6977C67.1665 58.6977 65.4773 58.6977 64.256 58.6646L62.8112 58.6315C62.6335 58.6374 62.4558 58.6235 62.2812 58.5901C62.4558 58.5566 62.6335 58.5427 62.8112 58.5487L64.256 58.5155C65.4773 58.4948 67.154 58.4824 69.0295 58.4824C72.0351 58.4824 74.5812 58.5155 75.4257 58.5569V58.6232C75.3075 58.6272 75.1892 58.6161 75.0738 58.5901Z" fill="#263238"/>
<path d="M75.0738 61.301C75.1888 61.2722 75.3075 61.2611 75.4257 61.2679V61.3341C74.5977 61.3755 72.0351 61.4086 69.0295 61.4086C67.1665 61.4086 65.4773 61.4086 64.256 61.3755L62.8112 61.3424C62.6336 61.3457 62.4561 61.3318 62.2812 61.301C62.4558 61.2671 62.6334 61.2518 62.8112 61.2555L64.256 61.2223C65.4773 61.2016 67.154 61.1934 69.0295 61.1934C72.0351 61.1934 74.5812 61.2223 75.4257 61.2679V61.3341C75.3076 61.3354 75.1897 61.3243 75.0738 61.301Z" fill="#263238"/>
<path d="M75.0738 64.009C75.1892 63.983 75.3075 63.9718 75.4257 63.9759V64.0421C74.5977 64.0877 72.0351 64.1166 69.0295 64.1166C67.1665 64.1166 65.4773 64.1166 64.256 64.0877L62.8112 64.0504C62.6335 64.0564 62.4558 64.0425 62.2812 64.009C62.4561 63.9782 62.6336 63.9643 62.8112 63.9676L64.256 63.9345C65.4773 63.9345 67.154 63.9014 69.0295 63.9014C72.0351 63.9014 74.5812 63.9345 75.4257 63.9759V64.0421C75.3075 64.0489 75.1888 64.0378 75.0738 64.009Z" fill="#263238"/>
<path d="M157.369 45.8875H154.214C154.049 45.8902 153.885 45.8601 153.732 45.799C153.579 45.7378 153.44 45.6467 153.322 45.5311C153.205 45.4155 153.111 45.2777 153.048 45.1256C152.984 44.9736 152.951 44.8104 152.951 44.6455V39.3877H153.365V44.6289C153.365 44.7394 153.387 44.8488 153.43 44.9506C153.473 45.0525 153.536 45.1447 153.615 45.2219C153.694 45.299 153.788 45.3596 153.891 45.4C153.994 45.4403 154.103 45.4597 154.214 45.4569H157.369C157.588 45.4569 157.799 45.3697 157.954 45.2144C158.109 45.0591 158.197 44.8485 158.197 44.6289V39.5699H158.611V44.6289C158.613 44.7934 158.582 44.9567 158.521 45.1093C158.459 45.2619 158.368 45.4008 158.253 45.5179C158.137 45.635 157.999 45.7279 157.848 45.7914C157.696 45.8548 157.533 45.8875 157.369 45.8875Z" fill="#FFC235"/>
<path d="M159.149 39.417H152.434V39.831H159.149V39.417Z" fill="#FFC235"/>
<path d="M154.572 39.6245H154.158V39.1649C154.158 38.9453 154.245 38.7347 154.401 38.5794C154.556 38.4241 154.767 38.3369 154.986 38.3369H156.642C156.862 38.3369 157.072 38.4241 157.228 38.5794C157.383 38.7347 157.47 38.9453 157.47 39.1649V39.5334H157.056V39.1649C157.056 39.0551 157.013 38.9498 156.935 38.8722C156.857 38.7945 156.752 38.7509 156.642 38.7509H154.986C154.876 38.7509 154.771 38.7945 154.693 38.8722C154.616 38.9498 154.572 39.0551 154.572 39.1649V39.6245Z" fill="#FFC235"/>
<path d="M154.837 44.3395C154.731 43.7524 154.695 43.1548 154.73 42.5593C154.695 41.9651 154.731 41.3689 154.837 40.7832C154.946 41.3686 154.982 41.9651 154.945 42.5593C154.982 43.1548 154.946 43.7527 154.837 44.3395Z" fill="#FFC235"/>
<path d="M155.81 44.3395C155.704 43.7524 155.668 43.1548 155.702 42.5593C155.668 41.9651 155.704 41.3689 155.81 40.7832C155.918 41.3686 155.955 41.9651 155.918 42.5593C155.955 43.1548 155.919 43.7527 155.81 44.3395Z" fill="#FFC235"/>
<path d="M156.79 44.3395C156.684 43.7524 156.648 43.1548 156.683 42.5593C156.648 41.9651 156.684 41.3689 156.79 40.7832C156.899 41.3686 156.935 41.9651 156.898 42.5593C156.935 43.1548 156.899 43.7527 156.79 44.3395Z" fill="#FFC235"/>
<path d="M157.369 62.8614H154.214C153.879 62.8603 153.559 62.7269 153.322 62.4903C153.086 62.2538 152.952 61.9332 152.951 61.5987V56.3574H153.365V61.5987C153.365 61.8238 153.455 62.0396 153.614 62.1988C153.773 62.3579 153.989 62.4474 154.214 62.4474H157.369C157.59 62.442 157.801 62.3502 157.955 62.1916C158.11 62.033 158.197 61.8202 158.197 61.5987V56.5396H158.611V61.5987C158.613 61.7635 158.583 61.9272 158.522 62.0803C158.461 62.2334 158.37 62.3728 158.254 62.4903C158.139 62.6078 158.001 62.7012 157.849 62.7649C157.697 62.8286 157.533 62.8614 157.369 62.8614Z" fill="#FFC235"/>
<path d="M159.149 56.3867H152.434V56.8007H159.149V56.3867Z" fill="#FFC235"/>
<path d="M154.572 56.5932H154.158V56.1337C154.158 55.9141 154.245 55.7035 154.401 55.5482C154.556 55.3929 154.767 55.3057 154.986 55.3057H156.642C156.862 55.3057 157.072 55.3929 157.228 55.5482C157.383 55.7035 157.47 55.9141 157.47 56.1337V56.5021H157.056V56.1337C157.056 56.0239 157.013 55.9186 156.935 55.8409C156.857 55.7633 156.752 55.7197 156.642 55.7197H154.986C154.876 55.7197 154.771 55.7633 154.693 55.8409C154.616 55.9186 154.572 56.0239 154.572 56.1337V56.5932Z" fill="#FFC235"/>
<path d="M154.836 61.3092C154.693 60.1281 154.693 58.934 154.836 57.7529C154.98 58.934 154.98 60.1281 154.836 61.3092Z" fill="#FFC235"/>
<path d="M155.809 61.3092C155.665 60.1281 155.665 58.934 155.809 57.7529C155.952 58.934 155.952 60.1281 155.809 61.3092Z" fill="#FFC235"/>
<path d="M156.789 61.3092C156.646 60.1281 156.646 58.934 156.789 57.7529C156.933 58.934 156.933 60.1281 156.789 61.3092Z" fill="#FFC235"/>
<path d="M157.369 100.167H154.214C154.049 100.17 153.885 100.139 153.732 100.078C153.579 100.017 153.44 99.9261 153.322 99.8105C153.205 99.6949 153.111 99.557 153.048 99.405C152.984 99.2529 152.951 99.0897 152.951 98.9248V93.6836H153.365V98.9248C153.365 99.0353 153.387 99.1447 153.43 99.2466C153.473 99.3484 153.536 99.4406 153.615 99.5178C153.694 99.5949 153.788 99.6555 153.891 99.6958C153.994 99.7362 154.103 99.7556 154.214 99.7528H157.369C157.588 99.7528 157.799 99.6656 157.954 99.5103C158.109 99.355 158.197 99.1444 158.197 98.9248V93.8492H158.611V98.9083C158.613 99.0728 158.582 99.236 158.521 99.3887C158.459 99.5413 158.368 99.6801 158.253 99.7972C158.137 99.9143 157.999 100.007 157.848 100.071C157.696 100.134 157.533 100.167 157.369 100.167Z" fill="#FFC235"/>
<path d="M159.149 93.6973H152.434V94.1113H159.149V93.6973Z" fill="#FFC235"/>
<path d="M154.572 93.903H154.158V93.4393C154.158 93.2197 154.245 93.0091 154.401 92.8538C154.556 92.6986 154.767 92.6113 154.986 92.6113H156.642C156.862 92.6113 157.072 92.6986 157.228 92.8538C157.383 93.0091 157.47 93.2197 157.47 93.4393V93.8119H157.056V93.4393C157.056 93.3295 157.013 93.2242 156.935 93.1466C156.857 93.0689 156.752 93.0253 156.642 93.0253H154.986C154.876 93.0253 154.771 93.0689 154.693 93.1466C154.616 93.2242 154.572 93.3295 154.572 93.4393V93.903Z" fill="#FFC235"/>
<path d="M154.836 98.6188C154.693 97.4377 154.693 96.2436 154.836 95.0625C154.98 96.2436 154.98 97.4377 154.836 98.6188Z" fill="#FFC235"/>
<path d="M155.809 98.6188C155.665 97.4377 155.665 96.2436 155.809 95.0625C155.952 96.2436 155.952 97.4377 155.809 98.6188Z" fill="#FFC235"/>
<path d="M156.789 98.6188C156.646 97.4377 156.646 96.2436 156.789 95.0625C156.933 96.2436 156.933 97.4377 156.789 98.6188Z" fill="#FFC235"/>
<path d="M159.083 26.3263C159.068 26.1985 159.061 26.0699 159.062 25.9413C159.062 25.6722 159.062 25.3244 159.062 24.8856C159.062 23.9623 159.033 22.6789 159.017 21.1264L159.103 21.2134L151.523 21.2341L151.631 21.1264V22.4885C151.631 22.9398 151.631 23.3827 151.631 23.8174C151.631 24.6868 151.631 25.5231 151.631 26.3014L151.531 26.2021L156.955 26.2518L158.524 26.2766H158.938H159.091C158.913 26.2858 158.735 26.2858 158.557 26.2766L157.013 26.3056L151.523 26.3553H151.424V26.2559C151.424 25.4652 151.424 24.6289 151.424 23.7719V21.0809C151.329 21.1761 151.556 20.9484 151.531 20.9691L159.099 20.994H159.186V21.0767C159.186 22.6499 159.153 23.9541 159.145 24.8897C159.145 25.3037 159.145 25.6639 159.12 25.9247C159.118 26.0593 159.105 26.1935 159.083 26.3263Z" fill="#263238"/>
<path d="M159.084 21.127C159.009 21.2406 158.918 21.3436 158.815 21.4333C158.629 21.6196 158.36 21.8846 158.024 22.2075C157.354 22.8533 156.418 23.731 155.371 24.6915H155.222L155.197 24.6666L155.151 24.6211L155.052 24.5342L154.862 24.3561L154.485 24.0084L153.781 23.3501L152.593 22.2241C152.257 21.9011 151.988 21.6362 151.806 21.4499C151.703 21.3602 151.613 21.2572 151.537 21.1435C151.655 21.2128 151.764 21.2947 151.864 21.3878C152.063 21.5575 152.349 21.8018 152.692 22.1123L153.909 23.2011L154.626 23.8511L155.002 24.1988L155.193 24.3727L155.292 24.4638L155.342 24.5093H155.367C155.3 24.5093 155.516 24.5093 155.222 24.5093C156.265 23.5447 157.221 22.6836 157.917 22.0667C158.269 21.7562 158.554 21.512 158.745 21.3422C158.848 21.2562 158.962 21.1839 159.084 21.127Z" fill="#263238"/>
<path d="M154.036 23.4531C153.694 23.9959 153.295 24.501 152.847 24.9601C152.453 25.4693 152.001 25.9318 151.502 26.3387C151.837 25.7888 152.235 25.279 152.686 24.8193C153.082 24.3141 153.535 23.8557 154.036 23.4531Z" fill="#263238"/>
<path d="M159.128 26.3847C158.641 25.9487 158.203 25.4615 157.82 24.9316C157.384 24.4446 157.002 23.9115 156.682 23.3418C157.169 23.7778 157.607 24.265 157.99 24.7949C158.428 25.2806 158.809 25.8139 159.128 26.3847Z" fill="#263238"/>
<path d="M163.469 15.384C163.469 15.442 145.41 15.4916 123.137 15.4916C100.864 15.4916 82.8008 15.4378 82.8008 15.384C82.8008 15.3302 100.855 15.2764 123.133 15.2764C145.41 15.2764 163.469 15.326 163.469 15.384Z" fill="#263238"/>
<path d="M163.469 33.3645C163.469 33.4224 145.41 33.4721 123.137 33.4721C100.864 33.4721 82.8008 33.4224 82.8008 33.3645C82.8008 33.3065 100.855 33.2568 123.133 33.2568C145.41 33.2568 163.469 33.3024 163.469 33.3645Z" fill="#263238"/>
<path d="M163.469 68.9514C163.469 69.0093 145.41 69.059 123.137 69.059C100.864 69.059 82.8008 69.0093 82.8008 68.9514C82.8008 68.8934 100.855 68.8438 123.133 68.8438C145.41 68.8438 163.469 68.8893 163.469 68.9514Z" fill="#263238"/>
<path d="M163.468 87.1672C163.468 87.2293 145.41 87.2748 123.137 87.2748C100.863 87.2748 82.8047 87.2293 82.8047 87.1672C82.8047 87.1051 100.859 87.0596 123.137 87.0596C145.414 87.0596 163.468 87.1093 163.468 87.1672Z" fill="#263238"/>
<path d="M93.2644 27.8579C93.2644 27.8579 93.3555 27.8579 93.5128 27.8C93.7408 27.7276 93.9311 27.5685 94.0428 27.357C94.2042 27.0879 94.1214 26.6863 94.1338 26.2309C94.1463 25.7755 94.1338 25.258 94.1338 24.6908C94.1338 24.1236 94.1338 23.4902 94.1338 22.8237C94.1338 22.6539 94.1338 22.4842 94.1338 22.3103C94.1481 22.1449 94.1341 21.9783 94.0924 21.8177C94.0402 21.6596 93.9416 21.5209 93.8094 21.4197C93.6772 21.3185 93.5176 21.2596 93.3514 21.2505H88.4124C88.2204 21.252 88.035 21.3201 87.8877 21.4432C87.7405 21.5663 87.6406 21.7367 87.6051 21.9253C87.5761 22.3062 87.6051 22.7533 87.6051 23.1673C87.6051 23.9953 87.6051 24.7819 87.6051 25.5395C87.6051 25.9163 87.6051 26.2847 87.6051 26.6449C87.5939 26.8123 87.6022 26.9804 87.6299 27.1458C87.6653 27.3025 87.7442 27.446 87.8576 27.5598C87.9668 27.6637 88.1008 27.7378 88.2468 27.7751C88.3958 27.8005 88.5471 27.8088 88.698 27.8H89.5964L92.2998 27.8331L93.0367 27.8538C93.1228 27.8518 93.2088 27.8587 93.2934 27.8745C93.2083 27.8861 93.1219 27.8861 93.0367 27.8745L92.2998 27.8952L89.5964 27.9324H88.698C88.5334 27.9441 88.368 27.9358 88.2054 27.9076C88.0244 27.8668 87.8583 27.7768 87.7253 27.6474C87.5923 27.5181 87.4977 27.3546 87.4519 27.1748C87.4167 26.9949 87.4056 26.8112 87.4188 26.6283C87.4188 26.2682 87.4188 25.8997 87.4188 25.523C87.4188 24.7653 87.4188 23.9746 87.4188 23.1507V22.5297C87.4047 22.3133 87.4047 22.0962 87.4188 21.8798C87.4673 21.6456 87.5952 21.4354 87.7807 21.2846C87.9662 21.1338 88.1981 21.0515 88.4372 21.0518H93.3555C93.5594 21.066 93.7544 21.1405 93.9159 21.2658C94.0773 21.3911 94.1978 21.5616 94.2622 21.7556C94.3099 21.9363 94.3267 22.1239 94.3119 22.3103C94.3119 22.4842 94.3119 22.6539 94.3119 22.8237C94.3119 23.4902 94.3119 24.1154 94.3119 24.6908C94.3119 25.2663 94.3119 25.7755 94.3119 26.2309C94.3119 26.4586 94.3119 26.6697 94.3119 26.8643C94.3171 27.0506 94.2729 27.2349 94.1835 27.3984C94.053 27.6198 93.8401 27.7805 93.5915 27.8455C93.4857 27.8799 93.3725 27.8842 93.2644 27.8579Z" fill="#263238"/>
<path d="M93.2644 81.583C93.2644 81.583 93.3555 81.583 93.5128 81.525C93.7408 81.4526 93.9311 81.2935 94.0428 81.082C94.2042 80.8129 94.1214 80.4113 94.1338 79.9559C94.1463 79.5005 94.1338 78.983 94.1338 78.4159C94.1338 77.8487 94.1338 77.2153 94.1338 76.5487C94.1338 76.379 94.1338 76.2092 94.1338 76.0354C94.1481 75.87 94.1341 75.7034 94.0924 75.5427C94.0402 75.3846 93.9416 75.2459 93.8094 75.1448C93.6772 75.0436 93.5176 74.9846 93.3514 74.9755H88.4124C88.221 74.9768 88.036 75.0443 87.8889 75.1666C87.7417 75.2889 87.6414 75.4583 87.6051 75.6462C87.5761 76.0312 87.6051 76.4742 87.6051 76.8882C87.6051 77.7162 87.6051 78.5028 87.6051 79.2604C87.6051 79.6372 87.6051 80.0056 87.6051 80.3617C87.5938 80.5304 87.6021 80.6999 87.6299 80.8667C87.664 81.0239 87.7431 81.1678 87.8576 81.2807C87.9653 81.3866 88.0998 81.4611 88.2468 81.496C88.3953 81.5249 88.547 81.5346 88.698 81.525H89.5964L92.2998 81.5581L93.0367 81.5788C93.1221 81.57 93.2081 81.57 93.2934 81.5788C93.2092 81.5974 93.1228 81.6043 93.0367 81.5995L92.2998 81.6202L89.5964 81.6533H88.698C88.5334 81.665 88.368 81.6567 88.2054 81.6285C88.0244 81.5877 87.8583 81.4977 87.7253 81.3683C87.5923 81.239 87.4977 81.0754 87.4519 80.8957C87.4163 80.7145 87.4052 80.5293 87.4188 80.3451C87.4188 79.9891 87.4188 79.6206 87.4188 79.2439C87.4188 78.4862 87.4188 77.6955 87.4188 76.8716V76.2506C87.4047 76.0342 87.4047 75.8171 87.4188 75.6007C87.4631 75.3627 87.5891 75.1477 87.7751 74.9928C87.961 74.8379 88.1952 74.7527 88.4372 74.752H93.3555C93.5594 74.7662 93.7544 74.8407 93.9159 74.966C94.0773 75.0913 94.1978 75.2618 94.2622 75.4558C94.3099 75.6365 94.3267 75.8241 94.3119 76.0105C94.3119 76.1844 94.3119 76.3541 94.3119 76.5239C94.3119 77.1904 94.3119 77.8156 94.3119 78.391C94.3119 78.9665 94.3119 79.4757 94.3119 79.9311C94.3119 80.1588 94.3119 80.3699 94.3119 80.5645C94.3171 80.7508 94.2729 80.9351 94.1835 81.0986C94.1195 81.2083 94.0342 81.3041 93.9325 81.3802C93.8308 81.4563 93.7148 81.5111 93.5915 81.5416C93.4878 81.5829 93.3752 81.5971 93.2644 81.583Z" fill="#263238"/>
<path d="M82.2012 102.792C82.2012 102.792 82.2012 102.705 82.2012 102.539C82.2012 102.374 82.2012 102.125 82.2012 101.798C82.2012 101.136 82.2012 100.176 82.2012 98.946C82.2012 96.462 82.2012 92.8809 82.2012 88.4594C82.2012 79.608 82.3088 67.3785 82.433 53.8696C82.5572 40.3608 82.6524 28.1354 82.7311 19.2758C82.7601 14.8543 82.7808 11.2732 82.7973 8.78919C82.7973 7.54719 82.7973 6.59912 82.8222 5.94086C82.8222 5.61794 82.8222 5.37368 82.8222 5.1998C82.8222 5.02592 82.8222 4.94727 82.8222 4.94727C82.8222 4.94727 82.8222 5.03006 82.8222 5.1998C82.8222 5.36954 82.8222 5.6138 82.8222 5.94086C82.8222 6.59912 82.8222 7.55961 82.8222 8.78919C82.8222 11.2732 82.8222 14.8543 82.8222 19.2758C82.8015 28.1271 82.7145 40.3608 82.5862 53.8696C82.4579 67.3785 82.3668 79.5997 82.2923 88.4594C82.2633 92.8809 82.2426 96.462 82.226 98.946C82.226 100.188 82.226 101.136 82.2012 101.798C82.2012 102.117 82.2012 102.361 82.2012 102.539C82.2012 102.718 82.2012 102.792 82.2012 102.792Z" fill="#263238"/>
<path d="M128.301 40.5764C128.301 40.6343 122.091 40.684 114.408 40.684C106.724 40.684 100.514 40.6343 100.514 40.5764C100.514 40.5184 106.724 40.4688 114.408 40.4688C122.091 40.4688 128.301 40.5143 128.301 40.5764Z" fill="#263238"/>
<path d="M145.669 43.6399C145.669 43.702 135.559 43.7475 123.093 43.7475C110.628 43.7475 100.514 43.702 100.514 43.6399C100.514 43.5778 110.624 43.5322 123.093 43.5322C135.563 43.5322 145.669 43.5902 145.669 43.6399Z" fill="#263238"/>
<path d="M128.301 76.6389C128.301 76.6968 122.091 76.7465 114.408 76.7465C106.724 76.7465 100.514 76.6968 100.514 76.6389C100.514 76.5809 106.724 76.5312 114.408 76.5312C122.091 76.5312 128.301 76.5768 128.301 76.6389Z" fill="#263238"/>
<path d="M145.669 79.7033C145.669 79.7613 135.559 79.811 123.093 79.811C110.628 79.811 100.514 79.7613 100.514 79.7033C100.514 79.6454 110.624 79.5957 123.093 79.5957C135.563 79.5957 145.669 79.6454 145.669 79.7033Z" fill="#263238"/>
<path d="M128.301 23.2463C128.301 23.3084 122.091 23.3581 114.408 23.3581C106.724 23.3581 100.514 23.3084 100.514 23.2463C100.514 23.1842 106.724 23.1387 114.408 23.1387C122.091 23.1387 128.301 23.1883 128.301 23.2463Z" fill="#263238"/>
<path d="M145.669 26.3137C145.669 26.3717 135.559 26.4213 123.093 26.4213C110.628 26.4213 100.514 26.3717 100.514 26.3137C100.514 26.2557 110.624 26.2061 123.093 26.2061C135.563 26.2061 145.669 26.2557 145.669 26.3137Z" fill="#263238"/>
<path d="M128.301 58.2473C128.301 58.3052 122.091 58.3549 114.408 58.3549C106.724 58.3549 100.514 58.3052 100.514 58.2473C100.514 58.1893 106.724 58.1396 114.408 58.1396C122.091 58.1396 128.301 58.1893 128.301 58.2473Z" fill="#263238"/>
<path d="M145.669 61.3098C145.669 61.3719 135.559 61.4174 123.093 61.4174C110.628 61.4174 100.514 61.3719 100.514 61.3098C100.514 61.2477 110.624 61.2021 123.093 61.2021C135.563 61.2021 145.669 61.2518 145.669 61.3098Z" fill="#263238"/>
<path d="M128.301 93.7512C128.301 93.8092 122.091 93.8588 114.408 93.8588C106.724 93.8588 100.514 93.8092 100.514 93.7512C100.514 93.6932 106.724 93.6436 114.408 93.6436C122.091 93.6436 128.301 93.685 128.301 93.7512Z" fill="#263238"/>
<path d="M145.669 96.8137C145.669 96.8717 135.559 96.9213 123.093 96.9213C110.628 96.9213 100.514 96.8717 100.514 96.8137C100.514 96.7557 110.624 96.7061 123.093 96.7061C135.563 96.7061 145.669 96.7557 145.669 96.8137Z" fill="#263238"/>
<path d="M159.834 7.1875H154.365V12.6564H159.834V7.1875Z" fill="#E0E0E0"/>
<path d="M150.928 7.1875H145.459V12.6564H150.928V7.1875Z" fill="#E0E0E0"/>
<path d="M142.022 7.1875H136.553V12.6564H142.022V7.1875Z" fill="#E0E0E0"/>
<path d="M42.7598 21.5068L45.0823 24.5373L47.0695 21.5068H42.7598Z" fill="#263238"/>
<path d="M37.7284 60.8141C43.1104 53.7099 48.8071 54.7117 52.7525 56.4298C54.7203 57.3263 56.375 58.7909 57.5038 60.6353C58.6325 62.4797 59.1838 64.6196 59.0867 66.7798C59.0205 67.9142 58.7762 69.1065 59.2399 70.1457C59.9809 71.8017 62.1379 72.286 63.3799 73.6191C65.0897 75.4449 64.713 78.3304 64.1334 80.7647C63.5538 83.1991 62.9493 85.9729 64.3776 88.0222C65.69 89.8976 68.1864 90.4027 70.2481 91.4046C71.6161 92.0577 72.8307 92.9923 73.8124 94.1474C74.7941 95.3025 75.5207 96.6519 75.9448 98.1072C76.3453 99.5716 76.3768 101.112 76.0366 102.592C75.6963 104.071 74.9948 105.444 73.9948 106.586C71.9911 108.764 68.9854 109.732 66.0585 110.163C61.7788 110.794 57.4123 110.469 53.2737 109.209C49.1352 107.949 45.3278 105.786 42.126 102.877C38.9242 99.968 36.4078 96.3847 34.7582 92.3855C33.1086 88.3863 32.3669 84.0709 32.5866 79.7505" fill="#263238"/>
<path d="M53.0342 56.7323C52.3936 56.7287 51.7534 56.7647 51.1173 56.84C49.5965 57.135 48.1055 57.5674 46.6627 58.1317C44.9446 58.732 43.2845 59.0673 42.0756 58.9886C41.6001 58.9711 41.1287 58.8946 40.6721 58.7609C40.5013 58.7184 40.3369 58.6529 40.1836 58.5664C40.8048 58.7212 41.4401 58.8128 42.0797 58.8396C43.626 58.7939 45.1533 58.4859 46.5965 57.9288C48.3063 57.3285 49.9085 56.811 51.0966 56.6868C51.5691 56.6294 52.046 56.6169 52.5208 56.6495C52.6948 56.6543 52.8675 56.6821 53.0342 56.7323Z" fill="#455A64"/>
<path d="M65.4357 113.239C65.6427 113.86 69.9359 134.146 69.9359 134.146L102.596 146.703L100.758 151.468L72.7552 149.005C56.4105 146.566 55.5038 138.547 56.4892 129.584L58.1824 114.22L65.4357 113.239Z" fill="#FFBE9D"/>
<path d="M18.4941 102.301C21.86 97.2051 26.9687 94.2657 31.6469 92.6387L48.8279 93.8807C50.7492 93.7144 52.6835 93.9744 54.4926 94.6421C56.3018 95.3098 57.9412 96.3687 59.2938 97.7433L60.8919 140.315L64.8373 151.493H23.9631L18.4941 102.301Z" fill="#FFC235"/>
<path d="M59.9241 115.21C59.9241 115.21 59.8869 115.189 59.8248 115.144L59.5474 114.937C59.403 114.817 59.2523 114.705 59.0961 114.601L58.4544 114.187C58.1978 114.051 57.9162 113.898 57.6057 113.744C56.4177 113.2 55.1445 112.866 53.8425 112.755C52.7261 112.657 51.6013 112.727 50.5056 112.962C49.2473 113.226 48.0514 113.729 46.9825 114.444C45.7779 115.196 44.815 116.278 44.2087 117.562C43.9056 118.238 43.7761 118.979 43.832 119.718C43.9057 120.479 44.1927 121.204 44.66 121.809C45.1177 122.416 45.7957 122.819 46.5478 122.931C46.9019 122.996 47.2673 122.955 47.598 122.813C47.9288 122.67 48.2101 122.434 48.4067 122.132C48.5602 121.817 48.6427 121.472 48.6484 121.121C48.6542 120.771 48.5829 120.423 48.4398 120.103C48.3186 119.779 48.1543 119.473 47.9513 119.193C47.7475 118.922 47.5173 118.672 47.264 118.447C46.3004 117.598 45.1317 117.014 43.8734 116.754C42.7784 116.513 41.6516 116.45 40.5365 116.568C38.9153 116.765 37.3212 117.143 35.7838 117.694L34.5211 118.108L34.194 118.216C34.1574 118.232 34.1182 118.242 34.0781 118.245L34.1858 118.195L34.5087 118.067C34.7902 117.959 35.2125 117.798 35.7507 117.603C37.284 117.021 38.8807 116.622 40.5075 116.415C41.6391 116.286 42.784 116.341 43.8982 116.576C45.1881 116.84 46.3877 117.433 47.3799 118.298C47.5124 118.414 47.6366 118.539 47.7567 118.667C47.8811 118.796 47.9959 118.935 48.1003 119.081C48.3138 119.374 48.4878 119.694 48.6178 120.033C48.7721 120.383 48.8479 120.762 48.8401 121.144C48.8322 121.525 48.7408 121.901 48.5723 122.244C48.3698 122.591 48.0561 122.859 47.6822 123.006C47.3085 123.152 46.9039 123.2 46.5064 123.146C45.6967 123.031 44.9658 122.599 44.4737 121.946C43.9848 121.308 43.6876 120.544 43.6167 119.743C43.5612 118.967 43.7036 118.189 44.0307 117.483C44.6539 116.163 45.6461 115.051 46.8873 114.283C47.9811 113.561 49.2019 113.054 50.4849 112.788C51.5983 112.559 52.7399 112.497 53.8715 112.606C54.8047 112.688 55.7232 112.891 56.6039 113.21C56.9644 113.34 57.3181 113.488 57.6637 113.653C57.9783 113.815 58.2599 113.976 58.4917 114.117L59.1293 114.552C59.2828 114.663 59.4306 114.782 59.5722 114.908L59.8331 115.131L59.9241 115.21Z" fill="#FAFAFA"/>
<path d="M59.2931 97.7227L69.4361 115.963L58.1836 119.42L59.2931 97.7227Z" fill="#FFC235"/>
<path d="M60.6564 140.436C60.6365 140.331 60.6254 140.224 60.6233 140.117C60.6233 139.889 60.5943 139.587 60.5695 139.206C60.5322 138.378 60.4825 137.244 60.4163 135.836C60.3004 132.996 60.1555 129.067 60.0271 124.729C59.8988 120.39 59.8201 116.449 59.7953 113.609C59.7953 112.184 59.7953 111.033 59.7953 110.239C59.7953 109.858 59.7953 109.551 59.7953 109.324C59.7932 109.217 59.8001 109.11 59.816 109.005C59.8351 109.11 59.8434 109.217 59.8408 109.324L59.8657 110.239C59.8657 111.067 59.9071 112.201 59.9402 113.604C60.0147 116.469 60.1182 120.39 60.2341 124.72C60.3501 129.051 60.4784 132.967 60.5612 135.832C60.5943 137.236 60.6233 138.382 60.644 139.202C60.644 139.583 60.644 139.889 60.644 140.117C60.659 140.223 60.6632 140.329 60.6564 140.436Z" fill="#263238"/>
<path d="M62.2869 103.278C62.2165 103.341 62.1386 103.395 62.0551 103.44C61.8263 103.584 61.5884 103.714 61.343 103.829C60.1963 104.332 58.9419 104.541 57.6939 104.437C56.4459 104.332 55.2439 103.916 54.1974 103.228C53.8312 102.999 53.4983 102.72 53.2079 102.4C52.8881 102.054 52.6753 101.623 52.5952 101.158C52.5499 100.916 52.5595 100.666 52.6233 100.427C52.687 100.189 52.8033 99.9677 52.9636 99.7799C53.1413 99.5946 53.3642 99.459 53.6104 99.3864C53.8565 99.3138 54.1174 99.3067 54.3671 99.3659C54.6157 99.4121 54.8519 99.5096 55.0607 99.6522C55.2696 99.7947 55.4465 99.9792 55.5801 100.194C55.8185 100.623 55.8962 101.124 55.7995 101.606C55.7138 102.061 55.516 102.488 55.2241 102.848C54.9434 103.187 54.5988 103.469 54.2098 103.676C53.4916 104.034 52.7119 104.253 51.9121 104.321C51.2247 104.4 50.5311 104.408 49.8421 104.346C48.8469 104.257 47.8704 104.021 46.9441 103.647C46.6924 103.546 46.4464 103.431 46.2072 103.303C46.1197 103.266 46.0376 103.217 45.9629 103.158C46.0518 103.189 46.1389 103.225 46.2237 103.266C46.3935 103.34 46.6377 103.448 46.9731 103.568C47.9055 103.909 48.8808 104.12 49.8711 104.193C50.55 104.244 51.2323 104.227 51.9079 104.143C52.6825 104.07 53.4366 103.852 54.1311 103.502C54.4953 103.305 54.8185 103.041 55.0833 102.723C55.3501 102.389 55.5306 101.993 55.6091 101.572C55.6942 101.141 55.6238 100.694 55.4104 100.31C55.2935 100.12 55.138 99.9572 54.954 99.8316C54.7699 99.7061 54.5615 99.6207 54.3422 99.5811C54.1292 99.5286 53.9062 99.5322 53.695 99.5917C53.4838 99.6512 53.2917 99.7646 53.1375 99.9206C52.9988 100.085 52.8986 100.279 52.8442 100.487C52.7898 100.696 52.7825 100.914 52.8229 101.125C52.8969 101.546 53.0893 101.937 53.3776 102.251C53.6546 102.569 53.9736 102.848 54.3257 103.079C55.5412 103.898 56.9754 104.331 58.4409 104.321C59.4338 104.327 60.4183 104.139 61.3389 103.767C61.9516 103.477 62.2745 103.257 62.2869 103.278Z" fill="#FAFAFA"/>
<path d="M60.1245 140.078L60.0086 140L59.6774 139.76C59.2456 139.459 58.7933 139.189 58.3236 138.952C56.5875 138.095 54.6704 137.669 52.7346 137.71C50.2962 137.71 47.4106 138.538 44.6161 140.145C43.8992 140.55 43.2275 141.03 42.6123 141.577C41.9661 142.135 41.4297 142.809 41.0308 143.564C40.6251 144.344 40.4925 145.238 40.6541 146.102C40.7512 146.532 40.973 146.924 41.2917 147.228C41.4479 147.376 41.6399 147.481 41.8489 147.533C42.058 147.584 42.2768 147.581 42.484 147.522C42.8977 147.38 43.2405 147.083 43.4403 146.694C43.6511 146.304 43.7687 145.87 43.7839 145.427C43.7767 144.539 43.5026 143.674 42.9973 142.943C42.5165 142.237 41.8914 141.64 41.1633 141.192C40.4627 140.766 39.6938 140.465 38.8905 140.302C37.3867 140.022 35.8455 140.006 34.3365 140.256C33.016 140.445 31.7111 140.73 30.4324 141.109C28.5806 141.674 26.7922 142.428 25.096 143.361C24.4957 143.688 24.0403 143.962 23.7298 144.148L23.382 144.363L23.2578 144.429C23.2578 144.429 23.2909 144.396 23.3696 144.343L23.7091 144.111C24.0072 143.912 24.4626 143.63 25.0587 143.283C26.7499 142.331 28.5391 141.565 30.3952 140.997C31.679 140.604 32.9911 140.309 34.3199 140.116C35.8466 139.851 37.4081 139.859 38.9319 140.14C39.7589 140.305 40.5506 140.613 41.271 141.051C42.0256 141.511 42.6734 142.126 43.1712 142.856C43.7007 143.616 43.9893 144.518 43.9992 145.444C43.9833 145.922 43.8557 146.39 43.6266 146.81C43.4031 147.256 43.0137 147.596 42.5419 147.758C42.2999 147.827 42.0441 147.832 41.7996 147.772C41.5551 147.713 41.3302 147.591 41.1468 147.419C40.7972 147.082 40.554 146.65 40.4471 146.177C40.2777 145.261 40.4236 144.316 40.8611 143.494C41.2718 142.715 41.8251 142.02 42.4923 141.445C43.1219 140.891 43.8073 140.404 44.5374 139.991C47.3609 138.369 50.2837 137.578 52.7553 137.578C54.711 137.546 56.6445 137.995 58.3857 138.886C59.0154 139.205 59.6001 139.606 60.1245 140.078Z" fill="#FAFAFA"/>
<path d="M30.9564 107.013C29.7144 100.65 20.7099 100.414 19.1326 106.703C19.1077 106.798 19.0829 106.897 19.0622 106.997C16.7397 116.904 24.585 146.178 26.6922 147.867C28.7995 149.556 30.8902 151.469 34.492 149.974C36.5992 149.1 58.4791 129.763 58.4791 129.763C58.4791 129.763 63.5382 134.61 65.2273 134.188C66.9165 133.766 70.1374 128.806 70.1374 128.806C70.1374 128.806 73.2672 133.497 73.6605 133.567C73.8741 133.602 74.0933 133.577 74.2938 133.496C74.4942 133.414 74.6683 133.279 74.7967 133.104C74.9252 132.93 75.003 132.724 75.0217 132.508C75.0403 132.293 74.9991 132.076 74.9025 131.882C74.4885 131.249 70.4976 122.526 70.4976 122.526C70.4976 122.526 73.6398 122.186 73.0064 121.131C73.0064 121.131 72.9277 120.162 70.8039 120.348C68.6801 120.534 68.7215 118.108 64.7678 118.34C60.8141 118.572 52.65 119.582 41.1698 128.392L35.8499 132.143L30.9564 107.013Z" fill="#FFBE9D"/>
<path d="M41.16 128.39L41.2925 128.282L41.7065 127.98L43.259 126.817C45.2316 125.405 47.2858 124.111 49.411 122.942C52.6616 121.141 56.1442 119.795 59.761 118.943C60.8043 118.723 61.8848 118.529 63.0068 118.4C63.5698 118.338 64.137 118.289 64.7166 118.247C65.3069 118.203 65.9003 118.23 66.4844 118.326C67.0866 118.432 67.6621 118.655 68.1776 118.984C68.7034 119.303 69.1464 119.746 69.6763 120.019C69.9328 120.152 70.2155 120.227 70.5043 120.238C70.7983 120.238 71.1212 120.201 71.4441 120.214C71.7727 120.214 72.0989 120.27 72.4087 120.379C72.5807 120.428 72.737 120.521 72.862 120.649C72.9869 120.776 73.0762 120.935 73.1208 121.108V121.066C73.2051 121.199 73.2348 121.359 73.2036 121.514C73.1579 121.661 73.0665 121.79 72.9428 121.882C72.7147 122.05 72.46 122.179 72.1893 122.263C71.65 122.434 71.0954 122.552 70.5333 122.615L70.6202 122.47L73.4272 128.543C73.9198 129.578 74.4083 130.642 74.9424 131.673C75.0285 131.801 75.0967 131.941 75.1453 132.087C75.1742 132.246 75.1742 132.409 75.1453 132.567C75.0921 132.891 74.9246 133.185 74.6733 133.395C74.5488 133.501 74.4043 133.579 74.2484 133.627C74.0926 133.675 73.9287 133.69 73.7666 133.673H73.6466C73.6163 133.668 73.587 133.658 73.5596 133.644L73.5017 133.602C73.4398 133.55 73.3816 133.493 73.3278 133.433C73.2243 133.321 73.125 133.205 73.0339 133.085C71.9533 131.702 70.997 130.27 70.0448 128.862H70.2228C69.4742 130.003 68.6614 131.1 67.7885 132.149C67.361 132.668 66.8946 133.154 66.3933 133.602C66.265 133.71 66.1283 133.809 66 133.917C65.8586 134.012 65.7121 134.099 65.5612 134.178C65.4057 134.261 65.2345 134.312 65.0585 134.326C64.8825 134.34 64.7055 134.318 64.5386 134.261C63.9112 134.061 63.3168 133.769 62.775 133.395C62.2326 133.043 61.7192 132.667 61.2183 132.278C60.2247 131.495 59.2932 130.68 58.4072 129.843H58.5397C51.6011 135.946 45.6602 141.071 41.4125 144.623C39.2887 146.399 37.5872 147.778 36.3949 148.689C35.7987 149.144 35.3309 149.483 35.0038 149.695C34.8421 149.808 34.6686 149.904 34.4863 149.98C34.4863 149.98 34.6685 149.889 34.9873 149.666C35.306 149.442 35.7697 149.103 36.3576 148.639C37.5334 147.716 39.2225 146.32 41.3256 144.532C45.5525 140.955 51.4769 135.809 58.4031 129.694L58.4693 129.636L58.5356 129.698C59.4133 130.526 60.3489 131.354 61.3384 132.112C61.831 132.497 62.3444 132.874 62.8784 133.217C63.4017 133.576 63.9751 133.855 64.58 134.045C65.201 134.277 65.7557 133.838 66.236 133.428C66.7269 132.986 67.1849 132.509 67.6063 132C68.4728 130.957 69.28 129.867 70.0241 128.734L70.111 128.597L70.2021 128.73C71.1502 130.133 72.1148 131.57 73.1788 132.94C73.2726 133.056 73.3678 133.168 73.4644 133.275C73.5141 133.325 73.5638 133.379 73.6135 133.42L73.6466 133.445C73.6466 133.445 73.6466 133.445 73.6466 133.482C73.6466 133.52 73.6466 133.549 73.6466 133.449H73.7459C73.8804 133.465 74.0167 133.453 74.1463 133.413C74.2759 133.374 74.3961 133.309 74.4994 133.221C74.7148 133.053 74.8566 132.807 74.8952 132.537C74.9338 132.266 74.8661 131.99 74.7064 131.768C74.1558 130.713 73.6756 129.661 73.1829 128.622L70.3801 122.54L70.3222 122.412H70.4629C71.0095 122.349 71.5489 122.234 72.0734 122.068C72.3213 121.995 72.5551 121.88 72.7648 121.729C72.8534 121.663 72.9199 121.572 72.9552 121.468C72.9733 121.366 72.9526 121.261 72.8972 121.174V121.145C72.8537 121.011 72.7777 120.89 72.6758 120.792C72.5739 120.695 72.4494 120.624 72.3135 120.586C72.026 120.486 71.7236 120.436 71.4193 120.437C71.1088 120.437 70.8107 120.466 70.4795 120.462C70.1531 120.449 69.8336 120.364 69.5438 120.214C68.9725 119.92 68.5378 119.477 68.0327 119.166C67.5376 118.853 66.9865 118.638 66.4099 118.533C65.2631 118.326 64.0997 118.504 62.9861 118.603C61.8724 118.703 60.796 118.918 59.7569 119.133C56.1439 119.971 52.6619 121.297 49.4069 123.074C47.2805 124.232 45.2198 125.506 43.2341 126.891L41.6692 128.03L41.2552 128.32L41.16 128.39Z" fill="#EB996E"/>
<path d="M33.8876 139.264C33.8876 139.264 33.842 139.156 33.8006 138.958C33.7437 138.672 33.7091 138.383 33.6971 138.092C33.5898 136.156 34.1238 134.238 35.2165 132.636C35.38 132.395 35.5598 132.165 35.7547 131.949C35.8955 131.799 35.9783 131.721 35.9865 131.729C35.9948 131.737 35.7257 132.102 35.3448 132.719C34.344 134.334 33.8242 136.201 33.8462 138.101C33.8544 138.809 33.9248 139.26 33.8876 139.264Z" fill="#EB996E"/>
<path d="M24.8423 96.0049C24.6395 96.1415 17.3531 98.3191 16.2063 105.788C15.0595 113.256 15.7343 126.264 15.7343 126.264L35.4987 124.906L29.831 98.6503L24.8423 96.0049Z" fill="#FFC235"/>
<path d="M66.8369 133.157C66.8038 133.157 66.8576 132.888 66.8369 132.478C66.8161 131.941 66.6746 131.416 66.4229 130.942C66.1702 130.467 65.8153 130.054 65.3838 129.733C65.0526 129.493 64.8083 129.394 64.8208 129.356C65.0554 129.384 65.279 129.471 65.4707 129.609C65.9551 129.914 66.3495 130.343 66.6134 130.851C66.8847 131.359 67.0121 131.932 66.9818 132.507C66.9867 132.732 66.937 132.955 66.8369 133.157Z" fill="#EB996E"/>
<path d="M68.6531 130.941C68.5587 130.301 68.3298 129.689 67.9816 129.144C67.6334 128.598 67.1737 128.133 66.6328 127.778C66.8282 127.812 67.012 127.895 67.1669 128.018C67.5655 128.281 67.9041 128.626 68.1605 129.029C68.4204 129.431 68.5912 129.884 68.6614 130.358C68.7094 130.55 68.7066 130.751 68.6531 130.941Z" fill="#EB996E"/>
<path d="M68.6543 126.222C68.6543 126.201 68.8406 126.284 69.0683 126.487C69.3617 126.757 69.5962 127.084 69.7572 127.449C69.9182 127.814 70.0022 128.208 70.0039 128.606C70.0039 128.909 69.9501 129.091 69.9253 129.087C69.8655 128.556 69.7417 128.035 69.5568 127.534C69.3081 127.063 69.0053 126.623 68.6543 126.222Z" fill="#EB996E"/>
<path d="M33.087 112.506C33.0528 112.513 33.0177 112.513 32.9835 112.506L32.6855 112.473C32.3035 112.426 31.9193 112.4 31.5345 112.394C30.118 112.38 28.7121 112.64 27.3945 113.16C25.4361 113.925 23.7527 115.26 22.5632 116.994C21.8554 117.996 21.4922 119.2 21.5282 120.426C21.5562 121.07 21.7471 121.697 22.0829 122.248C22.434 122.805 22.9705 123.222 23.5982 123.423C24.2222 123.631 24.9011 123.598 25.5026 123.332C25.7856 123.197 26.0359 123.002 26.2361 122.76C26.4362 122.518 26.5815 122.236 26.6618 121.933C26.7989 121.328 26.7732 120.698 26.5872 120.107C26.4182 119.535 26.1522 118.996 25.8006 118.513C25.1757 117.677 24.3911 116.972 23.4922 116.44C22.5933 115.909 21.5978 115.561 20.5635 115.417C19.1588 115.233 17.7303 115.424 16.4235 115.971C16.0695 116.122 15.7252 116.295 15.3927 116.489L15.136 116.646L15.0449 116.692C15.4562 116.368 15.9087 116.101 16.3904 115.897C17.7035 115.309 19.1523 115.091 20.5801 115.268C21.6405 115.403 22.663 115.749 23.5874 116.286C24.5118 116.823 25.3192 117.539 25.9621 118.393C26.3328 118.893 26.6131 119.453 26.7901 120.049C26.9884 120.677 27.0156 121.345 26.8688 121.987C26.7816 122.32 26.6227 122.631 26.4032 122.897C26.1837 123.163 25.9088 123.378 25.5978 123.527C24.9441 123.815 24.2069 123.852 23.5278 123.63C22.8545 123.405 22.2817 122.951 21.909 122.347C21.549 121.772 21.341 121.116 21.3046 120.438C21.2758 119.163 21.6639 117.913 22.41 116.878C23.6279 115.119 25.3518 113.772 27.3531 113.015C28.6873 112.503 30.1105 112.264 31.5387 112.312C32.06 112.325 32.5786 112.39 33.087 112.506Z" fill="#FAFAFA"/>
<path d="M32.4133 101.784C32.2549 101.879 32.087 101.957 31.9123 102.016C31.7135 102.104 31.5087 102.177 31.2996 102.236C31.0286 102.33 30.7521 102.407 30.4716 102.467C30.1348 102.552 29.7933 102.617 29.449 102.662C29.0764 102.724 28.679 102.745 28.2567 102.774C27.342 102.803 26.4266 102.74 25.5243 102.587C24.6252 102.418 23.7458 102.157 22.8995 101.809C22.5145 101.635 22.1461 101.478 21.8231 101.292C21.515 101.129 21.2164 100.95 20.9289 100.753C20.688 100.598 20.4558 100.429 20.2334 100.248C20.0599 100.122 19.8953 99.9833 19.7407 99.8343C19.5978 99.7185 19.4674 99.5881 19.3516 99.4451C19.3805 99.4079 19.9477 99.9585 21.0076 100.629C21.2987 100.814 21.6 100.983 21.9101 101.134C22.2576 101.318 22.6141 101.483 22.9782 101.631C24.6512 102.311 26.4476 102.634 28.2526 102.579C28.6666 102.554 29.0806 102.542 29.4283 102.488C29.7761 102.434 30.1321 102.385 30.4426 102.322C31.6722 102.062 32.3967 101.743 32.4133 101.784Z" fill="#FAFAFA"/>
<path d="M34.0436 114.448C34.0648 114.513 34.0801 114.579 34.0892 114.647C34.114 114.796 34.1471 114.986 34.1844 115.222C34.2672 115.752 34.379 116.464 34.5156 117.388C34.7847 119.263 35.1614 121.867 35.5961 124.889V125.001H35.4885L30.8683 125.324L20.1539 126.028L16.9082 126.218L16.0222 126.26H15.7324C15.8324 126.233 15.9352 126.217 16.0388 126.214L16.9165 126.135L20.1622 125.879L30.8724 125.109L35.4885 124.798L35.3933 124.914C34.9793 121.888 34.6398 119.28 34.3914 117.404C34.2755 116.493 34.1844 115.748 34.1182 115.231C34.0892 114.991 34.0685 114.817 34.0519 114.647C34.0396 114.581 34.0368 114.515 34.0436 114.448Z" fill="#263238"/>
<g opacity="0.2">
<path d="M24.4598 95.7979C24.2611 96.4975 24.8158 97.1517 25.176 97.7809C25.8715 98.9898 25.9088 100.451 25.9709 101.846C26.0172 104.41 26.4114 106.956 27.1425 109.414C27.9374 111.84 29.3036 114.138 31.3239 115.703C33.3442 117.268 36.0559 118.034 38.5275 117.392C40.9991 116.75 43.0815 114.556 43.2926 112.01C43.5038 109.464 41.9678 107.195 41.0902 104.819C40.4112 102.989 40.109 101.043 39.7198 99.1264C39.3307 97.2096 38.8339 95.2845 37.8196 93.6161C36.8053 91.9477 35.1948 90.5525 33.2656 90.2006C31.3363 89.8487 29.1504 90.7595 28.3721 92.548" fill="black"/>
</g>
<path d="M34.0043 62.3718V64.5702L33.8594 97.5287C33.8594 101.354 37.1217 104.418 41.2162 104.405C45.3562 104.405 48.7717 101.251 48.8503 97.3673C48.9373 93.3101 49.0987 89.0417 49.0987 89.0417C49.0987 89.0417 54.34 88.2675 55.5447 81.4655C56.145 78.0873 56.0705 72.5231 55.8676 67.9733C55.8244 67.0024 55.5851 66.0504 55.1642 65.1745C54.7432 64.2986 54.1493 63.517 53.4182 62.8768C52.6871 62.2366 51.8339 61.7511 50.9101 61.4494C49.9863 61.1477 49.0111 61.0362 48.043 61.1216L34.0043 62.3718Z" fill="#FFBE9D"/>
<path d="M54.2705 72.1541C54.2684 72.3826 54.1773 72.6013 54.0165 72.7637C53.8556 72.926 53.6379 73.0192 53.4094 73.0236C53.2976 73.0314 53.1854 73.0165 53.0795 72.9797C52.9737 72.943 52.8764 72.8851 52.7935 72.8096C52.7107 72.7341 52.6441 72.6426 52.5976 72.5406C52.5512 72.4386 52.526 72.3283 52.5234 72.2162C52.5256 71.9888 52.6163 71.7712 52.7763 71.6097C52.9363 71.4481 53.153 71.3553 53.3804 71.351C53.4922 71.3425 53.6045 71.3569 53.7106 71.3931C53.8167 71.4294 53.9143 71.4868 53.9975 71.5619C54.0807 71.637 54.1479 71.7282 54.1948 71.83C54.2417 71.9318 54.2675 72.0421 54.2705 72.1541Z" fill="#263238"/>
<path d="M54.6138 70.8608C54.502 70.9726 53.852 70.4675 52.9081 70.4468C51.9642 70.4261 51.2521 70.8898 51.1693 70.7739C51.1196 70.7201 51.2356 70.5172 51.5378 70.3061C51.9487 70.0268 52.4362 69.8822 52.933 69.8921C53.4217 69.9006 53.8954 70.0628 54.2867 70.3558C54.5724 70.6 54.6676 70.807 54.6138 70.8608Z" fill="#263238"/>
<path d="M45.3584 71.9796C45.3563 72.2077 45.265 72.4259 45.1041 72.5876C44.9432 72.7493 44.7254 72.8416 44.4973 72.8448C44.3858 72.8527 44.274 72.8379 44.1684 72.8014C44.0628 72.7649 43.9657 72.7074 43.8829 72.6323C43.8001 72.5573 43.7334 72.4663 43.6867 72.3648C43.64 72.2633 43.6144 72.1533 43.6113 72.0417C43.6134 71.8139 43.704 71.5958 43.8639 71.4336C44.0238 71.2713 44.2406 71.1776 44.4683 71.1723C44.5804 71.1638 44.6931 71.1783 44.7994 71.2148C44.9058 71.2513 45.0036 71.3091 45.0869 71.3846C45.1702 71.4601 45.2372 71.5519 45.2839 71.6541C45.3306 71.7564 45.3559 71.8672 45.3584 71.9796Z" fill="#263238"/>
<path d="M45.3599 70.8697C45.2481 70.9815 44.594 70.4805 43.6542 70.4557C42.7144 70.4308 41.9982 70.8987 41.9154 70.7827C41.8657 70.7289 41.9816 70.5261 42.2839 70.3108C42.6957 70.0335 43.1826 69.889 43.679 69.8968C44.1696 69.9021 44.6456 70.0646 45.037 70.3605C45.3185 70.613 45.4137 70.82 45.3599 70.8697Z" fill="#263238"/>
<path d="M48.6526 77.9124C49.1507 77.7651 49.6653 77.6802 50.1844 77.6599C50.4286 77.6599 50.6563 77.5978 50.6977 77.4363C50.7224 77.1885 50.6719 76.9389 50.5528 76.7201C50.3334 76.1322 50.1099 75.5195 49.8739 74.8778C48.9341 72.253 48.2551 70.1002 48.3628 70.063C48.4704 70.0257 49.315 72.133 50.2548 74.7453L50.9047 76.5959C51.0506 76.8896 51.0887 77.2251 51.0124 77.544C50.9743 77.6291 50.9172 77.7044 50.8454 77.764C50.7736 77.8236 50.6891 77.8659 50.5984 77.8876C50.4625 77.9188 50.3238 77.9355 50.1844 77.9373C49.6746 77.9897 49.1604 77.9813 48.6526 77.9124Z" fill="#263238"/>
<path d="M49.106 89.057C45.8875 89.0531 42.7336 88.1528 39.998 86.457C39.998 86.457 42.1301 91.1808 48.9653 90.6633L49.106 89.057Z" fill="#EB996E"/>
<path d="M48.2146 80.171C48.0403 79.942 47.8103 79.7613 47.5466 79.6461C47.2829 79.5309 46.9941 79.485 46.7076 79.5128C46.4994 79.5278 46.2965 79.5848 46.1108 79.6801C45.9252 79.7754 45.7606 79.9072 45.6271 80.0675C45.4988 80.2218 45.421 80.4116 45.4039 80.6115C45.3869 80.8113 45.4315 81.0116 45.5318 81.1853C45.6806 81.3604 45.8789 81.4862 46.1007 81.5461C46.3225 81.606 46.5572 81.5971 46.7738 81.5207C47.221 81.3704 47.6345 81.1341 47.991 80.8251C48.0979 80.7514 48.1905 80.6588 48.2642 80.5519C48.2978 80.4993 48.3156 80.4383 48.3156 80.3759C48.3156 80.3136 48.2978 80.2525 48.2642 80.2" fill="#EB996E"/>
<path d="M45.8717 78.5129C46.0249 78.5129 46.0084 79.5272 46.8736 80.2682C47.7389 81.0093 48.8236 80.9141 48.8277 81.059C48.8277 81.1211 48.5834 81.2536 48.1239 81.2577C47.5244 81.2564 46.9448 81.0422 46.4886 80.6533C46.0494 80.283 45.773 79.7554 45.7186 79.1836C45.6854 78.7778 45.8055 78.5046 45.8717 78.5129Z" fill="#263238"/>
<path d="M45.6734 67.1857C45.574 67.4382 44.6384 67.3016 43.533 67.4134C42.4276 67.5251 41.5251 67.8274 41.3843 67.579C41.3222 67.4672 41.4795 67.2312 41.8439 66.9911C42.3262 66.6885 42.8743 66.5067 43.4419 66.4612C44.0041 66.4068 44.5712 66.4847 45.0979 66.6889C45.5119 66.8627 45.7148 67.0656 45.6734 67.1857Z" fill="#263238"/>
<path d="M54.3178 68.1281C54.1481 68.3393 53.4898 68.1074 52.7239 68.0826C51.958 68.0578 51.2832 68.1985 51.1342 67.975C51.0721 67.8632 51.1797 67.652 51.4695 67.4533C51.8616 67.217 52.3152 67.1031 52.7725 67.1259C53.2297 67.1488 53.6697 67.3075 54.0363 67.5817C54.3054 67.8052 54.3923 68.0122 54.3178 68.1281Z" fill="#263238"/>
<path d="M42.5547 60.1479C44.4011 62.5532 42.5547 65.9977 40.4599 68.2084C38.365 70.4192 35.852 72.9777 36.4523 75.9461C37.152 79.3906 41.8923 81.5558 41.2258 85.0044C40.9815 86.2464 39.9838 87.3435 40.0086 88.6269C40.0086 90.9412 43.0308 92.0383 43.9126 94.1745C45.1215 97.1098 41.9047 100.078 41.884 103.249C41.884 105.05 42.9107 106.719 42.9853 108.52C43.1302 112.208 38.7956 114.949 35.2103 114.08C31.6251 113.21 29.137 109.716 28.3255 106.102C27.5141 102.488 28.0481 98.7492 28.5905 95.1019C28.2469 96.6585 25.8871 96.9732 24.7237 95.8843C23.5604 94.7955 23.4031 92.9863 23.6473 91.4173C24.26 87.4636 26.8186 84.0978 28.015 80.2848C29.0624 76.948 29.0335 73.3876 29.4723 69.9348C29.9111 66.482 30.9461 62.8471 33.5709 60.537C36.1957 58.2269 40.7662 57.8998 42.9314 60.6446" fill="#263238"/>
<path d="M33.2069 112.726C33.2335 112.679 33.2625 112.633 33.2938 112.589C33.3559 112.494 33.4429 112.361 33.5547 112.2C34.3831 110.885 34.8461 109.373 34.896 107.82C34.9467 106.566 34.7176 105.318 34.2253 104.164C33.683 102.881 32.7267 101.68 31.7165 100.372C31.1832 99.704 30.695 99.0014 30.2551 98.2687C29.7972 97.488 29.47 96.6377 29.2863 95.7515C29.0846 94.7984 29.1651 93.8071 29.5182 92.8991C29.7148 92.4373 29.9956 92.0162 30.3462 91.6571C30.7098 91.3055 31.1017 90.9843 31.5178 90.6966C32.3458 90.1087 33.1738 89.5167 33.6416 88.5976C34.0589 87.6455 34.1263 86.5766 33.832 85.5796C33.3352 83.5096 31.8945 81.895 30.9713 80.0941C30.4809 79.2142 30.1884 78.2379 30.1143 77.2333C30.0724 76.2663 30.2552 75.3027 30.6484 74.4181C31.4063 72.8226 32.5009 71.4102 33.8569 70.2781C35.0989 69.1728 36.2995 68.233 37.2972 67.2559C38.219 66.4047 38.9866 65.4005 39.5659 64.2876C40.0002 63.4447 40.2647 62.5248 40.3443 61.58C40.391 60.9835 40.3308 60.3834 40.1662 59.8081C40.0503 59.3941 39.951 59.2202 39.9675 59.2119C40.0662 59.3983 40.1466 59.5938 40.2076 59.7956C40.3925 60.3727 40.4669 60.9795 40.4271 61.5841C40.3658 62.5435 40.1094 63.4803 39.6736 64.3372C39.0985 65.4699 38.3308 66.494 37.4049 67.3636C36.4071 68.3572 35.1941 69.3052 33.9769 70.4106C32.6461 71.5385 31.5731 72.939 30.8305 74.5175C30.4536 75.3744 30.2779 76.3063 30.3172 77.2416C30.3908 78.2149 30.6732 79.161 31.1452 80.0154C31.6089 80.9014 32.1843 81.7501 32.7308 82.6402C33.313 83.5322 33.7517 84.5101 34.0308 85.5382C34.3372 86.5853 34.2639 87.707 33.8238 88.7053C33.3394 89.6865 32.4327 90.2992 31.6296 90.8788C31.2225 91.159 30.839 91.4719 30.4828 91.8144C30.1463 92.1531 29.8742 92.5501 29.6796 92.986C29.3427 93.8576 29.2651 94.8079 29.4561 95.7226C29.6329 96.5953 29.9488 97.434 30.3917 98.2066C30.8278 98.9273 31.3104 99.6187 31.8366 100.277C32.8343 101.577 33.7948 102.806 34.3413 104.118C34.8358 105.296 35.058 106.569 34.9912 107.844C34.9292 109.413 34.4364 110.934 33.5671 112.241C33.447 112.411 33.3477 112.531 33.2856 112.618C33.2623 112.656 33.236 112.692 33.2069 112.726Z" fill="#455A64"/>
<path d="M83.9764 120.55L68.2858 147.948L46.0664 148.718V151.161H110.977L128.643 122.222C128.787 121.973 128.863 121.69 128.865 121.402C128.866 121.114 128.792 120.83 128.651 120.579C128.509 120.329 128.304 120.119 128.057 119.971C127.809 119.824 127.527 119.744 127.239 119.738H85.4005C85.1132 119.738 84.8307 119.813 84.581 119.955C84.3313 120.098 84.123 120.303 83.9764 120.55Z" fill="#263238"/>
<path d="M103.626 135.176C102.641 136.708 101.142 137.49 100.24 136.919C99.3373 136.348 99.4325 134.646 100.418 133.114C101.403 131.583 102.902 130.8 103.804 131.372C104.707 131.943 104.612 133.644 103.626 135.176Z" fill="#E0E0E0"/>
<path d="M181.915 138.81C181.891 138.737 181.861 138.666 181.824 138.599L181.538 137.986C181.196 137.195 180.919 136.376 180.71 135.539C180.156 133.362 179.961 130.033 180.785 126.084C181.229 123.931 181.814 121.809 182.536 119.733C183.281 117.477 184.142 115.084 184.846 112.5C185.642 109.802 186.026 107 185.985 104.187C185.881 101.248 185.008 98.3125 184.051 95.3897C183.095 92.4668 182.11 89.5937 181.812 86.7246C181.484 83.9544 182.042 81.1515 183.405 78.7179C184.672 76.3829 186.266 74.3874 187.459 72.3174C188.574 70.3999 189.396 68.3262 189.897 66.1654C190.616 63.0373 190.668 59.793 190.05 56.6434C189.832 55.4897 189.5 54.3607 189.057 53.2734C189.07 53.3493 189.09 53.424 189.115 53.497C189.164 53.6585 189.23 53.8737 189.317 54.1428C189.566 54.972 189.772 55.8136 189.934 56.6641C190.504 59.8008 190.42 63.0215 189.686 66.124C189.176 68.2579 188.353 70.3046 187.243 72.1974C186.051 74.2425 184.449 76.2297 183.157 78.5937C181.756 81.0717 181.177 83.9298 181.501 86.7578C181.799 89.6847 182.793 92.5537 183.745 95.489C184.697 98.4243 185.562 101.31 185.674 104.204C185.715 106.986 185.34 109.759 184.561 112.43C183.869 115.005 183.016 117.398 182.284 119.658C181.568 121.747 180.991 123.881 180.557 126.046C179.754 130.025 179.982 133.387 180.582 135.568C180.806 136.409 181.108 137.227 181.484 138.011L181.799 138.611C181.83 138.682 181.869 138.749 181.915 138.81Z" fill="#263238"/>
<path d="M185.817 74.3588C185.817 74.3588 188.238 66.6128 183.891 62.0754C183.858 62.038 183.815 62.0107 183.767 61.9968C183.719 61.9829 183.668 61.9828 183.62 61.9967C183.572 62.0106 183.529 62.0377 183.495 62.0751C183.462 62.1125 183.44 62.1585 183.432 62.2079C183.2 63.4871 182.91 67.3829 185.817 74.3588Z" fill="#FFC235"/>
<path d="M184.365 64.6543C184.372 65.1362 184.427 65.6161 184.531 66.0867C184.688 67.0679 184.874 68.2271 185.081 69.5022C185.288 70.7774 185.466 71.9366 185.624 72.9219C185.665 73.3995 185.751 73.8722 185.88 74.3336C185.927 73.8535 185.913 73.3695 185.839 72.8929C185.756 72.0069 185.603 70.7898 185.38 69.4526C185.156 68.1153 184.928 66.9147 184.742 66.0453C184.668 65.5691 184.542 65.1026 184.365 64.6543Z" fill="#263238"/>
<path d="M182.992 92.6331C182.992 92.6331 181.51 84.6512 175.54 82.6971C175.494 82.6798 175.443 82.6761 175.394 82.6863C175.345 82.6965 175.301 82.7203 175.265 82.7549C175.229 82.7894 175.203 82.8334 175.191 82.8818C175.179 82.9302 175.181 82.981 175.197 83.0283C175.578 84.2455 177.143 87.8266 182.992 92.6331Z" fill="#FFC235"/>
<path d="M177.148 84.7383C177.385 85.1592 177.662 85.5557 177.976 85.9223C178.577 86.7213 179.281 87.6528 180.046 88.6837L182.116 91.4533C182.378 91.8564 182.676 92.2347 183.007 92.5836C182.82 92.1424 182.581 91.7254 182.294 91.3416C181.81 90.5964 181.102 89.5945 180.282 88.514C179.463 87.4334 178.697 86.4812 178.121 85.8023C177.84 85.4103 177.514 85.0532 177.148 84.7383Z" fill="#263238"/>
<path d="M184.585 112.658C184.585 112.658 185.483 104.589 180.35 100.966C180.31 100.941 180.264 100.926 180.217 100.924C180.169 100.922 180.122 100.932 180.08 100.954C180.038 100.976 180.003 101.009 179.977 101.048C179.952 101.088 179.938 101.134 179.936 101.182C179.94 102.486 180.399 106.365 184.585 112.658Z" fill="#FFC235"/>
<path d="M181.305 103.408C181.405 103.879 181.554 104.338 181.748 104.779C182.091 105.718 182.493 106.815 182.94 108.028C183.387 109.241 183.768 110.343 184.124 111.282C184.258 111.743 184.432 112.19 184.646 112.62C184.599 112.141 184.494 111.669 184.331 111.216C184.083 110.359 183.698 109.196 183.226 107.904C182.754 106.613 182.298 105.495 181.946 104.679C181.781 104.233 181.565 103.807 181.305 103.408Z" fill="#263238"/>
<path d="M180.092 132.798C180.092 132.798 180.705 124.7 175.447 121.264C175.406 121.238 175.359 121.223 175.31 121.222C175.261 121.22 175.213 121.232 175.171 121.256C175.128 121.28 175.093 121.315 175.069 121.357C175.045 121.399 175.032 121.447 175.033 121.496C175.087 122.796 175.683 126.658 180.092 132.798Z" fill="#FFC235"/>
<path d="M176.484 123.674C176.595 124.141 176.756 124.595 176.965 125.028L178.273 128.232C178.761 129.433 179.2 130.517 179.573 131.44C179.723 131.897 179.915 132.339 180.144 132.761C180.078 132.283 179.954 131.814 179.776 131.366C179.498 130.538 179.072 129.37 178.554 128.116C178.037 126.862 177.54 125.744 177.163 124.945C176.984 124.498 176.757 124.071 176.484 123.674Z" fill="#263238"/>
<path d="M189.299 67.553C189.299 67.553 196.494 63.7939 196.635 57.5135C196.636 57.4648 196.624 57.4167 196.599 57.3745C196.575 57.3322 196.54 57.2974 196.497 57.2736C196.455 57.2498 196.407 57.238 196.358 57.2394C196.309 57.2408 196.262 57.2554 196.221 57.2816C195.145 58.0186 192.184 60.5647 189.299 67.553Z" fill="#FFC235"/>
<path d="M195.141 59.6689C194.805 60.0124 194.505 60.3898 194.247 60.795C193.659 61.6023 192.976 62.5504 192.218 63.5978C191.461 64.6452 190.769 65.5933 190.182 66.3964C189.87 66.7636 189.593 67.1585 189.354 67.5763C189.726 67.27 190.058 66.9181 190.343 66.5289C190.91 65.8458 191.664 64.8729 192.454 63.7758C193.245 62.6787 193.932 61.6644 194.413 60.9151C194.703 60.5293 194.947 60.1111 195.141 59.6689Z" fill="#263238"/>
<path d="M181.57 84.1914C181.57 84.1914 188.981 80.8794 189.507 74.6156C189.513 74.5649 189.504 74.5135 189.482 74.4675C189.459 74.4215 189.425 74.3827 189.381 74.3558C189.338 74.3289 189.288 74.3149 189.236 74.3154C189.185 74.316 189.136 74.3311 189.093 74.3589C187.987 75.0545 184.874 77.3977 181.57 84.1914Z" fill="#FFC235"/>
<path d="M187.882 76.6816C187.523 77.0022 187.2 77.3603 186.918 77.7498L184.723 80.4242L182.521 83.0945C182.189 83.4422 181.891 83.8206 181.631 84.2247C182.019 83.9369 182.372 83.6049 182.682 83.2353C183.291 82.5894 184.102 81.6662 184.959 80.6188C185.816 79.5714 186.562 78.5985 187.087 77.8822C187.396 77.5128 187.663 77.1101 187.882 76.6816Z" fill="#263238"/>
<path d="M185.834 102.751C185.834 102.751 190.922 96.4247 188.537 90.6163C188.519 90.5704 188.488 90.5305 188.449 90.5009C188.409 90.4713 188.362 90.4532 188.313 90.4485C188.264 90.4438 188.215 90.4527 188.17 90.4743C188.126 90.4958 188.088 90.5292 188.061 90.5708C187.378 91.6761 185.681 95.1993 185.834 102.751Z" fill="#FFC235"/>
<path d="M188.03 93.1914C187.861 93.6418 187.736 94.1077 187.658 94.5825C187.447 95.5554 187.198 96.698 186.925 97.9648C186.652 99.2317 186.395 100.37 186.18 101.343C186.046 101.803 185.953 102.274 185.902 102.751C186.119 102.321 186.281 101.866 186.387 101.397C186.635 100.544 186.937 99.3517 187.215 98.0269C187.492 96.7021 187.72 95.4974 187.861 94.6197C187.97 94.1513 188.027 93.6723 188.03 93.1914Z" fill="#263238"/>
<path d="M180.797 124.593C180.797 124.593 188.15 121.156 188.568 114.889C188.573 114.838 188.563 114.787 188.541 114.742C188.518 114.697 188.483 114.659 188.44 114.632C188.397 114.606 188.347 114.592 188.296 114.593C188.246 114.593 188.196 114.608 188.154 114.636C187.057 115.327 183.985 117.745 180.797 124.593Z" fill="#FFC235"/>
<path d="M186.979 116.976C186.628 117.305 186.31 117.668 186.031 118.06L183.883 120.776L181.746 123.492C181.421 123.846 181.13 124.23 180.877 124.639C181.259 124.345 181.605 124.008 181.908 123.633C182.508 122.979 183.303 122.039 184.143 120.975C184.984 119.911 185.712 118.93 186.213 118.205C186.512 117.824 186.769 117.412 186.979 116.976Z" fill="#263238"/>
<path d="M166.148 92.6787C166.148 92.6787 166.148 92.7367 166.148 92.8567C166.148 92.9768 166.148 93.1672 166.148 93.3742C166.169 93.8627 166.198 94.521 166.235 95.3449C166.326 97.0754 166.459 99.4849 166.62 102.383C167.146 105.318 168.641 108.593 170.653 111.735C172.127 114.066 173.671 116.181 175.004 118.152C176.215 119.868 177.305 121.667 178.266 123.534C178.898 124.803 179.41 126.128 179.794 127.492C179.922 127.976 180.017 128.353 180.075 128.614C180.098 128.747 180.134 128.877 180.183 129.003C180.179 128.864 180.162 128.725 180.133 128.589C180.1 128.324 180.022 127.939 179.906 127.446C179.562 126.061 179.077 124.714 178.461 123.426C177.522 121.531 176.444 119.707 175.236 117.97C173.911 115.987 172.375 113.867 170.909 111.549C168.91 108.402 167.419 105.198 166.877 102.308C166.674 99.4103 166.509 97.0133 166.384 95.2703C166.318 94.4423 166.264 93.7965 166.227 93.308C166.227 93.101 166.19 92.9312 166.173 92.7905C166.168 92.7526 166.16 92.7153 166.148 92.6787Z" fill="#263238"/>
<path d="M170.523 111.139C170.523 111.139 167.41 103.646 171.326 98.719C171.356 98.6795 171.397 98.6493 171.444 98.6316C171.49 98.614 171.541 98.6097 171.59 98.6191C171.639 98.6286 171.684 98.6514 171.721 98.6851C171.758 98.7188 171.784 98.7621 171.798 98.81C172.146 100.077 172.787 103.931 170.523 111.139Z" fill="#FFC235"/>
<path d="M171.092 101.344C170.957 101.806 170.875 102.283 170.847 102.764C170.736 103.646 170.611 104.867 170.516 106.217C170.421 107.566 170.375 108.796 170.375 109.682C170.344 110.164 170.373 110.648 170.462 111.122C170.546 110.65 170.588 110.17 170.587 109.69C170.653 108.696 170.731 107.529 170.818 106.237C170.905 104.946 170.992 103.778 171.058 102.784C171.12 102.307 171.131 101.824 171.092 101.344Z" fill="#263238"/>
<g opacity="0.3">
<path d="M170.523 111.139C170.523 111.139 167.41 103.646 171.326 98.719C171.356 98.6795 171.397 98.6493 171.444 98.6316C171.49 98.614 171.541 98.6097 171.59 98.6191C171.639 98.6286 171.684 98.6514 171.721 98.6851C171.758 98.7188 171.784 98.7621 171.798 98.81C172.146 100.077 172.787 103.931 170.523 111.139Z" fill="black"/>
</g>
<path d="M180.176 129.205C180.176 129.205 177.692 121.48 181.981 116.905C182.015 116.868 182.058 116.841 182.106 116.827C182.154 116.813 182.205 116.813 182.253 116.826C182.301 116.839 182.344 116.866 182.378 116.903C182.412 116.939 182.435 116.984 182.445 117.033C182.689 118.309 183.012 122.204 180.176 129.205Z" fill="#FFC235"/>
<path d="M181.533 119.488C181.36 119.938 181.239 120.406 181.173 120.883C180.991 121.753 180.759 122.953 180.564 124.295C180.37 125.636 180.212 126.853 180.15 127.739C180.084 128.217 180.074 128.7 180.121 129.18C180.248 128.717 180.33 128.243 180.366 127.764C180.511 126.779 180.684 125.62 180.875 124.345C181.065 123.069 181.247 121.906 181.397 120.921C181.489 120.449 181.535 119.969 181.533 119.488Z" fill="#263238"/>
<g opacity="0.3">
<path d="M180.176 129.204C180.176 129.204 177.692 121.479 181.981 116.904C182.015 116.867 182.058 116.84 182.106 116.826C182.154 116.812 182.205 116.812 182.253 116.825C182.301 116.838 182.344 116.865 182.378 116.902C182.412 116.938 182.435 116.983 182.445 117.032C182.689 118.308 183.012 122.203 180.176 129.204Z" fill="black"/>
</g>
<path d="M166.557 101.964C166.557 101.964 159.908 97.3108 160.579 91.0636C160.583 91.0138 160.601 90.9662 160.631 90.9261C160.661 90.886 160.701 90.855 160.747 90.8365C160.794 90.818 160.844 90.8128 160.894 90.8215C160.943 90.8301 160.989 90.8523 161.026 90.8855C161.991 91.7715 164.599 94.6819 166.557 101.964Z" fill="#FFC235"/>
<g opacity="0.3">
<path d="M166.557 101.966C166.557 101.966 159.908 97.3128 160.579 91.0655C160.583 91.0158 160.601 90.9682 160.631 90.928C160.661 90.8879 160.701 90.8569 160.747 90.8384C160.794 90.8199 160.844 90.8147 160.894 90.8234C160.943 90.8321 160.989 90.8543 161.026 90.8875C161.991 91.7735 164.599 94.6839 166.557 101.966Z" fill="black"/>
</g>
<path d="M161.785 93.4062C161.917 93.8691 162.101 94.315 162.336 94.7352C162.717 95.5384 163.267 96.6355 163.909 97.8278C164.551 99.0201 165.151 100.08 165.648 100.829C165.883 101.251 166.168 101.643 166.496 101.997C166.315 101.552 166.094 101.125 165.834 100.722L164.178 97.6829L162.522 94.64C162.318 94.2052 162.071 93.7919 161.785 93.4062Z" fill="#263238"/>
<path d="M177.491 121.546C177.491 121.546 169.468 120.304 167.319 114.392C167.302 114.346 167.298 114.296 167.308 114.248C167.318 114.199 167.34 114.155 167.374 114.118C167.407 114.082 167.45 114.056 167.497 114.042C167.544 114.028 167.594 114.028 167.642 114.041C168.913 114.384 172.519 115.858 177.491 121.546Z" fill="#FFC235"/>
<g opacity="0.3">
<path d="M177.491 121.545C177.491 121.545 169.468 120.303 167.319 114.391C167.302 114.345 167.298 114.295 167.308 114.247C167.318 114.198 167.34 114.154 167.374 114.117C167.407 114.081 167.45 114.055 167.497 114.041C167.544 114.027 167.594 114.027 167.642 114.04C168.913 114.383 172.519 115.857 177.491 121.545Z" fill="black"/>
</g>
<path d="M169.426 115.958C169.751 116.313 170.115 116.631 170.51 116.906C171.202 117.461 172.166 118.202 173.284 118.976C174.402 119.75 175.408 120.442 176.182 120.905C176.577 121.183 177.005 121.41 177.457 121.58C177.098 121.263 176.712 120.977 176.302 120.727L173.466 118.744L170.647 116.736C170.267 116.436 169.858 116.176 169.426 115.958Z" fill="#263238"/>
<path d="M186.98 136.31L184.682 151.4L175.491 151.383L172.398 136.31H186.98Z" fill="#455A64"/>
<path d="M173.748 142.122C173.748 142.122 173.769 142.147 173.823 142.18C173.876 142.213 173.955 142.263 174.067 142.316C174.39 142.474 174.737 142.578 175.094 142.623C175.661 142.699 176.239 142.646 176.783 142.465C177.515 142.233 178.153 141.77 178.6 141.145C178.847 140.767 178.989 140.332 179.014 139.882C179.039 139.629 178.994 139.375 178.884 139.146C178.774 138.917 178.602 138.724 178.389 138.586C178.145 138.465 177.873 138.413 177.602 138.435C177.33 138.456 177.07 138.552 176.849 138.71C176.392 139.045 176.078 139.541 175.971 140.097C175.849 140.657 175.81 141.232 175.855 141.803C175.886 142.4 176.012 142.988 176.228 143.546C176.454 144.131 176.819 144.653 177.292 145.065C177.783 145.501 178.405 145.76 179.06 145.802C179.714 145.816 180.357 145.63 180.902 145.268C181.425 144.934 181.889 144.514 182.272 144.026C182.667 143.558 182.909 142.98 182.968 142.37C182.991 142.071 182.944 141.771 182.83 141.493C182.717 141.216 182.54 140.969 182.314 140.772C182.081 140.6 181.804 140.499 181.515 140.481C181.226 140.463 180.938 140.53 180.687 140.673C180.445 140.793 180.234 140.968 180.071 141.184C179.908 141.399 179.797 141.649 179.747 141.915C179.678 142.384 179.752 142.863 179.96 143.289C180.167 143.715 180.498 144.069 180.91 144.304C181.588 144.671 182.375 144.785 183.129 144.626C183.686 144.51 184.22 144.3 184.707 144.005C185.014 143.825 185.31 143.626 185.593 143.409C185.697 143.339 185.793 143.257 185.878 143.165C185.769 143.226 185.664 143.293 185.564 143.368C185.361 143.5 185.063 143.703 184.661 143.923C184.177 144.194 183.651 144.385 183.104 144.486C182.386 144.626 181.641 144.507 181.001 144.15C180.628 143.93 180.329 143.604 180.143 143.213C179.956 142.822 179.891 142.385 179.954 141.956C180 141.726 180.098 141.509 180.242 141.323C180.385 141.137 180.57 140.986 180.782 140.884C180.995 140.759 181.24 140.7 181.486 140.715C181.732 140.729 181.968 140.817 182.165 140.967C182.36 141.141 182.512 141.359 182.609 141.603C182.706 141.846 182.745 142.109 182.724 142.37C182.667 142.931 182.44 143.461 182.074 143.89C181.707 144.354 181.265 144.753 180.765 145.069C180.262 145.401 179.671 145.574 179.068 145.566C178.47 145.523 177.903 145.284 177.453 144.887C177.008 144.503 176.664 144.015 176.451 143.467C176.246 142.937 176.125 142.379 176.091 141.811C176.047 141.264 176.08 140.714 176.191 140.176C176.286 139.679 176.564 139.236 176.969 138.934C177.155 138.795 177.376 138.71 177.607 138.687C177.839 138.664 178.072 138.705 178.281 138.806C178.464 138.923 178.61 139.088 178.704 139.283C178.798 139.478 178.837 139.695 178.815 139.911C178.793 140.329 178.661 140.735 178.435 141.087C178.014 141.686 177.414 142.135 176.721 142.37C176.207 142.539 175.664 142.596 175.127 142.536C174.647 142.475 174.181 142.335 173.748 142.122Z" fill="#263238"/>
</svg>
