<svg width="122" height="114" viewBox="0 0 122 114" fill="none" xmlns="http://www.w3.org/2000/svg">
<circle cx="60.6024" cy="60.603" r="57.2062" transform="rotate(5.64728 60.6024 60.603)" fill="#DECAFF" stroke="white" stroke-width="3.57539"/>
<path d="M84.1622 41.0454C80.3072 38.7566 76.1212 36.9564 71.6803 35.7279C71.0263 36.6752 70.2448 37.959 69.6918 38.9871C64.9601 37.7906 60.2013 37.32 55.4153 37.5754C55.0745 36.4589 54.5448 35.0454 54.084 33.9879C49.4836 34.3224 45.0207 35.2725 40.7916 36.7668C31.4223 48.267 28.0257 60.0492 27.9608 71.9887C32.969 76.557 37.9669 79.5255 42.96 81.6383C44.4049 80.0153 45.7232 78.2685 46.8942 76.406C45.1028 75.5154 43.4063 74.4673 41.8219 73.2886C42.3015 73.002 42.7728 72.6995 43.2303 72.3855C53.0295 78.2017 64.1924 79.3055 74.8183 75.509C75.2104 75.907 75.6132 76.296 76.0225 76.6704C74.2325 77.5205 72.3587 78.2156 70.4276 78.7381C71.2116 80.7889 72.1569 82.7646 73.2608 84.6396C78.576 83.5461 84.0633 81.6145 89.8697 78.1105C92.5224 64.5244 90.1868 52.2867 84.1622 41.0454ZM49.2625 66.7485C46.1784 66.4435 43.9336 63.3172 44.2799 59.8147C44.6262 56.3122 47.3864 53.6758 50.5245 53.9861C53.6627 54.2965 55.9075 57.4227 55.5066 60.9248C55.1652 64.4278 52.4007 67.0588 49.2625 66.7485ZM70.0069 68.7997C66.9228 68.4948 64.6779 65.3685 65.0243 61.866C65.3706 58.3635 68.1307 55.7271 71.2689 56.0374C74.407 56.3477 76.6519 59.4739 76.251 62.9761C75.9047 66.4786 73.145 69.1101 70.0069 68.7997Z" fill="#B384FF"/>
</svg>
