<svg width="186" height="155" viewBox="0 0 186 155" fill="none" xmlns="http://www.w3.org/2000/svg">
<path d="M22.4291 28.707L16.9941 54.933C19.4121 57.3882 21.9752 59.7058 26.1119 60.58L46.0139 64.0768L50.6899 33.2492L22.4291 28.707Z" fill="#FAFAFA"/>
<path d="M21.2923 27.0879L15.8574 53.3139L24.9751 58.9608L44.8771 62.4576L50.7547 32.865L21.2923 27.0879Z" fill="#F5F5F5"/>
<path d="M19.5677 51.916L15.8477 53.3147C15.8477 53.3147 17.1869 55.4984 19.1399 56.6627C20.9202 57.784 22.8969 58.5578 24.9654 58.9431C24.9654 58.9431 20.6316 56.8004 19.5677 51.916Z" fill="#E0E0E0"/>
<path d="M18.2657 32.7167L31.8698 28.4982L31.003 25.6338L17.1758 29.6551L18.2657 32.7167Z" fill="#EBEBEB"/>
<path d="M53.1102 39.9409L44.2901 28.7549L41.9316 30.5926L50.6402 42.0576L53.1102 39.9409Z" fill="#EBEBEB"/>
<path d="M45.6362 41.5789C45.6362 41.6309 40.6031 40.6935 34.4167 39.4845C28.2304 38.2755 23.2232 37.2525 23.2344 37.1967C23.2456 37.1409 28.2676 38.0821 34.4539 39.2911C40.6403 40.5001 45.6474 41.5268 45.6362 41.5789Z" fill="#E0E0E0"/>
<path d="M44.7476 45.5997C44.7476 45.6518 39.7145 44.7143 33.5281 43.5016C27.3418 42.2889 22.3198 41.2882 22.3458 41.2175C22.3718 41.1469 27.379 42.1029 33.5653 43.3119C39.7517 44.5209 44.7588 45.5476 44.7476 45.5997Z" fill="#E0E0E0"/>
<path d="M44.1714 49.2039C44.1714 49.2559 39.1382 48.3185 32.9556 47.1095C26.7729 45.9005 21.7621 44.8775 21.7695 44.8217C21.777 44.7659 26.8027 45.7071 32.9928 46.9198C39.1829 48.1325 44.1825 49.1518 44.1714 49.2039Z" fill="#E0E0E0"/>
<path d="M43.4761 52.6489C43.4761 52.701 38.4429 51.7635 32.2566 50.5508C26.0702 49.3381 21.0631 48.3188 21.0742 48.2667C21.0854 48.2146 26.1074 49.1521 32.2938 50.3611C38.4801 51.5701 43.4835 52.5968 43.4761 52.6489Z" fill="#E0E0E0"/>
<path d="M149.78 16.6463L142.745 33.7918C140.413 34.2642 138.043 34.6027 135.331 33.5053L122.561 27.81L131.812 8.31348L149.78 16.6463Z" fill="#FAFAFA"/>
<path d="M151.053 16.1556L144.022 33.3048L136.605 33.0147L123.834 27.3194L131.918 8.06836L151.053 16.1556Z" fill="#F5F5F5"/>
<path d="M142.435 31.0654L144.023 33.2974C143.016 33.7331 141.929 33.9572 140.831 33.9559C139.376 33.9083 137.942 33.5865 136.605 33.0073C136.605 33.0073 139.935 33.476 142.435 31.0654Z" fill="#E0E0E0"/>
<path d="M150.611 20.5567L144.439 12.8749L146.046 11.5654L152.423 19.2212L150.611 20.5567Z" fill="#EBEBEB"/>
<path d="M127.83 11.2187L137.216 8.21289L137.859 10.1808L128.425 13.3874L127.83 11.2187Z" fill="#EBEBEB"/>
<path d="M131.484 15.0472C131.503 14.9988 134.777 16.338 138.794 18.0232C142.812 19.7083 146.052 21.1405 146.03 21.1889C146.007 21.2372 142.737 19.9018 138.72 18.2129C134.702 16.524 131.462 15.0955 131.484 15.0472Z" fill="#E0E0E0"/>
<path d="M130.438 17.6997C130.456 17.6476 133.73 18.9868 137.747 20.6757C141.765 22.3646 145.001 23.7931 144.983 23.8414C144.964 23.8898 141.687 22.5543 137.673 20.8654C133.659 19.1766 130.415 17.7481 130.438 17.6997Z" fill="#E0E0E0"/>
<path d="M129.371 19.9907C129.393 19.9386 132.667 21.2778 136.681 22.9667C140.695 24.6556 143.939 26.0841 143.916 26.1324C143.894 26.1808 140.624 24.8453 136.607 23.1564C132.589 21.4676 129.353 20.0391 129.371 19.9907Z" fill="#E0E0E0"/>
<path d="M128.442 22.2347C128.46 22.1863 131.734 23.5255 135.751 25.2107C139.769 26.8958 143.005 28.328 142.987 28.3764C142.968 28.4247 139.691 27.0893 135.673 25.4004C131.656 23.7115 128.419 22.283 128.442 22.2347Z" fill="#E0E0E0"/>
<path d="M142.13 89.7188C136.431 85.0762 135.646 77.1824 136.405 70.1962C136.532 69.0282 136.495 67.7894 137.127 66.8036C137.759 65.8178 139.11 65.2152 140.103 65.7843C140.94 66.2568 141.245 67.2946 141.669 68.1651C142.235 69.3281 143.118 70.3071 144.217 70.9886C144.931 71.4313 145.835 71.7326 146.602 71.3829C147.651 70.903 147.874 69.5229 147.952 68.3548C148.101 66.1873 148.248 64.0186 148.395 61.8486C148.412 60.6814 148.616 59.5245 149.001 58.4224C149.444 57.3436 150.318 56.3802 151.449 56.1495C152.58 55.9189 153.897 56.6629 154.053 57.8198C154.06 58.3033 154.035 58.7866 153.979 59.2669C153.979 59.7542 154.157 60.3048 154.607 60.4722C155.057 60.6396 155.552 60.3494 155.924 60.0332C157.211 58.9507 158.137 57.4962 159.012 56.0491C159.886 54.602 160.738 53.1177 161.921 51.9162C163.104 50.7146 164.685 49.8144 166.359 49.8404C168.033 49.8664 169.729 51.0308 170.027 52.6974C170.324 54.3639 169.249 55.9598 168.111 57.2097C166.421 59.0642 164.471 60.6643 162.322 61.9602C161.91 62.151 161.569 62.4674 161.348 62.8641C161.039 63.6081 161.72 64.4451 162.464 64.7576C163.312 65.111 164.257 65.0924 165.157 65.2635C166.057 65.4346 167.017 65.9108 167.289 66.7924C167.661 68.0163 166.589 69.1918 165.551 69.9321C163.472 71.4232 161.15 72.5433 158.688 73.2429C157.81 73.4959 156.888 73.7005 156.155 74.251C155.422 74.8016 154.927 75.8172 155.281 76.6653C155.634 77.5135 156.69 77.8594 157.598 77.759C158.506 77.6586 159.343 77.2308 160.221 76.9741C161.865 76.4867 163.918 76.7509 164.841 78.2091C165.447 79.1652 165.41 80.4411 164.99 81.4902C164.521 82.5276 163.849 83.4609 163.014 84.2355C160.256 87.0884 156.79 89.1588 152.97 90.2359C149.169 91.2477 145.709 91.3519 142.123 89.7188" fill="#F5F5F5"/>
<path d="M141.654 94.9043C142.217 91.6808 143.089 88.519 144.258 85.463C145.703 81.7337 147.361 78.0907 149.224 74.5522L150.675 71.7585C151.151 70.8434 151.624 69.932 152.145 69.0726C153.142 67.4242 154.23 65.8321 155.403 64.3036C156.519 62.8379 157.635 61.4876 158.666 60.2116C159.696 58.9356 160.712 57.8085 161.668 56.7966C163.166 55.1957 164.789 53.7167 166.522 52.3736C167.136 51.8974 167.638 51.544 167.955 51.3096L168.327 51.0418C168.368 51.0101 168.413 50.9827 168.461 50.96C168.422 50.9963 168.381 51.0299 168.338 51.0604L167.966 51.3431C167.642 51.5886 167.162 51.9532 166.56 52.4405C164.851 53.8049 163.248 55.2972 161.765 56.9045C160.816 57.9164 159.826 59.0696 158.789 60.3269C157.751 61.5843 156.65 62.9309 155.545 64.4189C154.381 65.9452 153.3 67.5335 152.308 69.1768C151.795 70.0324 151.326 70.9326 150.846 71.8515C150.367 72.7703 149.89 73.7115 149.399 74.6415C147.54 78.174 145.879 81.808 144.426 85.5262C143.251 88.5686 142.366 91.7147 141.781 94.9229" fill="#E0E0E0"/>
<path d="M152.212 69.069C152.169 68.9049 152.144 68.7365 152.138 68.5668C152.101 68.2394 152.06 67.767 152.023 67.1829C151.945 66.0111 151.889 64.3929 151.837 62.6073C151.785 60.8217 151.71 59.2073 151.613 58.0392C151.569 57.4589 151.524 56.9864 151.491 56.6591C151.464 56.4906 151.455 56.3197 151.465 56.1494C151.519 56.3112 151.555 56.4783 151.573 56.6479C151.632 56.9715 151.699 57.444 151.766 58.0243C151.9 59.1924 152 60.8106 152.052 62.5999C152.104 64.3892 152.142 65.9479 152.175 67.1755C152.175 67.7223 152.209 68.1873 152.22 68.5593C152.237 68.7289 152.235 68.9 152.212 69.069Z" fill="#E0E0E0"/>
<path d="M167.372 67.3838C167.172 67.4133 166.971 67.4232 166.769 67.4135C166.397 67.4135 165.824 67.4135 165.136 67.4507C163.756 67.4991 161.851 67.6293 159.757 67.8637C157.663 68.098 155.773 68.4031 154.415 68.656C153.734 68.7788 153.188 68.8941 152.808 68.9722C152.613 69.0245 152.414 69.0569 152.213 69.0689C152.399 68.9902 152.592 68.9291 152.789 68.8867C153.161 68.7862 153.708 68.6486 154.385 68.5147C155.739 68.2208 157.629 67.8971 159.731 67.6553C161.524 67.448 163.327 67.3313 165.132 67.3057C165.824 67.3057 166.386 67.3057 166.773 67.3354C166.974 67.3331 167.174 67.3493 167.372 67.3838Z" fill="#E0E0E0"/>
<path d="M144.467 85.2026C144.432 85.1425 144.403 85.0789 144.381 85.0128L144.166 84.4511C143.98 83.9638 143.731 83.2533 143.422 82.3679C142.827 80.6046 142.083 78.1383 141.298 75.4078C140.513 72.6773 139.81 70.1998 139.237 68.4291C138.965 67.566 138.738 66.8555 138.571 66.3273C138.5 66.0966 138.441 65.9069 138.396 65.7544C138.369 65.6891 138.353 65.6201 138.348 65.5498C138.384 65.6096 138.414 65.6732 138.437 65.7395L138.649 66.2975C138.835 66.7848 139.084 67.4954 139.393 68.3807C139.988 70.1477 140.732 72.6104 141.517 75.3446C142.302 78.0788 143.005 80.5526 143.578 82.3233C143.85 83.1863 144.076 83.8968 144.244 84.4214L144.422 84.998C144.448 85.0635 144.463 85.1325 144.467 85.2026Z" fill="#E0E0E0"/>
<path d="M164.796 80.2695C164.731 80.3 164.662 80.3225 164.591 80.3365L164 80.489L161.82 81.021C159.982 81.4711 157.449 82.1184 154.651 82.8401C151.854 83.5617 149.309 84.1904 147.461 84.5996C146.534 84.8079 145.787 84.9716 145.266 85.0646L144.667 85.1762C144.596 85.1935 144.524 85.2022 144.451 85.2022C144.516 85.1718 144.585 85.1493 144.656 85.1353L145.247 84.9828L147.427 84.4508C149.265 84.0044 151.798 83.3534 154.599 82.6317C157.4 81.9101 159.96 81.2814 161.82 80.8684C162.746 80.6638 163.494 80.4964 164.015 80.4072L164.617 80.2956C164.676 80.2808 164.736 80.2721 164.796 80.2695Z" fill="#E0E0E0"/>
<path d="M173.26 154.691C173.26 154.747 138.061 154.788 94.656 154.788C51.251 154.788 16.0449 154.747 16.0449 154.691C16.0449 154.636 51.2324 154.595 94.656 154.595C138.08 154.595 173.26 154.639 173.26 154.691Z" fill="#263238"/>
<path d="M63.5254 12.9375L72.5017 40.3018C76.0655 41.2951 79.6962 42.0837 84.0337 40.6738L104.464 33.2822L92.3182 2.03418L63.5254 12.9375Z" fill="#E0E0E0"/>
<path d="M61.6016 12.0376L70.5779 39.3982L82.0988 39.7851L102.529 32.3897L92.1651 1.65137L61.6016 12.0376Z" fill="#4E85FF"/>
<path d="M73.2824 36.1104L70.5742 39.3988C70.5742 39.3988 72.9922 40.7194 75.4437 40.7752C77.7037 40.8732 79.9618 40.5425 82.0988 39.8006C82.0988 39.8006 76.8908 40.0945 73.2824 36.1104Z" fill="#4E85FF"/>
<path opacity="0.3" d="M73.2824 36.1104C72.4603 37.7732 71.627 39.7262 70.5742 39.3988C70.5742 39.3988 72.9922 40.7194 75.4437 40.7752C77.7037 40.8732 79.9618 40.5425 82.0988 39.8006C82.0988 39.8006 76.8908 40.0945 73.2824 36.1104Z" fill="black"/>
<path d="M61.7948 18.9044L72.2182 7.69229L69.8783 5.48633L59.1387 16.6352L61.7948 18.9044Z" fill="#E0E0E0"/>
<path d="M98.1475 6.98968L83.9409 1.2832L82.7207 4.2592L96.9795 10.2856L98.1475 6.98968Z" fill="#E0E0E0"/>
<path d="M92.0573 12.5177C92.0573 12.5661 86.8865 14.3777 80.4732 16.5614C74.0599 18.745 68.8408 20.4748 68.8184 20.4227C68.7961 20.3707 73.9855 18.5627 80.4025 16.3791C86.8195 14.1955 92.0387 12.4657 92.0573 12.5177Z" fill="#263238"/>
<path d="M93.3701 16.7362C93.3701 16.7883 88.1993 18.5962 81.786 20.7836C75.3727 22.9709 70.1536 24.6933 70.1387 24.6449C70.1238 24.5966 75.3058 22.7849 81.7228 20.5976C88.1398 18.4102 93.3701 16.6916 93.3701 16.7362Z" fill="#263238"/>
<path d="M94.7725 20.4113C94.7725 20.4597 89.6054 22.2713 83.1884 24.4549C76.7714 26.6386 71.5597 28.3684 71.5411 28.3163C71.5225 28.2642 76.7119 26.4563 83.1289 24.2727C89.5459 22.089 94.7576 20.3592 94.7725 20.4113Z" fill="#263238"/>
<path d="M95.9736 23.9942C95.9736 24.0462 90.8028 25.8542 84.3896 28.0415C77.9763 30.2289 72.7608 31.9512 72.7422 31.9029C72.7236 31.8545 77.9093 30.0429 84.3263 27.8555C90.7433 25.6682 95.9476 23.9458 95.9736 23.9942Z" fill="#263238"/>
<path d="M109.74 102.368L107.939 119.108C107.939 119.108 104.431 113.807 102.058 116.169C99.7961 118.423 95.8008 134.862 95.8008 134.862C95.8008 134.862 95.7488 140.223 98.5983 141.64C107.738 146.193 117.924 137.637 117.924 137.637L116.469 89.7236C112.68 92.9132 110.269 97.4432 109.74 102.368Z" fill="#4E85FF"/>
<path d="M140.576 90.7313L124.762 89.4702C124.665 87.6102 124.795 80.479 124.795 80.479C124.795 80.479 118.215 79.456 118.137 72.879C118.059 66.3021 119.193 51.1914 119.193 51.1914C122.933 49.5835 127.035 49.0036 131.074 49.5118C135.113 50.0199 138.943 51.5977 142.168 54.0819L143.143 54.8259L140.576 90.7313Z" fill="#B78876"/>
<path d="M124.784 80.3868C127.822 80.4442 130.809 79.596 133.363 77.9502C133.363 77.9502 131.335 82.682 124.77 82.0906L124.784 80.3868Z" fill="#AA6550"/>
<path d="M142.335 61.6442C142.446 61.5958 146.855 60.3087 146.71 64.8062C146.564 69.3037 142.082 68.2323 142.078 68.1021C142.074 67.9719 142.335 61.6442 142.335 61.6442Z" fill="#B78876"/>
<path d="M143.502 66.4431C143.524 66.4431 143.58 66.4989 143.71 66.5659C143.894 66.6518 144.103 66.6625 144.294 66.5957C144.778 66.4357 145.202 65.6954 145.25 64.8845C145.27 64.5034 145.207 64.1225 145.064 63.7685C145.027 63.6263 144.956 63.4954 144.857 63.3872C144.758 63.2789 144.634 63.1965 144.495 63.1472C144.406 63.1198 144.31 63.1249 144.224 63.1617C144.138 63.1985 144.068 63.2645 144.027 63.3481C143.963 63.4709 143.986 63.5601 143.963 63.5676C143.941 63.575 143.87 63.4895 143.911 63.3035C143.942 63.1941 144.007 63.0976 144.097 63.0282C144.224 62.9405 144.38 62.9046 144.532 62.9277C144.718 62.9728 144.89 63.0649 145.03 63.1952C145.17 63.3255 145.274 63.4896 145.332 63.6717C145.509 64.0677 145.588 64.5001 145.563 64.9328C145.503 65.8368 145.012 66.6701 144.358 66.8375C144.236 66.8695 144.108 66.8734 143.984 66.8489C143.861 66.8244 143.744 66.7722 143.643 66.6961C143.509 66.551 143.487 66.4506 143.502 66.4431Z" fill="#AA6550"/>
<path d="M120.645 61.3771C120.642 61.6223 120.736 61.8587 120.906 62.0358C121.075 62.213 121.307 62.317 121.552 62.3257C121.672 62.3353 121.792 62.3209 121.906 62.2831C122.02 62.2454 122.125 62.1852 122.215 62.1061C122.305 62.0271 122.379 61.9307 122.431 61.8227C122.483 61.7147 122.513 61.5974 122.519 61.4776C122.522 61.233 122.428 60.9972 122.26 60.8201C122.091 60.643 121.86 60.5386 121.615 60.529C121.496 60.5199 121.376 60.5347 121.262 60.5726C121.148 60.6104 121.043 60.6706 120.952 60.7495C120.862 60.8285 120.788 60.9246 120.735 61.0324C120.682 61.1401 120.652 61.2573 120.645 61.3771Z" fill="#263238"/>
<path d="M120.44 60.4471C120.555 60.5698 121.27 60.0416 122.278 60.0453C123.286 60.049 124.03 60.5549 124.138 60.4173C124.19 60.3615 124.071 60.1383 123.766 59.9039C123.329 59.6019 122.809 59.4422 122.278 59.4464C121.751 59.4444 121.238 59.6099 120.812 59.9188C120.488 60.1718 120.384 60.3913 120.44 60.4471Z" fill="#263238"/>
<path d="M130.547 61.7492C130.545 61.9938 130.638 62.2296 130.807 62.4066C130.975 62.5837 131.206 62.6881 131.451 62.6978C131.571 62.7069 131.691 62.6921 131.805 62.6542C131.919 62.6163 132.024 62.5562 132.114 62.4772C132.204 62.3983 132.278 62.3021 132.331 62.1944C132.384 62.0866 132.415 61.9694 132.422 61.8496C132.423 61.6047 132.329 61.3689 132.16 61.1919C131.99 61.015 131.759 60.9107 131.514 60.901C131.395 60.8919 131.275 60.9068 131.161 60.9447C131.047 60.9826 130.942 61.0428 130.852 61.1218C130.762 61.2008 130.689 61.297 130.636 61.4047C130.584 61.5125 130.553 61.6296 130.547 61.7492Z" fill="#263238"/>
<path d="M130.375 60.6335C130.494 60.7563 131.205 60.228 132.217 60.2317C133.229 60.2355 133.969 60.7414 134.077 60.6037C134.133 60.5517 134.014 60.3285 133.705 60.0941C133.267 59.7921 132.748 59.6311 132.217 59.6328C131.691 59.6322 131.178 59.7975 130.751 60.1053C130.427 60.3619 130.32 60.5814 130.375 60.6335Z" fill="#263238"/>
<path d="M126.707 68.1326C126.707 68.0768 126.082 67.9689 125.066 67.8387C124.806 67.8127 124.564 67.7606 124.519 67.582C124.499 67.3164 124.558 67.0508 124.69 66.8194C124.938 66.1945 125.192 65.5385 125.453 64.8516C126.517 62.0541 127.283 59.7514 127.168 59.7105C127.052 59.6696 126.104 61.9053 125.044 64.7028C124.791 65.391 124.545 66.0494 124.3 66.6818C124.135 66.992 124.087 67.3512 124.166 67.6936C124.203 67.7842 124.26 67.865 124.334 67.9295C124.408 67.9941 124.495 68.0407 124.59 68.0656C124.733 68.1062 124.88 68.1275 125.029 68.1289C126.067 68.1884 126.703 68.1921 126.707 68.1326Z" fill="#263238"/>
<path d="M130.116 56.6747C130.217 56.95 131.232 56.8198 132.411 56.9612C133.591 57.1025 134.558 57.4262 134.714 57.1807C134.785 57.0616 134.617 56.8087 134.23 56.5371C133.713 56.2147 133.129 56.0138 132.523 55.9494C131.917 55.8849 131.304 55.9587 130.73 56.1651C130.295 56.3288 130.075 56.5408 130.116 56.6747Z" fill="#263238"/>
<path d="M120.811 57.5229C120.99 57.7498 121.685 57.5229 122.522 57.5006C123.359 57.4783 124.07 57.6568 124.233 57.415C124.304 57.2997 124.193 57.0691 123.884 56.8533C123.468 56.5913 122.984 56.4592 122.493 56.4737C122.002 56.4883 121.526 56.649 121.127 56.9352C120.83 57.1732 120.733 57.4076 120.811 57.5229Z" fill="#263238"/>
<path d="M115.99 47.0403C115.944 46.6319 116.002 46.2184 116.158 45.8384C116.315 45.4585 116.566 45.1245 116.887 44.8678C117.218 44.6267 117.625 44.5112 118.034 44.5419C118.442 44.5725 118.827 44.7474 119.119 45.0352C119.057 44.7606 119.053 44.476 119.109 44.1999C119.164 43.9238 119.277 43.6624 119.439 43.4326C119.602 43.2029 119.811 43.0099 120.053 42.8662C120.296 42.7225 120.565 42.6314 120.845 42.5986C121.92 42.5317 122.835 43.3426 123.869 43.6254C124.903 43.9081 125.967 43.6626 126.942 43.272C127.917 42.8814 128.824 42.3382 129.81 41.9774C131.893 41.2167 134.192 41.309 136.207 42.234C138.222 43.1591 139.791 44.8422 140.572 46.9176C142.012 46.4674 143.645 47.2003 144.534 48.4056C145.423 49.6108 145.65 51.2253 145.471 52.7208C145.333 53.7297 145.083 54.7203 144.727 55.6744C144.727 55.76 144.727 55.8418 144.727 55.9274C144.657 59.5432 144.247 63.7915 142.704 63.8175C140.014 63.8584 140.658 58.7881 140.658 58.7881C137.354 57.5158 138.586 52.5682 137.76 51.8168C136.934 51.0654 135.208 49.3244 128.296 52.8547C125.61 54.2274 122.043 54.1864 120.093 53.7438L119.922 53.7066H119.881C119.862 53.7001 119.844 53.6926 119.826 53.6842C119.199 53.5301 118.6 53.2791 118.051 52.9402C117.404 52.5673 116.894 51.9978 116.593 51.3146C116.448 50.9727 116.406 50.596 116.472 50.2305C116.538 49.8651 116.709 49.527 116.965 49.2574C116.43 48.6294 116.092 47.8587 115.99 47.0403Z" fill="#263238"/>
<path d="M153.515 132.016L154.009 141.357L155.125 154.749H112.855L114.693 134.937L111.092 103.633C111.404 92.5694 115.653 87.9715 124.342 86.915L123.658 87.0006C124.856 86.8592 123.658 87.0006 124.342 86.915C129.83 88.6485 135.718 88.6485 141.205 86.915C143.809 87.0266 145.971 87.8264 148.188 88.2542C155.17 89.5897 160.917 94.9837 162.324 99.6821C163.473 103.547 171.787 137.072 171.787 137.072H155.237L153.515 132.016Z" fill="#4E85FF"/>
<path d="M125.849 71.2432C125.989 71.6521 126.187 72.0391 126.436 72.3926C126.562 72.569 126.724 72.7166 126.911 72.8256C127.099 72.9347 127.307 73.0026 127.523 73.025C127.753 73.0242 127.979 72.9659 128.181 72.8555C128.383 72.7451 128.554 72.586 128.68 72.3926C128.925 71.9994 129.038 71.538 129.003 71.0758C129.003 70.6591 128.795 70.1644 128.382 70.116C128.208 70.1093 128.035 70.1464 127.88 70.2239L125.711 71.1055" fill="#AA6550"/>
<path d="M126.716 73.0279C127.109 73.0543 127.502 73.0063 127.877 72.8865C128.256 72.7372 128.567 72.4539 128.751 72.0904C128.855 71.8693 128.911 71.6288 128.915 71.3845C128.92 71.1403 128.873 70.8979 128.777 70.6731C128.729 70.5569 128.666 70.4469 128.591 70.3457C128.502 70.2565 128.52 70.2602 128.427 70.2751C128.308 70.314 128.192 70.36 128.078 70.4127L127.706 70.5578C127.241 70.7438 126.82 70.9075 126.467 71.0414C125.757 71.3055 125.306 71.4469 125.284 71.4134C125.262 71.3799 125.675 71.1344 126.359 70.8033C126.701 70.6396 127.103 70.4313 127.568 70.2416L127.918 70.0853C128.048 70.0238 128.18 69.9692 128.316 69.9217C128.42 69.8868 128.532 69.8868 128.636 69.9217C128.731 69.9613 128.814 70.027 128.874 70.1114C128.974 70.236 129.057 70.3737 129.119 70.5206C129.237 70.7971 129.293 71.0963 129.281 71.3967C129.27 71.6972 129.191 71.9913 129.052 72.2578C128.935 72.4729 128.776 72.6624 128.584 72.8151C128.393 72.9678 128.172 73.0806 127.936 73.1469C127.632 73.2465 127.306 73.2594 126.995 73.1841C126.809 73.1246 126.709 73.0502 126.716 73.0279Z" fill="#263238"/>
<path d="M111.021 130.149L101.066 99.5852L100.166 94.4554C100.166 94.4554 97.4577 83.0126 97.335 81.8818C97.1973 80.5723 96.5315 80.3268 96.0553 80.3938C95.3113 80.5277 94.8761 81.5098 94.9616 82.6258C94.9914 82.9978 95.7056 89.1358 95.7056 89.1358C95.2868 88.596 94.8306 88.0864 94.3404 87.6106C93.31 86.5615 91.1114 86.1226 88.9352 86.4388C86.759 86.755 86.175 87.0228 86.2568 87.8747C86.2793 88.0347 86.3374 88.1877 86.4269 88.3223C86.5164 88.4568 86.635 88.5696 86.7739 88.6522C87.2106 88.9461 87.7407 89.068 88.2619 88.9944C91.755 88.5517 92.897 90.3225 92.897 90.3225L93.0161 90.992C93.0161 90.992 90.7246 89.7049 89.1026 90.527C88.8622 90.6485 88.6475 90.8153 88.4702 91.0181C87.9934 91.0718 87.5389 91.2491 87.1518 91.5326C86.7647 91.8161 86.4584 92.1958 86.2633 92.6342C86.0682 93.0725 85.991 93.5543 86.0395 94.0316C86.0879 94.509 86.2603 94.9654 86.5396 95.3556C86.8074 95.7276 87.2836 96.0624 87.7114 95.9248C87.9385 95.8277 88.138 95.6755 88.2917 95.4821C88.3789 95.3855 88.4748 95.2971 88.5781 95.218L89.1696 97.0519C89.1696 97.0519 90.7246 101.103 91.2007 102.941L96.0367 133.716C96.1966 134.73 96.5567 135.701 97.096 136.574C97.6353 137.447 98.343 138.204 99.1779 138.801C100.013 139.397 100.958 139.822 101.959 140.049C102.959 140.277 103.995 140.303 105.006 140.126C106.093 139.934 107.126 139.512 108.037 138.888C108.947 138.263 109.713 137.451 110.283 136.506C110.853 135.56 111.214 134.504 111.341 133.407C111.468 132.311 111.359 131.2 111.021 130.149Z" fill="#B78876"/>
<path d="M100.014 99.2725C99.3923 99.518 98.6818 99.1162 98.2726 98.588C97.8634 98.0598 97.6514 97.4013 97.2831 96.8433C96.1671 95.1693 93.883 94.563 92.8637 92.8406C92.7187 92.5988 92.6182 92.2603 92.8228 92.0706C93.0274 91.8808 93.3176 91.985 93.5668 92.0706L99.6825 94.6411" fill="#B78876"/>
<path d="M99.6702 94.656C99.4747 94.5146 99.2623 94.3984 99.0378 94.3101C98.6211 94.1092 98.011 93.8339 97.2559 93.4954L94.5998 92.3348L93.826 92.0037C93.5347 91.8213 93.1831 91.7611 92.8477 91.8363C92.7454 91.882 92.6593 91.9577 92.6009 92.0533C92.5424 92.1489 92.5143 92.2601 92.5203 92.372C92.5301 92.555 92.5823 92.7333 92.6728 92.8928C92.8396 93.1739 93.0367 93.4359 93.2606 93.674C94.172 94.6263 95.2731 95.162 96.099 95.8427C96.4985 96.1464 96.8497 96.5088 97.1406 96.9178C97.4047 97.2898 97.587 97.7176 97.7953 98.0822C97.9343 98.3931 98.1395 98.67 98.3965 98.8936C98.6535 99.1172 98.9561 99.282 99.2833 99.3767C99.7743 99.4697 100.027 99.28 100.005 99.2726C99.7765 99.3027 99.5444 99.2901 99.3205 99.2354C99.0277 99.1236 98.7614 98.9521 98.5385 98.7318C98.3157 98.5114 98.1411 98.2471 98.0259 97.9557C97.8362 97.5837 97.6539 97.1708 97.3935 96.743C97.0955 96.2997 96.7303 95.9057 96.311 95.5749C95.4628 94.8569 94.3692 94.2989 93.5322 93.4136C93.3279 93.2 93.1482 92.9641 92.9965 92.7105C92.8588 92.4724 92.8477 92.2157 92.9965 92.1748C93.1453 92.1339 93.428 92.2232 93.6884 92.3348L94.4622 92.6547L97.1517 93.7446C97.9218 94.046 98.5467 94.2878 98.9782 94.4477C99.1981 94.549 99.431 94.6191 99.6702 94.656Z" fill="#AA6550"/>
<path d="M93.0971 91.0444C93.0135 90.6285 92.8325 90.2384 92.5688 89.906C92.2667 89.5684 91.8635 89.3374 91.4194 89.2476C90.8654 89.1404 90.2981 89.1203 89.7379 89.1881C89.159 89.2582 88.5744 89.2694 87.9932 89.2216C87.5046 89.1752 87.0366 89.0021 86.6354 88.7194C86.5005 88.6173 86.3905 88.4859 86.3138 88.3351C86.2371 88.1843 86.1957 88.018 86.1928 87.8489C86.1846 87.728 86.2132 87.6074 86.2746 87.5029C86.2969 87.5029 86.2746 87.6294 86.2746 87.8452C86.2913 87.9948 86.3406 88.139 86.419 88.2675C86.4974 88.3961 86.603 88.5058 86.7284 88.5892C87.1123 88.8323 87.551 88.9756 88.0044 89.0058C88.5716 89.0396 89.1407 89.021 89.7044 88.95C90.2906 88.881 90.8842 88.9112 91.4603 89.0393C91.9439 89.1497 92.3763 89.4196 92.6879 89.8056C92.8911 90.0646 93.0266 90.3702 93.0822 90.6947C93.1167 90.8081 93.1218 90.9284 93.0971 91.0444Z" fill="#AA6550"/>
<path d="M94.9352 82.209C95.0193 82.6095 95.0691 83.0165 95.084 83.4254C95.1622 84.2624 95.2589 85.2594 95.3668 86.3605C95.4746 87.4616 95.6011 88.4549 95.6941 89.2919C95.7657 89.6946 95.8019 90.1029 95.802 90.512C95.6641 90.1258 95.5705 89.7252 95.523 89.3179C95.3928 88.5739 95.244 87.536 95.125 86.3865C95.0059 85.2371 94.9352 84.1917 94.9092 83.4366C94.8722 83.0277 94.8809 82.6159 94.9352 82.209Z" fill="#AA6550"/>
<path d="M91.8635 92.5733C91.7361 92.5544 91.6112 92.5207 91.4915 92.4728C91.3391 92.4117 91.175 92.3851 91.011 92.3947C90.847 92.4044 90.6872 92.4501 90.5429 92.5286C90.4557 92.5884 90.3857 92.67 90.34 92.7653C90.2943 92.8607 90.2745 92.9663 90.2825 93.0717C90.2957 93.3384 90.3433 93.6022 90.4239 93.8567C90.5308 94.1755 90.5162 94.5225 90.383 94.8313C90.2928 94.9918 90.1659 95.1288 90.0126 95.2309C89.8594 95.333 89.6842 95.3975 89.5013 95.4191C89.3215 95.4375 89.1398 95.4193 88.9672 95.3656C88.7946 95.3119 88.6346 95.2238 88.4969 95.1066C88.2412 94.8976 88.0524 94.6182 87.9538 94.3031C87.8289 93.7897 87.7801 93.2608 87.8087 92.7332C87.8151 92.3767 87.8843 92.0241 88.0133 91.6916C88.0547 91.5652 88.1292 91.4521 88.2291 91.3643C88.2291 91.3643 88.1696 91.4907 88.1026 91.7363C88.0155 92.0675 87.9754 92.4094 87.9836 92.7518C87.9792 93.2539 88.0417 93.7543 88.1696 94.2398C88.2529 94.518 88.4256 94.761 88.661 94.9312C88.8964 95.1013 89.1813 95.1891 89.4716 95.181C89.6154 95.1635 89.7533 95.1131 89.8746 95.0337C89.9959 94.9544 90.0973 94.8482 90.1709 94.7234C90.279 94.4659 90.2909 94.178 90.2044 93.9125C90.127 93.6375 90.0857 93.3536 90.0817 93.068C90.079 92.932 90.1119 92.7976 90.1772 92.6782C90.2424 92.5588 90.3377 92.4585 90.4537 92.3873C90.6189 92.3027 90.8019 92.2586 90.9875 92.2586C91.1731 92.2586 91.3561 92.3027 91.5213 92.3873C91.7557 92.484 91.8859 92.5584 91.8635 92.5733Z" fill="#AA6550"/>
<path d="M88.5815 94.9091C88.5815 94.9091 88.641 95.0318 88.5815 95.2587C88.5357 95.4181 88.4539 95.5647 88.3422 95.6873C88.2306 95.8099 88.0923 95.9051 87.9379 95.9655C87.7029 96.0446 87.4515 96.0611 87.2082 96.0135C86.9649 95.9659 86.7382 95.8557 86.5504 95.694C86.1043 95.2963 85.8286 94.7421 85.7803 94.1465C85.7165 93.56 85.8374 92.9682 86.1263 92.4539C86.3641 92.0386 86.7099 91.6954 87.127 91.4606C87.4013 91.3013 87.7027 91.194 88.016 91.1444C88.1297 91.1172 88.2483 91.1172 88.362 91.1444C87.9606 91.2461 87.575 91.4026 87.2162 91.6094C86.7996 91.8726 86.4663 92.2487 86.2549 92.6938C86.0435 93.1389 85.9628 93.6349 86.0221 94.1241C86.0643 94.6591 86.3044 95.1591 86.6954 95.5266C86.8531 95.669 87.0443 95.7692 87.2511 95.818C87.4579 95.8668 87.6737 95.8625 87.8784 95.8056C88.0155 95.7591 88.1412 95.6841 88.247 95.5853C88.3529 95.4865 88.4364 95.3663 88.4922 95.2327C88.5703 95.0355 88.5591 94.9091 88.5815 94.9091Z" fill="#AA6550"/>
<path d="M93.2422 98.551C93.4264 98.4724 93.6305 98.4529 93.8262 98.4952C94.3375 98.5484 94.8159 98.7726 95.184 99.1313L94.9869 99.2132C94.9835 98.9346 94.9996 98.6562 95.0352 98.3799C95.2175 96.7654 95.9764 95.6457 96.021 95.6866C96.0657 95.7276 95.4519 96.8547 95.277 98.4097C95.2445 98.6764 95.2259 98.9446 95.2212 99.2132V99.4922L95.0278 99.295C94.6945 98.9633 94.2718 98.7358 93.8113 98.6403C93.4579 98.5771 93.2422 98.5771 93.2422 98.551Z" fill="#AA6550"/>
<path d="M92.0042 88.1357C92.0637 88.158 91.874 88.623 91.3606 88.9094C90.8473 89.1959 90.3562 89.1289 90.3674 89.0657C90.3785 89.0024 90.7989 88.9541 91.2416 88.6937C91.6843 88.4333 91.9409 88.0985 92.0042 88.1357Z" fill="#AA6550"/>
<path d="M118.906 88.1318C118.906 88.1318 118.769 88.2806 118.534 88.5671C118.163 88.9705 117.87 89.4399 117.671 89.9509C117.612 90.1248 117.579 90.3067 117.575 90.4903C117.575 90.6863 117.624 90.8792 117.716 91.052C117.97 91.4339 118.349 91.7154 118.787 91.8481C119.888 92.1934 121.038 92.3555 122.191 92.328C122.831 92.328 123.523 92.3652 124.23 92.4061L125.312 92.5326C125.684 92.5735 126.056 92.674 126.428 92.7409C128.043 93.0706 129.566 93.7485 130.892 94.7274C131.615 95.2666 132.243 95.9214 132.752 96.6655C132.88 96.8603 132.998 97.0614 133.106 97.2682C133.214 97.4876 133.288 97.6997 133.377 97.9154C133.543 98.3555 133.668 98.8101 133.749 99.2732C134.124 101.223 133.815 103.242 132.875 104.991C131.904 106.726 130.344 108.058 128.478 108.744C127.601 109.073 126.676 109.257 125.74 109.287C124.847 109.292 123.957 109.185 123.091 108.968C122.292 108.762 121.479 108.616 120.659 108.532C119.9 108.459 119.136 108.594 118.449 108.923C117.817 109.262 117.255 109.718 116.793 110.266C116.328 110.787 115.934 111.333 115.544 111.851C114.773 112.888 113.955 113.804 113.003 114.283C112.566 114.517 112.081 114.645 111.585 114.655C111.172 114.66 110.761 114.584 110.376 114.432C110.07 114.31 109.789 114.132 109.547 113.908C109.373 113.739 109.232 113.54 109.13 113.32C109.043 113.142 108.999 112.946 109 112.747C109.026 112.747 109.034 112.952 109.201 113.286C109.311 113.488 109.455 113.669 109.625 113.822C109.863 114.025 110.135 114.184 110.429 114.291C110.83 114.439 111.26 114.499 111.687 114.465C112.114 114.431 112.529 114.304 112.902 114.094C113.795 113.621 114.573 112.732 115.324 111.691C115.696 111.17 116.098 110.612 116.57 110.069C117.048 109.48 117.634 108.989 118.296 108.622C119.033 108.26 119.855 108.105 120.673 108.175C121.512 108.256 122.344 108.399 123.162 108.603C123.999 108.81 124.859 108.911 125.721 108.904C126.612 108.868 127.491 108.69 128.325 108.376C130.104 107.716 131.59 106.445 132.518 104.79C133.414 103.119 133.711 101.192 133.359 99.329C133.273 98.8862 133.148 98.4518 132.987 98.0308C132.897 97.8224 132.823 97.6067 132.73 97.4207C132.632 97.2257 132.523 97.0368 132.403 96.8552C131.922 96.1439 131.329 95.5157 130.647 94.9952C129.364 94.0389 127.889 93.3713 126.324 93.0385C125.952 92.9678 125.58 92.8674 125.234 92.8265L124.17 92.6888C123.471 92.6405 122.801 92.6107 122.15 92.5884C120.969 92.5985 119.795 92.4112 118.676 92.0341C118.21 91.8725 117.813 91.556 117.552 91.1376C117.45 90.9363 117.4 90.7124 117.407 90.4866C117.417 90.2867 117.459 90.0896 117.53 89.9025C117.748 89.3798 118.071 88.9075 118.479 88.515C118.603 88.3679 118.747 88.2389 118.906 88.1318Z" fill="#FAFAFA"/>
<path d="M147.205 112.936C147.103 112.668 147.043 112.386 147.027 112.099C146.944 111.319 146.995 110.53 147.179 109.767C147.452 108.63 147.943 107.557 148.626 106.609C149.457 105.444 150.52 104.464 151.747 103.729C152.982 103.021 154.324 102.518 155.72 102.241C156.852 102.008 158.005 101.889 159.161 101.888C159.937 101.879 160.712 101.918 161.483 102.003C161.767 102.015 162.049 102.065 162.32 102.152C162.32 102.219 161.111 102.085 159.165 102.152C158.031 102.194 156.903 102.338 155.795 102.584C154.442 102.878 153.143 103.38 151.944 104.072C150.761 104.78 149.73 105.717 148.913 106.828C148.242 107.733 147.745 108.755 147.447 109.841C147.246 110.575 147.154 111.335 147.175 112.096C147.206 112.375 147.216 112.656 147.205 112.936Z" fill="#FAFAFA"/>
<path d="M167.53 119.409C167.417 119.647 167.269 119.868 167.091 120.063C166.649 120.624 166.15 121.139 165.603 121.6C164.789 122.29 163.887 122.87 162.921 123.326C160.539 124.471 157.845 124.797 155.258 124.252C154.211 124.039 153.197 123.689 152.241 123.21C151.598 122.895 150.989 122.514 150.422 122.076C150.203 121.929 150.007 121.75 149.842 121.544C149.886 121.484 150.735 122.225 152.36 122.965C154.47 123.944 156.81 124.315 159.119 124.037C161.428 123.758 163.613 122.841 165.429 121.388C166.824 120.275 167.471 119.353 167.53 119.409Z" fill="#FAFAFA"/>
<path d="M148.845 118.212C148.738 118.271 148.625 118.319 148.507 118.353C148.188 118.483 147.898 118.675 147.655 118.919C147.282 119.315 146.991 119.782 146.799 120.291C146.54 120.971 146.338 121.672 146.197 122.386C146.044 123.264 145.843 124.133 145.594 124.99C145.438 125.477 145.221 125.943 144.951 126.377C144.651 126.833 144.285 127.242 143.864 127.59C142.957 128.312 141.911 128.84 140.792 129.141C139.646 129.484 138.433 129.67 137.213 129.908C134.917 130.286 132.741 131.192 130.855 132.556C130.049 133.161 129.334 133.88 128.735 134.692C128.225 135.407 127.818 136.191 127.526 137.02C127.096 138.226 126.961 139.517 127.132 140.785C127.266 141.681 127.47 142.15 127.429 142.165C127.364 142.06 127.311 141.948 127.273 141.83C127.216 141.692 127.167 141.551 127.128 141.406C127.068 141.211 127.02 141.012 126.983 140.811C126.75 139.516 126.847 138.183 127.266 136.935C127.549 136.071 127.955 135.253 128.471 134.506C129.079 133.66 129.809 132.907 130.636 132.274C132.556 130.857 134.785 129.916 137.139 129.528C138.37 129.286 139.571 129.104 140.684 128.784C141.757 128.502 142.762 128.005 143.637 127.322C144.033 127.003 144.379 126.627 144.664 126.206C144.924 125.799 145.134 125.362 145.289 124.904C145.547 124.057 145.761 123.196 145.929 122.326C146.087 121.598 146.309 120.886 146.595 120.198C146.813 119.672 147.139 119.197 147.551 118.803C147.814 118.557 148.131 118.374 148.477 118.271C148.596 118.231 148.72 118.211 148.845 118.212Z" fill="#FAFAFA"/>
<path d="M138.879 116.66C139.008 116.893 139.074 117.156 139.073 117.422C139.109 118.155 138.9 118.88 138.477 119.48C138.192 119.903 137.81 120.251 137.361 120.495C137.109 120.633 136.836 120.732 136.554 120.789C136.255 120.844 135.949 120.857 135.646 120.826C134.996 120.755 134.378 120.506 133.861 120.105C133.293 119.676 132.887 119.067 132.708 118.378C132.594 117.93 132.587 117.461 132.689 117.009C132.799 116.581 133.002 116.182 133.284 115.841C133.525 115.518 133.798 115.221 134.099 114.952C134.244 114.819 134.402 114.7 134.571 114.599C134.746 114.483 134.947 114.412 135.155 114.394L135.204 114.725L135.021 114.77L134.928 114.45C135.605 114.258 136.326 114.297 136.978 114.562C137.475 114.752 137.919 115.06 138.273 115.458C138.499 115.709 138.678 115.999 138.801 116.314C138.879 116.533 138.898 116.656 138.883 116.66C138.681 116.274 138.431 115.915 138.139 115.592C137.786 115.244 137.361 114.98 136.893 114.818C136.294 114.601 135.641 114.584 135.033 114.77L134.94 114.45L135.122 114.398L135.174 114.733C134.855 114.809 134.565 114.977 134.341 115.216C134.066 115.476 133.817 115.762 133.597 116.068C133.338 116.372 133.158 116.734 133.071 117.123C132.984 117.512 132.994 117.916 133.098 118.3C133.258 118.904 133.613 119.439 134.106 119.822C134.568 120.182 135.118 120.412 135.698 120.488C135.967 120.519 136.239 120.513 136.506 120.469C136.756 120.423 136.999 120.342 137.227 120.227C137.641 120.015 137.999 119.71 138.273 119.334C138.687 118.788 138.919 118.126 138.939 117.441C138.927 116.939 138.842 116.671 138.879 116.66Z" fill="#FAFAFA"/>
<path d="M114.874 104.529C114.88 104.562 114.88 104.597 114.874 104.63C114.874 104.704 114.874 104.801 114.874 104.92C114.874 105.191 114.84 105.567 114.818 106.036C114.758 107.011 114.703 108.42 114.624 110.161C114.479 113.647 114.334 118.461 114.223 123.784C114.111 129.107 114.04 133.925 113.988 137.41C113.962 139.144 113.94 140.55 113.925 141.543C113.925 142.016 113.906 142.391 113.903 142.659C113.903 142.778 113.903 142.875 113.903 142.953C113.908 142.986 113.908 143.02 113.903 143.054C113.897 143.02 113.897 142.986 113.903 142.953C113.903 142.875 113.903 142.778 113.903 142.659C113.903 142.388 113.903 142.012 113.903 141.543V137.414C113.903 133.925 113.966 129.107 114.081 123.78C114.197 118.453 114.357 113.643 114.539 110.158C114.636 108.417 114.714 107.007 114.796 106.036C114.833 105.56 114.862 105.184 114.885 104.92C114.885 104.801 114.907 104.704 114.915 104.626C114.897 104.596 114.883 104.563 114.874 104.529Z" fill="#263238"/>
<g opacity="0.2">
<path d="M107.766 139.099C109.841 140.092 112.553 138.184 113.613 136.145C113.613 136.145 114.168 131.644 114.093 129.345C113.948 125.09 114.261 120.875 114.116 116.619C113.79 119.167 112.736 121.567 111.08 123.531C110.623 124.07 110.109 124.606 109.938 125.29C109.633 126.518 110.571 128.724 111.173 129.836C113.033 133.236 108.978 139.136 107.9 139.014" fill="black"/>
</g>
<g opacity="0.2">
<path d="M146.613 111.329C147.29 119.811 147.97 128.294 148.652 136.778C148.672 137.582 148.823 138.377 149.098 139.132C149.239 139.51 149.468 139.848 149.766 140.12C150.063 140.391 150.421 140.588 150.809 140.695C152.015 140.94 153.187 139.902 153.525 138.719C153.864 137.537 153.596 136.275 153.298 135.081C152.792 133.046 152.223 131.03 151.65 129.014C149.991 123.161 148.331 117.31 146.669 111.459" fill="black"/>
</g>
<path d="M123.297 154.775C123.554 154.357 123.746 153.901 123.867 153.425C124.075 152.506 123.945 151.085 123.23 149.549C122.881 148.779 122.386 147.979 121.888 147.101C121.318 146.169 120.894 145.156 120.63 144.095C120.408 142.892 120.498 141.653 120.891 140.494C121.263 139.297 121.802 138.132 122.237 136.912C123.111 134.631 123.176 132.119 122.423 129.796C122.099 128.79 121.624 127.839 121.013 126.976C120.475 126.226 119.843 125.548 119.135 124.956C118.097 124.101 116.914 123.441 115.642 123.007C114.738 122.705 114.209 122.635 114.217 122.59C114.342 122.583 114.467 122.594 114.589 122.624C114.955 122.677 115.317 122.757 115.671 122.865C116.987 123.246 118.216 123.877 119.291 124.725C120.033 125.317 120.695 126.004 121.259 126.768C121.9 127.652 122.402 128.629 122.747 129.665C123.544 132.063 123.486 134.664 122.583 137.024C122.137 138.266 121.594 139.423 121.237 140.587C120.855 141.684 120.761 142.859 120.961 144.002C121.206 145.032 121.607 146.018 122.152 146.926C122.632 147.808 123.119 148.619 123.465 149.419C124.164 151.015 124.261 152.499 123.993 153.444C123.894 153.805 123.739 154.149 123.535 154.463C123.398 154.686 123.309 154.783 123.297 154.775Z" fill="#FAFAFA"/>
<path d="M158.22 93.5781C158.148 93.8488 158.021 94.102 157.848 94.3221C157.425 94.952 156.875 95.4867 156.233 95.892C155.277 96.4953 154.188 96.8554 153.06 96.941C151.689 97.034 150.313 96.8583 149.009 96.4239C147.68 96.0375 146.466 95.3326 145.471 94.3705C145.044 93.938 144.696 93.4345 144.441 92.8825C144.225 92.3992 144.09 91.8841 144.039 91.3573C143.954 90.5944 144.099 89.8237 144.456 89.1439C144.51 89.039 144.572 88.9382 144.642 88.8426C144.689 88.7689 144.744 88.7003 144.806 88.638C144.899 88.5375 144.954 88.4854 144.966 88.4966C144.977 88.5078 144.798 88.7421 144.594 89.2108C144.311 89.8781 144.215 90.6101 144.318 91.3275C144.381 91.8202 144.522 92.2998 144.735 92.7486C144.988 93.2586 145.325 93.7226 145.732 94.1212C146.694 95.0264 147.859 95.6895 149.128 96.0556C150.387 96.4767 151.713 96.6571 153.038 96.5876C154.115 96.5242 155.161 96.2068 156.092 95.6613C156.72 95.2913 157.274 94.8098 157.729 94.2403C157.881 94.0112 158.045 93.7902 158.22 93.5781Z" fill="#FAFAFA"/>
<path d="M153.128 133.594C153.128 133.594 153.109 133.56 153.087 133.489C153.065 133.419 153.031 133.307 152.99 133.177C152.909 132.89 152.789 132.489 152.637 131.975L151.372 127.537C150.316 123.776 148.865 118.609 147.28 112.881C146.484 110.016 145.729 107.301 145.048 104.804C144.704 103.631 144.44 102.435 144.256 101.226C144.1 100.166 144.1 99.0898 144.256 98.0303C144.478 96.4812 145.22 95.0538 146.361 93.983C146.679 93.7053 147.03 93.469 147.407 93.2799L147.708 93.1534C147.74 93.1354 147.776 93.1229 147.812 93.1162C147.303 93.3552 146.831 93.6658 146.41 94.0388C145.307 95.113 144.597 96.5266 144.393 98.0526C144.251 99.0989 144.262 100.16 144.427 101.203C144.616 102.404 144.884 103.591 145.23 104.756C145.922 107.241 146.685 109.964 147.485 112.828C149.066 118.554 150.498 123.736 151.536 127.5C152.045 129.36 152.455 130.889 152.745 131.964C152.879 132.481 152.987 132.89 153.061 133.181C153.095 133.311 153.121 133.415 153.139 133.497C153.139 133.529 153.136 133.562 153.128 133.594Z" fill="#263238"/>
<path d="M137.974 51.2144C138.005 50.9499 138.005 50.6828 137.974 50.4183C137.861 49.6969 137.498 49.0383 136.948 48.5583C136.12 47.8588 135.053 47.5081 133.972 47.5799C132.755 47.5799 131.461 47.9891 130.121 48.4393C129.452 48.6587 128.786 48.8708 128.131 49.0159C127.499 49.1555 126.855 49.234 126.208 49.2502C125.111 49.2788 124.017 49.1357 122.964 48.8261C122.259 48.6137 121.579 48.3243 120.937 47.9631C120.761 47.8687 120.591 47.7644 120.427 47.6506C120.366 47.6154 120.31 47.5729 120.26 47.5241C120.26 47.5241 120.513 47.6655 120.974 47.8961C121.623 48.2275 122.303 48.493 123.005 48.6885C124.045 48.9749 125.123 49.1004 126.201 49.0605C126.836 49.0392 127.469 48.9595 128.09 48.8224C128.734 48.6773 129.389 48.4504 130.062 48.2458C131.397 47.7957 132.718 47.3902 133.968 47.3902C135.086 47.3289 136.184 47.7082 137.026 48.4467C137.586 48.9492 137.946 49.6377 138.038 50.3848C138.082 50.6625 138.06 50.9466 137.974 51.2144Z" fill="#455A64"/>
<path d="M143.096 62.333C143.096 62.333 143.058 62.2884 143.006 62.1954C142.954 62.1024 142.887 61.961 142.802 61.775C142.573 61.2499 142.398 60.7027 142.281 60.142C142.102 59.3064 142.045 58.4495 142.11 57.5975C142.234 56.5658 142.431 55.544 142.697 54.5396C142.956 53.5494 142.956 52.5092 142.697 51.519C142.574 51.0947 142.359 50.7025 142.069 50.3695C141.81 50.0888 141.485 49.8767 141.124 49.752C140.598 49.5523 140.014 49.567 139.498 49.7929C139.319 49.8926 139.151 50.0111 138.996 50.1463C139.113 49.9681 139.275 49.8232 139.465 49.726C139.727 49.5955 140.013 49.519 140.306 49.5012C140.599 49.4833 140.892 49.5243 141.169 49.6218C141.556 49.7468 141.907 49.9667 142.188 50.2616C142.499 50.6084 142.731 51.0183 142.869 51.4632C143.139 52.4847 143.139 53.559 142.869 54.5806C142.603 55.5771 142.403 56.5898 142.27 57.6124C142.199 58.4475 142.242 59.2884 142.396 60.1122C142.501 60.6688 142.654 61.2152 142.854 61.7453C143.014 62.121 143.11 62.3256 143.096 62.333Z" fill="#455A64"/>
<path d="M138.608 50.6815C138.599 50.5936 138.599 50.5052 138.608 50.4174C138.608 50.2277 138.608 49.9784 138.637 49.6734C138.679 48.7516 138.576 47.8291 138.332 46.9392C138.15 46.3346 137.852 45.7711 137.454 45.2801C137.005 44.7149 136.388 44.3072 135.691 44.1157C134.912 43.9349 134.098 43.9684 133.336 44.2124C132.512 44.4726 131.721 44.8311 130.982 45.2801C130.232 45.7327 129.451 46.133 128.646 46.4779C127.877 46.7777 127.063 46.9414 126.239 46.9615C125.495 46.9803 124.753 46.8901 124.036 46.6937C123.415 46.5133 122.816 46.2637 122.251 45.9497C121.435 45.4891 120.717 44.8752 120.134 44.1417C119.974 43.9453 119.829 43.7363 119.703 43.5168C119.653 43.4444 119.61 43.3671 119.576 43.2861C119.637 43.3495 119.691 43.4194 119.736 43.4945C119.873 43.7044 120.025 43.9045 120.19 44.0934C120.787 44.7954 121.507 45.3829 122.314 45.8269C122.874 46.1257 123.465 46.3615 124.077 46.53C124.781 46.7146 125.508 46.7973 126.235 46.7755C127.037 46.7513 127.828 46.589 128.575 46.2956C129.371 45.9501 130.143 45.5512 130.885 45.1015C131.639 44.6475 132.444 44.2853 133.284 44.0227C134.079 43.7731 134.926 43.7423 135.736 43.9334C136.467 44.1384 137.112 44.5726 137.577 45.1722C137.984 45.6814 138.285 46.267 138.463 46.8945C138.701 47.7977 138.786 48.7347 138.712 49.6659C138.693 49.997 138.667 50.25 138.645 50.4099C138.644 50.5017 138.632 50.5929 138.608 50.6815Z" fill="#455A64"/>
<path d="M128.783 143.701L156.612 139.553L156.166 137.075H171.12L171.556 140.884C171.875 142.54 171.826 144.245 171.413 145.88C171 147.515 170.233 149.039 169.165 150.344C168.098 151.649 166.757 152.704 165.237 153.434C163.717 154.163 162.056 154.55 160.37 154.567L127.924 154.195L128.783 143.701Z" fill="#B78876"/>
<path d="M130.793 144.18C130.644 144.229 128.769 143.388 127.091 142.611C125.31 141.783 123.354 141.4 121.392 141.495L113.658 141.889C113.658 141.889 114.135 143.165 114.957 143.619C115.779 144.073 120.585 144.169 120.585 144.169L120.336 144.422C119.324 145.466 117.943 146.071 116.489 146.107L115.745 146.126C115.197 146.083 114.655 145.976 114.131 145.81L112.223 145.04C111.646 144.779 111.036 144.82 110.783 145.412C110.556 145.936 110.723 146.662 112.301 147.454C113.179 147.897 116.445 149.028 116.445 149.028C116.466 149.491 116.529 149.952 116.634 150.404C116.776 150.88 118.059 151.353 118.059 151.353C118.392 152.06 118.772 152.743 119.198 153.399C119.346 153.566 120.511 153.927 121.746 154.277C123.741 154.837 125.853 154.821 127.839 154.228L130.789 153.35V144.374" fill="#B78876"/>
<path d="M120.209 150.044C118.846 150.008 117.51 149.657 116.307 149.017C116.329 148.965 117.173 149.293 118.248 149.572C119.324 149.851 120.216 149.988 120.209 150.044Z" fill="#AA6550"/>
<path d="M119.938 151.855C119.576 151.933 119.199 151.906 118.851 151.777C118.486 151.71 118.147 151.543 117.873 151.293C118.223 151.367 118.568 151.467 118.903 151.591C119.254 151.654 119.6 151.742 119.938 151.855Z" fill="#AA6550"/>
<path d="M163.953 146.04C163.916 146.04 163.734 145.501 163.287 144.686C163.026 144.21 162.727 143.755 162.395 143.325C161.987 142.8 161.536 142.31 161.044 141.863C160.545 141.423 160.01 141.026 159.445 140.676C158.982 140.392 158.498 140.143 157.998 139.932C157.138 139.579 156.569 139.452 156.58 139.415C156.718 139.426 156.854 139.454 156.986 139.497C157.142 139.528 157.296 139.569 157.447 139.62C157.626 139.675 157.819 139.731 158.05 139.821C158.565 140.015 159.063 140.254 159.538 140.535C160.119 140.882 160.667 141.282 161.174 141.729C161.673 142.184 162.13 142.681 162.54 143.217C162.869 143.66 163.159 144.13 163.406 144.623C163.522 144.828 163.596 145.029 163.674 145.2C163.74 145.345 163.796 145.494 163.842 145.646C163.895 145.772 163.933 145.905 163.953 146.04Z" fill="#AA6550"/>
<path d="M121.351 143.485C121.18 143.721 120.98 143.935 120.756 144.121C120.242 144.607 119.677 145.034 119.071 145.397C118.457 145.755 117.79 146.012 117.095 146.16C116.812 146.237 116.518 146.268 116.225 146.253C116.206 146.182 117.564 146.06 118.97 145.23C119.566 144.872 120.132 144.467 120.663 144.017C120.874 143.818 121.105 143.64 121.351 143.485Z" fill="#AA6550"/>
<path d="M41.3207 134.659C41.9829 134.659 36.2541 150.052 34.7772 153.984C34.6136 154.42 34.502 154.803 34.502 154.803L74.611 154.87L74.1386 117.547C74.1402 117.522 74.1402 117.497 74.1386 117.473L70.7906 90.778C70.774 90.6486 70.7197 90.527 70.6343 90.4284C70.549 90.3298 70.4364 90.2586 70.3107 90.2237C68.7222 89.7959 62.9972 88.3191 58.6187 88.1554C53.4888 87.9657 46.0637 88.9849 46.0637 88.9849C46.0637 88.9849 39.3938 89.6471 35.711 90.9863C35.5686 91.0371 35.4482 91.1357 35.3702 91.2652C35.2922 91.3947 35.2615 91.5472 35.2832 91.6968L41.3207 134.659Z" fill="#4E85FF"/>
<path d="M59.842 118.106C59.7908 118.274 59.7236 118.438 59.6411 118.593C59.5591 118.782 59.4647 118.964 59.3584 119.14C59.2298 119.379 59.0882 119.612 58.9343 119.836C58.7537 120.113 58.5575 120.38 58.3465 120.635C58.1146 120.933 57.8662 121.217 57.6025 121.487C56.9897 122.105 56.3168 122.659 55.5937 123.143C54.8601 123.611 54.0827 124.008 53.2724 124.326C52.9004 124.456 52.5284 124.59 52.1899 124.675C51.8719 124.766 51.5489 124.838 51.2227 124.891C50.9558 124.943 50.6863 124.98 50.4155 125.003C50.2108 125.031 50.0045 125.044 49.798 125.044C49.6236 125.063 49.4477 125.063 49.2734 125.044C49.2734 125.003 50.0174 125.006 51.1967 124.768C51.5167 124.705 51.8333 124.626 52.1453 124.53C52.4875 124.441 52.8372 124.303 53.2055 124.158C54.0007 123.837 54.7641 123.442 55.4858 122.979C56.199 122.504 56.8654 121.962 57.476 121.361C57.7476 121.074 58.0154 120.81 58.22 120.531C58.4337 120.284 58.6336 120.026 58.819 119.758C59.5183 118.779 59.8048 118.087 59.842 118.106Z" fill="#263238"/>
<g opacity="0.2">
<path d="M35.8633 151.065C37.7429 151.835 39.7896 152.108 41.8052 151.856C43.8209 151.603 45.7374 150.835 47.3692 149.625C48.8163 148.576 50.029 147.204 51.5914 146.33C53.7565 145.124 56.3344 145.009 58.8082 144.842C62.1153 144.603 65.4522 144.198 68.5621 143.045C69.211 142.855 69.7994 142.5 70.2696 142.014C70.6974 141.497 70.8424 140.683 70.4221 140.154C70.0017 139.626 69.2019 139.589 68.5137 139.611C58.1424 139.916 48.6638 140.746 38.5677 143.145" fill="black"/>
</g>
<path d="M47.041 49.7546C50.2477 46.4884 55.3069 44.5466 59.4956 46.4066C62.3153 47.6416 64.2274 50.2865 66.7012 52.113C68.5017 53.4448 70.7263 54.4752 71.6711 56.5064C72.5044 58.2957 72.1027 60.3826 71.9018 62.3468C71.7009 64.3109 71.8423 66.5764 73.3637 67.8375C74.1598 68.4959 75.2237 68.76 76.1128 69.2734C77.9245 70.3113 78.9995 72.3312 79.3864 74.381C79.7733 76.4307 79.565 78.5436 79.3567 80.6231L70.7225 82.2674L69.3052 79.8828L68.8179 83.6214L57.7993 84.6147L47.041 49.7546Z" fill="#263238"/>
<path d="M45.617 53.3186V55.718L44.9362 91.7313C44.8767 95.9052 48.872 99.4578 53.3434 99.4875C57.8558 99.5173 59.6972 96.1395 59.8274 91.9099C59.9613 87.4868 60.1994 82.8294 60.1994 82.8294C60.1994 82.8294 65.9244 82.0407 67.312 74.6454C68.0002 70.9626 67.9816 64.8952 67.8068 59.929C67.7698 58.8693 67.5188 57.8281 67.0689 56.8679C66.619 55.9078 65.9795 55.0486 65.1888 54.342C64.3982 53.6355 63.4728 53.0962 62.4682 52.7567C61.4637 52.4171 60.4009 52.2843 59.3438 52.3663L45.617 53.3186Z" fill="#FFBE9D"/>
<path d="M65.8128 64.7019C65.8089 64.9503 65.7078 65.1872 65.5311 65.3618C65.3544 65.5363 65.1163 65.6347 64.868 65.6356C64.7464 65.6421 64.6248 65.6242 64.5103 65.583C64.3958 65.5417 64.2908 65.4779 64.2013 65.3954C64.1118 65.3129 64.0398 65.2133 63.9895 65.1025C63.9391 64.9917 63.9115 64.8719 63.9082 64.7503C63.913 64.5019 64.0143 64.2651 64.1907 64.0901C64.3671 63.9151 64.6047 63.8157 64.8531 63.8128C64.9749 63.8063 65.0968 63.8243 65.2116 63.8658C65.3263 63.9073 65.4315 63.9714 65.5211 64.0543C65.6106 64.1372 65.6825 64.2373 65.7326 64.3485C65.7828 64.4598 65.81 64.5799 65.8128 64.7019Z" fill="#263238"/>
<path d="M66.3757 63.0353C66.253 63.1581 65.5462 62.6001 64.5157 62.5778C63.4853 62.5555 62.7227 63.0428 62.6148 62.9126C62.5627 62.8568 62.6892 62.6373 63.024 62.4067C63.4755 62.1091 64.009 61.9607 64.5492 61.9826C65.0884 61.9914 65.6102 62.1741 66.0372 62.5034C66.3348 62.7526 66.4353 62.9795 66.3757 63.0353Z" fill="#263238"/>
<path d="M55.7035 64.7019C55.6986 64.95 55.5972 65.1863 55.4207 65.3607C55.2442 65.5351 55.0067 65.6337 54.7586 65.6356C54.6371 65.6421 54.5155 65.6242 54.401 65.583C54.2865 65.5417 54.1814 65.4779 54.0919 65.3954C54.0025 65.3129 53.9304 65.2133 53.8801 65.1025C53.8298 64.9917 53.8021 64.8719 53.7988 64.7503C53.8036 64.5019 53.905 64.2651 54.0813 64.0901C54.2577 63.9151 54.4953 63.8157 54.7437 63.8128C54.8655 63.8063 54.9874 63.8243 55.1022 63.8658C55.2169 63.9073 55.3222 63.9714 55.4117 64.0543C55.5012 64.1372 55.5731 64.2373 55.6233 64.3485C55.6734 64.4598 55.7007 64.5799 55.7035 64.7019Z" fill="#263238"/>
<path d="M56.28 62.9488C56.1573 63.0678 55.4505 62.5135 54.42 62.4875C53.3896 62.4614 52.627 62.9562 52.5191 62.826C52.467 62.7702 52.5935 62.547 52.9283 62.3201C53.38 62.0225 53.913 61.873 54.4535 61.8923C54.9925 61.9022 55.514 62.0847 55.9415 62.4131C56.2391 62.666 56.3396 62.893 56.28 62.9488Z" fill="#263238"/>
<path d="M59.7935 70.6757C59.7935 70.6162 60.4333 70.5232 61.4675 70.419C61.7316 70.4004 61.9808 70.3558 62.0292 70.1772C62.0596 69.9073 62.0064 69.6346 61.8766 69.396C61.6497 68.7525 61.4079 68.0829 61.155 67.3761C60.158 64.5079 59.4438 62.1681 59.5591 62.1085C59.6744 62.049 60.5784 64.3666 61.5753 67.2384C61.8171 67.9452 62.0478 68.6185 62.2635 69.2658C62.4218 69.5853 62.46 69.9509 62.3714 70.2963C62.331 70.388 62.2701 70.4693 62.1934 70.5338C62.1166 70.5983 62.0261 70.6443 61.9287 70.6683C61.7828 70.7045 61.6326 70.7208 61.4823 70.7166C60.4407 70.7352 59.7972 70.7203 59.7935 70.6757Z" fill="#263238"/>
<path d="M60.171 82.8298C56.6671 82.7875 53.2439 81.7727 50.2832 79.8984C50.2832 79.8984 52.5561 85.073 60.0222 84.5819L60.171 82.8298Z" fill="#EB996E"/>
<path d="M59.2917 73.1239C59.1036 72.8711 58.8544 72.6702 58.5675 72.5401C58.2805 72.41 57.9652 72.3548 57.6511 72.3799C57.4241 72.3945 57.2023 72.4548 56.999 72.557C56.7958 72.6593 56.6152 72.8015 56.4682 72.9751C56.3269 73.1425 56.2402 73.3491 56.2196 73.5672C56.199 73.7852 56.2455 74.0044 56.3529 74.1953C56.5142 74.3829 56.7276 74.5184 56.966 74.5846C57.2044 74.6508 57.4571 74.6448 57.692 74.5673C58.1802 74.4083 58.6326 74.1556 59.0238 73.8233C59.1427 73.7447 59.245 73.6436 59.3251 73.5257C59.3615 73.4705 59.3808 73.4058 59.3808 73.3397C59.3808 73.2736 59.3615 73.2089 59.3251 73.1537" fill="#EB996E"/>
<path d="M56.7561 71.2892C56.9235 71.2892 56.8937 72.4052 57.8237 73.2162C58.7537 74.0271 59.9479 73.9416 59.9516 74.0978C59.9516 74.1685 59.68 74.3099 59.1778 74.3061C58.5252 74.2991 57.8963 74.0605 57.4034 73.6328C56.929 73.2238 56.6327 72.646 56.5775 72.0221C56.5441 71.5533 56.678 71.2818 56.7561 71.2892Z" fill="#263238"/>
<path d="M56.6076 59.9622C56.496 60.2375 55.4916 60.0775 54.2677 60.1891C53.0438 60.3007 52.0766 60.602 51.9241 60.3491C51.8571 60.2263 52.032 59.9771 52.4337 59.7092C52.9672 59.3931 53.5656 59.2024 54.1836 59.1515C54.8017 59.1006 55.4232 59.1908 56.0012 59.4153C56.4365 59.6051 56.6522 59.832 56.6076 59.9622Z" fill="#263238"/>
<path d="M66.4117 60.9635C66.1848 61.1904 65.3329 60.9226 64.2951 60.8816C63.2572 60.8407 62.383 60.9858 62.1858 60.7366C62.1003 60.6175 62.2453 60.3869 62.6359 60.1786C63.1729 59.9162 63.7697 59.8007 64.3657 59.8438C64.9594 59.8633 65.5372 60.0405 66.0397 60.3571C66.3969 60.6063 66.5122 60.8519 66.4117 60.9635Z" fill="#263238"/>
<path d="M37.943 90.3066C37.943 90.3066 25.9795 93.1115 23.6582 104.443C22.5906 109.651 21.0988 139.585 28.0701 144.247C37.0688 150.251 48.5301 144.79 48.5301 144.79L47.0421 130.312H39.6021L38.6014 114.449C38.8916 115.688 37.943 90.3066 37.943 90.3066Z" fill="#4E85FF"/>
<path d="M80.4988 140.132C82.8455 139.891 85.0116 138.763 86.5543 136.979C88.097 135.194 88.8996 132.887 88.7981 130.531L83.9101 109.762C83.9101 109.762 80.7406 91.943 70.7227 90.3359L74.1376 117.492L73.8103 123.217C73.8103 123.217 73.9665 127.004 74.3497 134.102L80.4988 140.132Z" fill="#4E85FF"/>
<path d="M81.7951 127.138C81.191 127.16 80.5893 127.226 79.9947 127.335C78.5592 127.626 77.244 128.342 76.2189 129.388C75.1937 130.434 74.5057 131.764 74.2435 133.205C74.1463 133.803 74.0928 134.407 74.0836 135.013C74.0445 134.852 74.0257 134.687 74.0278 134.522C74.0078 134.073 74.0353 133.622 74.1096 133.179C74.3474 131.699 75.0406 130.329 76.0926 129.261C77.1447 128.193 78.5033 127.48 79.9798 127.22C80.4226 127.138 80.8725 127.101 81.3227 127.108C81.4808 127.099 81.6395 127.108 81.7951 127.138Z" fill="#263238"/>
<path d="M50.9297 48.9252C52.2763 50.7332 52.9162 52.1207 53.7234 55.3385C54.1214 56.9121 52.838 58.0244 51.5658 58.9878C51.429 59.0918 51.2683 59.1596 51.0984 59.1851C50.9285 59.2105 50.7549 59.1928 50.5937 59.1335C50.4324 59.0742 50.2887 58.9752 50.1758 58.8457C50.0629 58.7163 49.9844 58.5604 49.9476 58.3926C49.9476 58.3926 50.3866 63.3216 48.6047 65.5313C47.7714 66.5692 47.7342 67.8972 47.9314 69.017C48.155 70.1558 48.7087 71.2037 49.5235 72.0302C51.5918 74.2026 52.1647 77.7478 50.74 80.4113C50.3272 81.0659 49.9485 81.7414 49.6054 82.435C49.4319 82.8489 49.3518 83.296 49.371 83.7444C49.3928 84.0076 49.314 84.2692 49.1503 84.4763C48.9866 84.6835 48.7504 84.8208 48.4894 84.8604C42.3675 85.7459 36.1648 85.9318 30.001 85.4147C29.789 85.3977 29.5878 85.3146 29.4256 85.1771C29.2634 85.0396 29.1485 84.8547 29.097 84.6484C28.6134 82.5801 29.4206 80.3481 30.4511 78.4881C31.6043 76.3863 33.0551 74.37 33.468 72.0078C33.84 69.7758 33.2336 67.3876 34.1264 65.3118C35.2424 62.7711 38.2184 61.5695 39.7064 59.2371C41.1163 57.0386 41.001 54.1556 42.2621 51.8715C43.884 48.9327 47.8681 47.5786 50.9408 48.9215" fill="#263238"/>
<path d="M51.2728 51.6519C53.6126 52.8572 54.6952 55.7179 56.9681 57.0422C59.0364 58.2475 61.6181 57.9313 63.9877 57.5742C63.9022 57.0496 63.8129 56.5214 63.7236 55.9969C63.9368 56.4717 64.2343 56.904 64.6015 57.2728C64.788 57.4548 65.0205 57.5828 65.274 57.6431C65.5275 57.7034 65.7927 57.6937 66.0412 57.6151C66.8372 57.2952 66.9414 56.2015 66.7405 55.3831C66.3768 54.0511 65.6625 52.841 64.6722 51.8788C62.9028 50.083 60.546 48.9842 58.0329 48.7834C55.5199 48.5825 53.0185 49.2931 50.9863 50.7852" fill="#263238"/>
<path d="M73.208 104.605C73.2251 104.702 73.2326 104.801 73.2303 104.899C73.2303 105.108 73.2303 105.387 73.2563 105.736C73.2563 106.48 73.3084 107.518 73.3642 108.817C73.4721 111.421 73.7139 115.007 74.0078 118.968C74.3016 122.93 74.5211 126.524 74.5918 129.128C74.629 130.43 74.6476 131.482 74.6364 132.212C74.6364 132.561 74.6364 132.84 74.6364 133.049C74.6453 133.146 74.6453 133.245 74.6364 133.342C74.6193 133.245 74.6118 133.147 74.6141 133.049C74.6141 132.84 74.6141 132.561 74.5881 132.212C74.5881 131.468 74.536 130.433 74.4802 129.131C74.376 126.527 74.1305 122.945 73.8404 118.98C73.5502 115.014 73.3233 111.428 73.2526 108.824C73.2154 107.522 73.2005 106.465 73.208 105.736C73.208 105.387 73.208 105.108 73.208 104.899C73.2015 104.801 73.2015 104.703 73.208 104.605Z" fill="#263238"/>
<path d="M39.614 130.315C39.597 130.247 39.5883 130.177 39.5879 130.106C39.5879 129.946 39.5656 129.734 39.547 129.508C39.5173 128.961 39.4763 128.22 39.428 127.313C39.3201 125.453 39.1564 122.897 38.963 120.066C38.7695 117.235 38.591 114.702 38.4608 112.823C38.4013 111.919 38.3529 111.175 38.3157 110.629C38.3157 110.387 38.2934 110.19 38.2859 110.033C38.2771 109.963 38.2771 109.892 38.2859 109.821C38.3041 109.889 38.3153 109.959 38.3194 110.03C38.3194 110.186 38.3604 110.383 38.3864 110.625C38.4385 111.168 38.5091 111.908 38.5947 112.816C38.7584 114.676 38.9667 117.224 39.1527 120.055C39.3387 122.886 39.4875 125.449 39.5582 127.305C39.5917 128.235 39.6177 128.987 39.6214 129.504V130.103C39.6285 130.173 39.626 130.245 39.614 130.315Z" fill="#263238"/>
<path d="M39.6134 130.316C39.6134 130.349 39.2414 130.368 38.6387 130.565C37.8762 130.817 37.1987 131.276 36.6818 131.891C36.1649 132.506 35.8289 133.252 35.7111 134.047C35.6181 134.657 35.6665 135.044 35.633 135.047C35.5995 135.051 35.5958 134.954 35.5735 134.78C35.5458 134.532 35.5458 134.283 35.5735 134.036C35.6605 133.202 35.9947 132.413 36.5332 131.77C37.078 131.134 37.797 130.671 38.6015 130.438C38.8445 130.37 39.0938 130.328 39.3455 130.312C39.5167 130.293 39.6134 130.301 39.6134 130.316Z" fill="#263238"/>
<path d="M48.5107 144.793C48.4872 144.718 48.4722 144.641 48.4661 144.563C48.4438 144.391 48.4177 144.172 48.3805 143.9C48.3136 143.301 48.2206 142.479 48.1052 141.468C47.8858 139.392 47.5882 136.561 47.2608 133.436C47.1529 132.35 47.045 131.297 46.9483 130.322L47.0413 130.408L41.0893 130.371L39.3595 130.345H38.8982C38.8451 130.351 38.7914 130.351 38.7383 130.345C38.7904 130.331 38.8443 130.325 38.8982 130.326H39.3595L41.0893 130.3L47.0413 130.267H47.1232V130.352L47.4431 133.462C47.7481 136.591 48.0234 139.414 48.228 141.505C48.3173 142.517 48.3917 143.342 48.4438 143.941C48.4661 144.213 48.481 144.436 48.4958 144.607C48.506 144.669 48.511 144.731 48.5107 144.793Z" fill="#263238"/>
<path d="M48.511 144.793C48.419 144.833 48.3246 144.866 48.2283 144.894L47.4136 145.154C46.7031 145.377 45.6726 145.69 44.3855 146.032C42.879 146.444 41.3484 146.762 39.8025 146.984C37.8972 147.242 35.9609 147.15 34.0886 146.713C33.1183 146.503 32.1618 146.235 31.2242 145.909C30.7741 145.746 30.3314 145.582 29.9036 145.403C29.6915 145.314 29.4795 145.228 29.2786 145.121L28.9736 144.968L28.6871 144.786C27.9878 144.313 27.3802 143.717 26.8941 143.026C26.4664 142.432 26.0929 141.801 25.7781 141.14C25.336 140.185 24.9631 139.199 24.6621 138.19C24.5505 137.818 24.4687 137.558 24.4203 137.368C24.39 137.272 24.3663 137.174 24.3496 137.074C24.3941 137.165 24.4302 137.26 24.4575 137.357L24.7328 138.168C25.0628 139.161 25.4554 140.133 25.9083 141.077C26.2255 141.728 26.5989 142.351 27.0243 142.937C27.5044 143.607 28.1018 144.184 28.7876 144.641L29.0628 144.816L29.3567 144.964C29.5502 145.069 29.7622 145.15 29.9743 145.24C30.3983 145.414 30.8373 145.578 31.2874 145.734C32.2177 146.057 33.1669 146.323 34.1295 146.53C35.9808 146.963 37.8946 147.06 39.7802 146.817C41.3203 146.602 42.8468 146.299 44.3521 145.909C45.6392 145.582 46.6733 145.288 47.3913 145.091L48.2171 144.864C48.3124 144.83 48.4109 144.807 48.511 144.793Z" fill="#263238"/>
<path d="M42.1983 57.7377C42.5556 56.8597 42.6428 55.895 42.4486 54.9672C42.2544 54.0394 41.7877 53.1906 41.1083 52.5297C40.41 51.8914 39.5548 51.4497 38.6301 51.2498C37.7054 51.0498 36.7442 51.0986 35.8445 51.3913C35.025 51.638 34.3048 52.1381 33.7873 52.8198C32.8759 54.0772 33.0433 55.9297 33.9957 57.1685C34.4939 57.768 35.1143 58.2543 35.8155 58.595C36.5166 58.9356 37.2824 59.1227 38.0616 59.1438C39.6231 59.175 41.1716 58.8546 42.5926 58.2064" fill="#263238"/>
<path d="M54.5685 116.737C57.1725 118.883 63.2956 123.965 63.2956 123.965L66.7217 123.355L56.3355 114.616C56.0663 114.391 55.7215 114.277 55.3711 114.297C55.0208 114.317 54.6912 114.47 54.4494 114.724C54.3182 114.861 54.2167 115.023 54.1512 115.201C54.0857 115.378 54.0576 115.568 54.0688 115.757C54.08 115.946 54.1301 116.13 54.2161 116.299C54.3021 116.468 54.4221 116.617 54.5685 116.737Z" fill="#455A64"/>
<path d="M54.312 115.621L52.9654 114.405C52.8387 114.29 52.7614 114.13 52.7496 113.96C52.7378 113.789 52.7925 113.621 52.9021 113.49C52.9598 113.422 53.0303 113.367 53.1096 113.328C53.1889 113.288 53.2754 113.265 53.3638 113.259C53.4523 113.254 53.541 113.266 53.6246 113.295C53.7083 113.325 53.7851 113.37 53.8507 113.43L55.149 114.62L54.312 115.621Z" fill="#455A64"/>
<path d="M58.3077 116.275C58.0797 116.655 57.7977 117 57.4707 117.298C57.189 117.64 56.861 117.94 56.4961 118.191C56.7246 117.811 57.0065 117.465 57.3331 117.164C57.613 116.822 57.9413 116.523 58.3077 116.275Z" fill="#263238"/>
<path d="M58.403 120.553C58.0365 120.361 57.689 120.134 57.3651 119.876C56.7476 119.43 55.9106 118.783 55.0289 118.016C54.5774 117.68 54.2043 117.25 53.9352 116.755C53.7448 116.322 53.7328 115.832 53.9018 115.39C54.0146 115.097 54.2049 114.84 54.4523 114.646C54.6272 114.516 54.7425 114.475 54.7462 114.486C54.7499 114.497 54.6532 114.561 54.5007 114.706C54.2845 114.91 54.1233 115.166 54.032 115.45C53.894 115.858 53.9179 116.304 54.0989 116.696C54.3674 117.16 54.7283 117.564 55.1591 117.882C56.0333 118.645 56.8517 119.307 57.4506 119.78C57.7839 120.018 58.1019 120.276 58.403 120.553Z" fill="#263238"/>
<path d="M47.1562 131.472C49.6263 130.646 52.2452 131.204 54.7116 130.375C55.5584 130.152 56.3516 129.761 57.044 129.225C57.8289 128.529 58.227 127.506 58.8519 126.666C60.7119 124.151 64.205 123.63 67.3224 123.318C68.0453 123.201 68.7829 123.211 69.5023 123.347C69.8619 123.42 70.1967 123.584 70.4744 123.824C70.752 124.064 70.963 124.371 71.087 124.716C71.2879 125.419 70.8341 126.297 70.1049 126.372C70.7894 126.402 71.2656 127.093 71.392 127.767C71.5185 128.44 71.392 129.132 71.4962 129.809C71.6227 130.761 72.1435 131.65 72.1137 132.61C72.0728 133.923 70.9977 135.006 69.7701 135.512C68.5425 136.018 67.2145 136.085 65.9162 136.256C59.5178 137.156 54.6818 140.783 48.5103 143.525" fill="#FFBE9D"/>
<path d="M71.4541 128.641C71.517 128.743 71.6003 128.832 71.6988 128.901C71.7974 128.97 71.9091 129.018 72.027 129.042C72.1449 129.066 72.2665 129.066 72.3843 129.041C72.502 129.016 72.6134 128.967 72.7114 128.897C72.9024 128.745 73.0484 128.544 73.1336 128.316C73.2188 128.087 73.24 127.839 73.195 127.599C73.0977 127.119 72.8858 126.67 72.5775 126.29C72.0341 125.586 71.4371 124.926 70.7919 124.314L68.8203 125.974L71.4541 128.641Z" fill="#FFBE9D"/>
<path d="M70.724 126.477C70.724 126.54 69.5113 126.439 68.0493 126.666C66.5874 126.893 65.4453 127.332 65.4453 127.276C65.6679 127.13 65.9112 127.017 66.167 126.942C66.7709 126.727 67.3937 126.571 68.027 126.473C68.6608 126.377 69.3024 126.343 69.9428 126.373C70.2069 126.369 70.47 126.404 70.724 126.477Z" fill="#EB996E"/>
<path d="M71.5954 130.352C71.5954 130.412 70.5799 130.203 69.3262 130.241C68.0726 130.278 67.0756 130.523 67.0645 130.464C68.5246 129.946 70.1116 129.907 71.5954 130.352Z" fill="#EB996E"/>
<path d="M71.3854 129.206C71.3519 129.206 71.3854 128.916 71.3296 128.462C71.2581 127.873 71.0532 127.309 70.7306 126.811C70.6532 126.69 70.5688 126.575 70.4777 126.465L70.4219 126.394L70.4814 126.335C70.6511 126.162 70.7844 125.957 70.8732 125.732C70.9621 125.507 71.0047 125.267 70.9985 125.025C70.9985 124.653 70.8869 124.445 70.9129 124.434C71.0458 124.599 71.1192 124.805 71.1212 125.018C71.1497 125.282 71.1191 125.55 71.0316 125.802C70.9441 126.053 70.802 126.282 70.6153 126.472V126.342C70.713 126.461 70.8036 126.585 70.8869 126.714C71.2266 127.237 71.4241 127.84 71.4598 128.462C71.4893 128.713 71.4639 128.967 71.3854 129.206Z" fill="#EB996E"/>
<path d="M71.4566 128.429L74.7004 131.472L75.1133 133.28L72.115 132.603C71.6835 131.077 71.3673 129.623 71.4566 128.429Z" fill="#455A64"/>
<path d="M67.0645 132.305C66.9976 132.424 49.5508 141.025 49.5508 141.025V142.885L67.3547 133.622L89.4403 132.8V131.49L67.0645 132.305Z" fill="#F5F5F5"/>
<path d="M49.5508 143.141C49.6735 143.059 68.8129 141.333 68.8129 141.333L89.4403 132.777L67.3547 133.611L49.5508 142.873V143.141Z" fill="#263238"/>
<path d="M67.8735 138.562C67.721 137.558 68.6807 136.702 69.6591 136.431C70.6374 136.159 71.6828 136.271 72.6723 136.059C73.3002 135.886 73.9144 135.667 74.51 135.404C77.5604 134.236 80.9084 134.173 84.182 134.128C84.3721 134.571 84.4019 135.067 84.2661 135.53C84.1303 135.993 83.8375 136.394 83.438 136.665C83.7084 137.465 83.6726 138.337 83.3375 139.113C83.0001 139.881 82.5389 140.588 81.9723 141.207C81.5446 141.773 80.9938 142.235 80.3615 142.557C79.7 142.8 78.997 142.909 78.2932 142.877C76.0984 142.922 73.7474 142.926 71.9357 141.694C70.5258 140.735 69.5512 139.09 67.9181 138.607H68.2901" fill="#FFBE9D"/>
<path d="M82.4931 137.346C82.3565 137.377 82.2165 137.39 82.0765 137.387L80.9307 137.424C79.9635 137.446 78.628 137.461 77.1549 137.468H75.0717C74.76 137.473 74.4496 137.426 74.1529 137.331C73.8879 137.237 73.6563 137.068 73.487 136.843C73.4159 136.751 73.3641 136.645 73.3347 136.532C73.3054 136.419 73.2989 136.301 73.3159 136.185C73.3437 136.012 73.4243 135.853 73.5465 135.727C73.5921 135.674 73.6492 135.631 73.7137 135.603C73.7781 135.575 73.8482 135.561 73.9185 135.564C73.7913 135.608 73.6765 135.682 73.5837 135.78C73.4644 135.915 73.3986 136.09 73.3986 136.271C73.3986 136.451 73.4644 136.626 73.5837 136.762C73.7413 136.956 73.9519 137.101 74.1901 137.178C74.4726 137.261 74.7663 137.299 75.0605 137.29H77.14C78.628 137.29 79.9486 137.29 80.9158 137.29L82.0616 137.312C82.2063 137.304 82.3514 137.316 82.4931 137.346Z" fill="#EB996E"/>
<path d="M81.3699 139.184C81.1983 139.232 81.0228 139.266 80.8453 139.284C80.5031 139.34 80.0083 139.41 79.3945 139.47C78.6715 139.543 77.9439 139.559 77.2183 139.518C76.3321 139.446 75.4535 139.299 74.592 139.079C73.0368 138.7 71.4424 138.504 69.8416 138.495C69.2278 138.495 68.7256 138.518 68.3871 138.536C68.2076 138.552 68.0271 138.552 67.8477 138.536C68.0216 138.489 68.1998 138.459 68.3796 138.447C68.8636 138.387 69.3503 138.352 69.8379 138.343C71.4526 138.309 73.0648 138.488 74.6329 138.875C75.488 139.093 76.3586 139.244 77.2369 139.329C77.9541 139.378 78.6737 139.378 79.3908 139.329C80.0046 139.288 80.5068 139.236 80.8416 139.206C81.0165 139.181 81.1935 139.173 81.3699 139.184Z" fill="#EB996E"/>
<path d="M79.5501 141.148C79.4159 141.189 79.2773 141.214 79.1372 141.222C78.8731 141.26 78.4862 141.308 78.0212 141.349C76.7716 141.48 75.5098 141.439 74.2714 141.226C72.802 140.947 71.6674 140.196 70.7858 139.85C70.3103 139.657 69.8186 139.506 69.3164 139.4C69.4555 139.382 69.5966 139.39 69.7331 139.422C70.1154 139.479 70.4898 139.58 70.8491 139.723C71.7605 140.047 72.895 140.765 74.3235 141.036C75.552 141.244 76.801 141.303 78.0435 141.211L79.1595 141.148C79.2893 141.134 79.4203 141.134 79.5501 141.148Z" fill="#EB996E"/>
<g opacity="0.2">
<path d="M74.6016 131.159C74.7445 129.795 75.1115 128.464 75.6878 127.22C76.2707 125.976 77.2582 124.966 78.489 124.355C79.1073 124.06 79.7906 123.927 80.4746 123.968C81.1587 124.01 81.8208 124.225 82.3987 124.594C82.7476 124.818 83.0201 125.144 83.1799 125.527C83.2579 125.718 83.2815 125.927 83.248 126.131C83.2146 126.334 83.1253 126.525 82.9902 126.68C82.581 127.119 81.8742 127.052 81.2864 127.023C79.9146 126.985 78.5608 127.341 77.3853 128.05C76.2097 128.758 75.2618 129.788 74.6536 131.018" fill="black"/>
</g>
<g opacity="0.2">
<path d="M42.3 130.029C43.788 127.362 43.2523 124.017 42.1177 121.19C40.9831 118.363 39.2905 115.759 38.4238 112.835C38.2607 118.766 39.1227 124.681 40.972 130.319" fill="black"/>
</g>
<path d="M44.919 89.2308C44.919 89.2308 46.7232 93.4828 53.2332 93.2112C59.7432 92.9396 59.9515 87.8916 59.9515 87.8916L64.3076 92.523L60.171 101.046L54.6133 105.193L47.0431 102.083L40.8047 97.2474L44.919 89.2308Z" fill="#4E85FF"/>
<g opacity="0.5">
<path d="M29.6743 107.407C29.7413 107.489 28.8931 108.285 27.7734 109.181C26.6537 110.078 25.6976 110.736 25.6307 110.651C25.5637 110.565 26.4119 109.777 27.5279 108.88C28.6439 107.983 29.6073 107.321 29.6743 107.407Z" fill="#FAFAFA"/>
</g>
<path d="M32.7352 102.82C32.7018 102.917 31.675 102.627 30.5628 101.939C29.4505 101.25 28.7251 100.473 28.7958 100.399C28.8664 100.324 29.6848 100.953 30.7636 101.611C31.8424 102.27 32.765 102.716 32.7352 102.82Z" fill="#FAFAFA"/>
<path d="M38.3147 103.319C38.404 103.386 37.5707 104.58 36.6444 106.098C35.7181 107.616 35.0002 108.881 34.9035 108.832C34.8067 108.784 35.361 107.43 36.3171 105.894C37.2731 104.357 38.2366 103.252 38.3147 103.319Z" fill="#FAFAFA"/>
<path d="M33.538 116.246C33.4636 116.313 32.6043 115.435 31.8528 114.137C31.1014 112.838 30.7591 111.659 30.8559 111.626C30.9526 111.592 31.4473 112.679 32.1876 113.94C32.9279 115.201 33.6235 116.172 33.538 116.246Z" fill="#FAFAFA"/>
<path d="M28.5465 122.499C28.4423 122.499 28.2229 121.569 28.0629 120.386C27.9029 119.203 27.8583 118.232 27.9625 118.217C28.0666 118.202 28.2861 119.151 28.4461 120.334C28.606 121.517 28.6432 122.484 28.5465 122.499Z" fill="#FAFAFA"/>
<g opacity="0.5">
<path d="M33.2501 124.203C33.1571 124.15 33.6221 123.154 34.3177 121.971C35.0134 120.788 35.6272 119.884 35.7202 119.936C35.8132 119.988 35.3482 120.988 34.6525 122.168C33.9569 123.347 33.3431 124.243 33.2501 124.203Z" fill="#FAFAFA"/>
</g>
<path d="M27.7862 130.679C27.7081 130.75 26.8786 129.935 26.0713 128.76C25.2641 127.584 24.8065 126.528 24.8958 126.472C24.9851 126.416 25.5989 127.387 26.3838 128.54C27.1687 129.694 27.8681 130.609 27.7862 130.679Z" fill="#FAFAFA"/>
<path d="M35.2102 129.612C35.2846 129.686 34.429 130.672 33.3019 131.81C32.1747 132.949 31.1964 133.816 31.1182 133.741C31.0401 133.667 31.8957 132.681 33.0266 131.539C34.1575 130.397 35.1321 129.538 35.2102 129.612Z" fill="#FAFAFA"/>
<g opacity="0.5">
<path d="M30.9887 142.977C30.918 143.052 30.0922 142.367 29.3407 141.289C28.5893 140.21 28.2247 139.205 28.314 139.164C28.4033 139.124 28.9278 140.027 29.6607 141.065C30.3935 142.103 31.0668 142.899 30.9887 142.977Z" fill="#FAFAFA"/>
</g>
<path d="M40.5652 140.273C40.6173 140.366 39.7021 140.988 38.5229 141.661C37.3437 142.334 36.3393 142.807 36.2909 142.714C36.2425 142.621 37.1539 141.999 38.3332 141.326C39.5124 140.653 40.5131 140.18 40.5652 140.273Z" fill="#FAFAFA"/>
<path d="M44.2957 137.193C44.2288 137.271 43.362 136.609 42.5734 135.526C41.7847 134.444 41.4165 133.417 41.5132 133.38C41.6099 133.343 42.1233 134.258 42.8859 135.3C43.6485 136.341 44.3739 137.111 44.2957 137.193Z" fill="#FAFAFA"/>
<path d="M50.8768 115.769C50.9438 115.855 49.958 116.703 48.6783 117.659C47.3986 118.615 46.3124 119.322 46.2454 119.236C46.1784 119.151 47.168 118.306 48.4476 117.35C49.7273 116.394 50.8136 115.687 50.8768 115.769Z" fill="#FAFAFA"/>
<path d="M43.9436 115.316C43.8357 115.316 43.8543 114.286 43.9808 113.04C44.1073 111.793 44.297 110.808 44.4049 110.808C44.5127 110.808 44.4941 111.838 44.3677 113.084C44.2412 114.33 44.0477 115.335 43.9436 115.316Z" fill="#FAFAFA"/>
<g opacity="0.5">
<path d="M50.3389 106.607C50.2794 106.693 49.1262 105.982 47.8614 104.9C46.5966 103.817 45.7112 102.794 45.7856 102.724C45.86 102.653 46.8607 103.538 48.1143 104.606C49.368 105.674 50.4021 106.518 50.3389 106.607Z" fill="#FAFAFA"/>
</g>
<path d="M45.5355 95.7376C45.6173 95.8083 44.7915 96.902 43.7201 98.1817C42.6488 99.4613 41.689 100.44 41.6072 100.373C41.5253 100.306 42.3512 99.2084 43.4225 97.9287C44.4939 96.649 45.4536 95.6707 45.5355 95.7376Z" fill="#FAFAFA"/>
<g opacity="0.5">
<path d="M40.0346 94.5735C39.9751 94.6702 39.1455 94.2425 38.063 93.8816C36.9805 93.5208 36.084 93.3459 36.084 93.2343C36.084 93.1227 37.0661 93.1302 38.1969 93.5133C39.3278 93.8965 40.0904 94.4842 40.0346 94.5735Z" fill="#FAFAFA"/>
</g>
<path d="M54.0166 99.5842C53.9162 99.5544 54.091 98.6504 54.4109 97.5642C54.7309 96.478 55.0731 95.6224 55.1549 95.6521C55.2368 95.6819 55.0843 96.5858 54.7829 97.6721C54.4816 98.7583 54.1208 99.6176 54.0166 99.5842Z" fill="#FAFAFA"/>
<path d="M57.3608 108.148C57.2529 108.148 57.2157 107.255 57.2789 106.169C57.3422 105.082 57.4798 104.208 57.584 104.212C57.6881 104.216 57.729 105.105 57.6658 106.191C57.6026 107.277 57.4649 108.155 57.3608 108.148Z" fill="#FAFAFA"/>
<path d="M62.8656 114.572C62.7986 114.657 61.984 114.114 61.0465 113.359C60.1091 112.604 59.4023 111.927 59.4692 111.845C59.5362 111.763 60.3509 112.303 61.2883 113.058C62.2258 113.813 62.9214 114.49 62.8656 114.572Z" fill="#FAFAFA"/>
<path d="M68.7112 105.603C68.7819 105.681 68.0565 106.44 67.0893 107.292C66.1221 108.144 65.2813 108.78 65.2293 108.69C65.1772 108.601 65.884 107.853 66.8512 107.002C67.8184 106.15 68.6405 105.521 68.7112 105.603Z" fill="#FAFAFA"/>
<g opacity="0.5">
<path d="M66.0211 101.367C65.9616 101.456 65.0428 100.95 64.0532 100.128C63.0637 99.3057 62.3941 98.4948 62.4685 98.4241C62.5429 98.3534 63.3241 99.023 64.2988 99.8265C65.2734 100.63 66.0806 101.277 66.0211 101.367Z" fill="#FAFAFA"/>
</g>
<path d="M72.7827 93.8134C72.8683 93.873 72.4107 94.643 71.6221 95.387C70.8335 96.131 70.0337 96.5402 69.9779 96.4509C69.9221 96.3616 70.5917 95.8259 71.3543 95.108C72.1169 94.39 72.6935 93.739 72.7827 93.8134Z" fill="#FAFAFA"/>
<g opacity="0.5">
<path d="M68.1338 93.1076C68.1338 93.2118 66.9322 93.1262 65.5298 92.7654C64.1273 92.4045 63.0262 91.9209 63.0634 91.8205C63.1006 91.72 64.2278 92.04 65.6265 92.3896C67.0252 92.7393 68.1487 92.996 68.1338 93.1076Z" fill="#FAFAFA"/>
</g>
<g opacity="0.5">
<path d="M76.773 105.131C76.6725 105.109 76.9032 103.643 77.4351 101.924C77.9671 100.206 78.5809 98.8591 78.6776 98.8963C78.7743 98.9335 78.3279 100.321 77.8071 102.036C77.2863 103.751 76.8808 105.153 76.773 105.131Z" fill="#FAFAFA"/>
</g>
<path d="M78.6871 113.337C78.609 113.408 77.6902 112.563 76.6337 111.443C75.5772 110.324 74.7737 109.36 74.8667 109.286C74.9597 109.211 75.8599 110.06 76.9164 111.179C77.9729 112.299 78.7653 113.262 78.6871 113.337Z" fill="#FAFAFA"/>
<g opacity="0.5">
<path d="M81.6525 117.983C81.5446 117.983 81.4776 116.762 81.5037 115.26C81.5297 113.757 81.6376 112.544 81.7455 112.544C81.8533 112.544 81.9166 113.764 81.8905 115.267C81.8645 116.77 81.7566 117.986 81.6525 117.983Z" fill="#FAFAFA"/>
</g>
<path d="M78.6433 125.639C78.5578 125.698 77.7617 124.723 77.0251 123.362C76.2886 122 75.9091 120.799 76.0021 120.758C76.0951 120.717 76.6382 121.837 77.3674 123.172C78.0965 124.508 78.7326 125.575 78.6433 125.639Z" fill="#FAFAFA"/>
<path d="M86.3255 127.037C86.4036 127.112 85.8865 127.737 85.176 128.432C84.4655 129.128 83.8257 129.627 83.7513 129.548C83.6769 129.47 84.1939 128.845 84.9045 128.15C85.615 127.454 86.2511 126.959 86.3255 127.037Z" fill="#FAFAFA"/>
<g opacity="0.5">
<path d="M67.6194 118.315C67.5227 118.285 67.8649 117.065 68.7354 115.792C69.6059 114.52 70.6289 113.765 70.6921 113.847C70.7553 113.929 69.896 114.784 69.0553 116.016C68.2146 117.247 67.7235 118.356 67.6194 118.315Z" fill="#FAFAFA"/>
</g>
<path d="M45.9297 128.518C45.8256 128.492 46.0078 127.402 46.3352 126.048C46.6625 124.694 47.0197 123.641 47.1238 123.667C47.228 123.694 47.042 124.802 46.7146 126.141C46.3873 127.48 46.0302 128.544 45.9297 128.518Z" fill="#FAFAFA"/>
<path d="M55.054 129.43C54.9945 129.52 54.0682 129.017 52.9857 128.314C51.9032 127.611 51.0699 126.964 51.1257 126.875C51.1815 126.785 52.1078 127.284 53.194 127.991C54.2803 128.697 55.1247 129.341 55.054 129.43Z" fill="#FAFAFA"/>
<path d="M54.6077 122.837C54.5184 122.896 54.0832 122.402 53.633 121.721C53.1829 121.04 52.889 120.46 52.982 120.4C53.075 120.341 53.5066 120.836 53.9567 121.516C54.4068 122.197 54.6821 122.777 54.6077 122.837Z" fill="#FAFAFA"/>
<path d="M58.6365 124.34C58.696 124.426 58.3054 124.805 57.7623 125.189C57.2191 125.572 56.7281 125.81 56.6649 125.724C56.6016 125.639 56.9959 125.256 57.5391 124.872C58.0822 124.489 58.5732 124.244 58.6365 124.34Z" fill="#FAFAFA"/>
<g opacity="0.5">
<path d="M48.1154 151.083C48.0076 151.05 48.1824 150.205 48.3349 149.164C48.4874 148.122 48.573 147.263 48.6846 147.263C48.7962 147.263 48.878 148.144 48.7181 149.219C48.5581 150.294 48.2122 151.117 48.1154 151.083Z" fill="#FAFAFA"/>
</g>
<g opacity="0.5">
<path d="M57.3865 148.053C57.2935 148.105 56.5867 147.037 55.8092 145.672C55.0318 144.307 54.4738 143.15 54.5668 143.098C54.6598 143.045 55.3666 144.109 56.144 145.478C56.9215 146.847 57.4795 148.012 57.3865 148.053Z" fill="#FAFAFA"/>
</g>
<g opacity="0.5">
<path d="M67.2191 143.919C67.3046 143.982 66.3746 145.343 65.1396 146.958C63.9046 148.572 62.8332 149.826 62.7476 149.763C62.6621 149.699 63.5958 148.338 64.8308 146.723C66.0659 145.109 67.1372 143.852 67.2191 143.919Z" fill="#FAFAFA"/>
</g>
<g opacity="0.5">
<path d="M69.9916 151.816C69.9916 151.921 68.7752 152.188 67.2425 152.408C65.7099 152.627 64.4525 152.724 64.4376 152.62C64.4228 152.516 65.6504 152.248 67.1867 152.025C68.7231 151.802 69.9767 151.709 69.9916 151.816Z" fill="#FAFAFA"/>
</g>
<path d="M70.4181 147.836C70.3102 147.81 70.4181 147.018 70.4442 146.043C70.4702 145.069 70.4442 144.269 70.5744 144.254C70.7046 144.239 70.8794 145.043 70.8311 146.058C70.7827 147.074 70.5186 147.863 70.4181 147.836Z" fill="#FAFAFA"/>
<path d="M57.1412 152.471C57.104 152.564 56.0959 152.233 55.0469 151.475C53.9978 150.716 53.358 149.875 53.4361 149.812C53.5142 149.748 54.2582 150.437 55.2738 151.158C56.2894 151.88 57.1859 152.367 57.1412 152.471Z" fill="#FAFAFA"/>
<path d="M41.3658 151.884C41.2617 151.858 41.3658 151.006 41.6411 149.986C41.9164 148.967 42.1917 148.156 42.2958 148.182C42.4 148.208 42.2735 149.056 42.0168 150.079C41.7602 151.102 41.47 151.91 41.3658 151.884Z" fill="#FAFAFA"/>
<path d="M39.6493 57.7898C39.6716 57.76 40.0957 58.1246 40.8731 58.5338C41.33 58.7801 41.8066 58.9879 42.2979 59.155C42.9036 59.3506 43.5263 59.4888 44.1579 59.5679C44.7895 59.6351 45.426 59.6414 46.0588 59.5866C46.5772 59.5391 47.0902 59.4445 47.5915 59.3038C48.4471 59.0657 48.9381 58.8091 48.9567 58.8426C48.8521 58.9215 48.7385 58.9877 48.6182 59.0397C48.4836 59.1119 48.3444 59.1753 48.2015 59.2294C48.0144 59.3089 47.8231 59.3784 47.6286 59.4377C47.1236 59.5976 46.604 59.7072 46.0774 59.7651C45.4319 59.8321 44.7811 59.8321 44.1356 59.7651C43.492 59.6853 42.8586 59.5382 42.2458 59.3262C41.7466 59.1501 41.2656 58.9259 40.8099 58.6566C40.6127 58.5487 40.4379 58.4259 40.3003 58.3255C40.1701 58.2396 40.0458 58.1452 39.9283 58.0427C39.7423 57.8939 39.6381 57.8009 39.6493 57.7898Z" fill="#455A64"/>
<path d="M49.2607 62.0716C49.1306 62.1275 48.9946 62.1687 48.8553 62.1944C48.5911 62.2613 48.208 62.3506 47.7393 62.4325C46.4821 62.6782 45.19 62.6858 43.93 62.4548C42.6596 62.2091 41.5038 61.5562 40.6378 60.5948C40.3841 60.2986 40.1737 59.968 40.0128 59.6127C39.9473 59.4867 39.9021 59.3511 39.8789 59.2109C40.1144 59.675 40.4041 60.1096 40.7419 60.5055C41.6089 61.4166 42.737 62.0365 43.9709 62.2799C45.21 62.5025 46.4778 62.5138 47.7207 62.3134C48.2005 62.2465 48.5874 62.1795 48.8367 62.1349C48.9751 62.0973 49.1174 62.076 49.2607 62.0716Z" fill="#455A64"/>
<path d="M36.013 84.8381C35.9953 84.8223 35.9791 84.8048 35.9647 84.786C35.9386 84.7488 35.8903 84.6967 35.8382 84.6186C35.694 84.3914 35.5943 84.139 35.5443 83.8746C35.4697 83.3823 35.504 82.8797 35.6447 82.4021C35.7855 81.9246 36.0293 81.4837 36.359 81.1106C36.8124 80.5999 37.3374 80.1576 37.9177 79.7975C38.5277 79.3957 39.2122 79.0274 39.8855 78.5736C40.5989 78.1222 41.2086 77.5251 41.6749 76.8215C41.9079 76.448 42.06 76.0298 42.1213 75.5939C42.1792 75.1419 42.1552 74.6832 42.0506 74.2398C41.8063 73.3615 41.4916 72.5043 41.1094 71.6767C40.7475 70.8867 40.5344 70.0367 40.4807 69.1694C40.4365 67.6919 40.8854 66.2417 41.7567 65.0477C42.3227 64.2377 43.0739 63.5745 43.9478 63.1133L44.3644 62.9124L44.6843 62.8008C44.7711 62.7667 44.8607 62.7406 44.9522 62.7227C44.8712 62.7681 44.7866 62.8066 44.6992 62.838L44.3905 62.9682L43.985 63.1802C43.14 63.6585 42.4159 64.3241 41.8683 65.1258C41.0351 66.3029 40.6104 67.7206 40.6593 69.162C40.7161 70.0069 40.928 70.8341 41.2843 71.6023C41.6739 72.4426 41.9937 73.3135 42.2403 74.2063C42.3472 74.6721 42.3711 75.1532 42.311 75.6273C42.2473 76.0898 42.0863 76.5336 41.8385 76.9293C41.3535 77.6548 40.7194 78.2686 39.9785 78.7298C39.2941 79.1837 38.6059 79.5482 37.9995 79.9425C37.4278 80.2876 36.909 80.7136 36.4594 81.2073C36.1368 81.5647 35.8943 81.9869 35.748 82.4456C35.6018 82.9043 35.5551 83.389 35.6113 83.8671C35.6789 84.2144 35.8155 84.5445 36.013 84.8381Z" fill="#455A64"/>
<path d="M45.9226 84.9713C45.8462 84.9389 45.7738 84.8977 45.7068 84.8485C45.5132 84.7093 45.3499 84.5321 45.227 84.3277C45.0353 84.0007 44.9208 83.6343 44.8922 83.2564C44.8527 82.7545 44.9082 82.2497 45.0558 81.7684C45.3572 80.6784 46.2686 79.6852 46.953 78.4204C47.3258 77.7762 47.5197 77.0442 47.5148 76.3C47.4768 75.5016 47.2728 74.7199 46.9158 74.0047C46.209 72.5167 45.1228 71.3189 44.3714 70.0764C44.0022 69.4955 43.7072 68.8706 43.4934 68.2164C43.3133 67.6369 43.2513 67.0272 43.3112 66.4234C43.3688 65.5396 43.7565 64.7097 44.3974 64.0984C44.5767 63.9462 44.7772 63.8209 44.9926 63.7264C45.0662 63.6907 45.1436 63.6633 45.2232 63.6445C44.9425 63.7835 44.6811 63.9586 44.4458 64.1653C43.8485 64.7798 43.4943 65.59 43.4488 66.4457C43.3993 67.0311 43.4676 67.6206 43.6497 68.1792C43.8618 68.8229 44.1556 69.4367 44.5239 70.0057C44.8959 70.6121 45.3572 71.2184 45.8147 71.8657C46.303 72.5208 46.7301 73.2194 47.0907 73.9526C47.4627 74.6921 47.672 75.5026 47.7045 76.3297C47.7058 77.1044 47.5017 77.8656 47.113 78.5357C46.3988 79.8042 45.4874 80.7677 45.186 81.8242C45.0383 82.2865 44.9753 82.7717 45 83.2564C45.0204 83.6204 45.1194 83.9758 45.2902 84.298C45.4512 84.5645 45.6667 84.7939 45.9226 84.9713Z" fill="#455A64"/>
<path d="M60.6018 57.0459C60.6018 57.0459 60.5497 57.0459 60.4605 56.9864C60.3315 56.9165 60.2072 56.8383 60.0885 56.7521C59.6628 56.4224 59.301 56.0177 59.0208 55.5579C58.6139 54.8786 58.269 54.1639 57.9904 53.4227C57.8193 53.0135 57.6184 52.5857 57.4101 52.1653C57.1769 51.731 56.9029 51.3199 56.5917 50.9377C55.4811 49.5894 53.978 48.6207 52.2913 48.1663C51.5896 47.9973 50.8734 47.8951 50.1523 47.8613C50.3452 47.829 50.5411 47.8177 50.7364 47.8278C51.2715 47.8414 51.8038 47.9099 52.3248 48.0324C54.0588 48.4582 55.6081 49.4345 56.7405 50.8149C57.0617 51.2073 57.3445 51.6296 57.5849 52.076C57.8118 52.5075 57.9904 52.9428 58.1578 53.3557C58.4279 54.0912 58.7563 54.804 59.1399 55.4873C59.4062 55.9404 59.7442 56.3474 60.1405 56.6925C60.427 56.9343 60.613 57.0311 60.6018 57.0459Z" fill="#455A64"/>
<path d="M65.7903 57.0159C65.7226 57.0184 65.6549 57.0109 65.5894 56.9935C65.399 56.964 65.2121 56.9154 65.0314 56.8485C64.3624 56.6009 63.7564 56.2083 63.257 55.699C62.5232 54.9454 61.904 54.088 61.4193 53.1545C60.8353 52.1315 60.2698 50.956 59.3956 49.933C58.5625 48.9769 57.4627 48.2916 56.2373 47.9651C55.2358 47.6991 54.2046 47.5603 53.1683 47.5522C52.2793 47.5336 51.5613 47.5522 51.0628 47.5894L50.4899 47.6117C50.4233 47.6208 50.3557 47.6208 50.2891 47.6117C50.3529 47.5913 50.4192 47.58 50.4862 47.5782L51.0591 47.5187C51.5539 47.4778 52.2755 47.4183 53.1683 47.422C54.2193 47.4078 55.2676 47.5329 56.2857 47.794C57.5499 48.1207 58.6851 48.8238 59.5407 49.8102C60.4409 50.863 61.0027 52.0422 61.5718 53.0727C62.0435 53.9957 62.6434 54.8473 63.3537 55.6023C63.8325 56.1106 64.4131 56.5124 65.0575 56.7815C65.5187 56.9601 65.794 56.9935 65.7903 57.0159Z" fill="#455A64"/>
<path d="M74.5741 81.1591C74.5555 81.1591 74.6708 80.8949 74.7936 80.4151C74.972 79.7307 75.0472 79.0236 75.0168 78.317C74.9814 77.2688 74.7119 76.2418 74.2281 75.3112C73.9397 74.7654 73.5821 74.259 73.1642 73.8046C72.7327 73.3247 72.2379 72.8709 71.7432 72.3947C71.2436 71.9369 70.7821 71.4392 70.363 70.9067C69.9781 70.4076 69.6453 69.8704 69.3698 69.3034C68.9064 68.3411 68.6095 67.3072 68.4919 66.2456C68.4099 65.532 68.4174 64.8109 68.5142 64.0991C68.5354 63.9062 68.569 63.7149 68.6146 63.5263C68.6244 63.4584 68.6432 63.3921 68.6704 63.3291C68.689 63.3291 68.6295 63.6081 68.5886 64.1103C68.521 64.815 68.5335 65.5251 68.6258 66.227C68.765 67.2683 69.0702 68.2806 69.5298 69.2253C69.8046 69.7785 70.1335 70.3031 70.5118 70.7914C70.928 71.3102 71.3831 71.7965 71.8734 72.2459C72.3718 72.7221 72.8666 73.1797 73.3056 73.6707C73.7319 74.1381 74.0946 74.6596 74.3844 75.2219C74.8726 76.1778 75.136 77.2326 75.1544 78.3058C75.1722 79.0246 75.0756 79.7416 74.868 80.4299C74.8138 80.6172 74.7454 80.8 74.6634 80.9768C74.643 81.0417 74.6129 81.1032 74.5741 81.1591Z" fill="#455A64"/>
<path d="M33.8223 56.723C33.8214 56.5974 33.8377 56.4723 33.8707 56.351C33.9459 56.0277 34.0648 55.716 34.2241 55.4248C34.49 54.9305 34.8574 54.498 35.3022 54.1558C35.747 53.8135 36.2592 53.5692 36.8051 53.4389C37.3511 53.3085 37.9184 53.2951 38.4698 53.3995C39.0213 53.5039 39.5444 53.7238 40.0049 54.0446C40.2836 54.2297 40.5342 54.454 40.7489 54.7105C40.8348 54.7999 40.9052 54.903 40.9573 55.0156C40.6427 54.6972 40.2975 54.4107 39.9268 54.16C39.4769 53.8672 38.972 53.6691 38.443 53.5778C37.914 53.4865 37.372 53.5038 36.8499 53.6288C36.3278 53.7537 35.8366 53.9837 35.4063 54.3046C34.976 54.6255 34.6155 55.0307 34.3468 55.4954C34.1328 55.8868 33.9571 56.2979 33.8223 56.723Z" fill="#455A64"/>
<path d="M37.4259 58.2881C37.4233 58.0033 37.4583 57.7194 37.5301 57.4437C37.6445 56.7535 37.9499 56.1092 38.4117 55.5837C38.6647 55.3303 38.9816 55.1502 39.3287 55.0624C39.6759 54.9747 40.0403 54.9825 40.3833 55.0852C40.5895 55.1598 40.7719 55.2883 40.9116 55.4572C41.0046 55.5763 41.0306 55.6581 41.0232 55.6618C40.8336 55.4653 40.6004 55.3161 40.3424 55.2266C40.0252 55.151 39.6939 55.1578 39.3801 55.2464C39.0663 55.3349 38.7803 55.5023 38.5494 55.7325C38.1137 56.2371 37.8096 56.8415 37.664 57.4921C37.6091 57.7641 37.5294 58.0306 37.4259 58.2881Z" fill="#455A64"/>
<path d="M42.1527 52.8379C41.7796 53.49 41.4527 54.1675 41.1743 54.8653C40.9592 55.5841 40.7902 56.316 40.6684 57.0564C40.5862 55.5086 41.1213 53.9915 42.1564 52.8379H42.1527Z" fill="#4E85FF"/>
<path d="M101.666 61.9079C101.666 62.1367 101.734 62.3604 101.861 62.5506C101.988 62.7409 102.169 62.8892 102.38 62.9767C102.592 63.0643 102.824 63.0872 103.049 63.0426C103.273 62.9979 103.479 62.8878 103.641 62.726C103.803 62.5642 103.913 62.358 103.958 62.1336C104.002 61.9092 103.979 61.6766 103.892 61.4652C103.804 61.2538 103.656 61.0731 103.466 60.946C103.275 60.8188 103.052 60.751 102.823 60.751C102.671 60.751 102.521 60.7809 102.38 60.839C102.24 60.8972 102.112 60.9824 102.005 61.0898C101.897 61.1973 101.812 61.3248 101.754 61.4652C101.696 61.6055 101.666 61.756 101.666 61.9079Z" fill="#455A64"/>
<path d="M98.1882 63.0648C98.8271 63.0648 99.3451 62.5468 99.3451 61.9079C99.3451 61.2689 98.8271 60.751 98.1882 60.751C97.5492 60.751 97.0312 61.2689 97.0312 61.9079C97.0312 62.5468 97.5492 63.0648 98.1882 63.0648Z" fill="#455A64"/>
<path d="M92.4104 61.3272C92.2962 61.5254 92.2433 61.7531 92.2584 61.9813C92.2735 62.2096 92.3559 62.4283 92.4953 62.6097C92.6346 62.7911 92.8247 62.9272 93.0413 63.0006C93.258 63.0741 93.4915 63.0817 93.7125 63.0224C93.9335 62.9631 94.1319 62.8397 94.2827 62.6676C94.4335 62.4956 94.53 62.2827 94.5598 62.0559C94.5897 61.8291 94.5516 61.5985 94.4504 61.3934C94.3493 61.1882 94.1895 61.0176 93.9914 60.9032C93.8598 60.8271 93.7145 60.7778 93.5637 60.7579C93.413 60.7381 93.2599 60.7482 93.113 60.7875C92.9662 60.8269 92.8286 60.8949 92.708 60.9875C92.5875 61.0801 92.4863 61.1955 92.4104 61.3272Z" fill="#455A64"/>
<path d="M98.1174 48.3858C98.0395 48.3767 97.9609 48.3767 97.883 48.3858L97.1948 48.4044C97.046 48.4044 96.8749 48.4044 96.6889 48.4267L96.0825 48.5123L95.3757 48.6127L94.5834 48.8099C93.2289 49.154 91.9397 49.7169 90.7666 50.4764C89.0232 51.5859 87.5567 53.0795 86.4792 54.843C85.4018 56.6064 84.7421 58.593 84.5505 60.6506C84.4967 61.2691 84.4843 61.8905 84.5133 62.5106C84.5357 62.8268 84.5133 63.143 84.5729 63.4592L84.7179 64.4153C84.9606 65.7299 85.3942 67.002 86.005 68.1911C86.6603 69.4332 87.491 70.5745 88.4714 71.58C89.5166 72.6091 90.715 73.47 92.024 74.1319C93.376 74.8229 94.8393 75.27 96.3466 75.4525C96.7298 75.5103 97.1162 75.5438 97.5036 75.5529C97.8914 75.5734 98.2801 75.5734 98.6679 75.5529C99.4548 75.5215 100.238 75.4232 101.008 75.2591C102.661 74.9053 104.233 74.2482 105.647 73.3209H105.505L110.245 75.2256L110.527 75.3372L110.445 75.047C109.969 73.3061 109.501 71.6135 109.054 69.9767L109.028 70.1032C110.316 68.3987 111.183 66.4141 111.558 64.3111C111.74 63.3303 111.802 62.331 111.744 61.3351C111.734 60.8574 111.688 60.3811 111.606 59.9103C111.573 59.676 111.535 59.4453 111.502 59.2147C111.468 58.9841 111.387 58.7683 111.335 58.5451C110.541 55.4288 108.666 52.6957 106.045 50.8335C105.077 50.1382 104.018 49.5799 102.898 49.1744L102.191 48.9215L101.517 48.7503L100.9 48.5978C100.703 48.5569 100.528 48.5383 100.334 48.5123C99.9625 48.4639 99.6612 48.4044 99.3859 48.3895L98.6865 48.3672H98.2624C98.1657 48.3672 98.1174 48.3672 98.1174 48.3672H98.2624L98.6865 48.4007L99.3784 48.4453C99.65 48.4676 99.9625 48.5383 100.32 48.5904C102.893 49.0333 105.282 50.214 107.198 51.9891C109.113 53.7642 110.471 56.0573 111.108 58.5897C111.16 58.8092 111.227 59.025 111.268 59.2482C111.308 59.4714 111.335 59.702 111.372 59.9289C111.447 60.3928 111.488 60.8615 111.494 61.3314C111.549 62.3039 111.485 63.2795 111.305 64.2367C110.928 66.3057 110.069 68.2568 108.797 69.932L108.757 69.9878L108.775 70.0585C109.222 71.6953 109.682 73.3854 110.155 75.1289L110.356 74.9503L105.621 73.0419L105.546 73.0122L105.476 73.0568C104.091 73.9705 102.548 74.6189 100.926 74.9689C100.174 75.13 99.4101 75.2271 98.6419 75.2591C98.2611 75.274 97.8798 75.2665 97.4999 75.2367C97.1263 75.2295 96.7535 75.1984 96.3839 75.1437C94.908 74.9626 93.4753 74.5244 92.1505 73.8492C89.6135 72.5942 87.5457 70.559 86.2506 68.0423C85.6434 66.8817 85.2097 65.6384 84.9634 64.352C84.9151 64.0358 84.8667 63.7271 84.8221 63.4146C84.7775 63.1021 84.7812 62.7933 84.7551 62.4846C84.7258 61.8782 84.7358 61.2706 84.7849 60.6655C84.9662 58.6416 85.6057 56.6854 86.655 54.9453C87.7042 53.2051 89.1357 51.7265 90.841 50.6215C91.9987 49.8555 93.2725 49.2814 94.6131 48.9215L95.3943 48.7132L96.0974 48.5978L96.6963 48.4974C96.8823 48.4974 97.0497 48.4751 97.1985 48.4602L97.883 48.4118C97.9617 48.4097 98.0401 48.4009 98.1174 48.3858Z" fill="#455A64"/>
</svg>
