<svg width="107" height="108" viewBox="0 0 107 108" fill="none" xmlns="http://www.w3.org/2000/svg">
<path d="M34.0256 54.1865C29.0443 56.3638 26.2558 61.4716 26.7777 66.5925C26.9595 68.3025 28.8094 69.3195 30.388 68.6295L47.0955 61.3266C48.6741 60.6366 49.1847 58.5879 48.0525 57.2933C44.6277 53.423 39.007 52.0091 34.0256 54.1865Z" fill="#2A77DF" fill-opacity="0.4"/>
<path d="M33.4828 52.9446C36.4565 51.6448 37.7955 48.1935 36.4957 45.2198C35.2026 42.2616 31.7594 40.9006 28.7864 42.2001C25.8282 43.4931 24.4737 46.9512 25.7667 49.9094C27.0658 52.8834 30.5239 54.238 33.4828 52.9446Z" fill="#2A77DF" fill-opacity="0.4"/>
<path d="M110.368 45.4448C106.718 44.6121 103.079 46.896 102.247 50.5463L101.201 55.1292L114.425 58.1493L115.47 53.5664C116.303 49.9159 114.019 46.2774 110.368 45.4447L110.368 45.4448Z" fill="#2A77DF" fill-opacity="0.4"/>
<path d="M94.0431 86.4463L98.1656 98.885L107.267 89.4662L94.0431 86.4463Z" fill="#2A77DF" fill-opacity="0.4"/>
<path d="M72.465 32.2374C75.2521 38.6139 82.6756 41.5217 89.0521 38.7345C95.4286 35.9473 98.3363 28.5239 95.5492 22.1474C92.7552 15.7553 85.3385 12.8631 78.962 15.6503C72.5787 18.4219 69.671 25.8454 72.465 32.2374ZM76.701 29.2722C77.1458 28.4937 78.1409 28.2226 78.9195 28.6673L82.5282 30.7411L87.7698 20.7636C88.1854 19.9608 89.1676 19.66 89.9704 20.0757C90.7732 20.4913 91.0739 21.4735 90.6583 22.2763L84.6277 33.7484C84.4611 34.0767 84.1707 34.3314 83.8334 34.4788C83.772 34.5057 83.7106 34.5325 83.6276 34.5503C83.2088 34.6787 82.7474 34.6249 82.3544 34.3949L77.2769 31.4661C76.5113 31.0528 76.2564 30.0505 76.7011 29.272L76.701 29.2722Z" fill="#2A77DF" fill-opacity="0.4"/>
<path d="M94.7767 83.2832L100.484 58.2993L113.71 61.3206L108.003 86.3045L94.7767 83.2832Z" fill="#2A77DF" fill-opacity="0.4"/>
<path d="M90.6637 86.6102L96.7097 60.1786L88.8775 42.26C81.2287 44.7267 72.7743 41.0466 69.4915 33.5361C66.2019 26.0101 69.2428 17.3054 76.2482 13.3668L74.111 8.47722L0 40.8711L41.6531 136.165L115.764 103.772L110.217 91.08L96.77 105.009L90.6637 86.6102ZM50.1311 32.8892L62.5468 27.4623C63.3746 27.1005 64.3218 27.4715 64.6836 28.2993C65.0454 29.127 64.6744 30.0742 63.8466 30.436L51.4309 35.8629C50.6032 36.2247 49.656 35.8537 49.2942 35.026C48.9323 34.1982 49.3033 33.251 50.1311 32.8892ZM54.1042 41.9789L66.5199 36.552C67.3477 36.1902 68.2949 36.5612 68.6567 37.389C69.0185 38.2167 68.6475 39.1639 67.8198 39.5258L55.404 44.9527C54.5763 45.3145 53.6291 44.9435 53.2673 44.1157C52.9055 43.288 53.2765 42.3408 54.1042 41.9789ZM58.077 51.0679L70.4927 45.641C71.3205 45.2792 72.2677 45.6502 72.6295 46.478C72.9913 47.3057 72.6203 48.2529 71.7926 48.6148L59.3768 54.0417C58.5491 54.4035 57.6019 54.0325 57.2401 53.2047C56.885 52.3925 57.2493 51.4298 58.077 51.0679ZM13.7592 44.9892L41.0432 33.0634L53.33 61.1751L26.046 73.1009L13.7592 44.9892ZM30.1285 81.3949L64.3713 66.4274C65.199 66.0656 66.1462 66.4366 66.508 67.2643C66.8699 68.0921 66.4989 69.0393 65.6711 69.4011L31.4284 84.3686C30.6006 84.7304 29.6534 84.3594 29.2916 83.5316C28.9142 82.7107 29.3008 81.7567 30.1285 81.3949ZM35.7966 94.3623L89.0765 71.0737C89.9043 70.7119 90.8515 71.0829 91.2133 71.9106C91.5751 72.7384 91.2041 73.6856 90.3764 74.0474L37.0964 97.336C36.2687 97.6978 35.3215 97.3268 34.9596 96.4991C34.5978 95.6713 34.9688 94.7241 35.7966 94.3623ZM90.2767 105.019L48.4465 123.303C47.6188 123.665 46.6716 123.294 46.3097 122.466C45.9479 121.638 46.3189 120.691 47.1467 120.329L88.9769 102.045C89.8046 101.683 90.7518 102.054 91.1136 102.882C91.4754 103.71 91.1044 104.657 90.2767 105.019ZM42.7717 110.32C41.9439 110.682 40.9967 110.311 40.6349 109.483C40.2731 108.655 40.6441 107.708 41.4718 107.346L87.8237 87.0858C88.6515 86.724 89.5987 87.095 89.9605 87.9228C90.3223 88.7505 89.9513 89.6977 89.1236 90.0595L42.7717 110.32Z" fill="#2A77DF" fill-opacity="0.4"/>
</svg>
