<svg width="177" height="126" viewBox="0 0 177 126" fill="none" xmlns="http://www.w3.org/2000/svg">
<path d="M197.383 76.5269C197.383 76.5269 193.473 34.9125 161.913 18.7136C130.353 2.5147 113.875 7.54194 93.7663 16.7585C73.6573 25.9752 66.0969 42.5986 48.8004 50.5528C31.5039 58.507 6.34813 63.9588 5.23097 82.9506C4.1138 101.942 10.8168 114.79 20.3127 119.817C29.8086 124.844 39.0252 124.844 39.0252 124.844H184.815C184.815 124.844 202.969 115.628 197.383 76.5269Z" fill="#2A77DF"/>
<path opacity="0.7" d="M197.383 76.5269C197.383 76.5269 193.473 34.9125 161.913 18.7136C130.353 2.5147 113.875 7.54194 93.7663 16.7585C73.6573 25.9752 66.0969 42.5986 48.8004 50.5528C31.5039 58.507 6.34813 63.9588 5.23097 82.9506C4.1138 101.942 10.8168 114.79 20.3127 119.817C29.8086 124.844 39.0252 124.844 39.0252 124.844H184.815C184.815 124.844 202.969 115.628 197.383 76.5269Z" fill="white"/>
<g opacity="0.3">
<path d="M43.2148 11.7306C43.2148 11.7306 43.3461 11.6748 43.6031 11.5742" stroke="black" stroke-width="0.279291" stroke-linecap="round" stroke-linejoin="round"/>
<path d="M44.9043 11.0969C49.5657 9.4966 63.3599 5.65635 80.0782 9.4966C102.958 14.7529 140.182 56.8756 172.244 46.6423C192.755 40.0957 190.56 11.5354 168.055 9.6139C141.698 7.36281 133.47 20.3108 131.641 24.1119" stroke="black" stroke-width="0.279291" stroke-linecap="round" stroke-linejoin="round" stroke-dasharray="0.83 1.39"/>
<path d="M131.34 24.7471C131.234 24.9984 131.189 25.1381 131.189 25.1381" stroke="black" stroke-width="0.279291" stroke-linecap="round" stroke-linejoin="round"/>
</g>
<g opacity="0.3">
<path d="M130.696 116.272L131.554 118.01L133.472 118.289L132.084 119.641L132.411 121.551L130.696 120.652L128.978 121.551L129.308 119.641L127.92 118.289L129.839 118.01L130.696 116.272Z" stroke="black" stroke-width="0.279291" stroke-linecap="round" stroke-linejoin="round"/>
<path d="M138.903 116.272L139.761 118.01L141.679 118.289L140.291 119.641L140.618 121.551L138.903 120.652L137.188 121.551L137.515 119.641L136.127 118.289L138.046 118.01L138.903 116.272Z" stroke="black" stroke-width="0.279291" stroke-linecap="round" stroke-linejoin="round"/>
<path d="M147.114 116.271L147.971 118.009L149.89 118.288L148.502 119.64L148.829 121.55L147.114 120.651L145.399 121.55L145.726 119.64L144.338 118.288L146.257 118.009L147.114 116.271Z" stroke="black" stroke-width="0.279291" stroke-linecap="round" stroke-linejoin="round"/>
<path d="M155.323 116.271L156.18 118.009L158.099 118.288L156.711 119.64L157.038 121.55L155.323 120.651L153.608 121.55L153.935 119.64L152.547 118.288L154.466 118.009L155.323 116.271Z" stroke="black" stroke-width="0.279291" stroke-linecap="round" stroke-linejoin="round"/>
<path d="M163.528 116.272L164.386 118.01L166.304 118.289L164.916 119.641L165.243 121.551L163.528 120.652L161.813 121.551L162.14 119.641L160.752 118.289L162.671 118.01L163.528 116.272Z" stroke="black" stroke-width="0.279291" stroke-linecap="round" stroke-linejoin="round"/>
</g>
<g opacity="0.3">
<path d="M16.4041 103.895H6.07031V89.6514H14.8037L16.4041 91.8187V103.895Z" stroke="black" stroke-width="0.279291" stroke-linecap="round" stroke-linejoin="round"/>
<path d="M14.8027 89.6514V91.8187H16.4031" stroke="black" stroke-width="0.279291" stroke-linecap="round" stroke-linejoin="round"/>
<path d="M8.52148 93.5977H14.0906" stroke="black" stroke-width="0.279291" stroke-linecap="round" stroke-linejoin="round"/>
<path d="M8.52148 95.7285H14.0906" stroke="black" stroke-width="0.279291" stroke-linecap="round" stroke-linejoin="round"/>
<path d="M8.52148 97.8633H14.0906" stroke="black" stroke-width="0.279291" stroke-linecap="round" stroke-linejoin="round"/>
<path d="M8.52344 99.9961H14.0925" stroke="black" stroke-width="0.279291" stroke-linecap="round" stroke-linejoin="round"/>
</g>
<g opacity="0.3">
<path d="M37.4891 6.93096L17.3027 17.0439L23.39 29.1947L43.5764 19.0817L37.4891 6.93096Z" fill="white" stroke="black" stroke-width="0.279291" stroke-linecap="round" stroke-linejoin="round"/>
<path d="M17.3008 17.0438L31.3352 19.8535L37.4879 6.93066" stroke="black" stroke-width="0.279291" stroke-linecap="round" stroke-linejoin="round"/>
<path d="M23.3906 29.1945L27.418 19.1484" stroke="black" stroke-width="0.279291" stroke-linecap="round" stroke-linejoin="round"/>
<path d="M43.5724 19.081L33.4062 15.8691" stroke="black" stroke-width="0.279291" stroke-linecap="round" stroke-linejoin="round"/>
</g>
<path d="M172.525 124.843H197.662" stroke="#263238" stroke-width="0.279291" stroke-linecap="round" stroke-linejoin="round"/>
<path d="M47.9609 124.843H169.453" stroke="#263238" stroke-width="0.279291" stroke-linecap="round" stroke-linejoin="round"/>
<path d="M9.69922 124.843H45.4485" stroke="#263238" stroke-width="0.279291" stroke-linecap="round" stroke-linejoin="round"/>
<path d="M169.821 89.4424C169.821 89.4424 177.183 95.288 180.713 101.379C184.243 107.471 184.126 111.599 184.126 111.599C184.126 111.599 173.728 104.178 171.373 99.1505C169.965 96.1214 169.427 92.7598 169.821 89.4424Z" fill="#2A77DF"/>
<path d="M184.009 96.4756C184.009 96.4756 178.091 88.9487 174.002 80.341C169.913 71.7332 170.572 62.7959 170.572 62.7959C170.572 62.7959 178.247 72.7443 180.688 80.5141C183.129 88.284 184.009 96.4756 184.009 96.4756Z" fill="#2A77DF"/>
<path d="M185.456 72.3571C185.456 72.3571 178.518 62.0233 176.625 54.6333C174.731 47.2433 173.086 34.7422 173.086 34.7422C173.086 34.7422 181.403 43.255 183.436 53.949C185.47 64.6431 185.456 72.3571 185.456 72.3571Z" fill="#2A77DF"/>
<path d="M177.319 79.7043L175.881 76.2773" stroke="#263238" stroke-width="0.209468" stroke-miterlimit="10"/>
<path d="M179.168 105.37C177.931 103.831 176.629 102.116 175.537 100.463" stroke="#263238" stroke-width="0.209468" stroke-miterlimit="10"/>
<path d="M175.732 108.986H193.138V115.203H191.496L189.376 128.88H179.492L177.375 115.203H175.732V108.986Z" fill="#263238"/>
<path d="M99.5815 110.067C99.5815 110.067 102.598 123.038 101.285 125.169C99.5676 127.962 81.2852 129.637 81.2852 129.637H121.601C121.601 129.637 126.653 128.221 125.134 124.158C123.958 121.016 118.319 110.067 118.319 110.067H99.5815Z" fill="white" stroke="#263238" stroke-width="0.279291" stroke-linecap="round" stroke-linejoin="round"/>
<path d="M98.699 110.067C98.699 110.067 101.916 123.147 100.403 125.169C98.8889 127.191 81.2852 128.738 81.2852 128.738H121.782C121.782 128.738 125.19 127.361 124.243 124.158C123.296 120.954 117.428 110.067 117.428 110.067H98.699Z" fill="white" stroke="#263238" stroke-width="0.279291" stroke-linecap="round" stroke-linejoin="round"/>
<path d="M117.437 110.068H98.6992C98.6992 110.068 100.604 117.819 100.791 122.31H123.548C121.707 117.992 117.437 110.068 117.437 110.068Z" fill="#263238" stroke="#263238" stroke-width="0.279291" stroke-linecap="round" stroke-linejoin="round"/>
<path d="M167.894 20.1113L50.9856 20.1113C49.6776 20.1113 48.6172 21.1717 48.6172 22.4797V108.979C48.6172 110.287 49.6776 111.347 50.9856 111.347H167.894C169.202 111.347 170.262 110.287 170.262 108.979V22.4797C170.262 21.1717 169.202 20.1113 167.894 20.1113Z" fill="white" stroke="#263238" stroke-width="0.279291" stroke-linecap="round" stroke-linejoin="round"/>
<path d="M165.027 20.1104L48.1184 20.1104C46.8104 20.1104 45.75 21.1707 45.75 22.4787V108.978C45.75 110.286 46.8104 111.346 48.1184 111.346H165.027C166.335 111.346 167.395 110.286 167.395 108.978V22.4787C167.395 21.1707 166.335 20.1104 165.027 20.1104Z" fill="#263238" stroke="#263238" stroke-width="0.279291" stroke-linecap="round" stroke-linejoin="round"/>
<path d="M45.75 97.165H167.395V108.976C167.395 109.604 167.146 110.207 166.702 110.651C166.257 111.095 165.655 111.345 165.027 111.345H48.1184C47.4903 111.345 46.8878 111.095 46.4437 110.651C45.9995 110.207 45.75 109.604 45.75 108.976V97.165Z" fill="white" stroke="#263238" stroke-width="0.279291" stroke-linecap="round" stroke-linejoin="round"/>
<path d="M108.818 104.257C108.818 103.815 108.687 103.383 108.442 103.015C108.196 102.648 107.847 102.362 107.439 102.193C107.031 102.023 106.581 101.979 106.148 102.065C105.715 102.152 105.317 102.364 105.004 102.677C104.692 102.989 104.479 103.387 104.393 103.821C104.306 104.254 104.351 104.704 104.52 105.112C104.689 105.52 104.975 105.869 105.343 106.115C105.71 106.36 106.142 106.491 106.584 106.491C107.177 106.491 107.745 106.256 108.164 105.837C108.583 105.418 108.818 104.849 108.818 104.257Z" fill="#263238" stroke="#263238" stroke-width="0.279291" stroke-linecap="round" stroke-linejoin="round"/>
<path d="M161.277 25.7852H51.8672V90.2428H161.277V25.7852Z" fill="#949494" stroke="#263238" stroke-width="0.279291" stroke-linejoin="round"/>
<path d="M148.774 25.7871H91.0391V90.2447H148.774V25.7871Z" fill="#EDEDED" stroke="#263238" stroke-width="0.279291" stroke-miterlimit="10"/>
<path d="M117.894 60.8581C118.744 60.8581 119.433 60.1691 119.433 59.3192C119.433 58.4693 118.744 57.7803 117.894 57.7803C117.044 57.7803 116.355 58.4693 116.355 59.3192C116.355 60.1691 117.044 60.8581 117.894 60.8581Z" fill="white" stroke="#263238" stroke-width="0.279291" stroke-linecap="round" stroke-linejoin="round"/>
<path d="M124.435 60.859C125.285 60.859 125.974 60.1701 125.974 59.3201C125.974 58.4702 125.285 57.7812 124.435 57.7812C123.585 57.7812 122.896 58.4702 122.896 59.3201C122.896 60.1701 123.585 60.859 124.435 60.859Z" fill="white" stroke="#263238" stroke-width="0.279291" stroke-linecap="round" stroke-linejoin="round"/>
<path d="M130.974 60.859C131.824 60.859 132.513 60.1701 132.513 59.3201C132.513 58.4702 131.824 57.7812 130.974 57.7812C130.125 57.7812 129.436 58.4702 129.436 59.3201C129.436 60.1701 130.125 60.859 130.974 60.859Z" fill="white" stroke="#263238" stroke-width="0.279291" stroke-linecap="round" stroke-linejoin="round"/>
<path d="M137.513 60.861C138.363 60.861 139.052 60.172 139.052 59.3221C139.052 58.4722 138.363 57.7832 137.513 57.7832C136.664 57.7832 135.975 58.4722 135.975 59.3221C135.975 60.172 136.664 60.861 137.513 60.861Z" fill="white" stroke="#263238" stroke-width="0.279291" stroke-linecap="round" stroke-linejoin="round"/>
<path d="M99.0769 25.7861H63.875V90.2437H99.0769V25.7861Z" fill="white" stroke="#263238" stroke-width="0.279291" stroke-linecap="round" stroke-linejoin="round"/>
<path d="M148.774 25.7861H63.875V48.5679H148.774V25.7861Z" fill="#2A77DF" stroke="#263238" stroke-width="0.279291" stroke-linecap="round" stroke-linejoin="round"/>
<path d="M99.0713 25.7861H63.875V48.5679H99.0713V25.7861Z" fill="#263238" stroke="#263238" stroke-width="0.279291" stroke-linecap="round" stroke-linejoin="round"/>
<path d="M161.278 25.7861H158.281V90.2437H161.278V25.7861Z" fill="#D4D4D4" stroke="#263238" stroke-width="0.279291" stroke-linejoin="round"/>
<path d="M161.276 50.2744H158.279V67.0319H161.276V50.2744Z" fill="#949494" stroke="#263238" stroke-width="0.279291" stroke-linejoin="round"/>
<path d="M161.277 25.7852H51.8672V30.9967H161.277V25.7852Z" fill="#D4D4D4" stroke="#263238" stroke-width="0.279291" stroke-linejoin="round"/>
<path d="M110.228 27.1348H60.2598V29.9724H110.228V27.1348Z" fill="white" stroke="#263238" stroke-width="0.279291" stroke-linecap="round" stroke-linejoin="round"/>
<path d="M87.1102 51.51C90.9418 47.6784 90.9418 41.4661 87.1102 37.6345C83.2786 33.8029 77.0663 33.8029 73.2347 37.6345C69.403 41.4661 69.403 47.6784 73.2347 51.51C77.0663 55.3417 83.2786 55.3417 87.1102 51.51Z" fill="white" stroke="#263238" stroke-width="0.279291" stroke-linecap="round" stroke-linejoin="round"/>
<path d="M80.1731 54.3819C81.8557 54.3836 83.5105 53.952 84.978 53.1287C86.4454 52.3055 87.6762 51.1183 88.5518 49.6814L82.8459 48.0811L77.6874 48.1565L72.9199 51.1616C73.8366 52.1757 74.9557 52.9862 76.205 53.5409C77.4544 54.0956 78.8062 54.3821 80.1731 54.3819Z" fill="white" stroke="#263238" stroke-width="0.279291" stroke-linecap="round" stroke-linejoin="round"/>
<path d="M80.4106 54.3759C80.7458 54.3687 81.0805 54.3445 81.4133 54.3033L81.2652 53.6945L82.2372 51.7394L81.039 49.8682L79.084 51.8874L80.5056 53.6079L80.4106 54.3759Z" fill="#263238" stroke="#263238" stroke-width="0.279291" stroke-linecap="round" stroke-linejoin="round"/>
<path d="M78.8674 54.2961L77.4877 48.2773L72.9102 51.1624C74.4623 52.8793 76.5733 53.9897 78.8674 54.2961Z" fill="#2A77DF" stroke="#263238" stroke-width="0.279291" stroke-linecap="round" stroke-linejoin="round"/>
<path d="M88.5453 49.6818L84.4258 48.5283L83.3086 53.8684C85.491 53.13 87.3446 51.6481 88.5453 49.6818Z" fill="#2A77DF" stroke="#263238" stroke-width="0.279291" stroke-linecap="round" stroke-linejoin="round"/>
<path d="M80.7636 51.2772L78.4482 53.02L76.5938 48.4899L77.6355 46.8756L83.3051 46.5879L84.6457 48.3949L83.5425 52.5117L80.7636 51.2772Z" fill="white" stroke="#263238" stroke-width="0.279291" stroke-linecap="round" stroke-linejoin="round"/>
<path d="M78.1094 45.1349L78.6316 48.0116L80.7654 51.2765L82.7261 47.4279L82.6004 44.998L78.1094 45.1349Z" fill="white" stroke="#263238" stroke-width="0.279291" stroke-linecap="round" stroke-linejoin="round"/>
<path d="M82.6439 45.8046L82.6104 45.1622L82.0155 45.0254L78.1055 45.1427L78.6277 48.0194L78.9322 48.4858C80.5828 47.8015 81.9569 46.5168 82.6439 45.8046Z" fill="#263238" stroke="#263238" stroke-width="0.279291" stroke-linecap="round" stroke-linejoin="round"/>
<path d="M76.302 41.7699C76.302 41.7699 75.5172 40.932 75.4139 41.5464C75.3105 42.1609 75.6317 43.2222 76.1233 43.5992C76.6148 43.9763 77.0561 43.3507 77.0561 43.3507L76.302 41.7699Z" fill="white" stroke="#263238" stroke-width="0.279291" stroke-linecap="round" stroke-linejoin="round"/>
<path d="M83.7308 41.3931C83.7308 41.3931 84.4262 40.4826 84.591 41.0802C84.7558 41.6779 84.5407 42.756 84.0911 43.1945C83.6414 43.633 83.1387 43.0409 83.1387 43.0409L83.7308 41.3931Z" fill="white" stroke="#263238" stroke-width="0.279291" stroke-linecap="round" stroke-linejoin="round"/>
<path d="M76.6144 42.6339L75.8603 41.0587C75.2575 40.2094 74.8407 39.2425 74.637 38.2211C74.2795 36.4867 74.88 35.04 75.6648 34.5903C76.1058 34.3259 76.6265 34.2269 77.1339 34.3111C77.1339 34.3111 77.2847 33.2916 79.7369 32.4258C82.189 31.56 84.8954 33.1073 84.8535 33.6491C84.8116 34.191 84.1525 34.4256 84.1525 34.4256C84.1525 34.4256 86.0768 35.1378 85.3813 36.0482C84.9528 36.6036 84.3973 37.048 83.7614 37.3442C83.9003 37.8031 84.014 38.2693 84.1022 38.7406C84.1999 39.3439 83.6581 41.9329 83.6581 41.9329L82.3259 38.3021L78.1561 38.5144C78.1561 38.5144 77.9103 40.2795 77.469 40.9079C77.1868 41.3863 77.0293 41.928 77.011 42.4831C77.011 42.4831 76.8434 43.159 76.6144 42.6339Z" fill="#696969" stroke="#263238" stroke-width="0.279291" stroke-linejoin="round"/>
<path d="M77.3599 36.0527C77.3513 37.1404 77.272 38.2263 77.1225 39.3037C77.0336 39.9026 76.7237 40.4466 76.2539 40.8286C76.2539 40.8286 76.7846 43.2975 77.4577 44.6102C78.1307 45.9229 79.5356 47.0009 80.9432 46.8613C82.3508 46.7217 83.4848 45.1129 83.6188 43.7584C83.7529 42.4038 83.091 37.3822 83.091 37.3822C83.091 37.3822 78.6837 38.1446 77.3599 36.0527Z" fill="white" stroke="#263238" stroke-width="0.279291" stroke-linecap="round" stroke-linejoin="round"/>
<path d="M79.3242 43.8281C79.3242 43.8281 80.0839 44.4817 81.7876 43.9007" stroke="#263238" stroke-width="0.279291" stroke-linecap="round" stroke-linejoin="round"/>
<path d="M77.6719 39.997C77.6719 39.997 77.7585 39.2429 79.0041 39.1787" stroke="#263238" stroke-width="0.279291" stroke-linecap="round" stroke-linejoin="round"/>
<path d="M81 39.013C81.2825 38.8963 81.5951 38.8737 81.8914 38.9487C82.1877 39.0236 82.452 39.1921 82.645 39.4291" stroke="#263238" stroke-width="0.279291" stroke-linecap="round" stroke-linejoin="round"/>
<path d="M80.5633 40.2188C80.5633 40.2188 80.7643 41.7074 80.7727 41.8945C80.7811 42.0816 81.4095 42.1123 81.2419 42.4978C81.0744 42.8832 80.5297 43.291 80.0801 43.0117" stroke="#263238" stroke-width="0.279291" stroke-linecap="round" stroke-linejoin="round"/>
<path d="M82.2081 40.7031C82.2221 40.9824 82.0964 41.2087 81.9288 41.217C81.7612 41.2254 81.6048 41.0104 81.5909 40.7367C81.5769 40.4629 81.7054 40.2283 81.8702 40.22C82.035 40.2116 82.1942 40.4294 82.2081 40.7031Z" fill="#263238"/>
<path d="M78.9776 40.9971C78.9916 41.2764 78.8631 41.5026 78.6984 41.511C78.5336 41.5194 78.3744 41.3043 78.3604 41.0278C78.3465 40.7513 78.4749 40.5223 78.6397 40.5139C78.8045 40.5055 78.9609 40.7206 78.9776 40.9971Z" fill="#263238"/>
<path d="M102.141 37.0117H133.77" stroke="#263238" stroke-width="0.279291" stroke-linecap="round" stroke-linejoin="round"/>
<path d="M102.143 39.9893H123.785" stroke="#263238" stroke-width="0.279291" stroke-linecap="round" stroke-linejoin="round"/>
<path d="M102.143 44.8311H145.151" stroke="#263238" stroke-width="0.279291" stroke-linecap="round" stroke-linejoin="round"/>
<path d="M67.361 58.4324C67.7269 58.4324 67.8861 58.6502 67.8861 58.9909V59.2702C67.8861 59.6417 67.7129 59.8288 67.3275 59.8288H67.0985V60.7533H66.8359V58.4072L67.361 58.4324ZM67.3387 59.6194C67.5342 59.6194 67.618 59.5272 67.618 59.3038V58.9909C67.618 58.7787 67.5398 58.6698 67.3387 58.6698H67.0873V59.6194H67.3387Z" fill="#263238"/>
<path d="M68.9266 59.4707V59.7053H68.368V60.5432H69.0718V60.7806H68.1055V58.4346H69.0718V58.672H68.3485V59.4735L68.9266 59.4707Z" fill="#263238"/>
<path d="M69.8197 58.4336C70.1884 58.4336 70.342 58.6207 70.342 58.9698V59.1597C70.342 59.4195 70.2526 59.5787 70.0627 59.6429C70.2777 59.7072 70.3587 59.8803 70.3587 60.1317V60.4976C70.3517 60.5929 70.367 60.6885 70.4034 60.7768H70.1409C70.1042 60.6886 70.0889 60.5929 70.0962 60.4976V60.1289C70.0962 59.8496 69.9733 59.7798 69.7555 59.7798H69.5711V60.7824H69.3086V58.4364L69.8197 58.4336ZM69.7527 59.5508C69.9621 59.5508 70.085 59.4837 70.085 59.2296V59.0033C70.085 58.7939 70.0096 58.6822 69.8057 58.6822H69.5516V59.5508H69.7527Z" fill="#263238"/>
<path d="M71.633 58.9957V59.0571H71.3873V58.9817C71.3873 58.7695 71.3063 58.6466 71.108 58.6466C70.9097 58.6466 70.8287 58.7695 70.8287 58.9789C70.8287 59.504 71.6163 59.5543 71.6163 60.2134C71.6163 60.5681 71.4431 60.7999 71.0856 60.7999C70.7281 60.7999 70.5605 60.5681 70.5605 60.2134V60.0793H70.8035V60.2274C70.8035 60.4396 70.8929 60.5625 71.0828 60.5625C71.2727 60.5625 71.3621 60.4396 71.3621 60.2274C71.3621 59.7051 70.5773 59.6688 70.5773 58.9957C70.5773 58.6326 70.7449 58.4092 71.0968 58.4092C71.4487 58.4092 71.633 58.6522 71.633 58.9957Z" fill="#263238"/>
<path d="M71.8438 58.9995C71.8438 58.6392 72.0225 58.4102 72.38 58.4102C72.7375 58.4102 72.919 58.6392 72.919 58.9995V60.2116C72.919 60.5663 72.7431 60.8009 72.38 60.8009C72.0169 60.8009 71.8438 60.5663 71.8438 60.2116V58.9995ZM72.1035 60.2255C72.1035 60.4406 72.1929 60.5635 72.3828 60.5635C72.5727 60.5635 72.6621 60.4406 72.6621 60.2255V58.9855C72.6621 58.776 72.5727 58.6476 72.3828 58.6476C72.1929 58.6476 72.1035 58.776 72.1035 58.9855V60.2255Z" fill="#263238"/>
<path d="M73.3987 60.7787H73.1641V58.4326H73.4964L74.0382 60.1279V58.4326H74.2701V60.7787H73.9908L73.3903 58.8823L73.3987 60.7787Z" fill="#263238"/>
<path d="M74.805 60.3057L74.7129 60.7777H74.4727L74.9223 58.4316H75.2994L75.749 60.7777H75.4865L75.3971 60.3057H74.805ZM74.8385 60.0795H75.3608L75.0955 58.7277L74.8385 60.0795Z" fill="#263238"/>
<path d="M76.9871 58.4314C77.3558 58.4314 77.5122 58.6492 77.5122 58.99V59.2693C77.5122 59.6407 77.339 59.8278 76.9676 59.8278H76.7274V60.7523H76.4648V58.4062L76.9871 58.4314ZM76.9676 59.6184C77.1603 59.6184 77.2469 59.5262 77.2469 59.3028V58.99C77.2469 58.7777 77.1687 58.6688 76.9676 58.6688H76.7274V59.6184H76.9676Z" fill="#263238"/>
<path d="M78.2413 58.4326C78.61 58.4326 78.7636 58.6197 78.7636 58.9689V59.1588C78.7795 59.261 78.7589 59.3655 78.7052 59.4539C78.6515 59.5423 78.5683 59.6089 78.4703 59.6419C78.6854 59.7062 78.7664 59.8793 78.7664 60.1307V60.4966C78.7588 60.5922 78.7751 60.6882 78.8139 60.7759H78.5346C78.4979 60.6876 78.4825 60.5919 78.4899 60.4966V60.1279C78.4899 59.8486 78.367 59.7788 78.1492 59.7788H77.9648V60.7815H77.7051V58.4354L78.2413 58.4326ZM78.1743 59.5498C78.381 59.5498 78.5038 59.4827 78.5038 59.2286V59.0024C78.5038 58.7929 78.4284 58.6812 78.2246 58.6812H77.9704V59.5498H78.1743Z" fill="#263238"/>
<path d="M79.0176 58.9995C79.0176 58.6392 79.1963 58.4102 79.5538 58.4102C79.9113 58.4102 80.0928 58.6392 80.0928 58.9995V60.2116C80.0928 60.5663 79.9169 60.8009 79.5538 60.8009C79.1907 60.8009 79.0176 60.5663 79.0176 60.2116V58.9995ZM79.2773 60.2255C79.2773 60.4406 79.3667 60.5635 79.5566 60.5635C79.7465 60.5635 79.8359 60.4406 79.8359 60.2255V58.9855C79.8359 58.776 79.7465 58.6476 79.5566 58.6476C79.3667 58.6476 79.2773 58.776 79.2773 58.9855V60.2255Z" fill="#263238"/>
<path d="M81.1453 59.5241V59.7699H80.6063V60.7865H80.3438V58.4404H81.2766V58.6778H80.6063V59.5325L81.1453 59.5241Z" fill="#263238"/>
<path d="M81.7539 58.4326V60.7787H81.4746V58.4326H81.7539Z" fill="#263238"/>
<path d="M82.0137 60.7787V58.4326H82.2734V60.5413H82.9437V60.7787H82.0137Z" fill="#263238"/>
<path d="M83.9863 59.4717V59.7063H83.3998V60.5442H84.1036V60.7816H83.1484V58.4355H84.1148V58.6729H83.3998V59.4745L83.9863 59.4717Z" fill="#263238"/>
<path d="M102.59 58.9957V59.0571H102.341V58.9817C102.341 58.7695 102.263 58.6466 102.062 58.6466C101.861 58.6466 101.783 58.7695 101.783 58.9789C101.783 59.504 102.571 59.5543 102.571 60.2134C102.571 60.5681 102.4 60.7999 102.043 60.7999C101.685 60.7999 101.518 60.5681 101.518 60.2134V60.0793H101.761V60.2274C101.761 60.4396 101.847 60.5625 102.04 60.5625C102.233 60.5625 102.319 60.4396 102.319 60.2274C102.319 59.7051 101.534 59.6688 101.534 58.9957C101.534 58.6326 101.702 58.4092 102.054 58.4092C102.406 58.4092 102.59 58.6522 102.59 58.9957Z" fill="#263238"/>
<path d="M103.222 59.769L103.085 60.0008V60.7884H102.822V58.4424H103.085V59.5763L103.708 58.4424H103.97L103.378 59.4897L103.992 60.7661H103.713L103.222 59.769Z" fill="#263238"/>
<path d="M104.452 58.4336V60.7796H104.189V58.4336H104.452Z" fill="#263238"/>
<path d="M104.725 60.7777V58.4316H104.984V60.5403H105.655V60.7777H104.725Z" fill="#263238"/>
<path d="M105.854 60.7787V58.4326H106.113V60.5413H106.784V60.7787H105.854Z" fill="#263238"/>
<path d="M108.009 58.9957V59.0571H107.76V58.9817C107.76 58.7695 107.679 58.6466 107.481 58.6466C107.283 58.6466 107.202 58.7695 107.202 58.9789C107.202 59.504 107.989 59.5543 107.989 60.2134C107.989 60.5681 107.819 60.7999 107.459 60.7999C107.098 60.7999 106.934 60.5681 106.934 60.2134V60.0793H107.179V60.2274C107.179 60.4396 107.266 60.5625 107.459 60.5625C107.651 60.5625 107.738 60.4396 107.738 60.2274C107.738 59.7051 106.956 59.6688 106.956 58.9957C106.956 58.6326 107.124 58.4092 107.475 58.4092C107.827 58.4092 108.009 58.6522 108.009 58.9957Z" fill="#263238"/>
<path d="M67.8838 76.2475V76.457H67.6353V76.2335C67.6353 76.0213 67.5515 75.8956 67.356 75.8956C67.1605 75.8956 67.0767 76.0213 67.0767 76.2335V77.4736C67.0767 77.6831 67.1633 77.8115 67.356 77.8115C67.5487 77.8115 67.6353 77.6831 67.6353 77.4736V77.1692H67.8838V77.4485C67.8838 77.8032 67.7163 78.0378 67.3532 78.0378C66.9901 78.0378 66.8281 77.8032 66.8281 77.4485V76.2475C66.8281 75.8928 66.9957 75.6582 67.3532 75.6582C67.7107 75.6582 67.8838 75.89 67.8838 76.2475Z" fill="#263238"/>
<path d="M68.0996 76.2485C68.0996 75.8882 68.2756 75.6592 68.6358 75.6592C68.9961 75.6592 69.1833 75.8854 69.1833 76.2485V77.4606C69.1941 77.5362 69.1881 77.6133 69.1655 77.6863C69.143 77.7592 69.1046 77.8263 69.0531 77.8827C69.0015 77.939 68.9381 77.9833 68.8674 78.0122C68.7967 78.0411 68.7205 78.054 68.6442 78.0499C68.2839 78.0499 68.108 77.8153 68.108 77.4606L68.0996 76.2485ZM68.3566 77.4746C68.3566 77.6868 68.4487 77.8125 68.6358 77.8125C68.823 77.8125 68.9151 77.6868 68.9151 77.4746V76.2345C68.9151 76.0223 68.8286 75.8966 68.6358 75.8966C68.4431 75.8966 68.3566 76.0223 68.3566 76.2345V77.4746Z" fill="#263238"/>
<path d="M69.6584 78.0243H69.4238V75.6895H69.745L70.3036 77.3652V75.6895H70.5354V78.0355H70.2561L69.6584 76.1391V78.0243Z" fill="#263238"/>
<path d="M71.1419 78.0233V75.9147H70.709V75.6885H71.8261V75.9259H71.3932V78.0345L71.1419 78.0233Z" fill="#263238"/>
<path d="M72.141 77.5514L72.0488 78.0233H71.8086L72.2583 75.6885H72.6353L73.085 78.0345H72.8168L72.7275 77.5625L72.141 77.5514ZM72.1745 77.3251H72.6967L72.4314 75.9734L72.1745 77.3251Z" fill="#263238"/>
<path d="M74.3233 76.2475V76.457H74.0747V76.2335C74.0747 76.0213 73.9909 75.8956 73.7954 75.8956C73.5999 75.8956 73.5162 76.0213 73.5162 76.2335V77.4736C73.5162 77.6831 73.6055 77.8115 73.7954 77.8115C73.9854 77.8115 74.0747 77.6831 74.0747 77.4736V77.1692H74.3233V77.4485C74.3233 77.8032 74.1557 78.0378 73.7926 78.0378C73.4296 78.0378 73.2676 77.8032 73.2676 77.4485V76.2475C73.2676 75.8928 73.4352 75.6582 73.7926 75.6582C74.1501 75.6582 74.3233 75.89 74.3233 76.2475Z" fill="#263238"/>
<path d="M74.8969 78.0243V75.9157H74.4668V75.6895H75.584V75.9269H75.1539V78.0355L74.8969 78.0243Z" fill="#263238"/>
<path d="M102.201 78.0238H101.841L101.52 75.6777H101.776L102.056 77.6747L102.316 75.6805H102.575L102.832 77.6775L103.098 75.6777H103.324L103.008 78.0238H102.662L102.438 76.4318L102.201 78.0238Z" fill="#263238"/>
<path d="M103.512 76.2475C103.512 75.8872 103.69 75.6582 104.048 75.6582C104.405 75.6582 104.587 75.8872 104.587 76.2475V77.4596C104.587 77.8143 104.411 78.0489 104.048 78.0489C103.685 78.0489 103.512 77.8143 103.512 77.4596V76.2475ZM103.771 77.4736C103.771 77.6859 103.861 77.8115 104.051 77.8115C104.241 77.8115 104.33 77.6859 104.33 77.4736V76.2335C104.33 76.0213 104.241 75.8956 104.051 75.8956C103.861 75.8956 103.771 76.0213 103.771 76.2335V77.4736Z" fill="#263238"/>
<path d="M105.353 75.6885C105.722 75.6885 105.875 75.8756 105.875 76.2247V76.4146C105.875 76.6744 105.786 76.8336 105.596 76.8978C105.811 76.962 105.892 77.1352 105.892 77.3866V77.7524C105.885 77.8477 105.9 77.9434 105.937 78.0317H105.674C105.637 77.9435 105.622 77.8478 105.629 77.7524V77.3642C105.629 77.0989 105.507 77.0151 105.289 77.0151H105.104V78.0178H104.842V75.6885H105.353ZM105.286 76.8056C105.495 76.8056 105.618 76.7386 105.618 76.4845V76.2471C105.618 76.0376 105.54 75.9259 105.339 75.9259H105.085V76.7945L105.286 76.8056Z" fill="#263238"/>
<path d="M106.554 77.0051L106.414 77.2369V78.0245H106.154V75.6896H106.414V76.8068L107.04 75.6729H107.302L106.71 76.7425L107.322 78.0189H107.042L106.554 77.0051Z" fill="#263238"/>
<path d="M108.875 76.7172V76.9518H108.303V77.7897H109.007V78.0271H108.043V75.6895H109.007V75.9269H108.303V76.7284L108.875 76.7172Z" fill="#263238"/>
<path d="M109.831 77.0105L109.44 78.0243H109.191L109.663 76.815L109.222 75.6895H109.501L109.864 76.6279L110.23 75.6895H110.473L110.026 76.8066L110.496 78.0159H110.216L109.831 77.0105Z" fill="#263238"/>
<path d="M111.22 75.6885C111.588 75.6885 111.747 75.9063 111.747 76.261V76.5403C111.747 76.9118 111.571 77.0989 111.189 77.0989H110.957V78.0233H110.697V75.6885H111.22ZM111.2 76.8755C111.395 76.8755 111.479 76.7833 111.479 76.5599V76.2471C111.479 76.0348 111.404 75.9259 111.2 75.9259H110.949V76.8755H111.2Z" fill="#263238"/>
<path d="M112.786 76.7172V76.9518H112.211V77.7897H112.915V78.0271H111.951V75.6895H112.915V75.9269H112.211V76.7284L112.786 76.7172Z" fill="#263238"/>
<path d="M113.679 75.6895C114.048 75.6895 114.201 75.8766 114.201 76.2257V76.4156C114.201 76.6754 114.112 76.8345 113.922 76.8988C114.137 76.963 114.215 77.1362 114.215 77.3875V77.7534C114.208 77.849 114.224 77.945 114.263 78.0327H113.997C113.963 77.9438 113.949 77.8485 113.956 77.7534V77.3652C113.956 77.0999 113.83 77.0161 113.612 77.0161H113.428V78.0187H113.168V75.6895H113.679ZM113.612 76.8066C113.819 76.8066 113.944 76.7396 113.944 76.4854V76.248C113.944 76.0386 113.866 75.9269 113.665 75.9269H113.408V76.7954L113.612 76.8066Z" fill="#263238"/>
<path d="M114.738 75.6895V78.0355H114.479V75.6895H114.738Z" fill="#263238"/>
<path d="M115.841 76.7172V76.9518H115.268V77.7897H115.972V78.0271H115.006V75.6895H115.972V75.9269H115.268V76.7284L115.841 76.7172Z" fill="#263238"/>
<path d="M116.444 78.0253H116.209V75.6904H116.541L117.083 77.3662V75.6904H117.315V78.0365H117.036L116.435 76.1401L116.444 78.0253Z" fill="#263238"/>
<path d="M118.62 76.2475V76.457H118.372V76.2335C118.372 76.0213 118.288 75.8956 118.092 75.8956C117.897 75.8956 117.813 76.0213 117.813 76.2335V77.4736C117.813 77.6831 117.9 77.8115 118.092 77.8115C118.285 77.8115 118.372 77.6831 118.372 77.4736V77.1692H118.62V77.4485C118.62 77.8032 118.453 78.0378 118.09 78.0378C117.726 78.0378 117.564 77.8032 117.564 77.4485V76.2475C117.564 75.8928 117.732 75.6582 118.09 75.6582C118.447 75.6582 118.62 75.89 118.62 76.2475Z" fill="#263238"/>
<path d="M119.696 76.7163V76.9509H119.138V77.7887H119.839V78.0261H118.875V75.6885H119.839V75.9259H119.138V76.7274L119.696 76.7163Z" fill="#263238"/>
<path d="M101.787 64.2666H143.064" stroke="#263238" stroke-width="0.279291" stroke-linecap="round" stroke-linejoin="round"/>
<path d="M101.789 67.5605H143.066" stroke="#263238" stroke-width="0.279291" stroke-linecap="round" stroke-linejoin="round"/>
<path d="M101.789 70.8555H143.066" stroke="#263238" stroke-width="0.279291" stroke-linecap="round" stroke-linejoin="round"/>
<path d="M66.5215 64.2656H95.3946" stroke="#263238" stroke-width="0.279291" stroke-linecap="round" stroke-linejoin="round"/>
<path d="M66.5215 67.5596H95.3946" stroke="#263238" stroke-width="0.279291" stroke-linecap="round" stroke-linejoin="round"/>
<path d="M66.5234 70.8555H95.3966" stroke="#263238" stroke-width="0.279291" stroke-linecap="round" stroke-linejoin="round"/>
<path d="M101.789 80.5439H143.066" stroke="#263238" stroke-width="0.279291" stroke-linecap="round" stroke-linejoin="round"/>
<path d="M101.785 83.8369H143.062" stroke="#263238" stroke-width="0.279291" stroke-linecap="round" stroke-linejoin="round"/>
<path d="M101.789 87.1328H143.066" stroke="#263238" stroke-width="0.279291" stroke-linecap="round" stroke-linejoin="round"/>
<path d="M66.5215 80.5439H95.3946" stroke="#263238" stroke-width="0.279291" stroke-linecap="round" stroke-linejoin="round"/>
<path d="M66.5215 83.8359H95.3946" stroke="#263238" stroke-width="0.279291" stroke-linecap="round" stroke-linejoin="round"/>
<path d="M66.5215 87.1318H95.3946" stroke="#263238" stroke-width="0.279291" stroke-linecap="round" stroke-linejoin="round"/>
<path d="M23.3865 79.0392L18.2503 125.055C18.2503 125.055 14.4799 128.337 14.8095 129.661C15.139 130.985 19.496 128.887 20.0965 127.781C20.6969 126.675 20.9986 124.916 20.9986 124.916L31.8323 90.3198L40.1607 127.435C40.1607 127.435 43.7217 130.342 45.6851 130.242C47.6485 130.141 46.9531 129.37 45.8303 127.951C44.7076 126.533 42.1744 125.717 42.1744 125.717L40.926 77.8857L23.3865 79.0392Z" fill="#263238" stroke="#263238" stroke-width="0.279291" stroke-linecap="round" stroke-linejoin="round"/>
<path d="M40.7428 79.4324L23.2871 79.5218L23.3402 77.9522L40.6227 77.0752L40.7428 79.4324Z" fill="#696969" stroke="#263238" stroke-width="0.279291" stroke-linejoin="round"/>
<path d="M33.8663 77.9043H31.0371V79.3873H33.8663V77.9043Z" fill="white" stroke="#263238" stroke-width="0.279291" stroke-linecap="round" stroke-linejoin="round"/>
<path d="M31.1007 54.3906L24.6016 56.2954L25.4087 78.0103L40.6496 77.6304L38.7225 55.1838L31.1007 54.3906Z" fill="white" stroke="#263238" stroke-width="0.279291" stroke-linecap="round" stroke-linejoin="round"/>
<path d="M28.2582 54.6338L27.384 91.6929L19.6113 89.4558L22.7478 75.98L20.2677 56.2202L28.2582 54.6338Z" fill="#2A77DF" stroke="#263238" stroke-width="0.279291" stroke-linecap="round" stroke-linejoin="round"/>
<path d="M22.7665 79.5518L26.914 80.2025L26.7492 80.8533L22.6855 80.0405" fill="#2A77DF"/>
<path d="M22.7665 79.5518L26.914 80.2025L26.7492 80.8533L22.6855 80.0405" stroke="#263238" stroke-width="0.279291" stroke-linecap="round" stroke-linejoin="round"/>
<path d="M28.261 54.6328L24.9961 55.2808L27.7639 75.7668L28.261 54.6328Z" fill="#2A77DF" stroke="#263238" stroke-width="0.279291" stroke-linecap="round" stroke-linejoin="round"/>
<path d="M29.9141 58.7813L31.2016 60.8843L30.171 75.5052L32.6176 78.3987L33.8828 74.9215L31.925 60.9123L33.1343 58.8818L31.3775 56.6084L29.9141 58.7813Z" fill="#263238" stroke="#263238" stroke-width="0.279291" stroke-linecap="round" stroke-linejoin="round"/>
<path d="M34.8379 54.2998L39.463 91.0825L45.5236 89.3118L42.4849 74.9785L42.9485 55.0706L34.8379 54.2998Z" fill="#2A77DF" stroke="#263238" stroke-width="0.279291" stroke-linecap="round" stroke-linejoin="round"/>
<path d="M42.9338 79.4707L39.1103 80.3644L39.0293 80.9342L43.0148 79.9595" fill="#2A77DF"/>
<path d="M42.9338 79.4707L39.1103 80.3644L39.0293 80.9342L43.0148 79.9595" stroke="#263238" stroke-width="0.279291" stroke-linecap="round" stroke-linejoin="round"/>
<path d="M37.2649 73.5932L37.4828 75.7298L37.48 54.5512L34.8379 54.2998L37.2649 73.5932Z" fill="#2A77DF" stroke="#263238" stroke-width="0.279291" stroke-linecap="round" stroke-linejoin="round"/>
<path d="M31.5071 58.5058L29.0745 60.3352L27.125 55.5788L28.2226 53.8807L34.1771 53.5791L35.5875 55.4755L34.4285 59.8017L31.5071 58.5058Z" fill="white" stroke="#263238" stroke-width="0.279291" stroke-linecap="round" stroke-linejoin="round"/>
<path d="M28.7188 52.0508L29.2662 55.0755L31.5061 58.5052L33.5645 54.4639L33.436 51.9111L28.7188 52.0508Z" fill="white" stroke="#263238" stroke-width="0.279291" stroke-linecap="round" stroke-linejoin="round"/>
<path d="M33.4863 52.8971L33.4667 52.4838L31.2966 51.9727L28.7188 52.0509L29.2773 55.0756L29.8611 55.9693C29.9335 55.9438 30.0044 55.914 30.0733 55.8799C31.439 55.1901 32.883 53.5953 33.4863 52.8971Z" fill="#263238" stroke="#263238" stroke-width="0.279291" stroke-linecap="round" stroke-linejoin="round"/>
<path d="M20.2681 56.2197L9.23047 69.5782L16.5619 78.2642L19.5168 76.3427L15.8916 68.9442L21.3042 65.0286L20.2681 56.2197Z" fill="#2A77DF" stroke="#263238" stroke-width="0.279291" stroke-linecap="round" stroke-linejoin="round"/>
<path d="M15.894 68.9441L13.0312 67.4443" stroke="#263238" stroke-width="0.279291" stroke-linecap="round" stroke-linejoin="round"/>
<path d="M19.5163 76.3438L19.9604 77.3045L17.4719 78.7093L17.1367 77.9413L19.5163 76.3438Z" fill="white" stroke="#263238" stroke-width="0.279291" stroke-linecap="round" stroke-linejoin="round"/>
<path d="M19.9606 77.3037L22.491 80.6217L21.6531 81.6467L21.0471 81.3842L19.821 82.4287C19.821 82.4287 18.9216 82.1801 18.8099 81.8897C18.6982 81.5992 17.4777 80.8758 17.4526 80.3843C17.4274 79.8927 17.4526 78.7085 17.4526 78.7085L19.9606 77.3037Z" fill="white" stroke="#263238" stroke-width="0.279291" stroke-linecap="round" stroke-linejoin="round"/>
<path d="M49.0956 57.6758C49.0956 57.6758 49.3749 56.9189 49.1905 56.4525C49.0062 55.9861 48.6096 54.3634 48.6878 53.83C48.766 53.2965 49.5732 52.5145 49.6458 51.8219C49.7184 51.1292 49.6318 50.498 49.6653 50.1238C49.6989 49.7495 50.1597 49.4646 50.5535 49.9199C50.9473 50.3751 51.1847 50.8415 50.9976 51.3163C50.8104 51.7911 50.816 52.9697 50.816 52.9697C50.816 52.9697 51.4416 53.8383 51.7907 54.4025C52.1399 54.9667 52.1063 56.4525 51.8717 57.0474C51.6545 57.4897 51.3494 57.8831 50.9752 58.2037L51.0143 59.2314L49.0956 57.6758Z" fill="white" stroke="#263238" stroke-width="0.279291" stroke-linecap="round" stroke-linejoin="round"/>
<path d="M50.2455 52.1613C50.2455 52.1613 49.9662 52.9685 50.4549 53.1556C50.9437 53.3427 52.9155 53.6136 52.9378 52.9769C52.9602 52.3401 52.9937 52.0217 52.6781 52.0356C52.3625 52.0496 50.8767 52.0356 50.8767 52.0356C50.8767 52.0356 50.2008 52.0049 50.2455 52.1613Z" fill="white" stroke="#263238" stroke-width="0.279291" stroke-linecap="round" stroke-linejoin="round"/>
<path d="M50.4795 56.1361C50.4795 56.1361 50.2812 56.7393 50.6331 56.879C50.985 57.0186 52.4038 57.2225 52.4178 56.7477C52.4317 56.2729 52.4597 56.0383 52.2307 56.0495C52.0016 56.0607 50.9319 56.0495 50.9319 56.0495C50.9319 56.0495 50.4264 56.0076 50.4795 56.1361Z" fill="white" stroke="#263238" stroke-width="0.279291" stroke-linecap="round" stroke-linejoin="round"/>
<path d="M50.1973 54.8484C50.1973 54.8484 49.9683 55.5439 50.3733 55.7059C50.7783 55.8679 52.4261 56.1052 52.4428 55.5578C52.4596 55.0104 52.4903 54.72 52.225 54.7451C51.9596 54.7702 50.7224 54.7311 50.7224 54.7311C50.7224 54.7311 50.1526 54.7144 50.1973 54.8484Z" fill="white" stroke="#263238" stroke-width="0.279291" stroke-linecap="round" stroke-linejoin="round"/>
<path d="M50.056 53.6015C50.056 53.6015 49.7767 54.4114 50.2655 54.5986C50.7542 54.7857 52.726 55.0566 52.7456 54.4198C52.7651 53.783 52.8042 53.4618 52.4858 53.4786C52.1674 53.4954 50.6844 53.4786 50.6844 53.4786C50.6844 53.4786 49.9946 53.4451 50.056 53.6015Z" fill="white" stroke="#263238" stroke-width="0.279291" stroke-linecap="round" stroke-linejoin="round"/>
<path d="M48.873 58.4825L49.1803 57.248L51.3113 58.516L50.9538 59.8594L48.873 58.4825Z" fill="white" stroke="#263238" stroke-width="0.279291" stroke-linecap="round" stroke-linejoin="round"/>
<path d="M42.9377 55.0693L47.0209 63.7525L49.0262 58.1667L50.9813 60.0351L48.9704 70.3996C48.8997 70.7094 48.7424 70.9927 48.5168 71.2164C48.2912 71.4402 48.0067 71.5952 47.6964 71.6634C47.3861 71.7316 47.0628 71.7102 46.7642 71.6017C46.4656 71.4931 46.204 71.3019 46.0099 71.0504L42.7422 66.4979L42.9377 55.0693Z" fill="#2A77DF" stroke="#263238" stroke-width="0.279291" stroke-linecap="round" stroke-linejoin="round"/>
<path d="M47.0338 63.752L45.8887 66.4499" stroke="#263238" stroke-width="0.279291" stroke-linecap="round" stroke-linejoin="round"/>
<path d="M42.8296 62.6309L44.8182 69.1272L42.7402 66.499L42.8296 62.6309Z" fill="#263238" stroke="#263238" stroke-width="0.279291" stroke-linecap="round" stroke-linejoin="round"/>
<path d="M26.8164 48.5169C26.8164 48.5169 25.9785 47.6372 25.8836 48.2823C25.7886 48.9275 26.1154 50.0391 26.6293 50.4384C27.1432 50.8378 27.6096 50.1759 27.6096 50.1759L26.8164 48.5169Z" fill="white" stroke="#263238" stroke-width="0.279291" stroke-linecap="round" stroke-linejoin="round"/>
<path d="M34.62 48.1223C34.62 48.1223 35.349 47.1643 35.5249 47.7927C35.7009 48.4211 35.4719 49.5662 34.9999 50.0271C34.5279 50.4879 34 49.8651 34 49.8651L34.62 48.1223Z" fill="white" stroke="#263238" stroke-width="0.279291" stroke-linecap="round" stroke-linejoin="round"/>
<path d="M27.1484 49.4335L26.3552 47.7577C25.7207 46.867 25.281 45.8526 25.0649 44.7805C24.6879 42.9595 25.3191 41.429 26.1458 40.971C26.6114 40.6982 27.1586 40.5992 27.6902 40.6917C27.6902 40.6917 27.8466 39.622 30.4217 38.7115C32.9968 37.801 35.8427 39.4293 35.8009 39.9962C35.759 40.5632 35.0635 40.8146 35.0635 40.8146C35.0635 40.8146 37.0856 41.5603 36.3538 42.5182C35.9029 43.1009 35.3199 43.568 34.653 43.8812C34.7988 44.364 34.9181 44.8544 35.0105 45.3503C35.1138 45.9815 34.544 48.7017 34.544 48.7017L33.1476 44.8783L28.7655 45.0989C28.7655 45.0989 28.5058 46.9562 28.0449 47.6125C27.754 48.1131 27.5936 48.6788 27.5785 49.2575C27.5785 49.2575 27.3886 49.9753 27.1484 49.4335Z" fill="#696969" stroke="#263238" stroke-width="0.279291" stroke-linejoin="round"/>
<path d="M27.9294 42.5088C27.9197 43.6507 27.8357 44.7907 27.6781 45.9217C27.5845 46.5515 27.2599 47.124 26.7676 47.5276C26.7676 47.5276 27.3262 50.1195 28.0328 51.4992C28.7394 52.8789 30.214 54.0128 31.6943 53.8648C33.1745 53.7167 34.3643 52.0298 34.5039 50.6054C34.6436 49.1811 33.9454 43.9024 33.9454 43.9024C33.9454 43.9024 29.3147 44.7068 27.9294 42.5088Z" fill="white" stroke="#263238" stroke-width="0.279291" stroke-linecap="round" stroke-linejoin="round"/>
<path d="M29.9922 50.6787C29.9922 50.6787 30.7938 51.3658 32.5812 50.7569" stroke="#263238" stroke-width="0.279291" stroke-linecap="round" stroke-linejoin="round"/>
<path d="M28.3164 47.8345C28.3164 47.8345 29.1543 47.3317 29.8888 47.7535" stroke="#263238" stroke-width="0.279291" stroke-linecap="round" stroke-linejoin="round"/>
<path d="M28.2559 46.6416C28.2559 46.6416 28.348 45.8484 29.6523 45.7842" stroke="#263238" stroke-width="0.279291" stroke-linecap="round" stroke-linejoin="round"/>
<path d="M31.7656 45.6209C32.0631 45.4982 32.3921 45.4746 32.704 45.5536C33.0159 45.6326 33.294 45.81 33.4972 46.0594" stroke="#263238" stroke-width="0.279291" stroke-linecap="round" stroke-linejoin="round"/>
<path d="M31.2915 46.8916C31.2915 46.8916 31.5038 48.4584 31.5122 48.6539C31.5205 48.8494 32.1825 48.8829 32.0065 49.2879C31.8305 49.6929 31.258 50.1258 30.7832 49.8074" stroke="#263238" stroke-width="0.279291" stroke-linecap="round" stroke-linejoin="round"/>
<path d="M33.0249 47.3954C33.0249 47.6747 32.9048 47.9288 32.7233 47.9372C32.5417 47.9456 32.3853 47.7194 32.3686 47.4289C32.3518 47.1384 32.4887 46.8983 32.6702 46.8899C32.8517 46.8815 33.0109 47.1077 33.0249 47.3954Z" fill="#263238"/>
</svg>
