<svg width="224" height="129" viewBox="0 0 224 129" fill="none" xmlns="http://www.w3.org/2000/svg">
<path d="M216.822 36.3386C213.846 30.0204 209.86 24.2538 204.668 19.4416C186.811 2.89473 156.515 0.183405 131.332 7.1244C123.892 9.17572 116.61 12.2372 110.092 16.6466C105.355 19.8506 101.114 23.7208 96.3887 26.9372C91.418 30.3179 85.9845 30.1629 80.5261 29.6269C72.6703 28.8543 64.8664 27.8586 57.1142 26.6398C50.3634 25.5769 44.0911 24.04 36.983 25.5955C24.9758 28.2325 14.2919 37.5966 8.97953 48.3831C2.32194 61.9273 2.88736 77.1882 6.83593 90.5651C8.20597 95.2131 10.0172 99.7402 10.3216 104.673C10.6323 109.802 12.0955 115.091 15.3731 119.032C19.188 123.615 26.0134 125.456 31.9409 126.854C43.4356 129.568 55.8343 128.877 67.9254 126.621C79.3145 124.495 91.2503 120.48 102.813 120.904C115.787 121.381 127.275 127.077 139.633 129.961C150.693 132.543 162.505 132.942 174.236 131.452C184.879 130.098 196.638 127.734 205.461 120.529C228.761 101.469 227.425 67.7249 220.025 44.6492C219.138 41.8131 218.068 39.0371 216.822 36.3386Z" fill="#92E3A9"/>
<path d="M216.822 36.3386C213.846 30.0204 209.86 24.2538 204.668 19.4416C186.811 2.89473 156.515 0.183405 131.332 7.1244C123.892 9.17572 116.61 12.2372 110.092 16.6466C105.355 19.8506 101.114 23.7208 96.3887 26.9372C91.418 30.3179 85.9845 30.1629 80.5261 29.6269C72.6703 28.8543 64.8664 27.8586 57.1142 26.6398C50.3634 25.5769 44.0911 24.04 36.983 25.5955C24.9758 28.2325 14.2919 37.5966 8.97953 48.3831C2.32194 61.9273 2.88736 77.1882 6.83593 90.5651C8.20597 95.2131 10.0172 99.7402 10.3216 104.673C10.6323 109.802 12.0955 115.091 15.3731 119.032C19.188 123.615 26.0134 125.456 31.9409 126.854C43.4356 129.568 55.8343 128.877 67.9254 126.621C79.3145 124.495 91.2503 120.48 102.813 120.904C115.787 121.381 127.275 127.077 139.634 129.961C150.693 132.543 162.505 132.942 174.236 131.452C184.879 130.098 196.638 127.734 205.461 120.529C228.761 101.469 227.425 67.7249 220.025 44.6492C219.138 41.8131 218.068 39.0371 216.822 36.3386V36.3386Z" fill="#95979A"/>
<path d="M63.9792 3.52734C65.8092 3.52734 67.5642 4.25242 68.8582 5.54307C70.1521 6.83372 70.8791 8.58421 70.8791 10.4095V14.9583H57.0762V10.4095C57.0762 8.58421 57.8031 6.83372 59.0971 5.54307C60.3911 4.25242 62.1461 3.52734 63.9761 3.52734H63.9792Z" fill="white" stroke="#263238" stroke-width="1.20103" stroke-linecap="round" stroke-linejoin="round"/>
<path d="M63.9805 3.52717V-4.09863" stroke="#263238" stroke-width="1.20103" stroke-linecap="round" stroke-linejoin="round"/>
<path d="M163.989 3.52734C165.819 3.52734 167.574 4.25242 168.868 5.54307C170.162 6.83372 170.889 8.58421 170.889 10.4095V14.9583H157.086V10.4095C157.086 9.50543 157.265 8.61026 157.611 7.77508C157.958 6.9399 158.467 6.18108 159.108 5.54198C159.749 4.90287 160.51 4.396 161.348 4.05032C162.185 3.70465 163.083 3.52694 163.989 3.52734Z" fill="white" stroke="#263238" stroke-width="1.20103" stroke-linecap="round" stroke-linejoin="round"/>
<path d="M163.988 3.52717V-4.09863" stroke="#263238" stroke-width="1.20103" stroke-linecap="round" stroke-linejoin="round"/>
<path d="M214.834 13.5986H176.367V60.4937H214.834V13.5986Z" fill="white" stroke="#263238" stroke-width="1.20103" stroke-linecap="round" stroke-linejoin="round"/>
<path d="M214.834 13.5986H176.367V60.4937H214.834V13.5986Z" fill="white" stroke="#263238" stroke-width="1.20103" stroke-linecap="round" stroke-linejoin="round"/>
<path d="M214.836 13.5986V31.7382C212.536 34.072 209.796 35.9287 206.774 37.2011C196.795 41.2294 183.841 36.7766 191.272 22.5878C192.826 19.6659 194.229 16.6667 195.475 13.6017L214.836 13.5986Z" fill="white" stroke="#263238" stroke-width="1.20103" stroke-linecap="round" stroke-linejoin="round"/>
<path d="M214.833 43.2529V60.5094H211.602C206.98 58.9105 201.931 56.4408 201.251 53.0726C200.331 48.4928 209.617 44.8952 214.833 43.2529Z" fill="white" stroke="#263238" stroke-width="1.20103" stroke-linecap="round" stroke-linejoin="round"/>
<path d="M192.276 60.5089H176.367V53.2363C183.062 46.757 193.199 38.1737 194.88 43.7668C196.806 50.1656 192.795 56.682 192.276 60.5089Z" fill="white" stroke="#263238" stroke-width="1.20103" stroke-linecap="round" stroke-linejoin="round"/>
<path d="M186.812 30.6356C186.812 33.4739 181.117 35.3021 176.367 36.3371V19.6074C180.306 22.2971 186.812 27.2394 186.812 30.6356Z" fill="white" stroke="#263238" stroke-width="1.20103" stroke-linecap="round" stroke-linejoin="round"/>
<path d="M200.509 32.9646C203.499 32.9646 205.924 30.7366 205.924 27.9882C205.924 25.2398 203.499 23.0117 200.509 23.0117C197.518 23.0117 195.094 25.2398 195.094 27.9882C195.094 30.7366 197.518 32.9646 200.509 32.9646Z" fill="white" stroke="#263238" stroke-width="1.20103" stroke-linecap="round" stroke-linejoin="round"/>
<path d="M186.399 40.3678C186.399 41.2974 185.541 42.0597 184.485 42.0597C183.429 42.0597 182.574 41.3036 182.574 40.3678C182.574 39.432 183.432 38.6729 184.485 38.6729C185.538 38.6729 186.399 39.4382 186.399 40.3678Z" fill="white" stroke="#263238" stroke-width="1.20103" stroke-linecap="round" stroke-linejoin="round"/>
<path d="M203.174 45.462C203.174 45.9229 203.037 46.3734 202.781 46.7566C202.524 47.1398 202.159 47.4385 201.732 47.6148C201.305 47.7912 200.836 47.8374 200.382 47.7474C199.929 47.6575 199.513 47.4356 199.186 47.1097C198.859 46.7838 198.637 46.3686 198.547 45.9166C198.457 45.4646 198.503 44.9961 198.68 44.5703C198.857 44.1445 199.156 43.7806 199.54 43.5245C199.924 43.2685 200.376 43.1318 200.838 43.1318C201.458 43.1318 202.052 43.3773 202.49 43.8143C202.928 44.2513 203.174 44.844 203.174 45.462Z" fill="white" stroke="#263238" stroke-width="1.20103" stroke-linecap="round" stroke-linejoin="round"/>
<path d="M208.046 52.0278C208.046 52.1958 207.996 52.3601 207.903 52.4998C207.809 52.6395 207.676 52.7483 207.52 52.8124C207.364 52.8766 207.193 52.8932 207.028 52.8602C206.863 52.8272 206.711 52.7461 206.592 52.627C206.473 52.508 206.392 52.3564 206.36 52.1915C206.327 52.0266 206.345 51.8558 206.409 51.7007C206.474 51.5456 206.584 51.4132 206.724 51.3203C206.865 51.2274 207.03 51.1781 207.198 51.1787C207.31 51.1787 207.42 51.2007 207.523 51.2434C207.626 51.2861 207.72 51.3487 207.799 51.4276C207.878 51.5065 207.94 51.6001 207.983 51.7031C208.025 51.8061 208.047 51.9164 208.046 52.0278Z" fill="white" stroke="#263238" stroke-width="1.20103" stroke-linecap="round" stroke-linejoin="round"/>
<path d="M193.063 22.8921C194.639 21.3202 194.639 18.7716 193.063 17.1997C191.487 15.6278 188.932 15.6278 187.356 17.1997C185.78 18.7716 185.78 21.3202 187.356 22.8921C188.932 24.464 191.487 24.464 193.063 22.8921Z" fill="white" stroke="#263238" stroke-width="1.20103" stroke-linecap="round" stroke-linejoin="round"/>
<path d="M202.288 86.1288C204.03 86.1288 205.441 82.4371 205.441 77.8832C205.441 73.3294 204.03 69.6377 202.288 69.6377C200.547 69.6377 199.135 73.3294 199.135 77.8832C199.135 82.4371 200.547 86.1288 202.288 86.1288Z" fill="#92E3A9" stroke="#263238" stroke-width="1.20103" stroke-miterlimit="10"/>
<path d="M192.495 72.7979C193.48 75.8965 195.372 78.0501 196.723 77.6225C198.074 77.1949 198.367 74.341 197.382 71.2485C196.397 68.1561 194.505 65.9808 193.154 66.4208C191.802 66.8608 191.51 69.7023 192.495 72.7979Z" fill="#92E3A9" stroke="#263238" stroke-width="1.20103" stroke-miterlimit="10"/>
<path d="M215.62 91.4485C218.829 90.9062 221.24 89.3383 221.004 87.947C220.768 86.5557 217.972 85.8647 214.766 86.3977C211.56 86.9306 209.149 88.5078 209.385 89.8991C209.621 91.2904 212.414 91.9907 215.62 91.4485Z" fill="#92E3A9" stroke="#263238" stroke-width="1.20103" stroke-miterlimit="10"/>
<path d="M189.53 83.8264C192.208 86.4758 195.374 87.6254 196.601 86.3921C197.828 85.1588 196.647 82.0137 193.969 79.3612C191.291 76.7088 188.123 75.5623 186.895 76.7955C185.668 78.0288 186.849 81.174 189.53 83.8264Z" fill="#92E3A9" stroke="#263238" stroke-width="1.20103" stroke-miterlimit="10"/>
<path d="M207.992 76.5533C205.401 80.3057 204.631 84.2565 206.268 85.3844C207.905 86.5123 211.338 84.3836 213.929 80.6342C216.52 76.8848 217.29 72.9309 215.653 71.8061C214.016 70.6813 210.583 72.8039 207.992 76.5533Z" fill="#92E3A9" stroke="#263238" stroke-width="1.20103" stroke-miterlimit="10"/>
<path d="M202.068 85.7158L201.826 110.803" stroke="#263238" stroke-width="1.20103" stroke-miterlimit="10" stroke-linecap="round"/>
<path d="M202.363 74.8145L202.068 85.7155" stroke="#263238" stroke-width="1.20103" stroke-miterlimit="10" stroke-linecap="round"/>
<path d="M202.34 73.0371L202.362 73.8738" stroke="#263238" stroke-width="1.20103" stroke-miterlimit="10" stroke-linecap="round"/>
<path d="M206.284 84.8486C204.478 88.5794 203.423 92.6272 203.178 96.763V112.256" stroke="#263238" stroke-width="1.20103" stroke-miterlimit="10" stroke-linecap="round"/>
<path d="M211.695 76.5869C209.532 79.0892 207.712 81.8672 206.283 84.8479" stroke="#263238" stroke-width="1.20103" stroke-miterlimit="10" stroke-linecap="round"/>
<path d="M213.399 74.79C213.399 74.79 213.088 75.0999 212.535 75.6577" stroke="#263238" stroke-width="1.20103" stroke-miterlimit="10" stroke-linecap="round"/>
<path d="M196.404 86.0137C198.616 89.1104 200.339 92.5264 201.515 96.1432" stroke="#263238" stroke-width="1.20103" stroke-miterlimit="10" stroke-linecap="round"/>
<path d="M192.779 81.8555C194.114 83.1272 195.327 84.5192 196.405 86.0139" stroke="#263238" stroke-width="1.20103" stroke-miterlimit="10" stroke-linecap="round"/>
<path d="M188.906 78.9141C189.892 79.4674 190.817 80.1206 191.668 80.8631" stroke="#263238" stroke-width="1.20103" stroke-miterlimit="10" stroke-linecap="round"/>
<path d="M196.537 76.8564C198.283 82.338 200.625 90.4379 201.719 97.4656" stroke="#263238" stroke-width="1.20103" stroke-miterlimit="10" stroke-linecap="round"/>
<path d="M195.471 73.6064C195.781 74.536 196.145 75.6268 196.536 76.8569" stroke="#263238" stroke-width="1.20103" stroke-miterlimit="10" stroke-linecap="round"/>
<path d="M194.381 70.4609C194.381 70.4609 194.692 71.3007 195.179 72.7385" stroke="#263238" stroke-width="1.20103" stroke-miterlimit="10" stroke-linecap="round"/>
<path d="M209.547 89.1494C207.373 89.9737 204.381 92.276 203.334 95.291" stroke="#263238" stroke-width="1.20103" stroke-miterlimit="10" stroke-linecap="round"/>
<path d="M213.578 88.3311C212.198 88.3995 210.836 88.6753 209.539 89.1491" stroke="#263238" stroke-width="1.20103" stroke-miterlimit="10" stroke-linecap="round"/>
<path d="M216.188 88.396C216.188 88.396 215.8 88.3402 215.16 88.3154" stroke="#263238" stroke-width="1.20103" stroke-miterlimit="10" stroke-linecap="round"/>
<path d="M209.331 103.51C212.279 104.882 215.156 104.957 215.753 103.677C216.349 102.397 214.448 100.247 211.5 98.874C208.551 97.5013 205.675 97.4239 205.075 98.7036C204.475 99.9834 206.383 102.134 209.331 103.51Z" fill="#92E3A9" stroke="#263238" stroke-width="1.20103" stroke-miterlimit="10"/>
<path d="M209.422 99.7844C208.25 99.0604 206.976 98.5162 205.641 98.17C205.335 97.9831 204.981 97.8873 204.622 97.8939C204.262 97.9005 203.912 98.0092 203.613 98.2072C203.212 98.4737 203.346 100.463 203.346 100.463V110.803" stroke="#263238" stroke-width="1.20103" stroke-miterlimit="10" stroke-linecap="round"/>
<path d="M211.533 101.316C211.533 101.316 211.247 101.052 210.734 100.668" stroke="#263238" stroke-width="1.20103" stroke-miterlimit="10" stroke-linecap="round"/>
<path d="M188.168 91.4485C184.959 90.9062 182.551 89.3383 182.787 87.947C183.024 86.5557 185.816 85.8647 189.023 86.3977C192.229 86.9306 194.643 88.5078 194.403 89.8991C194.164 91.2904 191.371 91.9907 188.168 91.4485Z" fill="#92E3A9" stroke="#263238" stroke-width="1.20103" stroke-miterlimit="10"/>
<path d="M194.168 89.125C194.562 89.2712 194.945 89.4419 195.317 89.6363C196.615 90.3161 197.7 91.3388 198.454 92.5925C199.208 93.8462 199.602 95.2827 199.592 96.7446V110.397" stroke="#263238" stroke-width="1.20103" stroke-miterlimit="10" stroke-linecap="round"/>
<path d="M189.877 88.3154C191.341 88.3592 192.788 88.6321 194.167 89.1242" stroke="#263238" stroke-width="1.20103" stroke-miterlimit="10" stroke-linecap="round"/>
<path d="M187.604 88.3969C187.604 88.3969 187.858 88.3598 188.296 88.335" stroke="#263238" stroke-width="1.20103" stroke-miterlimit="10" stroke-linecap="round"/>
<path d="M191.388 100.813C188.57 102.433 185.712 102.756 185.003 101.532C184.295 100.308 186.01 98.0022 188.828 96.3816C191.645 94.761 194.507 94.4388 195.212 95.6627C195.917 96.8867 194.208 99.1921 191.388 100.813Z" fill="#92E3A9" stroke="#263238" stroke-width="1.20103" stroke-miterlimit="10"/>
<path d="M190.703 97.3118C191.861 96.4136 193.154 95.7025 194.534 95.2047C194.534 95.2047 198.029 94.6284 198.827 96.8811" stroke="#263238" stroke-width="1.20103" stroke-miterlimit="10" stroke-linecap="round"/>
<path d="M189.004 98.8198C189.004 98.8198 189.178 98.6277 189.498 98.3271" stroke="#263238" stroke-width="1.20103" stroke-miterlimit="10" stroke-linecap="round"/>
<path d="M198.297 97.0138C198.297 97.0138 202.416 96.2205 202.416 99.0031C202.416 101.786 199.493 104.042 198.297 107.224C197.101 110.406 194.842 110.539 193.637 107.357C192.432 104.175 194.168 98.34 198.297 97.0138Z" fill="#92E3A9" stroke="#263238" stroke-width="1.20103" stroke-miterlimit="10"/>
<path d="M201.088 97.1475C201.088 97.1475 197.496 98.6069 196.428 103.246L201.088 97.1475Z" fill="#92E3A9"/>
<path d="M201.088 97.1475C201.088 97.1475 197.496 98.6069 196.428 103.246" stroke="#263238" stroke-width="1.20103" stroke-miterlimit="10"/>
<path d="M200.822 103.245V110.803" stroke="#263238" stroke-width="1.20103" stroke-miterlimit="10" stroke-linecap="round"/>
<path d="M194.22 125.518C193.232 122.389 192.73 119.128 192.729 115.847C192.725 113.86 192.925 111.878 193.325 109.932H210.101C210.503 111.878 210.702 113.86 210.698 115.847C210.698 119.127 210.196 122.389 209.209 125.518H194.22Z" fill="#263238"/>
<path d="M210.545 112.696C210.595 113.152 210.629 113.626 210.657 114.078H192.781C192.809 113.613 192.846 113.149 192.896 112.696H210.545Z" fill="#7A7A7A"/>
<path d="M192.975 119.765C192.919 119.306 192.869 118.835 192.832 118.383H210.611C210.574 118.845 210.524 119.312 210.469 119.765H192.975Z" fill="#7A7A7A"/>
<path d="M208.544 115.922C208.538 116.066 208.576 116.208 208.652 116.33C208.728 116.453 208.839 116.549 208.97 116.608C209.102 116.667 209.248 116.686 209.391 116.661C209.533 116.636 209.664 116.57 209.768 116.47C209.873 116.37 209.944 116.242 209.975 116.101C210.005 115.96 209.992 115.814 209.938 115.68C209.884 115.547 209.792 115.432 209.672 115.352C209.553 115.271 209.412 115.228 209.267 115.228C209.174 115.226 209.081 115.242 208.994 115.276C208.907 115.31 208.828 115.36 208.761 115.425C208.694 115.489 208.64 115.566 208.602 115.652C208.565 115.737 208.545 115.829 208.544 115.922Z" fill="#8C8C8C"/>
<path d="M204.926 115.922C204.921 116.066 204.958 116.208 205.035 116.331C205.111 116.453 205.222 116.55 205.354 116.609C205.486 116.667 205.632 116.686 205.775 116.661C205.917 116.636 206.048 116.569 206.152 116.469C206.256 116.369 206.328 116.24 206.358 116.099C206.388 115.958 206.375 115.812 206.32 115.678C206.266 115.545 206.173 115.43 206.053 115.35C205.933 115.27 205.792 115.227 205.647 115.228C205.554 115.226 205.462 115.243 205.375 115.277C205.288 115.311 205.209 115.361 205.143 115.426C205.076 115.49 205.022 115.567 204.985 115.652C204.948 115.737 204.928 115.829 204.926 115.922Z" fill="#8C8C8C"/>
<path d="M201.313 115.922C201.307 116.066 201.345 116.208 201.421 116.33C201.497 116.453 201.608 116.549 201.74 116.608C201.872 116.667 202.018 116.686 202.16 116.661C202.302 116.636 202.434 116.57 202.538 116.47C202.642 116.37 202.714 116.242 202.744 116.101C202.774 115.96 202.762 115.814 202.708 115.68C202.654 115.547 202.561 115.432 202.442 115.352C202.322 115.271 202.181 115.228 202.037 115.228C201.944 115.226 201.851 115.242 201.764 115.276C201.677 115.31 201.598 115.36 201.53 115.425C201.463 115.489 201.409 115.566 201.372 115.652C201.335 115.737 201.315 115.829 201.313 115.922Z" fill="#8C8C8C"/>
<path d="M197.692 115.922C197.686 116.066 197.724 116.208 197.8 116.33C197.876 116.453 197.987 116.549 198.119 116.608C198.251 116.667 198.397 116.686 198.539 116.661C198.681 116.636 198.813 116.57 198.917 116.47C199.021 116.37 199.093 116.242 199.123 116.101C199.153 115.96 199.141 115.814 199.087 115.68C199.033 115.547 198.94 115.432 198.821 115.352C198.701 115.271 198.56 115.228 198.416 115.228C198.323 115.226 198.23 115.242 198.143 115.276C198.056 115.31 197.977 115.36 197.909 115.425C197.842 115.489 197.788 115.566 197.751 115.652C197.714 115.737 197.694 115.829 197.692 115.922Z" fill="#8C8C8C"/>
<path d="M194.075 115.922C194.069 116.066 194.107 116.208 194.183 116.331C194.259 116.453 194.371 116.55 194.502 116.609C194.634 116.667 194.781 116.686 194.923 116.661C195.065 116.636 195.197 116.569 195.301 116.469C195.405 116.369 195.476 116.24 195.506 116.099C195.536 115.958 195.523 115.812 195.469 115.678C195.414 115.545 195.321 115.43 195.201 115.35C195.081 115.27 194.94 115.227 194.796 115.228C194.702 115.226 194.61 115.243 194.523 115.277C194.437 115.311 194.358 115.361 194.291 115.426C194.224 115.49 194.171 115.567 194.133 115.652C194.096 115.737 194.076 115.829 194.075 115.922Z" fill="#8C8C8C"/>
<path d="M165.077 56.4562L164.524 54.5474C164.524 54.5474 164.338 52.9454 164.03 52.5766C163.723 52.2079 162.545 51.5913 162.113 51.1606C161.682 50.7298 161.312 50.7268 161.25 51.0986C161.188 51.4704 161.312 52.0282 161.495 52.1459C161.679 52.2637 162.3 52.8214 162.3 52.8214C162.3 52.8214 160.924 51.9631 160.551 51.6532C160.178 51.3434 158.842 50.6648 158.656 50.9127C158.469 51.1606 158.718 51.7121 158.718 51.7121C158.718 51.7121 157.916 51.5386 157.916 52.0933C157.905 52.2385 157.933 52.3843 157.998 52.5147C158.063 52.6452 158.163 52.7555 158.286 52.8338C158.286 52.8338 157.758 53.0105 157.882 53.4536C158.006 53.8967 158.727 54.2282 158.727 54.2282C158.727 54.2282 158.019 54.3429 158.389 54.848C158.758 55.353 160.324 56.357 161.126 56.7289C161.71 56.9864 162.309 57.2119 162.918 57.4044L164.894 58.8235L165.077 56.4562Z" fill="white" stroke="#263238" stroke-width="1.20103" stroke-linecap="round" stroke-linejoin="round"/>
<path d="M158.719 51.7129C158.719 51.7129 159.893 52.5774 160.138 52.8222C160.428 53.0582 160.741 53.2658 161.07 53.4419" stroke="#263238" stroke-width="1.20103" stroke-linecap="round" stroke-linejoin="round"/>
<path d="M158.324 52.8896L160.303 54.0578L160.586 54.25" stroke="#263238" stroke-width="1.20103" stroke-linecap="round" stroke-linejoin="round"/>
<path d="M162.299 52.8223L162.544 53.8696" stroke="#263238" stroke-width="1.20103" stroke-linecap="round" stroke-linejoin="round"/>
<path d="M170.389 59.3533L165.079 56.4561L164.15 58.9815L169.649 63.9734L170.389 59.3533Z" fill="#92E3A9" stroke="#263238" stroke-width="1.20103" stroke-linecap="round" stroke-linejoin="round"/>
<path d="M174.424 46.6961C174.424 46.6961 169.739 51.4959 169.313 54.2042C168.888 56.9124 168.633 70.813 168.633 70.813C168.633 70.813 171.895 71.3553 172.205 71.3553H174.178C174.178 71.3553 173.377 58.9885 173.933 54.7433C174.489 50.4982 176.521 46.6868 176.521 46.6868C175.839 46.4619 175.103 46.4652 174.424 46.6961Z" fill="#92E3A9" stroke="#263238" stroke-width="1.20103" stroke-linecap="round" stroke-linejoin="round"/>
<path d="M171.004 69.9667L171.314 78.2464C171.314 78.2464 169.45 84.1338 170.796 90.5635C171.607 94.4152 172.092 98.3282 172.246 102.261C172.246 102.261 172.868 106.813 172.868 108.988C172.868 111.163 172.141 119.855 172.141 119.855C172.141 119.855 171.414 120.89 170.588 121.925C169.761 122.96 167.683 123.583 167.369 124.404C167.055 125.225 168.612 124.921 169.854 124.921C171.236 124.858 172.598 124.579 173.893 124.094C174.514 123.784 175.863 123.989 176.176 123.784C176.49 123.58 176.9 122.337 176.798 121.404C176.695 120.472 177.627 112.298 178.252 109.087C178.876 105.877 177.941 99.6705 177.941 99.6705C177.941 99.6705 179.805 82.9037 179.911 81.8656C180.016 80.8276 181.153 76.0711 180.948 74.3111C180.743 72.551 180.535 69.756 180.535 69.3532C180.535 68.9504 171.004 69.9667 171.004 69.9667Z" fill="#263238" stroke="#263238" stroke-width="1.20103" stroke-linecap="round" stroke-linejoin="round"/>
<path d="M175.675 79.4894C175.675 79.4894 174.637 90.1518 175.053 95.119C175.47 100.086 176.197 105.676 176.716 107.021C177.234 108.366 177.856 115.406 177.856 117.374C177.856 119.341 177.961 122.641 177.961 122.641C177.961 122.641 176.097 124.5 174.743 125.12C173.388 125.74 172.879 126.257 173.603 126.567C174.326 126.877 175.678 127.187 177.952 126.877C180.226 126.567 182.205 126.567 182.516 125.737C182.826 124.906 182.724 122.734 182.724 122.734C182.724 122.734 183.243 112.8 183.243 108.037C183.243 103.275 181.789 97.79 181.789 97.79L183.031 88.8907C183.031 88.8907 185.517 84.128 185.625 79.6784C185.734 75.2287 183.24 70.0539 183.031 69.741C182.823 69.428 174.109 70.3607 174.109 70.3607" fill="#263238"/>
<path d="M175.675 79.4894C175.675 79.4894 174.637 90.1518 175.053 95.119C175.47 100.086 176.197 105.676 176.716 107.021C177.234 108.366 177.856 115.406 177.856 117.374C177.856 119.341 177.961 122.641 177.961 122.641C177.961 122.641 176.097 124.5 174.743 125.12C173.388 125.74 172.879 126.257 173.603 126.567C174.326 126.877 175.678 127.187 177.952 126.877C180.226 126.567 182.205 126.567 182.516 125.737C182.826 124.906 182.724 122.734 182.724 122.734C182.724 122.734 183.243 112.8 183.243 108.037C183.243 103.275 181.789 97.79 181.789 97.79L183.031 88.8907C183.031 88.8907 185.517 84.128 185.625 79.6784C185.734 75.2287 183.24 70.0539 183.031 69.741C182.823 69.428 174.109 70.3607 174.109 70.3607" stroke="#263238" stroke-width="1.20103" stroke-linecap="round" stroke-linejoin="round"/>
<path d="M172.766 79.1787C172.911 79.6088 173.142 80.005 173.445 80.3432C173.749 80.6815 174.118 80.9547 174.53 81.1464" stroke="white" stroke-width="1.20103" stroke-linecap="round" stroke-linejoin="round"/>
<path d="M176.813 121.407C176.811 121.381 176.811 121.355 176.813 121.329C175.446 121.949 173.9 122.05 172.463 121.615V121.199C172.407 120.741 172.303 120.291 172.153 119.854C172.153 119.854 171.426 120.889 170.599 121.924C169.773 122.959 167.694 123.582 167.381 124.403C167.067 125.224 168.623 124.921 169.866 124.921C171.247 124.857 172.61 124.578 173.905 124.093C174.526 123.784 175.874 123.988 176.188 123.784C176.502 123.579 176.915 122.34 176.813 121.407Z" fill="white" stroke="#263238" stroke-width="1.20103" stroke-linecap="round" stroke-linejoin="round"/>
<path d="M182.519 125.755C182.758 125.116 182.752 123.685 182.737 123.059C181.609 123.349 180.462 123.556 179.304 123.679L178.993 122.954C178.682 122.229 177.955 122.644 177.955 122.644C177.955 122.644 176.091 124.503 174.737 125.123C173.382 125.742 172.873 126.26 173.597 126.57C174.321 126.88 175.672 127.189 177.946 126.88C180.22 126.57 182.208 126.582 182.519 125.755Z" fill="white" stroke="#263238" stroke-width="1.20103" stroke-linecap="round" stroke-linejoin="round"/>
<path d="M174.303 48.049C174.303 48.049 169.798 53.5243 169.677 54.8165C169.556 56.1086 170.662 70.567 170.848 70.6878C171.929 71.0376 173.047 71.2612 174.179 71.354C175.042 71.354 176.089 71.2301 176.089 71.2301C176.089 71.2301 175.599 56.9576 175.968 53.9426C176.338 50.9276 178.805 48.2225 179.299 46.9304C179.793 45.6382 177.817 45.5763 177.264 45.7622C176.711 45.9481 174.303 48.049 174.303 48.049Z" fill="white" stroke="#263238" stroke-width="1.20103" stroke-linecap="round" stroke-linejoin="round"/>
<path d="M171.959 31.9303C171.959 31.9303 169.924 34.7625 170.048 35.562C170.172 36.3614 170.294 36.975 170.048 37.4057C169.803 37.8364 168.445 38.2671 168.566 38.955C168.687 39.6429 169.809 40.1945 169.809 40.1945C169.809 40.1945 170.43 43.6402 171.104 44.0089C171.779 44.3777 173.571 43.885 173.571 43.885L174.003 47.0859C174.003 47.0859 172.279 49.729 173.45 49.791C174.621 49.853 179.803 45.6698 179.803 45.6698L179.309 43.8106C179.309 43.8106 180.418 41.3503 180.48 38.8899C180.542 36.4296 178.2 32.3673 176.348 31.5058C174.497 30.6444 173.071 31.1309 171.959 31.9303Z" fill="white" stroke="#263238" stroke-width="1.20103" stroke-linecap="round" stroke-linejoin="round"/>
<path d="M173.562 43.8668L175.228 43.498L173.873 45.6516L173.562 43.8668Z" fill="#263238" stroke="#263238" stroke-width="1.20103" stroke-linecap="round" stroke-linejoin="round"/>
<path d="M170.85 40.2379C170.85 40.2379 171.897 40.6067 172.76 39.4385" stroke="#263238" stroke-width="1.20103" stroke-linecap="round" stroke-linejoin="round"/>
<path d="M172.206 36.9742C172.206 37.3151 172.054 37.594 171.867 37.594C171.681 37.594 171.525 37.3182 171.525 36.9742C171.525 36.6303 171.678 36.3545 171.867 36.3545C172.057 36.3545 172.206 36.6489 172.206 36.9742Z" fill="#263238"/>
<path d="M171.094 35.5002C171.094 35.5002 172.144 34.6388 172.7 35.6861" stroke="#263238" stroke-width="1.20103" stroke-linecap="round" stroke-linejoin="round"/>
<path d="M172.453 32.0016C172.453 32.0016 174.056 34.4619 175.231 36.0019C176.405 37.542 177.635 39.6305 177.266 40.7398C176.896 41.8491 175.6 41.4153 175.97 42.1528C176.34 42.8902 178.499 44.012 179.857 43.8756C181.214 43.7393 182.569 42.1528 183.619 40.6158C184.669 39.0789 186.21 36.2467 184.358 32.801C182.507 29.3553 179.857 27.7564 177.213 27.6355C174.569 27.5147 170.12 28.435 169.688 30.2787C169.257 32.1224 170.984 33.4796 170.984 33.4796L172.453 32.0016Z" fill="#263238" stroke="#263238" stroke-width="1.20103" stroke-linecap="round" stroke-linejoin="round"/>
<path d="M176.832 47.4954C176.832 47.4954 171.895 54.5727 171.65 56.4815C171.404 58.3902 172.821 71.7393 172.821 71.7393C174.91 71.9881 177.022 71.9881 179.112 71.7393C181.226 71.3849 183.281 70.7426 185.22 69.8305C185.22 69.8305 183.492 62.6354 183.492 61.5261C183.492 60.4168 183.924 52.8498 182.815 50.4515C181.973 48.7547 180.96 47.1476 179.792 45.6548C179.608 45.6232 179.423 45.6025 179.236 45.5928C179.05 45.5897 177.879 46.3891 176.832 47.4954Z" fill="#92E3A9" stroke="#263238" stroke-width="1.20103" stroke-linecap="round" stroke-linejoin="round"/>
<path d="M165.543 58.2627L163.94 57.4106C163.703 56.6735 163.414 55.9538 163.076 55.257C162.766 54.7643 161.905 54.8883 161.523 54.9471C161.141 55.006 160.041 54.6992 159.348 54.3925C158.656 54.0857 158.36 54.4545 158.609 54.8232C158.841 55.1224 159.111 55.391 159.411 55.6226C159.411 55.6226 156.574 55.7466 156.388 55.7466C156.201 55.7466 155.092 55.4367 155.341 56.2393C155.589 57.0418 157.683 58.4517 158.733 58.6376C159.783 58.8236 162.495 58.6996 162.495 58.6996L164.099 59.9391L165.543 58.2627Z" fill="white" stroke="#263238" stroke-width="1.20103" stroke-linecap="round" stroke-linejoin="round"/>
<path d="M159.438 55.6172L160.978 56.1099L161.78 56.3547" stroke="#263238" stroke-width="1.20103" stroke-linecap="round" stroke-linejoin="round"/>
<path d="M155.473 55.8613C155.473 55.8613 156.787 56.7042 157.069 56.8436C157.352 56.983 159.462 57.1256 159.462 57.1256" stroke="#263238" stroke-width="1.20103" stroke-linecap="round" stroke-linejoin="round"/>
<path d="M155.957 57.0137C155.957 57.0137 158.132 57.8565 158.349 57.8565C158.567 57.8565 159.617 57.81 159.617 57.81" stroke="#263238" stroke-width="1.20103" stroke-linecap="round" stroke-linejoin="round"/>
<path d="M177.266 51.4951L173.072 62.0306L165.545 58.2781L163.389 60.9832C163.389 60.9832 172.271 67.8003 172.948 68.1101C173.625 68.42 174.858 68.5408 175.107 68.3549C175.356 68.169 182.137 56.8496 182.137 56.8496" fill="#92E3A9"/>
<path d="M177.266 51.4951L173.072 62.0306L165.545 58.2781L163.389 60.9832C163.389 60.9832 172.271 67.8003 172.948 68.1101C173.625 68.42 174.858 68.5408 175.107 68.3549C175.356 68.169 182.137 56.8496 182.137 56.8496" stroke="#263238" stroke-width="1.20103" stroke-linecap="round" stroke-linejoin="round"/>
<path d="M175.501 81.5615C175.501 81.5615 174.879 93.3674 175.501 97.907C176.122 102.446 177.231 109.26 177.231 109.26" stroke="white" stroke-width="1.20103" stroke-linecap="round" stroke-linejoin="round"/>
<path d="M133.329 71.2302C133.329 71.2302 132.581 84.4615 132.441 86.9374C132.301 89.4132 132.584 102.142 133.429 103.425C134.274 104.708 135.293 117.258 135.293 117.258C135.293 117.258 134.541 117.53 134.516 117.989C134.491 118.448 134.516 119.73 134.516 119.73C134.516 119.73 132.015 121.745 130.605 122.296C129.194 122.848 129.253 123.486 130.067 123.669C130.881 123.852 133.155 124.31 134.827 123.945C136.498 123.579 138.204 122.752 138.946 122.569C139.689 122.386 140.692 122.569 141.183 122.02C141.674 121.472 141.407 119.73 141.407 119.73C141.407 119.73 141.717 119.272 141.435 117.623C141.152 115.975 140.841 115.144 140.866 114.692C140.891 114.24 140.813 99.4869 140.813 99.4869L140.841 82.906C140.841 82.906 142.211 99.1182 142.534 99.9486C142.858 100.779 145.247 113.598 145.393 114.24C145.539 114.881 145.573 117.537 145.573 117.537C145.573 117.537 144.871 118.544 144.855 118.819C144.84 119.095 145.184 121.109 145.184 121.109C145.184 121.109 142.926 123.675 141.696 124.316C140.465 124.958 141.882 125.866 143.072 125.965C144.262 126.064 145.632 126.148 147.322 125.506C149.012 124.865 151.255 122.575 151.746 122.027C152.237 121.478 151.913 120.651 151.746 120.195C151.578 119.74 151.332 119.371 151.435 119.002C151.806 117.557 152.074 116.088 152.237 114.605C152.311 113.322 152.379 112.126 152.379 112.126C152.379 112.126 152.525 104.708 152.069 101.591C151.612 98.4737 150.55 92.7969 150.55 92.7969C150.55 92.7969 149.692 78.8715 149.82 78.2332C149.947 77.5949 150.463 75.4072 150.276 73.4706C150.19 72.4527 150.032 71.4421 149.804 70.4463L133.329 71.2302Z" fill="#263238" stroke="#263238" stroke-width="1.20103" stroke-linecap="round" stroke-linejoin="round"/>
<path d="M140.455 45.6361C140.455 45.6361 133.163 48.0003 133.151 48.5488C133.138 49.0973 131.355 60.742 131.355 60.742L122.445 66.8154C122.445 66.8154 123.704 67.6644 123.93 68.4546L124.154 69.2416L133.474 66.2638C133.474 66.2638 133.005 70.8746 133.241 71.2372C133.477 71.5997 134.866 71.9654 134.866 71.9654C134.866 71.9654 143.189 72.4519 145.929 72.331C148.669 72.2102 149.827 72.0211 150.02 71.5409C150.213 71.0606 150.331 71.231 150.349 70.509C150.368 69.787 155.36 47.8206 155.367 47.455C155.362 47.2181 155.295 46.9867 155.171 46.7842C155.048 46.5818 154.873 46.4155 154.665 46.3023C154.183 46.0606 147.715 44.1797 147.715 44.1797L140.455 45.6361Z" fill="white" stroke="#263238" stroke-width="1.20103" stroke-linecap="round" stroke-linejoin="round"/>
<path d="M139.303 48.239L139.958 51.4833L136.814 67.1346L137.914 71.513L141.213 66.738L141.158 51.35L143.767 47.768L142.615 45.7012L139.303 48.239Z" fill="#92E3A9" stroke="#263238" stroke-width="1.20103" stroke-linecap="round" stroke-linejoin="round"/>
<path d="M137.062 65.8946L140.318 68.0295L141.213 66.7374L141.21 66.0154L137.525 63.6016L137.062 65.8946Z" fill="#263238"/>
<path d="M138.925 56.6357L138.428 59.1085L141.196 61.5936L141.186 58.6654L138.925 56.6357Z" fill="#263238"/>
<path d="M139.545 49.4346L139.958 51.4828L139.747 52.5301L141.167 53.7975L141.16 51.3495L141.369 51.0645L139.545 49.4346Z" fill="#263238"/>
<path d="M134.734 53.9026L134.887 52.4834" stroke="#263238" stroke-width="1.20103" stroke-linecap="round" stroke-linejoin="round"/>
<path d="M133.504 65.3466L134.566 55.4805" stroke="#263238" stroke-width="1.20103" stroke-linecap="round" stroke-linejoin="round"/>
<path d="M140.18 49.9514L138.207 45.5668L140.798 43.9307L140.18 49.9514Z" fill="white" stroke="#263238" stroke-width="1.20103" stroke-linecap="round" stroke-linejoin="round"/>
<path d="M138.208 45.5674L137.459 49.1463L139.304 48.2384L138.208 45.5674Z" fill="white" stroke="#263238" stroke-width="1.20103" stroke-linecap="round" stroke-linejoin="round"/>
<path d="M140.396 29.1137C140.396 29.1137 138.318 36.1167 138.169 39.0294C138.02 41.9421 138.911 43.1971 139.657 43.4481L140.319 43.696L140.179 49.9491L142.422 46.7823L142.614 45.6977L146.964 41.4464L147.946 38.6979C147.946 38.6979 149.611 39.0294 150.145 37.5297C150.679 36.0299 150.03 35.1964 150.03 35.1964C150.03 35.1964 152.254 32.8631 151.484 30.0278C150.714 27.1925 148.688 24.3604 144.842 24.3604C140.996 24.3604 138.361 26.6967 140.396 29.1137Z" fill="white" stroke="#263238" stroke-width="1.20103" stroke-linecap="round" stroke-linejoin="round"/>
<path d="M151.489 30.0317C150.715 27.1995 148.693 24.3643 144.846 24.3643C141 24.3643 138.36 26.6975 140.395 29.1145C140.395 29.1145 141.709 30.199 142.631 30.0441C143.554 29.8892 144.154 29.2106 145.723 30.0441C147.291 30.8776 147.444 31.5439 146.919 32.6284C146.394 33.7129 146.465 34.2118 146.704 34.6301C146.735 34.681 146.763 34.7338 146.788 34.7882L145.281 38.5468C145.281 38.5468 144.803 37.546 142.815 36.7124C140.826 35.8789 138.465 37.1307 138.465 37.1307C136.912 43.8672 140.329 43.7123 140.329 43.7123C140.329 43.7123 144.368 42.9624 145.552 41.881C146.735 40.7996 146.931 40.0466 147.04 38.8784C147.105 38.1874 147.102 36.6411 147.086 35.5008C147.195 35.8107 147.27 36.0462 147.27 36.0462C147.52 35.5694 147.949 35.2099 148.463 35.0453C148.993 34.9035 149.558 34.9631 150.047 35.2127C150.047 35.2127 152.259 32.867 151.489 30.0317Z" fill="#263238" stroke="#263238" stroke-width="1.20103" stroke-linecap="round" stroke-linejoin="round"/>
<path d="M141.972 32.6982L141.258 34.7805C141.258 34.7805 138.884 36.1997 139.394 36.364C139.903 36.5282 141.569 36.0324 141.569 36.0324" stroke="#263238" stroke-width="1.20103" stroke-linecap="round" stroke-linejoin="round"/>
<path d="M139.354 38.3652C139.354 38.3652 140.335 39.3661 142.199 38.1143" stroke="white" stroke-width="1.20103" stroke-linecap="round" stroke-linejoin="round"/>
<path d="M143.593 34.5457C143.537 34.8339 143.338 35.0446 143.152 35.0105C142.966 34.9765 142.841 34.7193 142.91 34.428C142.978 34.1367 143.164 33.9291 143.354 33.9601C143.543 33.9911 143.649 34.2545 143.593 34.5457Z" fill="#263238"/>
<path d="M140.644 34.1334C140.588 34.4247 140.389 34.6354 140.199 34.6013C140.01 34.5672 139.889 34.3069 139.96 34.0188C140.032 33.7306 140.212 33.5199 140.401 33.5509C140.591 33.5819 140.7 33.8607 140.644 34.1334Z" fill="#263238"/>
<path d="M139.971 32.3986C140.208 32.2866 140.468 32.2285 140.73 32.2285C140.993 32.2285 141.252 32.2866 141.49 32.3986" stroke="#263238" stroke-width="1.20103" stroke-linecap="round" stroke-linejoin="round"/>
<path d="M143.131 32.6031C143.454 32.5818 143.777 32.6376 144.075 32.7658C144.372 32.8941 144.634 33.0911 144.84 33.3405" stroke="#263238" stroke-width="1.20103" stroke-linecap="round" stroke-linejoin="round"/>
<path d="M142.422 46.7851L143.171 49.2671L148.589 43.7484L146.97 41.4492L142.614 45.7006L142.422 46.7851Z" fill="white" stroke="#263238" stroke-width="1.20103" stroke-linecap="round" stroke-linejoin="round"/>
<path d="M127.04 71.3544C127.04 71.3544 125.875 70.7346 126.4 70.6572C126.925 70.5797 127.838 70.9205 127.838 70.9205C127.838 70.9205 126.72 70.0901 127.288 70.1335C127.857 70.1769 128.758 70.8772 128.758 70.8772C128.758 70.8772 128.469 70.1335 129.031 70.3535C129.357 70.4747 129.652 70.6686 129.892 70.9205C129.892 70.9205 129.27 71.6611 128.736 71.7479C128.201 71.8346 128.338 71.9214 127.993 71.7913C127.649 71.6611 127.04 71.3544 127.04 71.3544Z" fill="white" stroke="#263238" stroke-width="1.20103" stroke-linecap="round" stroke-linejoin="round"/>
<path d="M135.037 67.4688C135.037 67.4688 132.048 67.4688 131.62 67.8282C131.191 68.1876 130.588 69.1141 130.377 69.2567C130.166 69.3992 127.792 69.4736 127.854 69.9725C127.917 70.4714 129.346 70.5426 129.346 70.5426L128.305 71.6148C128.305 71.6148 126.102 70.8308 125.95 71.2584C125.798 71.686 128.283 72.6156 128.855 72.6156C129.426 72.6156 130.585 72.2593 130.803 72.0455C131.02 71.8317 133.381 69.6936 133.381 69.6936C133.484 69.9291 135.199 69.5325 135.27 69.2815C135.342 69.0305 135.037 67.4688 135.037 67.4688Z" fill="white" stroke="#263238" stroke-width="1.20103" stroke-linecap="round" stroke-linejoin="round"/>
<path d="M129.33 70.5421C129.941 70.6055 130.556 70.618 131.169 70.5793C131.694 70.4925 132.325 69.752 132.325 69.752" stroke="#263238" stroke-width="1.20103" stroke-linecap="round" stroke-linejoin="round"/>
<path d="M149.586 50.7853L146.709 62.4331L135.037 67.4685L135.348 70.0187C135.348 70.0187 145.376 68.8784 147.821 68.271C150.266 67.6637 153.289 65.9656 153.683 64.6301C154.078 63.2946 156.075 49.0252 156.038 47.9345C156.001 46.8438 155.883 46.7198 155.417 46.4162C154.951 46.1125 151.363 45.4463 151.363 45.4463" fill="white"/>
<path d="M149.586 50.7853L146.709 62.4331L135.037 67.4685L135.348 70.0187C135.348 70.0187 145.376 68.8784 147.821 68.271C150.266 67.6637 153.289 65.9656 153.683 64.6301C154.078 63.2946 156.075 49.0252 156.038 47.9345C156.001 46.8438 155.883 46.7198 155.417 46.4162C154.951 46.1125 151.363 45.4463 151.363 45.4463" stroke="#263238" stroke-width="1.20103" stroke-linecap="round" stroke-linejoin="round"/>
<path d="M136.818 66.8027L137.244 69.4118" stroke="#263238" stroke-width="1.20103" stroke-linecap="round" stroke-linejoin="round"/>
<path d="M123.617 66.0869C123.885 66.1302 124.143 66.2258 124.374 66.3682C124.605 66.5107 124.806 66.6971 124.965 66.9169C125.124 67.1368 125.238 67.3857 125.3 67.6495C125.363 67.9133 125.372 68.1867 125.329 68.4543" stroke="#263238" stroke-width="1.20103" stroke-linecap="round" stroke-linejoin="round"/>
<path d="M122.446 66.8086L120.802 67.5988C120.358 67.4744 119.905 67.3791 119.448 67.3137C119.162 67.3137 118.796 67.67 117.944 67.3137C117.093 66.9573 116.391 66.4553 116.372 67.0999C116.361 67.3733 116.435 67.6436 116.583 67.8737C116.732 68.1039 116.948 68.2827 117.202 68.3858C117.631 68.5284 118.134 68.7422 118.134 68.7422L115.422 71.4597C115.422 71.4597 114.03 72.8169 114.381 73.0307C114.732 73.2445 117.904 72.5318 118.42 72.3862C118.935 72.2405 121.815 71.1002 122.26 70.527C122.704 69.9537 122.924 69.5974 122.924 69.5974L124.167 69.2317C124.167 69.2317 123.841 67.4469 122.446 66.8086Z" stroke="#263238" stroke-width="1.20103" stroke-linecap="round" stroke-linejoin="round"/>
<path d="M121.256 69.743C121.256 69.743 119.831 69.5292 119.25 69.8143C118.669 70.0993 117.852 71.3884 117.852 71.3884C117.852 71.3884 115.988 71.9585 115.537 72.3861" stroke="#263238" stroke-width="1.20103" stroke-linecap="round" stroke-linejoin="round"/>
<path d="M86.9601 75.126H78.8672V78.1534H86.9601V75.126Z" fill="white" stroke="#263238" stroke-width="1.20103" stroke-linecap="round" stroke-linejoin="round"/>
<path d="M98.5763 52.1113H67.2518C66.5432 52.1113 65.9688 52.6843 65.9688 53.3911V75.2552C65.9688 75.962 66.5432 76.535 67.2518 76.535H98.5763C99.2849 76.535 99.8594 75.962 99.8594 75.2552V53.3911C99.8594 52.6843 99.2849 52.1113 98.5763 52.1113Z" fill="#263238" stroke="#263238" stroke-width="1.20103" stroke-linecap="round" stroke-linejoin="round"/>
<path d="M65.9688 72.5938V75.2462C65.9688 75.5856 66.1039 75.9111 66.3445 76.1511C66.5852 76.3911 66.9115 76.5259 67.2518 76.5259H98.5763C98.9166 76.5259 99.243 76.3911 99.4836 76.1511C99.7242 75.9111 99.8594 75.5856 99.8594 75.2462V72.5938H65.9688Z" fill="white" stroke="#263238" stroke-width="1.20103" stroke-linecap="round" stroke-linejoin="round"/>
<path d="M121.646 52.2322L111.245 52.3158C111.245 52.3158 110.558 52.2322 110.387 52.7465C110.387 52.7465 108.582 57.2892 108.495 58.916C108.408 60.5428 108.84 60.2887 108.153 62.4298C107.467 64.571 105.488 69.6311 104.369 73.7462C102.869 79.2742 102.478 85.1461 102.384 90.8508C102.369 91.7804 101.819 99.6478 103.248 99.6478C104.435 99.6478 115.364 101.095 115.507 98.9909C116.032 90.606 114.513 82.4131 117.433 74.2605C118.567 71.0937 119.869 67.7533 120.829 64.4347C121.789 61.116 121.959 57.6796 122.59 54.2866C123.022 51.975 121.646 52.2322 121.646 52.2322Z" fill="#263238" stroke="#263238" stroke-width="1.20103" stroke-miterlimit="10"/>
<path d="M122.663 53.2577C122.56 52.0616 121.647 52.232 121.647 52.232L111.246 52.3157C111.246 52.3157 110.559 52.232 110.388 52.7464C110.388 52.7464 108.583 57.289 108.496 58.9158C108.475 59.3469 108.488 59.7789 108.534 60.208L108.754 60.5457C108.754 60.5457 109.099 63.5452 113.225 63.7157C117.35 63.8861 119.668 62.0021 120.538 60.1987C121.408 58.3953 121.74 55.4856 122.43 53.769C122.499 53.5947 122.576 53.424 122.663 53.2577Z" fill="#BABABA" stroke="#263238" stroke-width="1.20103" stroke-linecap="round" stroke-linejoin="round"/>
<path d="M120.251 56.6049C119.555 59.1117 119.974 59.8058 119.275 64.1191C118.576 68.4324 116.069 73.3004 115.09 77.7532C114.112 82.206 114.534 97.9255 114.674 98.6227C114.728 98.992 114.748 99.3653 114.733 99.7382C115.202 99.5647 115.485 99.323 115.507 98.9945C116.032 90.6096 114.513 82.4167 117.433 74.2641C118.567 71.0973 119.868 67.7569 120.828 64.4383C121.788 61.1196 121.959 57.6832 122.59 54.2902C122.854 52.871 122.438 52.431 122.074 52.2822V52.2977C121.287 53.6512 120.674 55.0983 120.251 56.6049Z" fill="#BABABA" stroke="#263238" stroke-width="1.20103" stroke-linecap="round" stroke-linejoin="round"/>
<path d="M100.169 119.904L100.098 119.848V110.165H101.493V104.045H96.3327V110.165H97.7275V120.003L85.3848 123.926V124.902C85.3848 125.197 85.5023 125.48 85.7114 125.689C85.9206 125.897 86.2043 126.014 86.5001 126.014C86.7959 126.014 87.0795 125.897 87.2887 125.689C87.4978 125.48 87.6154 125.197 87.6154 124.902V124.763L97.9357 123.566V125.041C97.9498 125.29 98.0589 125.525 98.2405 125.696C98.4222 125.867 98.6627 125.963 98.9127 125.963C99.1627 125.963 99.4033 125.867 99.5849 125.696C99.7666 125.525 99.8757 125.29 99.8898 125.041V123.517L110.63 124.756V124.896C110.63 125.191 110.747 125.474 110.956 125.682C111.165 125.891 111.449 126.008 111.745 126.008C112.041 126.008 112.324 125.891 112.533 125.682C112.743 125.474 112.86 125.191 112.86 124.896V123.92L100.169 119.904Z" fill="#263238" stroke="#263238" stroke-width="1.20103" stroke-miterlimit="10"/>
<path d="M115.056 98.0703H84.061C83.3747 98.0703 82.8184 98.6252 82.8184 99.3098V103.93C82.8184 104.614 83.3747 105.169 84.061 105.169H115.056C115.743 105.169 116.299 104.614 116.299 103.93V99.3098C116.299 98.6252 115.743 98.0703 115.056 98.0703Z" fill="#263238" stroke="#263238" stroke-width="1.20103" stroke-miterlimit="10"/>
<path d="M69.2224 125.522H67.8337L66.9297 85.0879H70.4402L69.2224 125.522Z" fill="#263238" stroke="#263238" stroke-width="1.20103" stroke-miterlimit="10"/>
<path d="M137.972 125.522H136.58L135.676 85.0879H139.186L137.972 125.522Z" fill="#263238" stroke="#263238" stroke-width="1.20103" stroke-miterlimit="10"/>
<path d="M59.7754 78.835L60.9715 126.954H62.4098L63.6059 87.0557H144.805L145.846 126.954H148.023L148.492 78.835H59.7754Z" fill="white" stroke="#263238" stroke-width="1.20103" stroke-linecap="round" stroke-linejoin="round"/>
<path d="M148.428 79.9912H59.8164V81.3236H148.428V79.9912Z" fill="#757575" stroke="#263238" stroke-width="1.20103" stroke-miterlimit="10"/>
<path d="M149.115 78.0449H57.9062V80.1489H149.115V78.0449Z" fill="white" stroke="#263238" stroke-width="1.20103" stroke-linecap="round" stroke-linejoin="round"/>
<path d="M223.666 123.366H5.63086" stroke="#263238" stroke-width="1.20103" stroke-linecap="round" stroke-linejoin="round"/>
<path d="M52.1909 79.2906C52.1909 79.2906 52.4612 81.1498 52.7066 81.723C52.952 82.2963 53.1974 83.1051 52.8712 83.6752C52.545 84.2454 49.923 85.4104 49.923 85.4104L49.8516 78.1441L52.0635 77.7939L52.1909 79.2906Z" fill="white" stroke="#263238" stroke-width="1.20103" stroke-linecap="round" stroke-linejoin="round"/>
<path d="M51.5382 81.0137C51.5382 81.0137 51.4667 81.8038 51.3052 82.6993C51.1436 83.5948 51.1095 84.6298 50.1309 84.5585" fill="white"/>
<path d="M51.5382 81.0137C51.5382 81.0137 51.4667 81.8038 51.3052 82.6993C51.1436 83.5948 51.1095 84.6298 50.1309 84.5585" stroke="#263238" stroke-width="1.20103" stroke-linecap="round" stroke-linejoin="round"/>
<path d="M49.4298 47.1475L51.0608 64.9648L52.2041 78.4687L49.5137 78.5493L48.125 66.5079L49.4298 47.1475Z" fill="white" stroke="#263238" stroke-width="1.20103" stroke-linecap="round" stroke-linejoin="round"/>
<path d="M32.0127 68.1162C32.0127 68.1162 31.2236 75.0634 31.3914 75.9558C31.5591 76.8482 32.0997 96.8904 32.0997 96.8904C32.0997 96.8904 30.9067 103.934 30.9502 105.223C30.9937 106.512 31.3759 120.7 31.3759 120.7C31.3759 120.7 30.5681 123.378 30.4439 123.973C30.3196 124.568 30.478 125.463 30.8695 125.661C31.2609 125.86 33.8332 126.157 34.933 125.971C36.0327 125.785 37.3375 125.575 37.5954 124.183C37.8533 122.792 37.0424 120.812 37.1667 120.217C37.3237 119.431 37.4275 118.635 37.4773 117.834L37.5333 116.545C37.5333 116.545 39.5775 103.45 39.5961 103.054C39.6147 102.657 40.8388 90.253 40.8388 90.253C40.8388 90.253 40.6959 107.717 40.5809 110.493C40.466 113.27 40.0341 116.347 40.0186 116.743C40.0031 117.14 39.5961 122.011 39.68 122.399C39.7639 122.786 40.4473 123.093 41.0376 123.192C41.6279 123.291 43.2278 123.192 43.5229 123.192C43.8181 123.192 45.9865 123.688 47.3814 123.688C48.7763 123.688 50.3731 123.489 50.1122 122.597C49.8512 121.704 47.602 120.812 46.9216 120.428C46.2413 120.044 45.3465 117.639 45.3465 117.639C45.3465 117.639 46.0238 115.755 46.0673 114.763C46.1108 113.772 49.1118 99.1865 49.5809 95.1179C50.05 91.0494 49.6399 72.4977 49.6399 72.4977L50.0159 68.2185C50.0159 68.2185 38.2851 70.3999 32.0127 68.1162Z" fill="#263238" stroke="#263238" stroke-width="1.20103" stroke-linecap="round" stroke-linejoin="round"/>
<path d="M35.0728 41.8581C35.0728 41.8581 31.1584 45.0311 29.3628 46.0072C27.5671 46.9833 25.5323 48.2847 25.5323 48.2847C25.5323 48.2847 23.165 68.2184 23.4104 68.9497C23.6558 69.681 24.6345 80.1761 24.6345 80.1761L28.2226 80.0305L29.1205 67.2578L30.9845 61.0605L31.2268 68.3826C31.2268 68.3826 31.0652 69.4424 31.9631 69.8483C32.8609 70.2542 40.6959 70.9824 44.6165 70.7345C48.5371 70.4866 49.755 69.024 49.9196 68.2122C50.0843 67.4003 50.3266 53.1124 50.4074 51.5662C50.4881 50.02 49.6835 45.9886 47.748 43.7297C47.2168 43.11 41.2738 42.0161 41.2738 42.0161C41.2738 42.0161 37.1947 40.7209 35.0728 41.8581Z" fill="white" stroke="#263238" stroke-width="1.20103" stroke-linecap="round" stroke-linejoin="round"/>
<path d="M40.1777 45.6641L42.3897 48.6481L41.6099 66.8155C41.6099 66.8155 43.2999 69.0218 43.5609 69.4122C43.8219 69.8026 45.9033 66.298 45.9033 66.298L43.418 48.9084L44.4587 45.7942L43.8685 43.9722L40.9451 43.0674L40.1777 45.6641Z" fill="#92E3A9" stroke="#263238" stroke-width="1.20103" stroke-linecap="round" stroke-linejoin="round"/>
<path d="M42.0703 56.1006L44.2543 54.6969L43.8784 52.0537L42.1977 53.132L42.0703 56.1006Z" fill="#263238"/>
<path d="M42.3895 48.6481L42.3429 49.7358L43.4426 48.9983L43.4302 48.9084L44.4709 45.7943L44.3653 45.4658L41.4668 47.4025L42.3895 48.6481Z" fill="#263238"/>
<path d="M45.9043 66.298L45.5936 64.2002L41.6295 66.1245L41.6016 66.8155C41.6016 66.8155 42.1887 67.5808 42.7231 68.2904L45.4973 66.9456C45.7427 66.5645 45.9043 66.298 45.9043 66.298Z" fill="#263238"/>
<path d="M41.9078 59.8687L41.7773 62.8682L45.1015 60.6588L44.7225 57.9971L41.9078 59.8687Z" fill="#263238"/>
<path d="M30.998 61.0581L34.0146 54.3867" stroke="#263238" stroke-width="1.20103" stroke-linecap="round" stroke-linejoin="round"/>
<path d="M42.9167 46.7583L44.5539 41.8562L42.373 40.7686L42.9167 46.7583Z" fill="white" stroke="#263238" stroke-width="1.20103" stroke-linecap="round" stroke-linejoin="round"/>
<path d="M44.555 41.8555L46.739 44.511L43.8809 43.9719L44.555 41.8555Z" fill="white" stroke="#263238" stroke-width="1.20103" stroke-linecap="round" stroke-linejoin="round"/>
<path d="M42.0329 26.4768C42.0329 26.4768 42.7817 29.6064 43.5863 31.4346C44.3909 33.2628 44.6084 34.4279 44.3381 36.2654C44.0678 38.1029 44.0647 38.921 43.6546 39.1255C43.1679 39.3068 42.6657 39.4437 42.1541 39.5345L42.9028 46.7482L41.1973 44.3653L35.686 39.1286L32.685 31.165C32.685 31.165 31.1317 29.2594 33.1634 26.8796C35.1952 24.4998 40.6691 24.7756 42.0329 26.4768Z" fill="white" stroke="#263238" stroke-width="1.20103" stroke-linecap="round" stroke-linejoin="round"/>
<path d="M33.4345 33.551L34.3882 33.142C34.1518 32.9339 33.9762 32.6659 33.88 32.3665C33.7837 32.067 33.7704 31.7472 33.8415 31.4408C34.1149 30.4213 36.914 29.8078 36.5722 28.9898C36.2305 28.1717 33.0244 28.0385 35.1401 27.0841C37.2557 26.1297 41.0054 27.4249 42.2357 27.5613C43.4659 27.6976 42.304 25.0452 42.304 25.0452C42.304 25.0452 44.4787 24.6361 42.7794 23.0713C41.08 21.5065 34.0465 22.4516 32.0676 24.568C30.0886 26.6844 30.5142 28.3793 31.1138 29.5258C31.7134 30.6723 32.8194 33.4054 32.8194 33.4054L33.4345 33.551Z" fill="#263238" stroke="#263238" stroke-width="1.20103" stroke-linecap="round" stroke-linejoin="round"/>
<path d="M34.3898 33.9632C34.3898 33.9632 33.026 32.5316 32.2742 33.2133C31.5224 33.895 32.6159 35.5962 33.5169 36.2066C34.4178 36.8171 35.2224 36.0703 35.2224 36.0703" fill="white"/>
<path d="M34.3898 33.9632C34.3898 33.9632 33.026 32.5316 32.2742 33.2133C31.5224 33.895 32.6159 35.5962 33.5169 36.2066C34.4178 36.8171 35.2224 36.0703 35.2224 36.0703" stroke="#263238" stroke-width="1.20103" stroke-linecap="round" stroke-linejoin="round"/>
<path d="M42.0317 29.0603C42.0317 29.0603 41.3483 28.518 41.0065 29.2648C40.8053 29.7611 40.7577 30.3061 40.8698 30.8296L43.0445 34.0987L40.9289 34.5728" stroke="#263238" stroke-width="1.20103" stroke-linecap="round" stroke-linejoin="round"/>
<path d="M41.6905 35.8686C41.2071 36.0363 40.6879 36.0742 40.1851 35.9785C39.6823 35.8828 39.2137 35.6568 38.8262 35.3232" stroke="#263238" stroke-width="1.20103" stroke-linecap="round" stroke-linejoin="round"/>
<path d="M39.1652 29.6743C39.1652 29.6743 37.3913 28.9926 36.5059 30.6256" stroke="#263238" stroke-width="1.20103" stroke-linecap="round" stroke-linejoin="round"/>
<path d="M38.9931 32.5353C39.2384 32.5353 39.4373 32.2301 39.4373 31.8536C39.4373 31.4771 39.2384 31.1719 38.9931 31.1719C38.7477 31.1719 38.5488 31.4771 38.5488 31.8536C38.5488 32.2301 38.7477 32.5353 38.9931 32.5353Z" fill="#263238"/>
<path d="M42.8502 30.9667C42.8502 31.3447 42.6514 31.6484 42.4091 31.6484C42.1668 31.6484 41.9648 31.3385 41.9648 30.9667C41.9648 30.5949 42.1637 30.2881 42.4091 30.2881C42.6545 30.2881 42.8502 30.5918 42.8502 30.9667Z" fill="#263238"/>
<path d="M42.167 39.5442L39.0293 39.2715L42.5088 43.7614L42.167 39.5442Z" fill="#263238" stroke="#263238" stroke-width="1.20103" stroke-miterlimit="10"/>
<path d="M35.6841 39.1348L34.252 41.6509L38.7566 48.1178L41.2109 44.3746L35.6841 39.1348Z" fill="white" stroke="#263238" stroke-width="1.20103" stroke-linecap="round" stroke-linejoin="round"/>
<path d="M24.7831 83.6533H29.4183C29.594 83.6533 29.7679 83.6879 29.9302 83.755C30.0925 83.8222 30.2399 83.9206 30.364 84.0447C30.4881 84.1687 30.5864 84.316 30.6534 84.478C30.7203 84.64 30.7546 84.8136 30.7541 84.9888V88.0875H23.4473V84.9888C23.4469 84.8136 23.4811 84.64 23.5481 84.478C23.615 84.316 23.7133 84.1687 23.8374 84.0447C23.9615 83.9206 24.1089 83.8222 24.2712 83.755C24.4335 83.6879 24.6074 83.6533 24.7831 83.6533V83.6533Z" stroke="#263238" stroke-width="4.80412" stroke-linecap="round" stroke-linejoin="round"/>
<path d="M36.1935 87.1924H17.8083C16.8268 87.1924 16.0312 87.9859 16.0312 88.9648V100.036C16.0312 101.015 16.8268 101.809 17.8083 101.809H36.1935C37.1749 101.809 37.9705 101.015 37.9705 100.036V88.9648C37.9705 87.9859 37.1749 87.1924 36.1935 87.1924Z" fill="#636363" stroke="#263238" stroke-width="1.20103" stroke-linecap="round" stroke-linejoin="round"/>
<path d="M28.2232 80.0303C28.2232 80.0303 28.7948 80.9227 29.3633 81.7376C29.9319 82.5526 30.9975 82.9585 30.9167 83.3644C30.8641 83.5533 30.7433 83.7161 30.5775 83.8214C30.4117 83.9267 30.2127 83.967 30.0189 83.9346C29.6927 83.854 28.3879 82.7943 28.3879 82.7943L28.6333 84.9107C28.6333 84.9107 28.9439 85.6419 28.3879 85.8867C27.8318 86.1315 27.0023 86.1315 26.8345 85.8867C26.7129 85.6789 26.6089 85.4612 26.5239 85.236C26.5239 85.236 25.1352 85.236 24.7282 84.9912C24.3212 84.7464 23.8304 84.3405 23.9112 83.2839C23.9919 82.2272 24.6474 80.1852 24.6474 80.1852L28.2232 80.0303Z" fill="white" stroke="#263238" stroke-width="1.20103" stroke-linecap="round" stroke-linejoin="round"/>
</svg>
